<svg viewBox="0 0 888 650" xmlns="http://www.w3.org/2000/svg" xmlns:xlink="http://www.w3.org/1999/xlink">
  <defs>
    <path id="arrow-right" d="M 0 0 C -2.779 1 -5.376 2.445 -7.69 4.28 L -6.14 0 L -7.69 -4.28 C -5.376 -2.445 -2.779 -1 0 0 Z"/>
    <path id="arrow-down" d="M 0 0 C 1 2.779 2.445 5.376 4.28 7.69 L 0 6.14 L -4.28 7.69 C -2.444 5.376 -1 2.770 0 0 Z" transform="rotate(180, 0, 0)"/>
    <path id="big-row-left" d="M 0 6 a 6 6 0 0 1 6 -6 l 34 0 l 0 40 l -34 0 a 6 6 0 0 1 -6 -6 Z"/>
    <path id="big-row-middle" d="M 0 0 l 40 0 l 0 40 l -40 0 Z"/>
    <path id="big-row-right" d="M 0 0 l 34 0 a 6 6 0 0 1 6 6 l 0 28 a 6 6 0 0 1 -6 6 l -34 0 Z"/>
    <rect id="vector-patch-positive" width="30" height="30" rx="6" ry="6" opacity="0.8" style="fill: #FFAB91;"/>
    <rect id="vector-patch-negative" width="30" height="30" rx="6" ry="6" opacity="0.8" style="fill: #80DEEA;"/>
    <rect id="convolutional-patch-positive" width="20" height="20" rx="6" ry="6" opacity="0.8" style="fill: #FFAB91;"/>
    <rect id="convolutional-patch-negative" width="20" height="20" rx="6" ry="6" opacity="0.8" style="fill: #80DEEA;"/>
    <path id="convolutional-feature" d="M 0 0 l 30 0 l 0 30 l -30 0 Z"/>
    <g id="vector-arrow">
      <path d="M 0 0 l 0 -16"/>
      <path d="M 0 -16 l -4 4 l 4 -4 l 4 4"/>
    </g>
    <g id="convolutional-arrow">
      <path d="M 0 0 L 0 -12"/>
      <path d="M -3 -9 L 0 -12 L 3 -9"/>
    </g>
  </defs>
  <g transform="translate(60, 0)">
    <g transform="translate(10, 10)" id="mlp-figure">
      <text x="240" y="10" class="figure-text">
        <tspan>
          In a <tspan style="font-weight: bold;">fully-connected</tspan>
          network,
        </tspan>
        <tspan x="240" dy="1.5em">
          FiLM applies a different affine
        </tspan>
        <tspan x="240" dy="1.5em">
          transformation to each feature.
        </tspan>
      </text>
      <text x="0" y="175" class="figure-text">
        <tspan>
          First, each feature (or channel)
        </tspan>
        <tspan x="0" dy="1.5em">
          is scaled by the corresponding
        </tspan>
        <tspan x="0" dy="1.5em">
          <tspan style="font-family: serif; font-weight: bold;">γ</tspan>
          parameter.
        </tspan>
      </text>
      <text x="0" y="365" class="figure-text">
        <tspan>
          Then, each feature (or channel)
        </tspan>
        <tspan x="0" dy="1.5em">
          is shifted by the corresponding
        </tspan>
        <tspan x="0" dy="1.5em">
          <tspan style="font-family: serif; font-weight: bold;">β</tspan>
          parameter.
        </tspan>
      </text>
      <image x="130" y="220" height="27" width="27" xlink:href="images/pointer.svg"/>
      <image x="130" y="410" height="27" width="27" xlink:href="images/pointer.svg"/>
      <rect x="240" y="205" width="180" height="300" class="figure-group figure-box"/>
      <g transform="translate(270, 125)" id="input-layer">
        <g transform="translate(0, 0)" class="feature">
          <use xlink:href="#big-row-left" class="figure-element"/>
          <use xlink:href="#vector-patch-negative" transform="translate(5, 5)" opacity="1" class="vector-patch"/>
          <use xlink:href="#vector-arrow" transform="translate(20, 20)" class="figure-line"/>
        </g>
        <g transform="translate(40, 0)" class="feature">
          <use xlink:href="#big-row-middle" class="figure-element"/>
          <use xlink:href="#vector-patch-negative" transform="translate(5, 5)" opacity="1" class="vector-patch"/>
          <use xlink:href="#vector-arrow" transform="translate(20, 20)" class="figure-line"/>
        </g>
        <g transform="translate(80, 0)" class="feature">
          <use xlink:href="#big-row-right" class="figure-element"/>
          <use xlink:href="#vector-patch-negative" transform="translate(5, 5)" opacity="1" class="vector-patch"/>
          <use xlink:href="#vector-arrow" transform="translate(20, 20)" class="figure-line"/>
        </g>
      </g>
      <line x1="330" y1="165" x2="330" y2="235" class="figure-line"/>
      <use xlink:href="#arrow-down" transform="translate(330, 235)" class="figure-path"/>
      <g transform="translate(0, 240)" id="gamma">
        <g transform="translate(0, 0)" class="feature">
          <use xlink:href="#big-row-left" class="figure-element"/>
          <use xlink:href="#vector-patch-negative" transform="translate(5, 5)" opacity="1" class="vector-patch"/>
          <use xlink:href="#vector-arrow" transform="translate(20, 20)" class="figure-line"/>
        </g>
        <g transform="translate(40, 0)" class="feature">
          <use xlink:href="#big-row-middle" class="figure-element"/>
          <use xlink:href="#vector-patch-negative" transform="translate(5, 5)" opacity="1" class="vector-patch"/>
          <use xlink:href="#vector-arrow" transform="translate(20, 20)" class="figure-line"/>
        </g>
        <g transform="translate(80, 0)" class="feature">
          <use xlink:href="#big-row-right" class="figure-element"/>
          <use xlink:href="#vector-patch-negative" transform="translate(5, 5)" opacity="1" class="vector-patch"/>
          <use xlink:href="#vector-arrow" transform="translate(20, 20)" class="figure-line"/>
        </g>
      </g>
      <text x="180" y="260" dy="1.5em" class="figure-text" style="font-family: serif; font-size: 20px;">γ</text>
      <line x1="120" y1="260" x2="305" y2="260" class="figure-line"/>
      <use xlink:href="#arrow-right" transform="translate(305, 260)" class="figure-path"/>
      <g transform="translate(330, 260)">
        <ellipse cx="0" cy="0" rx="20" ry="20" style="fill: #e8e8e8;" class="figure-element"/>
        <ellipse rx="2" ry="2" class="figure-path"/>
      </g>
      <line x1="330" y1="280" x2="330" y2="330" class="figure-line"/>
      <use xlink:href="#arrow-down" transform="translate(330, 330)" class="figure-path"/>
      <g transform="translate(270, 335)" id="scaled-layer">
        <g transform="translate(0, 0)" class="feature">
          <use xlink:href="#big-row-left" class="figure-element"/>
          <use xlink:href="#vector-patch-negative" transform="translate(5, 5)" opacity="1" class="vector-patch"/>
          <use xlink:href="#vector-arrow" transform="translate(20, 20)" class="figure-line"/>
        </g>
        <g transform="translate(40, 0)" class="feature">
          <use xlink:href="#big-row-middle" class="figure-element"/>
          <use xlink:href="#vector-patch-negative" transform="translate(5, 5)" opacity="1" class="vector-patch"/>
          <use xlink:href="#vector-arrow" transform="translate(20, 20)" class="figure-line"/>
        </g>
        <g transform="translate(80, 0)" class="feature">
          <use xlink:href="#big-row-right" class="figure-element"/>
          <use xlink:href="#vector-patch-negative" transform="translate(5, 5)" opacity="1" class="vector-patch"/>
          <use xlink:href="#vector-arrow" transform="translate(20, 20)" class="figure-line"/>
        </g>
      </g>
      <line x1="330" y1="375" x2="330" y2="425" class="figure-line"/>
      <use xlink:href="#arrow-down" transform="translate(330, 425)" class="figure-path"/>
      <g transform="translate(0, 430)" id="beta">
        <g transform="translate(0, 0)" class="feature">
          <use xlink:href="#big-row-left" class="figure-element"/>
          <use xlink:href="#vector-patch-negative" transform="translate(5, 5)" opacity="1" class="vector-patch"/>
          <use xlink:href="#vector-arrow" transform="translate(20, 20)" class="figure-line"/>
        </g>
        <g transform="translate(40, 0)" class="feature">
          <use xlink:href="#big-row-middle" class="figure-element"/>
          <use xlink:href="#vector-patch-negative" transform="translate(5, 5)" opacity="1" class="vector-patch"/>
          <use xlink:href="#vector-arrow" transform="translate(20, 20)" class="figure-line"/>
        </g>
        <g transform="translate(80, 0)" class="feature">
          <use xlink:href="#big-row-right" class="figure-element"/>
          <use xlink:href="#vector-patch-negative" transform="translate(5, 5)" opacity="1" class="vector-patch"/>
          <use xlink:href="#vector-arrow" transform="translate(20, 20)" class="figure-line"/>
        </g>
      </g>
      <text x="180" y="450" dy="1.5em" class="figure-text" style="font-family: serif; font-size: 20px;">β</text>
      <line x1="120" y1="450" x2="305" y2="450" class="figure-line"/>
      <use xlink:href="#arrow-right" transform="translate(305, 450)" class="figure-path"/>
      <g transform="translate(330, 450)">
        <ellipse cx="0" cy="0" rx="20" ry="20" style="fill: #e8e8e8;" class="figure-element"/>
        <line x1="0" y1="7.5" x2="0" y2="-7.5" class="figure-line"/>
        <line x1="-7.5" y1="0" x2="7.5" y2="0" class="figure-line"/>
      </g>
      <line x1="330" y1="470" x2="330" y2="545" class="figure-line"/>
      <use xlink:href="#arrow-down" transform="translate(330, 545)" class="figure-path"/>
      <g transform="translate(270, 550)" id="shifted-layer">
        <g transform="translate(0, 0)" class="feature">
          <use xlink:href="#big-row-left" class="figure-element"/>
          <use xlink:href="#vector-patch-negative" transform="translate(5, 5)" opacity="1" class="vector-patch"/>
          <use xlink:href="#vector-arrow" transform="translate(20, 20)" class="figure-line"/>
        </g>
        <g transform="translate(40, 0)" class="feature">
          <use xlink:href="#big-row-middle" class="figure-element"/>
          <use xlink:href="#vector-patch-negative" transform="translate(5, 5)" opacity="1" class="vector-patch"/>
          <use xlink:href="#vector-arrow" transform="translate(20, 20)" class="figure-line"/>
        </g>
        <g transform="translate(80, 0)" class="feature">
          <use xlink:href="#big-row-right" class="figure-element"/>
          <use xlink:href="#vector-patch-negative" transform="translate(5, 5)" opacity="1" class="vector-patch"/>
          <use xlink:href="#vector-arrow" transform="translate(20, 20)" class="figure-line"/>
        </g>
      </g>
    </g>
    <g transform="translate(422, 10)" id="cnn-figure">
      <text x="182" y="10" class="figure-text">
        <tspan>
          In a <tspan style="font-weight: bold;">convolutional</tspan>
          network,
        </tspan>
        <tspan x="182" dy="1.5em">
          FiLM applies a different affine
        </tspan>
        <tspan x="182" dy="1.5em">
          transformation to each channel,
        </tspan>
        <tspan x="182" dy="1.5em">
          consistent across spatial locations.
        </tspan>
      </text>
      <rect x="182" y="205" width="180" height="300" class="figure-group figure-box"/>
      <g transform="translate(249.5, 120)" id="input-layer">
        <g>
          <g transform="matrix(1, 0, -0.5, 0.5, 0, 0)" class="feature">
            <use xlink:href="#convolutional-feature" class="figure-element"/>
            <use xlink:href="#convolutional-patch-negative" transform="translate(5, 5)" opacity="1" class="convolutional-patch"/>
            <use xlink:href="#convolutional-arrow" transform="translate(15, 15)" class="figure-line"/>
          </g>
          <g transform="matrix(1, 0, -0.5, 0.5, 30, 0)" class="feature">
            <use xlink:href="#convolutional-feature" class="figure-element"/>
            <use xlink:href="#convolutional-patch-negative" transform="translate(5, 5)" opacity="1" class="convolutional-patch"/>
            <use xlink:href="#convolutional-arrow" transform="translate(15, 15)" class="figure-line"/>
          </g>
          <g transform="matrix(1, 0, -0.5, 0.5, 60, 0)" class="feature">
            <use xlink:href="#convolutional-feature" class="figure-element"/>
            <use xlink:href="#convolutional-patch-negative" transform="translate(5, 5)" opacity="1" class="convolutional-patch"/>
            <use xlink:href="#convolutional-arrow" transform="translate(15, 15)" class="figure-line"/>
          </g>
          <g transform="matrix(1, 0, -0.5, 0.5, -15, 15)" class="feature">
            <use xlink:href="#convolutional-feature" class="figure-element"/>
            <use xlink:href="#convolutional-patch-negative" transform="translate(5, 5)" opacity="1" class="convolutional-patch"/>
            <use xlink:href="#convolutional-arrow" transform="translate(15, 15)" class="figure-line"/>
          </g>
          <g transform="matrix(1, 0, -0.5, 0.5, 15, 15)" class="feature">
            <use xlink:href="#convolutional-feature" class="figure-element"/>
            <use xlink:href="#convolutional-patch-negative" transform="translate(5, 5)" opacity="1" class="convolutional-patch"/>
            <use xlink:href="#convolutional-arrow" transform="translate(15, 15)" class="figure-line"/>
          </g>
          <g transform="matrix(1, 0, -0.5, 0.5, 45, 15)" class="feature">
            <use xlink:href="#convolutional-feature" class="figure-element"/>
            <use xlink:href="#convolutional-patch-negative" transform="translate(5, 5)" opacity="1" class="convolutional-patch"/>
            <use xlink:href="#convolutional-arrow" transform="translate(15, 15)" class="figure-line"/>
          </g>
          <g transform="matrix(1, 0, -0.5, 0.5, -30, 30)" class="feature">
            <use xlink:href="#convolutional-feature" class="figure-element"/>
            <use xlink:href="#convolutional-patch-negative" transform="translate(5, 5)" opacity="1" class="convolutional-patch"/>
            <use xlink:href="#convolutional-arrow" transform="translate(15, 15)" class="figure-line"/>
          </g>
          <g transform="matrix(1, 0, -0.5, 0.5, 0, 30)" class="feature">
            <use xlink:href="#convolutional-feature" class="figure-element"/>
            <use xlink:href="#convolutional-patch-negative" transform="translate(5, 5)" opacity="1" class="convolutional-patch"/>
            <use xlink:href="#convolutional-arrow" transform="translate(15, 15)" class="figure-line"/>
          </g>
          <g transform="matrix(1, 0, -0.5, 0.5, 30, 30)" class="feature">
            <use xlink:href="#convolutional-feature" class="figure-element"/>
            <use xlink:href="#convolutional-patch-negative" transform="translate(5, 5)" opacity="1" class="convolutional-patch"/>
            <use xlink:href="#convolutional-arrow" transform="translate(15, 15)" class="figure-line"/>
          </g>
        </g>
        <g transform="translate(0, -20)">
          <g transform="matrix(1, 0, -0.5, 0.5, 0, 0)" class="feature">
            <use xlink:href="#convolutional-feature" class="figure-element"/>
            <use xlink:href="#convolutional-patch-negative" transform="translate(5, 5)" opacity="1" class="convolutional-patch"/>
            <use xlink:href="#convolutional-arrow" transform="translate(15, 15)" class="figure-line"/>
          </g>
          <g transform="matrix(1, 0, -0.5, 0.5, 30, 0)" class="feature">
            <use xlink:href="#convolutional-feature" class="figure-element"/>
            <use xlink:href="#convolutional-patch-negative" transform="translate(5, 5)" opacity="1" class="convolutional-patch"/>
            <use xlink:href="#convolutional-arrow" transform="translate(15, 15)" class="figure-line"/>
          </g>
          <g transform="matrix(1, 0, -0.5, 0.5, 60, 0)" class="feature">
            <use xlink:href="#convolutional-feature" class="figure-element"/>
            <use xlink:href="#convolutional-patch-negative" transform="translate(5, 5)" opacity="1" class="convolutional-patch"/>
            <use xlink:href="#convolutional-arrow" transform="translate(15, 15)" class="figure-line"/>
          </g>
          <g transform="matrix(1, 0, -0.5, 0.5, -15, 15)" class="feature">
            <use xlink:href="#convolutional-feature" class="figure-element"/>
            <use xlink:href="#convolutional-patch-negative" transform="translate(5, 5)" opacity="1" class="convolutional-patch"/>
            <use xlink:href="#convolutional-arrow" transform="translate(15, 15)" class="figure-line"/>
          </g>
          <g transform="matrix(1, 0, -0.5, 0.5, 15, 15)" class="feature">
            <use xlink:href="#convolutional-feature" class="figure-element"/>
            <use xlink:href="#convolutional-patch-negative" transform="translate(5, 5)" opacity="1" class="convolutional-patch"/>
            <use xlink:href="#convolutional-arrow" transform="translate(15, 15)" class="figure-line"/>
          </g>
          <g transform="matrix(1, 0, -0.5, 0.5, 45, 15)" class="feature">
            <use xlink:href="#convolutional-feature" class="figure-element"/>
            <use xlink:href="#convolutional-patch-negative" transform="translate(5, 5)" opacity="1" class="convolutional-patch"/>
            <use xlink:href="#convolutional-arrow" transform="translate(15, 15)" class="figure-line"/>
          </g>
          <g transform="matrix(1, 0, -0.5, 0.5, -30, 30)" class="feature">
            <use xlink:href="#convolutional-feature" class="figure-element"/>
            <use xlink:href="#convolutional-patch-negative" transform="translate(5, 5)" opacity="1" class="convolutional-patch"/>
            <use xlink:href="#convolutional-arrow" transform="translate(15, 15)" class="figure-line"/>
          </g>
          <g transform="matrix(1, 0, -0.5, 0.5, 0, 30)" class="feature">
            <use xlink:href="#convolutional-feature" class="figure-element"/>
            <use xlink:href="#convolutional-patch-negative" transform="translate(5, 5)" opacity="1" class="convolutional-patch"/>
            <use xlink:href="#convolutional-arrow" transform="translate(15, 15)" class="figure-line"/>
          </g>
          <g transform="matrix(1, 0, -0.5, 0.5, 30, 30)" class="feature">
            <use xlink:href="#convolutional-feature" class="figure-element"/>
            <use xlink:href="#convolutional-patch-negative" transform="translate(5, 5)" opacity="1" class="convolutional-patch"/>
            <use xlink:href="#convolutional-arrow" transform="translate(15, 15)" class="figure-line"/>
          </g>
        </g>
        <g transform="translate(0, -40)">
          <g transform="matrix(1, 0, -0.5, 0.5, 0, 0)" class="feature">
            <use xlink:href="#convolutional-feature" class="figure-element"/>
            <use xlink:href="#convolutional-patch-negative" transform="translate(5, 5)" opacity="1" class="convolutional-patch"/>
            <use xlink:href="#convolutional-arrow" transform="translate(15, 15)" class="figure-line"/>
          </g>
          <g transform="matrix(1, 0, -0.5, 0.5, 30, 0)" class="feature">
            <use xlink:href="#convolutional-feature" class="figure-element"/>
            <use xlink:href="#convolutional-patch-negative" transform="translate(5, 5)" opacity="1" class="convolutional-patch"/>
            <use xlink:href="#convolutional-arrow" transform="translate(15, 15)" class="figure-line"/>
          </g>
          <g transform="matrix(1, 0, -0.5, 0.5, 60, 0)" class="feature">
            <use xlink:href="#convolutional-feature" class="figure-element"/>
            <use xlink:href="#convolutional-patch-negative" transform="translate(5, 5)" opacity="1" class="convolutional-patch"/>
            <use xlink:href="#convolutional-arrow" transform="translate(15, 15)" class="figure-line"/>
          </g>
          <g transform="matrix(1, 0, -0.5, 0.5, -15, 15)" class="feature">
            <use xlink:href="#convolutional-feature" class="figure-element"/>
            <use xlink:href="#convolutional-patch-negative" transform="translate(5, 5)" opacity="1" class="convolutional-patch"/>
            <use xlink:href="#convolutional-arrow" transform="translate(15, 15)" class="figure-line"/>
          </g>
          <g transform="matrix(1, 0, -0.5, 0.5, 15, 15)" class="feature">
            <use xlink:href="#convolutional-feature" class="figure-element"/>
            <use xlink:href="#convolutional-patch-negative" transform="translate(5, 5)" opacity="1" class="convolutional-patch"/>
            <use xlink:href="#convolutional-arrow" transform="translate(15, 15)" class="figure-line"/>
          </g>
          <g transform="matrix(1, 0, -0.5, 0.5, 45, 15)" class="feature">
            <use xlink:href="#convolutional-feature" class="figure-element"/>
            <use xlink:href="#convolutional-patch-negative" transform="translate(5, 5)" opacity="1" class="convolutional-patch"/>
            <use xlink:href="#convolutional-arrow" transform="translate(15, 15)" class="figure-line"/>
          </g>
          <g transform="matrix(1, 0, -0.5, 0.5, -30, 30)" class="feature">
            <use xlink:href="#convolutional-feature" class="figure-element"/>
            <use xlink:href="#convolutional-patch-negative" transform="translate(5, 5)" opacity="1" class="convolutional-patch"/>
            <use xlink:href="#convolutional-arrow" transform="translate(15, 15)" class="figure-line"/>
          </g>
          <g transform="matrix(1, 0, -0.5, 0.5, 0, 30)" class="feature">
            <use xlink:href="#convolutional-feature" class="figure-element"/>
            <use xlink:href="#convolutional-patch-negative" transform="translate(5, 5)" opacity="1" class="convolutional-patch"/>
            <use xlink:href="#convolutional-arrow" transform="translate(15, 15)" class="figure-line"/>
          </g>
          <g transform="matrix(1, 0, -0.5, 0.5, 30, 30)" class="feature">
            <use xlink:href="#convolutional-feature" class="figure-element"/>
            <use xlink:href="#convolutional-patch-negative" transform="translate(5, 5)" opacity="1" class="convolutional-patch"/>
            <use xlink:href="#convolutional-arrow" transform="translate(15, 15)" class="figure-line"/>
          </g>
        </g>
      </g>
      <line x1="272" y1="170" x2="272" y2="235" class="figure-line"/>
      <use xlink:href="#arrow-down" transform="translate(272, 235)" class="figure-path"/>
      <text x="120" y="260" dy="1.5em" class="figure-text" style="font-family: serif; font-size: 20px;">γ</text>
      <path d="M90,240Q100,260,247,260" class="figure-line"/>
      <use xlink:href="#arrow-right" transform="translate(247, 260)" class="figure-path"/>
      <g transform="translate(272, 260)">
        <ellipse cx="0" cy="0" rx="20" ry="20" style="fill: #e8e8e8;" class="figure-element"/>
        <ellipse rx="2" ry="2" class="figure-path"/>
      </g>
      <line x1="272" y1="280" x2="272" y2="312.5" class="figure-line"/>
      <use xlink:href="#arrow-down" transform="translate(272, 312.5)" class="figure-path"/>
      <g transform="translate(249.5, 357.5)" id="scaled-layer">
        <g>
          <g transform="matrix(1, 0, -0.5, 0.5, 0, 0)" class="feature">
            <use xlink:href="#convolutional-feature" class="figure-element"/>
            <use xlink:href="#convolutional-patch-negative" transform="translate(5, 5)" opacity="1" class="convolutional-patch"/>
            <use xlink:href="#convolutional-arrow" transform="translate(15, 15)" class="figure-line"/>
          </g>
          <g transform="matrix(1, 0, -0.5, 0.5, 30, 0)" class="feature">
            <use xlink:href="#convolutional-feature" class="figure-element"/>
            <use xlink:href="#convolutional-patch-negative" transform="translate(5, 5)" opacity="1" class="convolutional-patch"/>
            <use xlink:href="#convolutional-arrow" transform="translate(15, 15)" class="figure-line"/>
          </g>
          <g transform="matrix(1, 0, -0.5, 0.5, 60, 0)" class="feature">
            <use xlink:href="#convolutional-feature" class="figure-element"/>
            <use xlink:href="#convolutional-patch-negative" transform="translate(5, 5)" opacity="1" class="convolutional-patch"/>
            <use xlink:href="#convolutional-arrow" transform="translate(15, 15)" class="figure-line"/>
          </g>
          <g transform="matrix(1, 0, -0.5, 0.5, -15, 15)" class="feature">
            <use xlink:href="#convolutional-feature" class="figure-element"/>
            <use xlink:href="#convolutional-patch-negative" transform="translate(5, 5)" opacity="1" class="convolutional-patch"/>
            <use xlink:href="#convolutional-arrow" transform="translate(15, 15)" class="figure-line"/>
          </g>
          <g transform="matrix(1, 0, -0.5, 0.5, 15, 15)" class="feature">
            <use xlink:href="#convolutional-feature" class="figure-element"/>
            <use xlink:href="#convolutional-patch-negative" transform="translate(5, 5)" opacity="1" class="convolutional-patch"/>
            <use xlink:href="#convolutional-arrow" transform="translate(15, 15)" class="figure-line"/>
          </g>
          <g transform="matrix(1, 0, -0.5, 0.5, 45, 15)" class="feature">
            <use xlink:href="#convolutional-feature" class="figure-element"/>
            <use xlink:href="#convolutional-patch-negative" transform="translate(5, 5)" opacity="1" class="convolutional-patch"/>
            <use xlink:href="#convolutional-arrow" transform="translate(15, 15)" class="figure-line"/>
          </g>
          <g transform="matrix(1, 0, -0.5, 0.5, -30, 30)" class="feature">
            <use xlink:href="#convolutional-feature" class="figure-element"/>
            <use xlink:href="#convolutional-patch-negative" transform="translate(5, 5)" opacity="1" class="convolutional-patch"/>
            <use xlink:href="#convolutional-arrow" transform="translate(15, 15)" class="figure-line"/>
          </g>
          <g transform="matrix(1, 0, -0.5, 0.5, 0, 30)" class="feature">
            <use xlink:href="#convolutional-feature" class="figure-element"/>
            <use xlink:href="#convolutional-patch-negative" transform="translate(5, 5)" opacity="1" class="convolutional-patch"/>
            <use xlink:href="#convolutional-arrow" transform="translate(15, 15)" class="figure-line"/>
          </g>
          <g transform="matrix(1, 0, -0.5, 0.5, 30, 30)" class="feature">
            <use xlink:href="#convolutional-feature" class="figure-element"/>
            <use xlink:href="#convolutional-patch-negative" transform="translate(5, 5)" opacity="1" class="convolutional-patch"/>
            <use xlink:href="#convolutional-arrow" transform="translate(15, 15)" class="figure-line"/>
          </g>
        </g>
        <g transform="translate(0, -20)">
          <g transform="matrix(1, 0, -0.5, 0.5, 0, 0)" class="feature">
            <use xlink:href="#convolutional-feature" class="figure-element"/>
            <use xlink:href="#convolutional-patch-negative" transform="translate(5, 5)" opacity="1" class="convolutional-patch"/>
            <use xlink:href="#convolutional-arrow" transform="translate(15, 15)" class="figure-line"/>
          </g>
          <g transform="matrix(1, 0, -0.5, 0.5, 30, 0)" class="feature">
            <use xlink:href="#convolutional-feature" class="figure-element"/>
            <use xlink:href="#convolutional-patch-negative" transform="translate(5, 5)" opacity="1" class="convolutional-patch"/>
            <use xlink:href="#convolutional-arrow" transform="translate(15, 15)" class="figure-line"/>
          </g>
          <g transform="matrix(1, 0, -0.5, 0.5, 60, 0)" class="feature">
            <use xlink:href="#convolutional-feature" class="figure-element"/>
            <use xlink:href="#convolutional-patch-negative" transform="translate(5, 5)" opacity="1" class="convolutional-patch"/>
            <use xlink:href="#convolutional-arrow" transform="translate(15, 15)" class="figure-line"/>
          </g>
          <g transform="matrix(1, 0, -0.5, 0.5, -15, 15)" class="feature">
            <use xlink:href="#convolutional-feature" class="figure-element"/>
            <use xlink:href="#convolutional-patch-negative" transform="translate(5, 5)" opacity="1" class="convolutional-patch"/>
            <use xlink:href="#convolutional-arrow" transform="translate(15, 15)" class="figure-line"/>
          </g>
          <g transform="matrix(1, 0, -0.5, 0.5, 15, 15)" class="feature">
            <use xlink:href="#convolutional-feature" class="figure-element"/>
            <use xlink:href="#convolutional-patch-negative" transform="translate(5, 5)" opacity="1" class="convolutional-patch"/>
            <use xlink:href="#convolutional-arrow" transform="translate(15, 15)" class="figure-line"/>
          </g>
          <g transform="matrix(1, 0, -0.5, 0.5, 45, 15)" class="feature">
            <use xlink:href="#convolutional-feature" class="figure-element"/>
            <use xlink:href="#convolutional-patch-negative" transform="translate(5, 5)" opacity="1" class="convolutional-patch"/>
            <use xlink:href="#convolutional-arrow" transform="translate(15, 15)" class="figure-line"/>
          </g>
          <g transform="matrix(1, 0, -0.5, 0.5, -30, 30)" class="feature">
            <use xlink:href="#convolutional-feature" class="figure-element"/>
            <use xlink:href="#convolutional-patch-negative" transform="translate(5, 5)" opacity="1" class="convolutional-patch"/>
            <use xlink:href="#convolutional-arrow" transform="translate(15, 15)" class="figure-line"/>
          </g>
          <g transform="matrix(1, 0, -0.5, 0.5, 0, 30)" class="feature">
            <use xlink:href="#convolutional-feature" class="figure-element"/>
            <use xlink:href="#convolutional-patch-negative" transform="translate(5, 5)" opacity="1" class="convolutional-patch"/>
            <use xlink:href="#convolutional-arrow" transform="translate(15, 15)" class="figure-line"/>
          </g>
          <g transform="matrix(1, 0, -0.5, 0.5, 30, 30)" class="feature">
            <use xlink:href="#convolutional-feature" class="figure-element"/>
            <use xlink:href="#convolutional-patch-negative" transform="translate(5, 5)" opacity="1" class="convolutional-patch"/>
            <use xlink:href="#convolutional-arrow" transform="translate(15, 15)" class="figure-line"/>
          </g>
        </g>
        <g transform="translate(0, -40)">
          <g transform="matrix(1, 0, -0.5, 0.5, 0, 0)" class="feature">
            <use xlink:href="#convolutional-feature" class="figure-element"/>
            <use xlink:href="#convolutional-patch-negative" transform="translate(5, 5)" opacity="1" class="convolutional-patch"/>
            <use xlink:href="#convolutional-arrow" transform="translate(15, 15)" class="figure-line"/>
          </g>
          <g transform="matrix(1, 0, -0.5, 0.5, 30, 0)" class="feature">
            <use xlink:href="#convolutional-feature" class="figure-element"/>
            <use xlink:href="#convolutional-patch-negative" transform="translate(5, 5)" opacity="1" class="convolutional-patch"/>
            <use xlink:href="#convolutional-arrow" transform="translate(15, 15)" class="figure-line"/>
          </g>
          <g transform="matrix(1, 0, -0.5, 0.5, 60, 0)" class="feature">
            <use xlink:href="#convolutional-feature" class="figure-element"/>
            <use xlink:href="#convolutional-patch-negative" transform="translate(5, 5)" opacity="1" class="convolutional-patch"/>
            <use xlink:href="#convolutional-arrow" transform="translate(15, 15)" class="figure-line"/>
          </g>
          <g transform="matrix(1, 0, -0.5, 0.5, -15, 15)" class="feature">
            <use xlink:href="#convolutional-feature" class="figure-element"/>
            <use xlink:href="#convolutional-patch-negative" transform="translate(5, 5)" opacity="1" class="convolutional-patch"/>
            <use xlink:href="#convolutional-arrow" transform="translate(15, 15)" class="figure-line"/>
          </g>
          <g transform="matrix(1, 0, -0.5, 0.5, 15, 15)" class="feature">
            <use xlink:href="#convolutional-feature" class="figure-element"/>
            <use xlink:href="#convolutional-patch-negative" transform="translate(5, 5)" opacity="1" class="convolutional-patch"/>
            <use xlink:href="#convolutional-arrow" transform="translate(15, 15)" class="figure-line"/>
          </g>
          <g transform="matrix(1, 0, -0.5, 0.5, 45, 15)" class="feature">
            <use xlink:href="#convolutional-feature" class="figure-element"/>
            <use xlink:href="#convolutional-patch-negative" transform="translate(5, 5)" opacity="1" class="convolutional-patch"/>
            <use xlink:href="#convolutional-arrow" transform="translate(15, 15)" class="figure-line"/>
          </g>
          <g transform="matrix(1, 0, -0.5, 0.5, -30, 30)" class="feature">
            <use xlink:href="#convolutional-feature" class="figure-element"/>
            <use xlink:href="#convolutional-patch-negative" transform="translate(5, 5)" opacity="1" class="convolutional-patch"/>
            <use xlink:href="#convolutional-arrow" transform="translate(15, 15)" class="figure-line"/>
          </g>
          <g transform="matrix(1, 0, -0.5, 0.5, 0, 30)" class="feature">
            <use xlink:href="#convolutional-feature" class="figure-element"/>
            <use xlink:href="#convolutional-patch-negative" transform="translate(5, 5)" opacity="1" class="convolutional-patch"/>
            <use xlink:href="#convolutional-arrow" transform="translate(15, 15)" class="figure-line"/>
          </g>
          <g transform="matrix(1, 0, -0.5, 0.5, 30, 30)" class="feature">
            <use xlink:href="#convolutional-feature" class="figure-element"/>
            <use xlink:href="#convolutional-patch-negative" transform="translate(5, 5)" opacity="1" class="convolutional-patch"/>
            <use xlink:href="#convolutional-arrow" transform="translate(15, 15)" class="figure-line"/>
          </g>
        </g>
      </g>
      <text x="120" y="450" dy="1.5em" class="figure-text" style="font-family: serif; font-size: 20px;">β</text>
      <path d="M90,430Q100,450,247,450" class="figure-line"/>
      <use xlink:href="#arrow-right" transform="translate(247, 450)" class="figure-path"/>
      <line x1="272" y1="407.5" x2="272" y2="425" class="figure-line"/>
      <use xlink:href="#arrow-down" transform="translate(272, 425)" class="figure-path"/>
      <g transform="translate(272, 450)">
        <ellipse cx="0" cy="0" rx="20" ry="20" style="fill: #e8e8e8;" class="figure-element"/>
        <line x1="0" y1="7.5" x2="0" y2="-7.5" class="figure-line"/>
        <line x1="-7.5" y1="0" x2="7.5" y2="0" class="figure-line"/>
      </g>
      <line x1="272" y1="470" x2="272" y2="545" class="figure-line"/>
      <use xlink:href="#arrow-down" transform="translate(272, 545)" class="figure-path"/>
      <g transform="translate(249.5, 590)" id="shifted-layer">
        <g>
          <g transform="matrix(1, 0, -0.5, 0.5, 0, 0)" class="feature">
            <use xlink:href="#convolutional-feature" class="figure-element"/>
            <use xlink:href="#convolutional-patch-negative" transform="translate(5, 5)" opacity="1" class="convolutional-patch"/>
            <use xlink:href="#convolutional-arrow" transform="translate(15, 15)" class="figure-line"/>
          </g>
          <g transform="matrix(1, 0, -0.5, 0.5, 30, 0)" class="feature">
            <use xlink:href="#convolutional-feature" class="figure-element"/>
            <use xlink:href="#convolutional-patch-negative" transform="translate(5, 5)" opacity="1" class="convolutional-patch"/>
            <use xlink:href="#convolutional-arrow" transform="translate(15, 15)" class="figure-line"/>
          </g>
          <g transform="matrix(1, 0, -0.5, 0.5, 60, 0)" class="feature">
            <use xlink:href="#convolutional-feature" class="figure-element"/>
            <use xlink:href="#convolutional-patch-negative" transform="translate(5, 5)" opacity="1" class="convolutional-patch"/>
            <use xlink:href="#convolutional-arrow" transform="translate(15, 15)" class="figure-line"/>
          </g>
          <g transform="matrix(1, 0, -0.5, 0.5, -15, 15)" class="feature">
            <use xlink:href="#convolutional-feature" class="figure-element"/>
            <use xlink:href="#convolutional-patch-negative" transform="translate(5, 5)" opacity="1" class="convolutional-patch"/>
            <use xlink:href="#convolutional-arrow" transform="translate(15, 15)" class="figure-line"/>
          </g>
          <g transform="matrix(1, 0, -0.5, 0.5, 15, 15)" class="feature">
            <use xlink:href="#convolutional-feature" class="figure-element"/>
            <use xlink:href="#convolutional-patch-negative" transform="translate(5, 5)" opacity="1" class="convolutional-patch"/>
            <use xlink:href="#convolutional-arrow" transform="translate(15, 15)" class="figure-line"/>
          </g>
          <g transform="matrix(1, 0, -0.5, 0.5, 45, 15)" class="feature">
            <use xlink:href="#convolutional-feature" class="figure-element"/>
            <use xlink:href="#convolutional-patch-negative" transform="translate(5, 5)" opacity="1" class="convolutional-patch"/>
            <use xlink:href="#convolutional-arrow" transform="translate(15, 15)" class="figure-line"/>
          </g>
          <g transform="matrix(1, 0, -0.5, 0.5, -30, 30)" class="feature">
            <use xlink:href="#convolutional-feature" class="figure-element"/>
            <use xlink:href="#convolutional-patch-negative" transform="translate(5, 5)" opacity="1" class="convolutional-patch"/>
            <use xlink:href="#convolutional-arrow" transform="translate(15, 15)" class="figure-line"/>
          </g>
          <g transform="matrix(1, 0, -0.5, 0.5, 0, 30)" class="feature">
            <use xlink:href="#convolutional-feature" class="figure-element"/>
            <use xlink:href="#convolutional-patch-negative" transform="translate(5, 5)" opacity="1" class="convolutional-patch"/>
            <use xlink:href="#convolutional-arrow" transform="translate(15, 15)" class="figure-line"/>
          </g>
          <g transform="matrix(1, 0, -0.5, 0.5, 30, 30)" class="feature">
            <use xlink:href="#convolutional-feature" class="figure-element"/>
            <use xlink:href="#convolutional-patch-negative" transform="translate(5, 5)" opacity="1" class="convolutional-patch"/>
            <use xlink:href="#convolutional-arrow" transform="translate(15, 15)" class="figure-line"/>
          </g>
        </g>
        <g transform="translate(0, -20)">
          <g transform="matrix(1, 0, -0.5, 0.5, 0, 0)" class="feature">
            <use xlink:href="#convolutional-feature" class="figure-element"/>
            <use xlink:href="#convolutional-patch-negative" transform="translate(5, 5)" opacity="1" class="convolutional-patch"/>
            <use xlink:href="#convolutional-arrow" transform="translate(15, 15)" class="figure-line"/>
          </g>
          <g transform="matrix(1, 0, -0.5, 0.5, 30, 0)" class="feature">
            <use xlink:href="#convolutional-feature" class="figure-element"/>
            <use xlink:href="#convolutional-patch-negative" transform="translate(5, 5)" opacity="1" class="convolutional-patch"/>
            <use xlink:href="#convolutional-arrow" transform="translate(15, 15)" class="figure-line"/>
          </g>
          <g transform="matrix(1, 0, -0.5, 0.5, 60, 0)" class="feature">
            <use xlink:href="#convolutional-feature" class="figure-element"/>
            <use xlink:href="#convolutional-patch-negative" transform="translate(5, 5)" opacity="1" class="convolutional-patch"/>
            <use xlink:href="#convolutional-arrow" transform="translate(15, 15)" class="figure-line"/>
          </g>
          <g transform="matrix(1, 0, -0.5, 0.5, -15, 15)" class="feature">
            <use xlink:href="#convolutional-feature" class="figure-element"/>
            <use xlink:href="#convolutional-patch-negative" transform="translate(5, 5)" opacity="1" class="convolutional-patch"/>
            <use xlink:href="#convolutional-arrow" transform="translate(15, 15)" class="figure-line"/>
          </g>
          <g transform="matrix(1, 0, -0.5, 0.5, 15, 15)" class="feature">
            <use xlink:href="#convolutional-feature" class="figure-element"/>
            <use xlink:href="#convolutional-patch-negative" transform="translate(5, 5)" opacity="1" class="convolutional-patch"/>
            <use xlink:href="#convolutional-arrow" transform="translate(15, 15)" class="figure-line"/>
          </g>
          <g transform="matrix(1, 0, -0.5, 0.5, 45, 15)" class="feature">
            <use xlink:href="#convolutional-feature" class="figure-element"/>
            <use xlink:href="#convolutional-patch-negative" transform="translate(5, 5)" opacity="1" class="convolutional-patch"/>
            <use xlink:href="#convolutional-arrow" transform="translate(15, 15)" class="figure-line"/>
          </g>
          <g transform="matrix(1, 0, -0.5, 0.5, -30, 30)" class="feature">
            <use xlink:href="#convolutional-feature" class="figure-element"/>
            <use xlink:href="#convolutional-patch-negative" transform="translate(5, 5)" opacity="1" class="convolutional-patch"/>
            <use xlink:href="#convolutional-arrow" transform="translate(15, 15)" class="figure-line"/>
          </g>
          <g transform="matrix(1, 0, -0.5, 0.5, 0, 30)" class="feature">
            <use xlink:href="#convolutional-feature" class="figure-element"/>
            <use xlink:href="#convolutional-patch-negative" transform="translate(5, 5)" opacity="1" class="convolutional-patch"/>
            <use xlink:href="#convolutional-arrow" transform="translate(15, 15)" class="figure-line"/>
          </g>
          <g transform="matrix(1, 0, -0.5, 0.5, 30, 30)" class="feature">
            <use xlink:href="#convolutional-feature" class="figure-element"/>
            <use xlink:href="#convolutional-patch-negative" transform="translate(5, 5)" opacity="1" class="convolutional-patch"/>
            <use xlink:href="#convolutional-arrow" transform="translate(15, 15)" class="figure-line"/>
          </g>
        </g>
        <g transform="translate(0, -40)">
          <g transform="matrix(1, 0, -0.5, 0.5, 0, 0)" class="feature">
            <use xlink:href="#convolutional-feature" class="figure-element"/>
            <use xlink:href="#convolutional-patch-negative" transform="translate(5, 5)" opacity="1" class="convolutional-patch"/>
            <use xlink:href="#convolutional-arrow" transform="translate(15, 15)" class="figure-line"/>
          </g>
          <g transform="matrix(1, 0, -0.5, 0.5, 30, 0)" class="feature">
            <use xlink:href="#convolutional-feature" class="figure-element"/>
            <use xlink:href="#convolutional-patch-negative" transform="translate(5, 5)" opacity="1" class="convolutional-patch"/>
            <use xlink:href="#convolutional-arrow" transform="translate(15, 15)" class="figure-line"/>
          </g>
          <g transform="matrix(1, 0, -0.5, 0.5, 60, 0)" class="feature">
            <use xlink:href="#convolutional-feature" class="figure-element"/>
            <use xlink:href="#convolutional-patch-negative" transform="translate(5, 5)" opacity="1" class="convolutional-patch"/>
            <use xlink:href="#convolutional-arrow" transform="translate(15, 15)" class="figure-line"/>
          </g>
          <g transform="matrix(1, 0, -0.5, 0.5, -15, 15)" class="feature">
            <use xlink:href="#convolutional-feature" class="figure-element"/>
            <use xlink:href="#convolutional-patch-negative" transform="translate(5, 5)" opacity="1" class="convolutional-patch"/>
            <use xlink:href="#convolutional-arrow" transform="translate(15, 15)" class="figure-line"/>
          </g>
          <g transform="matrix(1, 0, -0.5, 0.5, 15, 15)" class="feature">
            <use xlink:href="#convolutional-feature" class="figure-element"/>
            <use xlink:href="#convolutional-patch-negative" transform="translate(5, 5)" opacity="1" class="convolutional-patch"/>
            <use xlink:href="#convolutional-arrow" transform="translate(15, 15)" class="figure-line"/>
          </g>
          <g transform="matrix(1, 0, -0.5, 0.5, 45, 15)" class="feature">
            <use xlink:href="#convolutional-feature" class="figure-element"/>
            <use xlink:href="#convolutional-patch-negative" transform="translate(5, 5)" opacity="1" class="convolutional-patch"/>
            <use xlink:href="#convolutional-arrow" transform="translate(15, 15)" class="figure-line"/>
          </g>
          <g transform="matrix(1, 0, -0.5, 0.5, -30, 30)" class="feature">
            <use xlink:href="#convolutional-feature" class="figure-element"/>
            <use xlink:href="#convolutional-patch-negative" transform="translate(5, 5)" opacity="1" class="convolutional-patch"/>
            <use xlink:href="#convolutional-arrow" transform="translate(15, 15)" class="figure-line"/>
          </g>
          <g transform="matrix(1, 0, -0.5, 0.5, 0, 30)" class="feature">
            <use xlink:href="#convolutional-feature" class="figure-element"/>
            <use xlink:href="#convolutional-patch-negative" transform="translate(5, 5)" opacity="1" class="convolutional-patch"/>
            <use xlink:href="#convolutional-arrow" transform="translate(15, 15)" class="figure-line"/>
          </g>
          <g transform="matrix(1, 0, -0.5, 0.5, 30, 30)" class="feature">
            <use xlink:href="#convolutional-feature" class="figure-element"/>
            <use xlink:href="#convolutional-patch-negative" transform="translate(5, 5)" opacity="1" class="convolutional-patch"/>
            <use xlink:href="#convolutional-arrow" transform="translate(15, 15)" class="figure-line"/>
          </g>
        </g>
      </g>
    </g>
  </g>
</svg>
