<?xml version="1.0" encoding="utf-8"?>
<svg viewBox="0 0 744 500" xmlns="http://www.w3.org/2000/svg" xmlns:xlink="http://www.w3.org/1999/xlink">
  <defs>
    <pattern id="pattern-0" x="0" y="0" width="20" height="20" patternUnits="userSpaceOnUse" viewBox="0 0 100 100">
      <path d="M 0 0 L 50 0 L 50 100 L 0 100 Z" style="fill: black;"/>
    </pattern>
    <symbol id="arrow-right" viewBox="0 0 7.69 8.56">
      <title>Right arrow</title>
      <path style="stroke: rgb(0, 0, 0);" d="M 7.69 4.28 C 4.911 5.279 2.314 6.725 0 8.56 L 1.55 4.28 L 0 0 C 2.314 1.835 4.911 3.28 7.69 4.28 Z" class="figure-path"/>
    </symbol>
    <symbol id="arrow-up" viewBox="0 0 8.56 7.69">
      <title>Up arrow</title>
      <path style="stroke: rgb(0, 0, 0);" d="M 4.28 0 a 27.2 27.2 0 0 0 4.28 7.69 L 4.28 6.14 l -4.28 1.55 A 27.17 27.17 0 0 0 4.28 0 Z" class="figure-path"/>
    </symbol>
    <symbol id="arrow-left" viewBox="0 0 7.69 8.56">
      <title>Left arrow</title>
      <path style="stroke: rgb(0, 0, 0);" d="M 0 4.28 a 27.2 27.2 0 0 0 7.69 -4.28 L 6.14 4.28 l 1.55 4.28 A 27.18 27.18 0 0 0 0 4.28 Z" class="figure-path"/>
    </symbol>
    <symbol id="arrow-down" viewBox="0 0 8.56 7.69">
      <title>Down arrow</title>
      <path style="stroke: rgb(0, 0, 0);" d="M 4.28 7.69 a 27.2 27.2 0 0 0 -4.28 -7.69 l 4.28 1.55 4.28 -1.55 A 27.18 27.18 0 0 0 4.28 7.69 Z" class="figure-path"/>
    </symbol>
  </defs>
  <g transform="matrix(1, 0, 0, 1, 0.000002, 0.000002)">
    <title>style loss</title>
    <rect x="680.567" width="55.285" height="447.71" style="fill: none; stroke: rgb(0, 0, 0);" class="figure-group figure-box" y="26.145"/>
    <text x="351.685" y="354.277" style="font-size: 13px; white-space: pre;" class="figure-text" transform="matrix(0, -1, 1, 0, 355.919952, 657.15625)">style transfer loss</text>
  </g>
  <rect x="10" y="394" width="96" height="96" id="style-image-placeholder" style="fill: rgb(185, 185, 185);">
    <title>style image placeholder</title>
  </rect>
  <line style="stroke: rgb(0, 0, 0);" x1="680.567" y1="442" x2="106" y2="442" class="figure-line"/>
  <use width="7.690000057220459" height="8.5600004196167" transform="matrix(1, 0, 0, 1, 672.8770141601562, 437.7200012207031)" xlink:href="#arrow-right"/>
  <path style="fill: none; stroke: rgb(0, 0, 0);" d="M 58 394 L 58 382.67 L 230.257 382.67" class="figure-line"/>
  <use width="7.690000057220459" height="8.5600004196167" transform="matrix(1, 0, 0, 1, 222.5673828125, 378.3904724121094)" xlink:href="#arrow-right"/>
  <rect x="10" y="10" width="96" height="96" id="content-image-placeholder" style="fill: rgb(185, 185, 185);">
    <title>content image placeholder</title>
  </rect>
  <line style="stroke: rgb(0, 0, 0);" x1="680.567" y1="58" x2="106" y2="58" class="figure-line"/>
  <use width="7.690000057220459" height="8.5600004196167" transform="matrix(1, 0, 0, 1, 672.8770141601562, 53.720001220703125)" xlink:href="#arrow-right"/>
  <g transform="matrix(1, 0, 0, 1, 5.541511, 45.940998)" class="filmed-network">
    <title>style transfer network</title>
    <rect x="107.35" y="33.418" width="434.327" height="251.118" style="fill: none; stroke: rgb(0, 0, 0);" class="figure-group figure-box figure-filmed-network"/>
    <text x="112.35" y="50.896" style="font-size: 13px; white-space: pre;" class="figure-text">style transfer network</text>
  </g>
  <g transform="matrix(1, 0, 0, 1, -23.859468, 45.941475)">
    <title>convolution</title>
    <rect x="151.772" y="78.723" width="37.075" height="169.77" style="fill: none; stroke: rgb(0, 0, 0);" class="figure-element figure-box"/>
    <text x="153.606" y="135.187" style="font-size: 13px; white-space: pre;" transform="matrix(0, -1, 1, 0, 40.169159, 352.842407)" class="figure-text">convolution</text>
  </g>
  <g transform="matrix(1, 0, 0, 1, -10.546171, 45.941475)">
    <title>convolution</title>
    <rect x="348.798" y="78.723" width="37.075" height="169.77" style="fill: none; stroke: rgb(0, 0, 0);" class="figure-element figure-box"/>
    <text x="538.433" y="126.872" style="font-size: 13px; white-space: pre;" transform="matrix(0, -1, 1, 0, 245.508188, 737.670532)" class="figure-text">convolution</text>
  </g>
  <g transform="matrix(1, 0, 0, 1, 2.767178, 45.941475)">
    <title>instance normalization</title>
    <rect x="178.614" y="68.259" width="140.477" height="207.091" style="fill: none; stroke: rgb(0, 0, 0);" class="figure-element figure-box"/>
    <g transform="matrix(1, 0, 0, 1, -19.969992, 0)">
      <title>normalization</title>
      <rect x="217.447" y="78.723" width="37.075" height="169.77" style="fill: none; stroke: rgb(0, 0, 0);" class="figure-element figure-box"/>
      <text x="510.559" y="77.567" style="font-size: 13px; white-space: pre;" transform="matrix(0, -1, 0.999999, 0, 163.445511, 711.811096)" class="figure-text">normalization</text>
    </g>
    <line style="stroke: rgb(0, 0, 0);" x1="234.552" y1="163.608" x2="263.153" y2="163.608" class="figure-line"/>
    <use width="7.690000057220459" height="8.5600004196167" transform="matrix(1, 0, 0, 1, 255.46299743652344, 159.32798767089844)" xlink:href="#arrow-right"/>
    <g transform="matrix(1, 0, 0, 1, -19.969992, 0)" class="film-layer">
      <title>affine transformation</title>
      <rect x="283.123" y="78.723" width="37.075" height="169.77" style="fill: none; stroke: rgb(0, 0, 0);" class="figure-element figure-box figure-film-layer"/>
      <text x="400.91" y="193.092" style="font-size: 13px; white-space: pre;" transform="matrix(0, -1, 1, 0, 113.60582, 622.748596)" class="figure-text">affine transformation</text>
    </g>
    <text x="183.617" y="267.501" style="font-size: 13px; white-space: pre;" class="figure-text">instance norm.</text>
  </g>
  <g transform="matrix(1, 0, 0, 1, -3.889478, 45.941475)">
    <title>instance normalization</title>
    <rect x="395.61" y="68.259" width="140.477" height="207.09" style="fill: none; stroke: rgb(0, 0, 0);" class="figure-element figure-box"/>
    <g>
      <title>normalization</title>
      <rect x="414.474" y="78.723" width="37.075" height="169.77" style="fill: none; stroke: rgb(0, 0, 0);" class="figure-element figure-box"/>
      <text x="481.441" y="304.003" style="font-size: 13px; white-space: pre;" transform="matrix(0, -1, 0.999997, 0.000002, 134.035843, 682.701172)" class="figure-text">normalization</text>
    </g>
    <line style="stroke: rgb(0, 0, 0);" x1="451.549" y1="163.608" x2="480.149" y2="163.608" class="figure-line"/>
    <use width="7.690000057220459" height="8.5600004196167" transform="matrix(1, 0, 0, 1, 472.458984375, 159.32798767089844)" xlink:href="#arrow-right"/>
    <g class="film-layer">
      <title>affine transformation</title>
      <rect x="480.149" y="78.723" width="37.075" height="169.77" style="fill: none; stroke: rgb(0, 0, 0);" class="figure-element figure-box figure-film-layer"/>
      <text x="603.791" y="32.789" style="font-size: 13px; white-space: pre;" transform="matrix(0, -1, 0.999998, 0, 470.928746, 825.623596)" class="figure-text">affine transformation</text>
    </g>
    <text x="400.613" y="267.5" style="font-size: 13px; white-space: pre;" class="figure-text">instance norm.</text>
  </g>
  <line style="stroke: rgb(0, 0, 0);" x1="164.988" y1="209.549" x2="200.245" y2="209.549" class="figure-line"/>
  <use width="7.690000057220459" height="8.5600004196167" transform="matrix(1, 0, 0, 1, 192.55419921875, 205.26898193359375)" xlink:href="#arrow-right"/>
  <line style="stroke: rgb(0, 0, 0);" x1="302.996" y1="209.549" x2="338.251" y2="209.549" class="figure-line"/>
  <use width="7.690000057220459" height="8.5600004196167" transform="matrix(1, 0, 0, 1, 330.56182861328125, 205.26898193359375)" xlink:href="#arrow-right"/>
  <line style="stroke: rgb(0, 0, 0);" x1="375.327" y1="209.549" x2="410.585" y2="209.549" class="figure-line"/>
  <use width="7.690000057220459" height="8.5600004196167" transform="matrix(1, 0, 0, 1, 402.89453125, 205.26898193359375)" xlink:href="#arrow-right"/>
  <path style="fill: none; stroke: rgb(0, 0, 0);" d="M 58 106 L 58 209.55 L 127.913 209.55" class="figure-line"/>
  <use width="7.690000057220459" height="8.5600004196167" transform="matrix(1, 0, 0, 1, 120.22252655029297, 205.2694854736328)" xlink:href="#arrow-right"/>
  <line style="stroke: rgb(0, 0, 0);" x1="513.335" y1="209.55" x2="565.647" y2="209.55" class="figure-line"/>
  <use width="7.690000057220459" height="8.5600004196167" transform="matrix(1, 0, 0, 1, 557.9569702148438, 205.27000427246094)" xlink:href="#arrow-right"/>
  <g transform="matrix(1, 0, 0, 1, -24.264635, 25.233994)" class="film-generator">
    <title>style prediction network</title>
    <rect x="254.522" y="314.258" width="316.818" height="86.357" style="fill: none; stroke: rgb(0, 0, 0);" class="figure-group figure-box figure-film-generator"/>
    <text x="348.265" y="362.242" style="font-size: 13px; white-space: pre;" class="figure-text">style prediction network</text>
  </g>
  <line style="stroke: rgb(0, 0, 0);" x1="284.458" y1="339.492" x2="284.458" y2="294.434" class="figure-line"/>
  <use width="8.5600004196167" height="7.690000057220459" transform="matrix(1, 0, 0, 1, 280.17767333984375, 294.4339904785156)" xlink:href="#arrow-up"/>
  <line style="stroke: rgb(0, 0, 0);" x1="494.797" y1="339.492" x2="494.797" y2="294.434" class="figure-line"/>
  <use width="8.5600004196167" height="7.690000057220459" transform="matrix(1, 0, 0, 1, 490.51702880859375, 294.43402099609375)" xlink:href="#arrow-up"/>
  <rect x="565.647" y="161.55" width="96" height="96" id="stylized-image-placeholder" style="fill: rgb(185, 185, 185);">
    <title>stylized image placeholder</title>
  </rect>
  <line style="stroke: rgb(0, 0, 0);" x1="680.567" y1="209.55" x2="661.647" y2="209.55" class="figure-line"/>
  <use width="7.690000057220459" height="8.5600004196167" transform="matrix(1, 0, 0, 1, 672.8770141601562, 205.27000427246094)" xlink:href="#arrow-right"/>
</svg>