<?xml version="1.0" encoding="utf-8"?>
<svg viewBox="0 0 744 290" xmlns="http://www.w3.org/2000/svg" xmlns:xlink="http://www.w3.org/1999/xlink">
  <defs>
    <symbol id="arrow-right" viewBox="0 0 7.69 8.56">
      <title>Right arrow</title>
      <path style="stroke: rgb(0, 0, 0);" d="M 7.69 4.28 C 4.911 5.279 2.314 6.725 0 8.56 L 1.55 4.28 L 0 0 C 2.314 1.835 4.911 3.28 7.69 4.28 Z" class="figure-path"/>
    </symbol>
    <symbol id="arrow-up" viewBox="0 0 8.56 7.69">
      <title>Up arrow</title>
      <path style="stroke: rgb(0, 0, 0);" d="M 4.28 0 a 27.2 27.2 0 0 0 4.28 7.69 L 4.28 6.14 l -4.28 1.55 A 27.17 27.17 0 0 0 4.28 0 Z" class="figure-path"/>
    </symbol>
    <symbol id="arrow-left" viewBox="0 0 7.69 8.56">
      <title>Left arrow</title>
      <path style="stroke: rgb(0, 0, 0);" d="M 0 4.28 a 27.2 27.2 0 0 0 7.69 -4.28 L 6.14 4.28 l 1.55 4.28 A 27.18 27.18 0 0 0 0 4.28 Z" class="figure-path"/>
    </symbol>
    <symbol id="arrow-down" viewBox="0 0 8.56 7.69">
      <title>Down arrow</title>
      <path style="stroke: rgb(0, 0, 0);" d="M 4.28 7.69 a 27.2 27.2 0 0 0 -4.28 -7.69 l 4.28 1.55 4.28 -1.55 A 27.18 27.18 0 0 0 4.28 7.69 Z" class="figure-path"/>
    </symbol>
  </defs>
  <g transform="matrix(1, 0, 0, 1, 12.167987, -27.098)" id="mlp-figure">
    <title>bilinear</title>
    <rect x="-2.168" y="37.098" width="724" height="270" style="fill: none; stroke: rgb(0, 0, 0);" class="figure-group figure-box"/>
    <text x="5.819" y="57.768" style="font-size: 13px; white-space: pre;" class="figure-text">Bilinear transformation</text>
    <g transform="matrix(1, 0, 0, 1, 79.770432, -94.220444)">
      <title>y_1</title>
      <g transform="matrix(1, 0, 0, 1, -16.683331, 300.120758)">
        <title>x</title>
        <path style="fill: none; stroke: rgb(0, 0, 0);" transform="matrix(1, 0, 0, 1, 0, 0)" d="M 0 6 a 6 6 0 0 1 6 -6 l 14 0 l 0 20 l -14 0 a 6 6 0 0 1 -6 -6 Z" class="figure-element"/>
        <path style="fill: none; stroke: rgb(0, 0, 0);" transform="matrix(1, 0, 0, 1, 20, 0)" d="M 0 0 l 20 0 l 0 20 l -20 0 Z" class="figure-element"/>
        <path style="fill: none; stroke: rgb(0, 0, 0);" transform="matrix(1, 0, 0, 1, 40, 0)" d="M 0 0 l 14 0 a 6 6 0 0 1 6 6 l 0 8 a 6 6 0 0 1 -6 6 l -14 0 Z" class="figure-element"/>
        <text x="59.454" y="324.652" style="font-size: 13px; white-space: pre;" class="figure-text" transform="matrix(0.999998, 0, 0, 1, -32.593624, -291.984375)">x</text>
      </g>
      <g transform="matrix(1, 0, 0, 1, 48.316677, 300.120758)">
        <title>W_1</title>
        <path style="fill: none; stroke: rgb(0, 0, 0);" transform="matrix(1, 0, 0, 1, 0, 0)" d="M 0 6 a 6 6 0 0 1 6 -6 l 14 0 l 0 20 l -20 0 Z" class="figure-element"/>
        <path style="fill: none; stroke: rgb(0, 0, 0);" transform="matrix(1, 0, 0, 1, 20, 0)" d="M 0 0 l 20 0 l 0 20 l -20 0 Z" class="figure-element"/>
        <path style="fill: none; stroke: rgb(0, 0, 0);" transform="matrix(1, 0, 0, 1, 40, 0)" d="M 0 0 l 14 0 a 6 6 0 0 1 6 6 l 0 14l -20 0 Z" class="figure-element"/>
        <path style="fill: none; stroke: rgb(0, 0, 0);" transform="matrix(1, 0, 0, 1, 0, 20)" d="M 0 0 l 20 0 l 0 20 l -20 0 Z" class="figure-element"/>
        <path style="fill: none; stroke: rgb(0, 0, 0);" transform="matrix(1, 0, 0, 1, 20, 20)" d="M 0 0 l 20 0 l 0 20 l -20 0 Z" class="figure-element"/>
        <path style="fill: none; stroke: rgb(0, 0, 0);" transform="matrix(1, 0, 0, 1, 40, 20)" d="M 0 0 l 20 0 l 0 20 l -20 0 Z" class="figure-element"/>
        <path style="fill: none; stroke: rgb(0, 0, 0);" transform="matrix(1, 0, 0, 1, 0, 40)" d="M 0 0 l 20 0 l 0 20 l -14 0 a 6 6 0 0 1 -6 -6 Z" class="figure-element"/>
        <path style="fill: none; stroke: rgb(0, 0, 0);" transform="matrix(1, 0, 0, 1, 20, 40)" d="M 0 0 l 20 0 l 0 20 l -20 0 Z" class="figure-element"/>
        <path style="fill: none; stroke: rgb(0, 0, 0);" transform="matrix(1, 0, 0, 1, 40, 40)" d="M 0 0 l 20 0 l 0 14 a 6 6 0 0 1 -6 6 l -14 0 Z" class="figure-element"/>
        <text x="24.008" y="75.43" style="font-size: 13px; white-space: pre;" class="figure-text">W</text>
        <text x="36.004" y="77.425" class="figure-text subscript" style="font-size: 13px; white-space: pre;">1</text>
      </g>
      <g transform="matrix(0, 1, -1, 0, 133.316681, 300.120728)">
        <title>z</title>
        <path style="fill: none; stroke: rgb(0, 0, 0);" transform="matrix(1, 0, 0, 1, 0, 0)" d="M 0 6 a 6 6 0 0 1 6 -6 l 14 0 l 0 20 l -14 0 a 6 6 0 0 1 -6 -6 Z" class="figure-element"/>
        <path style="fill: none; stroke: rgb(0, 0, 0);" transform="matrix(1, 0, 0, 1, 20, 0)" d="M 0 0 l 20 0 l 0 20 l -20 0 Z" class="figure-element"/>
        <path style="fill: none; stroke: rgb(0, 0, 0);" transform="matrix(1, 0, 0, 1, 40, 0)" d="M 0 0 l 14 0 a 6 6 0 0 1 6 6 l 0 8 a 6 6 0 0 1 -6 6 l -14 0 Z" class="figure-element"/>
        <text x="59.454" y="324.652" style="font-size: 13px; white-space: pre;" class="figure-text" transform="matrix(0, -0.999996, 1, 0, -251.984375, 72.593506)">z</text>
      </g>
    </g>
    <g transform="matrix(1, 0, 0, 1, 299.576843, 53.876701)">
      <title>y_2</title>
      <g transform="matrix(1, 0, 0, 1, -14.744882, 152.023605)">
        <title>x</title>
        <path style="fill: none; stroke: rgb(0, 0, 0);" transform="matrix(1, 0, 0, 1, 0, 0)" d="M 0 6 a 6 6 0 0 1 6 -6 l 14 0 l 0 20 l -14 0 a 6 6 0 0 1 -6 -6 Z" class="figure-element"/>
        <path style="fill: none; stroke: rgb(0, 0, 0);" transform="matrix(1, 0, 0, 1, 20, 0)" d="M 0 0 l 20 0 l 0 20 l -20 0 Z" class="figure-element"/>
        <path style="fill: none; stroke: rgb(0, 0, 0);" transform="matrix(1, 0, 0, 1, 40, 0)" d="M 0 0 l 14 0 a 6 6 0 0 1 6 6 l 0 8 a 6 6 0 0 1 -6 6 l -14 0 Z" class="figure-element"/>
        <text x="59.454" y="324.652" style="font-size: 13px; white-space: pre;" class="figure-text" transform="matrix(1.000001, 0, 0, 1, -32.59383, -291.984375)">x</text>
      </g>
      <g transform="matrix(1, 0, 0, 1, 50.255112, 152.023605)">
        <title>W_2</title>
        <path style="fill: none; stroke: rgb(0, 0, 0);" transform="matrix(1, 0, 0, 1, 0, 0)" d="M 0 6 a 6 6 0 0 1 6 -6 l 14 0 l 0 20 l -20 0 Z" class="figure-element"/>
        <path style="fill: none; stroke: rgb(0, 0, 0);" transform="matrix(1, 0, 0, 1, 20, 0)" d="M 0 0 l 20 0 l 0 20 l -20 0 Z" class="figure-element"/>
        <path style="fill: none; stroke: rgb(0, 0, 0);" transform="matrix(1, 0, 0, 1, 40, 0)" d="M 0 0 l 14 0 a 6 6 0 0 1 6 6 l 0 14l -20 0 Z" class="figure-element"/>
        <path style="fill: none; stroke: rgb(0, 0, 0);" transform="matrix(1, 0, 0, 1, 0, 20)" d="M 0 0 l 20 0 l 0 20 l -20 0 Z" class="figure-element"/>
        <path style="fill: none; stroke: rgb(0, 0, 0);" transform="matrix(1, 0, 0, 1, 20, 20)" d="M 0 0 l 20 0 l 0 20 l -20 0 Z" class="figure-element"/>
        <path style="fill: none; stroke: rgb(0, 0, 0);" transform="matrix(1, 0, 0, 1, 40, 20)" d="M 0 0 l 20 0 l 0 20 l -20 0 Z" class="figure-element"/>
        <path style="fill: none; stroke: rgb(0, 0, 0);" transform="matrix(1, 0, 0, 1, 0, 40)" d="M 0 0 l 20 0 l 0 20 l -14 0 a 6 6 0 0 1 -6 -6 Z" class="figure-element"/>
        <path style="fill: none; stroke: rgb(0, 0, 0);" transform="matrix(1, 0, 0, 1, 20, 40)" d="M 0 0 l 20 0 l 0 20 l -20 0 Z" class="figure-element"/>
        <path style="fill: none; stroke: rgb(0, 0, 0);" transform="matrix(1, 0, 0, 1, 40, 40)" d="M 0 0 l 20 0 l 0 14 a 6 6 0 0 1 -6 6 l -14 0 Z" class="figure-element"/>
        <text x="24.003" y="75.437" style="font-size: 13px; white-space: pre;" class="figure-text">W</text>
        <text x="36.013" y="77.433" class="figure-text subscript" style="font-size: 13px; white-space: pre;">2</text>
      </g>
      <g transform="matrix(0, 1, -1, 0, 135.255096, 152.023605)">
        <title>z</title>
        <path style="fill: none; stroke: rgb(0, 0, 0);" transform="matrix(1, 0, 0, 1, 0, 0)" d="M 0 6 a 6 6 0 0 1 6 -6 l 14 0 l 0 20 l -14 0 a 6 6 0 0 1 -6 -6 Z" class="figure-element"/>
        <path style="fill: none; stroke: rgb(0, 0, 0);" transform="matrix(1, 0, 0, 1, 20, 0)" d="M 0 0 l 20 0 l 0 20 l -20 0 Z" class="figure-element"/>
        <path style="fill: none; stroke: rgb(0, 0, 0);" transform="matrix(1, 0, 0, 1, 40, 0)" d="M 0 0 l 14 0 a 6 6 0 0 1 6 6 l 0 8 a 6 6 0 0 1 -6 6 l -14 0 Z" class="figure-element"/>
        <text x="59.454" y="324.652" style="font-size: 13px; white-space: pre;" class="figure-text" transform="matrix(0, -0.999996, 1, 0, -251.984375, 72.593506)">z</text>
      </g>
    </g>
    <g transform="matrix(1, 0, 0, 1, 360.069122, 97.433403)">
      <title>y_3</title>
      <g transform="matrix(1, 0, 0, 1, 146.507645, 108.466873)">
        <title>x</title>
        <path style="fill: none; stroke: rgb(0, 0, 0);" transform="matrix(1, 0, 0, 1, 0, 0)" d="M 0 6 a 6 6 0 0 1 6 -6 l 14 0 l 0 20 l -14 0 a 6 6 0 0 1 -6 -6 Z" class="figure-element"/>
        <path style="fill: none; stroke: rgb(0, 0, 0);" transform="matrix(1, 0, 0, 1, 20, 0)" d="M 0 0 l 20 0 l 0 20 l -20 0 Z" class="figure-element"/>
        <path style="fill: none; stroke: rgb(0, 0, 0);" transform="matrix(1, 0, 0, 1, 40, 0)" d="M 0 0 l 14 0 a 6 6 0 0 1 6 6 l 0 8 a 6 6 0 0 1 -6 6 l -14 0 Z" class="figure-element"/>
        <text x="59.454" y="324.652" style="font-size: 13px; white-space: pre;" class="figure-text" transform="matrix(1.000001, 0, 0, 1, -32.5938, -291.984375)">x</text>
      </g>
      <g transform="matrix(1, 0, 0, 1, 211.507645, 108.466881)">
        <title>W_3</title>
        <path style="fill: none; stroke: rgb(0, 0, 0);" transform="matrix(1, 0, 0, 1, 0, 0)" d="M 0 6 a 6 6 0 0 1 6 -6 l 14 0 l 0 20 l -20 0 Z" class="figure-element"/>
        <path style="fill: none; stroke: rgb(0, 0, 0);" transform="matrix(1, 0, 0, 1, 20, 0)" d="M 0 0 l 20 0 l 0 20 l -20 0 Z" class="figure-element"/>
        <path style="fill: none; stroke: rgb(0, 0, 0);" transform="matrix(1, 0, 0, 1, 40, 0)" d="M 0 0 l 14 0 a 6 6 0 0 1 6 6 l 0 14l -20 0 Z" class="figure-element"/>
        <path style="fill: none; stroke: rgb(0, 0, 0);" transform="matrix(1, 0, 0, 1, 0, 20)" d="M 0 0 l 20 0 l 0 20 l -20 0 Z" class="figure-element"/>
        <path style="fill: none; stroke: rgb(0, 0, 0);" transform="matrix(1, 0, 0, 1, 20, 20)" d="M 0 0 l 20 0 l 0 20 l -20 0 Z" class="figure-element"/>
        <path style="fill: none; stroke: rgb(0, 0, 0);" transform="matrix(1, 0, 0, 1, 40, 20)" d="M 0 0 l 20 0 l 0 20 l -20 0 Z" class="figure-element"/>
        <path style="fill: none; stroke: rgb(0, 0, 0);" transform="matrix(1, 0, 0, 1, 0, 40)" d="M 0 0 l 20 0 l 0 20 l -14 0 a 6 6 0 0 1 -6 -6 Z" class="figure-element"/>
        <path style="fill: none; stroke: rgb(0, 0, 0);" transform="matrix(1, 0, 0, 1, 20, 40)" d="M 0 0 l 20 0 l 0 20 l -20 0 Z" class="figure-element"/>
        <path style="fill: none; stroke: rgb(0, 0, 0);" transform="matrix(1, 0, 0, 1, 40, 40)" d="M 0 0 l 20 0 l 0 14 a 6 6 0 0 1 -6 6 l -14 0 Z" class="figure-element"/>
        <text x="24.002" y="75.429" style="font-size: 13px; white-space: pre;" class="figure-text">W</text>
        <text x="36.005" y="77.429" class="figure-text subscript" style="font-size: 13px; white-space: pre;">3</text>
      </g>
      <g transform="matrix(0, 1, -1, 0, 296.50766, 108.466881)">
        <title>z</title>
        <path style="fill: none; stroke: rgb(0, 0, 0);" transform="matrix(1, 0, 0, 1, 0, 0)" d="M 0 6 a 6 6 0 0 1 6 -6 l 14 0 l 0 20 l -14 0 a 6 6 0 0 1 -6 -6 Z" class="figure-element"/>
        <path style="fill: none; stroke: rgb(0, 0, 0);" transform="matrix(1, 0, 0, 1, 20, 0)" d="M 0 0 l 20 0 l 0 20 l -20 0 Z" class="figure-element"/>
        <path style="fill: none; stroke: rgb(0, 0, 0);" transform="matrix(1, 0, 0, 1, 40, 0)" d="M 0 0 l 14 0 a 6 6 0 0 1 6 6 l 0 8 a 6 6 0 0 1 -6 6 l -14 0 Z" class="figure-element"/>
        <text x="26.793" y="249.719" style="font-size: 13px; white-space: pre;" class="figure-text" transform="matrix(0, -1, 1, 0, -177.0625, 39.921867)">z</text>
      </g>
    </g>
    <g transform="matrix(1, 0, 0, 1, 299.83194, 47.13044)">
      <title>y</title>
      <path style="fill: none; stroke: rgb(0, 0, 0);" transform="matrix(1, 0, 0, 1, 0, 0)" d="M 0 6 a 6 6 0 0 1 6 -6 l 34 0 l 0 40 l -34 0 a 6 6 0 0 1 -6 -6 Z" class="figure-element"/>
      <path style="fill: none; stroke: rgb(0, 0, 0);" transform="matrix(1, 0, 0, 1, 40, 0)" d="M 0 0 l 40 0 l 0 40 l -40 0 Z" class="figure-element"/>
      <path style="fill: none; stroke: rgb(0, 0, 0);" transform="matrix(1, 0, 0, 1, 80, 0)" d="M 0 0 l 34 0 a 6 6 0 0 1 6 6 l 0 28 a 6 6 0 0 1 -6 6 l -34 0 Z" class="figure-element"/>
      <text x="-11.49" y="25.033" style="font-size: 13px; white-space: pre;" class="figure-text">y</text>
    </g>
    <use width="8.5600004196167" height="7.690000057220459" transform="matrix(1, 0, 0, 1, 315.55194091796875, 87.13043975830078)" xlink:href="#arrow-up"/>
    <use width="8.5600004196167" height="7.690000057220459" transform="matrix(1, 0, 0, 1, 355.5519104003906, 87.13043975830078)" xlink:href="#arrow-up"/>
    <use width="8.5600004196167" height="7.690000057220459" transform="matrix(1, 0, 0, 1, 395.55194091796875, 87.13043975830078)" xlink:href="#arrow-up"/>
    <path style="fill: none; stroke: rgb(0, 0, 0);" class="figure-line" d="M 63.087 202.9 C 63.087 186.9 138.087 202.9 138.087 186.9 C 138.087 202.9 213.087 186.9 213.087 202.9"/>
    <path style="fill: none; stroke: rgb(0, 0, 0);" class="figure-line" d="M 284.832 202.9 C 284.832 186.9 359.832 202.9 359.832 186.9 C 359.832 202.9 434.832 186.9 434.832 202.9"/>
    <path style="fill: none; stroke: rgb(0, 0, 0);" class="figure-line" d="M 506.576 202.9 C 506.576 186.9 581.576 202.9 581.576 186.9 C 581.576 202.9 656.576 186.9 656.576 202.9"/>
    <path style="fill: none; stroke: rgb(0, 0, 0);" class="figure-line" d="M 399.832 87.13 C 399.832 186.9 581.576 123.569 581.576 179.821"/>
    <path style="fill: none; stroke: rgb(0, 0, 0);" class="figure-line" d="M 359.832 87.13 L 359.832 179.821"/>
    <path style="fill: none; stroke: rgb(0, 0, 0);" class="figure-line" d="M 319.832 87.13 C 319.111 186.9 138.087 125.77 138.087 179.821"/>
  </g>
</svg>