<?xml version="1.0" encoding="utf-8"?>
<svg viewBox="0 0 744 340" xmlns="http://www.w3.org/2000/svg">
  <defs>
    <symbol id="arrow-right" viewBox="0 0 7.69 8.56">
      <title>Right arrow</title>
      <path style="stroke: rgb(0, 0, 0);" d="M 7.69 4.28 C 4.911 5.279 2.314 6.725 0 8.56 L 1.55 4.28 L 0 0 C 2.314 1.835 4.911 3.28 7.69 4.28 Z" class="figure-path"/>
    </symbol>
    <symbol id="arrow-up" viewBox="0 0 8.56 7.69">
      <title>Up arrow</title>
      <path style="stroke: rgb(0, 0, 0);" d="M 4.28 0 a 27.2 27.2 0 0 0 4.28 7.69 L 4.28 6.14 l -4.28 1.55 A 27.17 27.17 0 0 0 4.28 0 Z" class="figure-path"/>
    </symbol>
    <symbol id="arrow-left" viewBox="0 0 7.69 8.56">
      <title>Left arrow</title>
      <path style="stroke: rgb(0, 0, 0);" d="M 0 4.28 a 27.2 27.2 0 0 0 7.69 -4.28 L 6.14 4.28 l 1.55 4.28 A 27.18 27.18 0 0 0 0 4.28 Z" class="figure-path"/>
    </symbol>
    <symbol id="arrow-down" viewBox="0 0 8.56 7.69">
      <title>Down arrow</title>
      <path style="stroke: rgb(0, 0, 0);" d="M 4.28 7.69 a 27.2 27.2 0 0 0 -4.28 -7.69 l 4.28 1.55 4.28 -1.55 A 27.18 27.18 0 0 0 4.28 7.69 Z" class="figure-path"/>
    </symbol>
  </defs>
  <g transform="matrix(1, 0, 0, 1, 12.167987, -27.098)" id="mlp-figure">
    <title>bilinear</title>
    <rect x="-2.168" y="37.098" width="724" height="320" style="fill: none; stroke: rgb(0, 0, 0);" class="figure-group figure-box"/>
    <text x="5.819" y="57.768" style="font-size: 13px; white-space: pre;" class="figure-text">Bilinear transformation</text>
    <g transform="matrix(1, 0, 0, 1, 79.770432, -94.220444)">
      <title>y_1</title>
      <g transform="matrix(1, 0, 0, 1, 15.226641, 273.065094)">
        <title>x</title>
        <path style="fill: none; stroke: rgb(0, 0, 0);" transform="matrix(1, 0, 0, 1, 0, 0)" d="M 0 6 a 6 6 0 0 1 6 -6 l 14 0 l 0 20 l -14 0 a 6 6 0 0 1 -6 -6 Z" class="figure-element"/>
        <path style="fill: none; stroke: rgb(0, 0, 0);" transform="matrix(1, 0, 0, 1, 20, 0)" d="M 0 0 l 20 0 l 0 20 l -20 0 Z" class="figure-element"/>
        <path style="fill: none; stroke: rgb(0, 0, 0);" transform="matrix(1, 0, 0, 1, 40, 0)" d="M 0 0 l 14 0 a 6 6 0 0 1 6 6 l 0 8 a 6 6 0 0 1 -6 6 l -14 0 Z" class="figure-element"/>
        <text x="59.454" y="324.652" style="font-size: 13px; white-space: pre;" class="figure-text" transform="matrix(0.999998, 0, 0, 1, -32.593624, -291.984375)"><tspan style="font-weight: bold;">x</tspan></text>
      </g>
      <g transform="matrix(1, 0, 0, 1, 48.316677, 362.120758)">
        <title>W_1</title>
        <path style="fill: none; stroke: rgb(0, 0, 0);" transform="matrix(1, 0, 0, 1, 0, 0)" d="M 0 6 a 6 6 0 0 1 6 -6 l 14 0 l 0 20 l -20 0 Z" class="figure-element"/>
        <path style="fill: none; stroke: rgb(0, 0, 0);" transform="matrix(1, 0, 0, 1, 20, 0)" d="M 0 0 l 20 0 l 0 20 l -20 0 Z" class="figure-element"/>
        <path style="fill: none; stroke: rgb(0, 0, 0);" transform="matrix(1, 0, 0, 1, 40, 0)" d="M 0 0 l 14 0 a 6 6 0 0 1 6 6 l 0 14l -20 0 Z" class="figure-element"/>
        <path style="fill: none; stroke: rgb(0, 0, 0);" transform="matrix(1, 0, 0, 1, 0, 20)" d="M 0 0 l 20 0 l 0 20 l -20 0 Z" class="figure-element"/>
        <path style="fill: none; stroke: rgb(0, 0, 0);" transform="matrix(1, 0, 0, 1, 20, 20)" d="M 0 0 l 20 0 l 0 20 l -20 0 Z" class="figure-element"/>
        <path style="fill: none; stroke: rgb(0, 0, 0);" transform="matrix(1, 0, 0, 1, 40, 20)" d="M 0 0 l 20 0 l 0 20 l -20 0 Z" class="figure-element"/>
        <path style="fill: none; stroke: rgb(0, 0, 0);" transform="matrix(1, 0, 0, 1, 0, 40)" d="M 0 0 l 20 0 l 0 20 l -14 0 a 6 6 0 0 1 -6 -6 Z" class="figure-element"/>
        <path style="fill: none; stroke: rgb(0, 0, 0);" transform="matrix(1, 0, 0, 1, 20, 40)" d="M 0 0 l 20 0 l 0 20 l -20 0 Z" class="figure-element"/>
        <path style="fill: none; stroke: rgb(0, 0, 0);" transform="matrix(1, 0, 0, 1, 40, 40)" d="M 0 0 l 20 0 l 0 14 a 6 6 0 0 1 -6 6 l -14 0 Z" class="figure-element"/>
        <text x="24.008" y="75.43" style="font-size: 13px; white-space: pre;" class="figure-text"><tspan>W</tspan><tspan class="subscript">1</tspan></text>
      </g>
      <g transform="matrix(0, 1, -1, 0, 133.316681, 362.120728)">
        <title>z</title>
        <path style="fill: none; stroke: rgb(0, 0, 0);" transform="matrix(1, 0, 0, 1, 0, 0)" d="M 0 6 a 6 6 0 0 1 6 -6 l 14 0 l 0 20 l -14 0 a 6 6 0 0 1 -6 -6 Z" class="figure-element"/>
        <path style="fill: none; stroke: rgb(0, 0, 0);" transform="matrix(1, 0, 0, 1, 20, 0)" d="M 0 0 l 20 0 l 0 20 l -20 0 Z" class="figure-element"/>
        <path style="fill: none; stroke: rgb(0, 0, 0);" transform="matrix(1, 0, 0, 1, 40, 0)" d="M 0 0 l 14 0 a 6 6 0 0 1 6 6 l 0 8 a 6 6 0 0 1 -6 6 l -14 0 Z" class="figure-element"/>
        <text x="59.454" y="324.652" style="font-size: 13px; white-space: pre;" class="figure-text" transform="matrix(0, -0.999996, 1, 0, -251.984375, 72.593506)"><tspan style="font-weight: bold;">z</tspan></text>
      </g>
      <g transform="matrix(0, 1, -1, 0, 97.03064161549054, 277.8620881933025)">
        <title>W_1 z</title>
        <path style="fill: none; stroke: rgb(0, 0, 0);" d="M -4.797 2.804 C -4.797 -0.51 -2.111 -3.196 1.203 -3.196 L 15.203 -3.196 L 15.203 16.804 L 1.203 16.804 C -2.111 16.804 -4.797 14.118 -4.797 10.804 Z" class="figure-element"/>
        <path style="fill: none; stroke: rgb(0, 0, 0);" d="M 15.203 -3.196 L 35.203 -3.196 L 35.203 16.804 L 15.203 16.804 Z" class="figure-element"/>
        <path style="fill: none; stroke: rgb(0, 0, 0);" d="M 35.203 -3.196 L 49.203 -3.196 C 52.517 -3.196 55.203 -0.51 55.203 2.804 L 55.203 10.804 C 55.203 14.118 52.517 16.804 49.203 16.804 L 35.203 16.804 Z" class="figure-element"/>
        <text x="59.454" y="324.652" style="font-size: 13px; white-space: pre;" class="figure-text" transform="matrix(0, -0.999996, 1, 0, -294.64856, 51.256889)"><tspan>W</tspan><tspan class="subscript">1</tspan><tspan style="font-weight: bold;"> z</tspan></text>
      </g>
    </g>
    <g transform="matrix(1, 0, 0, 1, 299.576843, 53.876701)">
      <title>y_2</title>
      <g transform="matrix(1, 0, 0, 1, 16.574657, 125.404266)">
        <title>x</title>
        <path style="fill: none; stroke: rgb(0, 0, 0);" transform="matrix(1, 0, 0, 1, 0, 0)" d="M 0 6 a 6 6 0 0 1 6 -6 l 14 0 l 0 20 l -14 0 a 6 6 0 0 1 -6 -6 Z" class="figure-element"/>
        <path style="fill: none; stroke: rgb(0, 0, 0);" transform="matrix(1, 0, 0, 1, 20, 0)" d="M 0 0 l 20 0 l 0 20 l -20 0 Z" class="figure-element"/>
        <path style="fill: none; stroke: rgb(0, 0, 0);" transform="matrix(1, 0, 0, 1, 40, 0)" d="M 0 0 l 14 0 a 6 6 0 0 1 6 6 l 0 8 a 6 6 0 0 1 -6 6 l -14 0 Z" class="figure-element"/>
        <text x="59.454" y="324.652" style="font-size: 13px; white-space: pre;" class="figure-text" transform="matrix(1.000001, 0, 0, 1, -32.59383, -291.984375)"><tspan style="font-weight: bold;">x</tspan></text>
      </g>
      <g transform="matrix(1, 0, 0, 1, 50.255112, 214.023605)">
        <title>W_2</title>
        <path style="fill: none; stroke: rgb(0, 0, 0);" transform="matrix(1, 0, 0, 1, 0, 0)" d="M 0 6 a 6 6 0 0 1 6 -6 l 14 0 l 0 20 l -20 0 Z" class="figure-element"/>
        <path style="fill: none; stroke: rgb(0, 0, 0);" transform="matrix(1, 0, 0, 1, 20, 0)" d="M 0 0 l 20 0 l 0 20 l -20 0 Z" class="figure-element"/>
        <path style="fill: none; stroke: rgb(0, 0, 0);" transform="matrix(1, 0, 0, 1, 40, 0)" d="M 0 0 l 14 0 a 6 6 0 0 1 6 6 l 0 14l -20 0 Z" class="figure-element"/>
        <path style="fill: none; stroke: rgb(0, 0, 0);" transform="matrix(1, 0, 0, 1, 0, 20)" d="M 0 0 l 20 0 l 0 20 l -20 0 Z" class="figure-element"/>
        <path style="fill: none; stroke: rgb(0, 0, 0);" transform="matrix(1, 0, 0, 1, 20, 20)" d="M 0 0 l 20 0 l 0 20 l -20 0 Z" class="figure-element"/>
        <path style="fill: none; stroke: rgb(0, 0, 0);" transform="matrix(1, 0, 0, 1, 40, 20)" d="M 0 0 l 20 0 l 0 20 l -20 0 Z" class="figure-element"/>
        <path style="fill: none; stroke: rgb(0, 0, 0);" transform="matrix(1, 0, 0, 1, 0, 40)" d="M 0 0 l 20 0 l 0 20 l -14 0 a 6 6 0 0 1 -6 -6 Z" class="figure-element"/>
        <path style="fill: none; stroke: rgb(0, 0, 0);" transform="matrix(1, 0, 0, 1, 20, 40)" d="M 0 0 l 20 0 l 0 20 l -20 0 Z" class="figure-element"/>
        <path style="fill: none; stroke: rgb(0, 0, 0);" transform="matrix(1, 0, 0, 1, 40, 40)" d="M 0 0 l 20 0 l 0 14 a 6 6 0 0 1 -6 6 l -14 0 Z" class="figure-element"/>
        <text x="24.003" y="75.437" style="font-size: 13px; white-space: pre;" class="figure-text"><tspan>W</tspan><tspan class="subscript">2</tspan></text>
      </g>
      <g transform="matrix(0, 1, -1, 0, 135.255096, 214.023605)">
        <title>z</title>
        <path style="fill: none; stroke: rgb(0, 0, 0);" transform="matrix(1, 0, 0, 1, 0, 0)" d="M 0 6 a 6 6 0 0 1 6 -6 l 14 0 l 0 20 l -14 0 a 6 6 0 0 1 -6 -6 Z" class="figure-element"/>
        <path style="fill: none; stroke: rgb(0, 0, 0);" transform="matrix(1, 0, 0, 1, 20, 0)" d="M 0 0 l 20 0 l 0 20 l -20 0 Z" class="figure-element"/>
        <path style="fill: none; stroke: rgb(0, 0, 0);" transform="matrix(1, 0, 0, 1, 40, 0)" d="M 0 0 l 14 0 a 6 6 0 0 1 6 6 l 0 8 a 6 6 0 0 1 -6 6 l -14 0 Z" class="figure-element"/>
        <text x="59.454" y="324.652" style="font-size: 13px; white-space: pre;" class="figure-text" transform="matrix(0, -0.999996, 1, 0, -251.984375, 72.593506)"><tspan style="font-weight: bold;">z</tspan></text>
      </g>
      <g transform="matrix(0, 1, -1, 0, 119.47164990914712, 141.90926619095922)">
        <title>W_2 z</title>
        <path style="fill: none; stroke: rgb(0, 0, 0);" d="M -16.505 23.897 C -16.505 20.583 -13.819 17.897 -10.505 17.897 L 3.495 17.897 L 3.495 37.897 L -10.505 37.897 C -13.819 37.897 -16.505 35.211 -16.505 31.897 Z" class="figure-element"/>
        <path style="fill: none; stroke: rgb(0, 0, 0);" d="M 3.495 17.897 L 23.495 17.897 L 23.495 37.897 L 3.495 37.897 Z" class="figure-element"/>
        <path style="fill: none; stroke: rgb(0, 0, 0);" d="M 23.495 17.897 L 37.495 17.897 C 40.809 17.897 43.495 20.583 43.495 23.897 L 43.495 31.897 C 43.495 35.211 40.809 37.897 37.495 37.897 L 23.495 37.897 Z" class="figure-element"/>
        <text x="59.454" y="324.652" style="font-size: 13px; white-space: pre;" class="figure-text" transform="matrix(0, -0.999996, 1, 0, -306.356567, 72.349876)"><tspan>W</tspan><tspan class="subscript">2</tspan><tspan style="font-weight: bold;"> z</tspan></text>
      </g>
    </g>
    <g transform="matrix(1, 0, 0, 1, 360.069122, 97.433403)">
      <title>y_3</title>
      <g transform="matrix(1, 0, 0, 1, 176.598221, 81.847458)">
        <title>x</title>
        <path style="fill: none; stroke: rgb(0, 0, 0);" transform="matrix(1, 0, 0, 1, 0, 0)" d="M 0 6 a 6 6 0 0 1 6 -6 l 14 0 l 0 20 l -14 0 a 6 6 0 0 1 -6 -6 Z" class="figure-element"/>
        <path style="fill: none; stroke: rgb(0, 0, 0);" transform="matrix(1, 0, 0, 1, 20, 0)" d="M 0 0 l 20 0 l 0 20 l -20 0 Z" class="figure-element"/>
        <path style="fill: none; stroke: rgb(0, 0, 0);" transform="matrix(1, 0, 0, 1, 40, 0)" d="M 0 0 l 14 0 a 6 6 0 0 1 6 6 l 0 8 a 6 6 0 0 1 -6 6 l -14 0 Z" class="figure-element"/>
        <text x="59.454" y="324.652" style="font-size: 13px; white-space: pre;" class="figure-text" transform="matrix(1.000001, 0, 0, 1, -32.5938, -291.984375)"><tspan style="font-weight: bold;">x</tspan></text>
      </g>
      <g transform="matrix(1, 0, 0, 1, 211.507645, 170.466888)">
        <title>W_3</title>
        <path style="fill: none; stroke: rgb(0, 0, 0);" transform="matrix(1, 0, 0, 1, 0, 0)" d="M 0 6 a 6 6 0 0 1 6 -6 l 14 0 l 0 20 l -20 0 Z" class="figure-element"/>
        <path style="fill: none; stroke: rgb(0, 0, 0);" transform="matrix(1, 0, 0, 1, 20, 0)" d="M 0 0 l 20 0 l 0 20 l -20 0 Z" class="figure-element"/>
        <path style="fill: none; stroke: rgb(0, 0, 0);" transform="matrix(1, 0, 0, 1, 40, 0)" d="M 0 0 l 14 0 a 6 6 0 0 1 6 6 l 0 14l -20 0 Z" class="figure-element"/>
        <path style="fill: none; stroke: rgb(0, 0, 0);" transform="matrix(1, 0, 0, 1, 0, 20)" d="M 0 0 l 20 0 l 0 20 l -20 0 Z" class="figure-element"/>
        <path style="fill: none; stroke: rgb(0, 0, 0);" transform="matrix(1, 0, 0, 1, 20, 20)" d="M 0 0 l 20 0 l 0 20 l -20 0 Z" class="figure-element"/>
        <path style="fill: none; stroke: rgb(0, 0, 0);" transform="matrix(1, 0, 0, 1, 40, 20)" d="M 0 0 l 20 0 l 0 20 l -20 0 Z" class="figure-element"/>
        <path style="fill: none; stroke: rgb(0, 0, 0);" transform="matrix(1, 0, 0, 1, 0, 40)" d="M 0 0 l 20 0 l 0 20 l -14 0 a 6 6 0 0 1 -6 -6 Z" class="figure-element"/>
        <path style="fill: none; stroke: rgb(0, 0, 0);" transform="matrix(1, 0, 0, 1, 20, 40)" d="M 0 0 l 20 0 l 0 20 l -20 0 Z" class="figure-element"/>
        <path style="fill: none; stroke: rgb(0, 0, 0);" transform="matrix(1, 0, 0, 1, 40, 40)" d="M 0 0 l 20 0 l 0 14 a 6 6 0 0 1 -6 6 l -14 0 Z" class="figure-element"/>
        <text x="24.002" y="75.429" style="font-size: 13px; white-space: pre;" class="figure-text"><tspan>W</tspan><tspan class="subscript">3</tspan></text>
      </g>
      <g transform="matrix(0, 1, -1, 0, 296.50766, 170.466888)">
        <title>z</title>
        <path style="fill: none; stroke: rgb(0, 0, 0);" transform="matrix(1, 0, 0, 1, 0, 0)" d="M 0 6 a 6 6 0 0 1 6 -6 l 14 0 l 0 20 l -14 0 a 6 6 0 0 1 -6 -6 Z" class="figure-element"/>
        <path style="fill: none; stroke: rgb(0, 0, 0);" transform="matrix(1, 0, 0, 1, 20, 0)" d="M 0 0 l 20 0 l 0 20 l -20 0 Z" class="figure-element"/>
        <path style="fill: none; stroke: rgb(0, 0, 0);" transform="matrix(1, 0, 0, 1, 40, 0)" d="M 0 0 l 14 0 a 6 6 0 0 1 6 6 l 0 8 a 6 6 0 0 1 -6 6 l -14 0 Z" class="figure-element"/>
        <text x="26.793" y="249.719" style="font-size: 13px; white-space: pre;" class="figure-text" transform="matrix(0, -1, 1, 0, -177.0625, 39.921867)"><tspan style="font-weight: bold;">z</tspan></text>
      </g>
      <g transform="matrix(0, 1, -1, 0, 186.17523222605212, 127.11546406861768)">
        <title>W_3 z</title>
        <path style="fill: none; stroke: rgb(0, 0, 0);" d="M -45.268 -69.423 C -45.268 -72.736 -42.582 -75.423 -39.268 -75.423 L -25.268 -75.423 L -25.268 -55.423 L -39.268 -55.423 C -42.582 -55.423 -45.268 -58.109 -45.268 -61.423 Z" class="figure-element"/>
        <path style="fill: none; stroke: rgb(0, 0, 0);" d="M -25.268 -75.423 L -5.268 -75.423 L -5.268 -55.423 L -25.268 -55.423 Z" class="figure-element"/>
        <path style="fill: none; stroke: rgb(0, 0, 0);" d="M -5.268 -75.423 L 8.732 -75.423 C 12.046 -75.423 14.732 -72.736 14.732 -69.423 L 14.732 -61.423 C 14.732 -58.109 12.046 -55.423 8.732 -55.423 L -5.268 -55.423 Z" class="figure-element"/>
        <text x="26.793" y="249.719" style="font-size: 13px; white-space: pre;" class="figure-text" transform="matrix(0, -1, 1, 0, -260.197693, -53.641739)"><tspan>W</tspan><tspan class="subscript">3</tspan><tspan style="font-weight: bold;"> z</tspan></text>
      </g>
    </g>
    <g transform="matrix(1, 0, 0, 1, 299.83194, 47.13044)">
      <title>y</title>
      <path style="fill: none; stroke: rgb(0, 0, 0);" d="M -2.14 6 C -2.14 2.686 0.546 0 3.86 0 L 37.86 0 L 37.86 40 L 3.86 40 C 0.546 40 -2.14 37.314 -2.14 34 Z" class="figure-element"/>
      <path style="fill: none; stroke: rgb(0, 0, 0);" d="M 37.86 0 L 77.86 0 L 77.86 40 L 37.86 40 Z" class="figure-element"/>
      <path style="fill: none; stroke: rgb(0, 0, 0);" d="M 77.86 0 L 111.86 0 C 115.174 0 117.86 2.686 117.86 6 L 117.86 34 C 117.86 37.314 115.174 40 111.86 40 L 77.86 40 Z" class="figure-element"/>
      <text x="-13.458" y="25.033" style="font-size: 13px; white-space: pre;" class="figure-text"><tspan style="font-weight: bold;">y</tspan></text>
    </g>
    <path style="stroke: rgb(0, 0, 0);" d="M 317.692 87.13 C 318.691 89.909 320.137 92.506 321.972 94.82 L 317.692 93.27 L 313.412 94.82 C 315.247 92.507 316.692 89.909 317.692 87.13 Z" class="figure-path"/>
    <path style="fill: none; stroke: rgb(0, 0, 0);" class="figure-line" d="M 94.997 175.845 C 94.997 159.845 137.497 175.845 137.497 159.845 C 137.497 175.845 179.997 159.845 179.997 175.845"/>
    <path style="fill: none; stroke: rgb(0, 0, 0);" class="figure-line" d="M 316.151 175.845 C 316.151 159.845 358.651 175.845 358.651 159.845 C 358.651 175.845 401.151 159.845 401.151 175.845"/>
    <path style="fill: none; stroke: rgb(0, 0, 0);" class="figure-line" d="M 536.667 175.845 C 536.667 159.845 579.167 175.845 579.167 159.845 C 579.167 175.845 621.667 159.845 621.667 175.845"/>
    <path style="fill: none; stroke: rgb(0, 0, 0);" class="figure-line" d="M 397.692 87.13 C 393.412 155.297 577.741 115.938 577.741 150.419"/>
    <path style="fill: none; stroke: rgb(0, 0, 0);" class="figure-line" d="M 357.692 87.13 L 357.692 150.419"/>
    <path style="fill: none; stroke: rgb(0, 0, 0);" class="figure-line" d="M 317.692 87.13 C 321.972 156.869 137.448 119.111 137.448 150.419"/>
    <path style="fill: none; stroke: rgb(0, 0, 0);" class="figure-line" d="M 128.087 263.923 C 128.087 247.923 170.587 263.923 170.587 247.923 C 170.587 263.923 213.087 247.923 213.087 263.923"/>
    <path style="fill: none; stroke: rgb(0, 0, 0);" class="figure-line" d="M 349.832 263.923 C 349.832 247.923 392.332 263.923 392.332 247.923 C 392.332 263.923 434.832 247.923 434.832 263.923"/>
    <path style="fill: none; stroke: rgb(0, 0, 0);" class="figure-line" d="M 571.577 263.923 C 571.577 247.923 614.077 263.923 614.077 247.923 C 614.077 263.923 656.577 247.923 656.577 263.923"/>
    <path style="fill: rgb(216, 216, 216); stroke: rgb(0, 0, 0);" d="M 267.791 257.201"/>
    <path style="stroke: rgb(0, 0, 0);" d="M 357.692 87.13 C 358.691 89.909 360.137 92.506 361.972 94.82 L 357.692 93.27 L 353.412 94.82 C 355.247 92.507 356.692 89.909 357.692 87.13 Z" class="figure-path"/>
    <path style="stroke: rgb(0, 0, 0);" d="M 397.692 87.13 C 398.691 89.909 400.137 92.506 401.972 94.82 L 397.692 93.27 L 393.412 94.82 C 395.247 92.507 396.692 89.909 397.692 87.13 Z" class="figure-path"/>
  </g>
</svg>