<?xml version="1.0" encoding="utf-8"?>
<svg viewBox="0 0 744 500" xmlns="http://www.w3.org/2000/svg">
  <defs>
    <symbol id="arrow-up" viewBox="0 0 8.56 7.69">
      <title>Up arrow</title>
      <path style="stroke: rgb(0, 0, 0);" d="M 4.28 0 a 27.2 27.2 0 0 0 4.28 7.69 L 4.28 6.14 l -4.28 1.55 A 27.17 27.17 0 0 0 4.28 0 Z" class="figure-path"/>
      <rect x="446.056" y="229.106" width="33.016" height="143.367" style="fill: none; stroke: rgb(0, 0, 0);" class="figure-element figure-box"/>
    </symbol>
    <symbol id="arrow-right" viewBox="0 0 7.69 8.56">
      <title>Right arrow</title>
      <path style="stroke: rgb(0, 0, 0);" d="M 7.69 4.28 C 4.911 5.279 2.314 6.725 0 8.56 L 1.55 4.28 L 0 0 C 2.314 1.835 4.911 3.28 7.69 4.28 Z" class="figure-path"/>
    </symbol>
    <symbol id="arrow-down" viewBox="0 0 8.56 7.69">
      <title>Down arrow</title>
      <path style="stroke: rgb(0, 0, 0);" d="M 4.28 7.69 a 27.2 27.2 0 0 0 -4.28 -7.69 l 4.28 1.55 4.28 -1.55 A 27.18 27.18 0 0 0 4.28 7.69 Z" class="figure-path"/>
    </symbol>
  </defs>
  <g transform="matrix(1, 0, 0, 1, -94.4758, 40.914658)" class="film-generator">
    <title>linguistic pipeline</title>
    <rect x="107.35" y="-19.873" width="221.01" height="445.599" style="fill: none; stroke: rgb(0, 0, 0);" class="figure-group figure-box figure-film-generator"/>
    <text x="120.494" y="-1.299" style="font-size: 13px; white-space: pre;" class="figure-text">linguistic pipeline</text>
    <g transform="matrix(1, 0, 0, 1, 43.845993, -212.03952)">
      <rect x="152.791" y="237.233" width="113.085" height="37.366" style="fill: none; stroke: rgb(0, 0, 0);" class="figure-element figure-box"/>
      <text x="196.331" y="260.83" style="font-size: 13px; white-space: pre;" class="figure-text">GRU</text>
      <text x="90.385" y="260.723" style="font-size: 13px; white-space: pre;" class="figure-text">Are</text>
    </g>
    <g transform="matrix(1, 0, 0, 1, 43.845993, -161.775177)">
      <rect x="152.791" y="237.233" width="113.085" height="37.366" style="fill: none; stroke: rgb(0, 0, 0);" class="figure-element figure-box"/>
      <text x="196.339" y="260.83" style="font-size: 13px; white-space: pre;" class="figure-text">GRU</text>
      <text x="90.382" y="260.724" style="font-size: 13px; white-space: pre;" class="figure-text">there</text>
    </g>
    <g transform="matrix(1, 0, 0, 1, 43.845993, -111.510811)">
      <rect x="152.791" y="237.233" width="113.085" height="37.366" style="fill: none; stroke: rgb(0, 0, 0);" class="figure-element figure-box"/>
      <text x="196.339" y="260.83" style="font-size: 13px; white-space: pre;" class="figure-text">GRU</text>
      <text x="90.383" y="260.733" style="font-size: 13px; white-space: pre;" class="figure-text">more</text>
    </g>
    <g transform="matrix(1, 0, 0, 1, 43.845993, -61.246445)">
      <rect x="152.791" y="237.233" width="113.085" height="37.366" style="fill: none; stroke: rgb(0, 0, 0);" class="figure-element figure-box"/>
      <text x="196.339" y="260.83" style="font-size: 13px; white-space: pre;" class="figure-text">GRU</text>
      <text x="90.382" y="260.73" style="font-size: 13px; white-space: pre;" class="figure-text">cubes</text>
    </g>
    <g transform="matrix(1, 0, 0, 1, 43.846004, -10.982122)">
      <rect x="152.791" y="237.233" width="113.085" height="37.366" style="fill: none; stroke: rgb(0, 0, 0);" class="figure-element figure-box"/>
      <text x="196.339" y="260.83" style="font-size: 13px; white-space: pre;" class="figure-text">GRU</text>
      <text x="90.396" y="260.731" style="font-size: 13px; white-space: pre;" class="figure-text">than</text>
    </g>
    <g transform="matrix(1, 0, 0, 1, 43.845993, 39.282253)">
      <rect x="152.791" y="237.233" width="113.085" height="37.366" style="fill: none; stroke: rgb(0, 0, 0);" class="figure-element figure-box"/>
      <text x="196.331" y="260.83" style="font-size: 13px; white-space: pre;" class="figure-text">GRU</text>
      <text x="90.391" y="260.733" style="font-size: 13px; white-space: pre;" class="figure-text">yellow</text>
    </g>
    <g transform="matrix(1, 0, 0, 1, 43.845993, 89.54657)">
      <rect x="152.791" y="237.233" width="113.085" height="37.366" style="fill: none; stroke: rgb(0, 0, 0);" class="figure-element figure-box"/>
      <text x="196.331" y="260.83" style="font-size: 13px; white-space: pre;" class="figure-text">GRU</text>
      <text x="196.331" y="260.83" style="font-size: 13px; white-space: pre;" class="figure-text" transform="matrix(1, 0, 0, 0.999999, -105.946205, -0.107194)">things</text>
    </g>
    <g transform="matrix(1, 0, 0, 1, 43.845993, 139.810959)">
      <rect x="152.791" y="237.233" width="113.085" height="37.366" style="fill: none; stroke: rgb(0, 0, 0);" class="figure-element figure-box"/>
      <text x="194.675" y="260.83" style="font-size: 13px; white-space: pre;" class="figure-text">linear</text>
    </g>
    <path style="fill: none; stroke: rgb(0, 0, 0);" d="M 176.831 43.876 L 196.637 43.876" class="figure-line"/>
    <path style="fill: none; stroke: rgb(0, 0, 0);" d="M 176.831 94.141 L 196.143 94.141" class="figure-line"/>
    <path style="fill: none; stroke: rgb(0, 0, 0);" d="M 176.831 144.405 L 196.637 144.405" class="figure-line"/>
    <path style="fill: none; stroke: rgb(0, 0, 0);" d="M 176.831 194.67 L 196.143 194.67" class="figure-line"/>
    <path style="fill: none; stroke: rgb(0, 0, 0);" d="M 176.831 244.934 L 196.637 244.934" class="figure-line"/>
    <path style="fill: none; stroke: rgb(0, 0, 0);" d="M 176.831 295.198 L 196.143 295.198" class="figure-line"/>
    <path style="fill: none; stroke: rgb(0, 0, 0);" d="M 176.831 345.463 L 196.143 345.463" class="figure-line"/>
    <path style="fill: none; stroke: rgb(0, 0, 0);" d="M 253.18 75.458 L 253.18 62.559" class="figure-line"/>
    <path style="fill: none; stroke: rgb(0, 0, 0);" d="M 253.18 125.722 L 253.18 112.824" class="figure-line"/>
    <path style="fill: none; stroke: rgb(0, 0, 0);" d="M 253.18 175.987 L 253.18 163.088" class="figure-line"/>
    <path style="fill: none; stroke: rgb(0, 0, 0);" d="M 253.18 226.251 L 253.18 213.353" class="figure-line"/>
    <path style="fill: none; stroke: rgb(0, 0, 0);" d="M 253.18 276.515 L 253.18 263.617" class="figure-line"/>
    <path style="fill: none; stroke: rgb(0, 0, 0);" d="M 253.18 326.78 L 253.18 313.881" class="figure-line"/>
    <path style="fill: none; stroke: rgb(0, 0, 0);" d="M 253.18 377.044 L 253.18 364.146" class="figure-line"/>
  </g>
  <g transform="matrix(1, 0, 0, 1, 143.697891, 21.671867)" class="filmed-network">
    <title>visual pipeline</title>
    <rect x="107.35" y="33.418" width="260.241" height="326.177" style="fill: none; stroke: rgb(0, 0, 0);" class="figure-group figure-box figure-filmed-network"/>
    <g transform="matrix(1, 0, 0, 1, 43.461548, 65.579681)">
      <rect x="122.142" y="237.233" width="143.734" height="37.366" style="fill: none; stroke: rgb(0, 0, 0);" class="figure-element figure-box"/>
      <text x="153.606" y="135.187" style="font-size: 13px; white-space: pre;" transform="matrix(1, 0, 0, 1, -4.451978, 125.642685)" class="figure-text">feature extractor</text>
    </g>
    <text x="116.991" y="51.162" style="font-size: 13px; white-space: pre;" class="figure-text">visual pipeline</text>
    <text x="204.456" y="-1.433" style="font-size: 13px; white-space: pre;" class="figure-text">Answer: yes</text>
    <g transform="matrix(1, 0, 0, 1, 43.461517, 3.729388)">
      <rect x="122.142" y="237.233" width="143.734" height="37.366" style="fill: none; stroke: rgb(0, 0, 0);" class="figure-element figure-box"/>
      <text x="153.606" y="135.187" style="font-size: 13px; white-space: pre;" transform="matrix(1, 0, 0, 1, -4.451978, 125.642685)" class="figure-text">residual block 1</text>
    </g>
    <g transform="matrix(1, 0, 0, 1, 43.461517, -55.11668)">
      <rect x="122.142" y="237.233" width="143.734" height="37.366" style="fill: none; stroke: rgb(0, 0, 0);" class="figure-element figure-box"/>
      <text x="153.606" y="135.187" style="font-size: 13px; white-space: pre;" transform="matrix(1, 0, 0, 1, -4.451978, 125.642685)" class="figure-text">residual block 2</text>
    </g>
    <g transform="matrix(1, 0, 0, 1, 43.461517, -113.962746)">
      <rect x="122.142" y="237.233" width="143.734" height="37.366" style="fill: none; stroke: rgb(0, 0, 0);" class="figure-element figure-box"/>
      <text x="153.606" y="135.187" style="font-size: 13px; white-space: pre;" transform="matrix(1, 0, 0, 1, -4.451978, 125.642685)" class="figure-text">residual block N</text>
      <text x="189.074" y="288.159" style="font-size: 13px; white-space: pre;" class="figure-text">...</text>
    </g>
    <g transform="matrix(1, 0, 0, 1, 43.461517, -177.712646)">
      <rect x="122.142" y="237.233" width="143.734" height="37.366" style="fill: none; stroke: rgb(0, 0, 0);" class="figure-element figure-box"/>
      <text x="170.177" y="260.83" style="font-size: 13px; white-space: pre;" class="figure-text">classifier</text>
    </g>
    <path style="fill: none; stroke: rgb(0, 0, 0);" d="M 237.47 378.328 L 237.47 340.179" class="figure-line"/>
    <path style="fill: none; stroke: rgb(0, 0, 0);" d="M 237.47 302.813 L 237.47 278.328" class="figure-line"/>
    <path style="fill: none; stroke: rgb(0, 0, 0);" d="M 237.47 240.962 L 237.47 219.482" class="figure-line"/>
    <path style="fill: none; stroke: rgb(0, 0, 0);" d="M 237.47 123.27 L 237.47 96.886" class="figure-line"/>
    <path style="fill: none; stroke: rgb(0, 0, 0);" d="M 237.47 59.52 L 237.47 10.425" class="figure-line"/>
  </g>
  <g transform="matrix(1, 0, 0, 1, 360.588715, 40.914715)" class="style-transfer-network">
    <title>residual block detail</title>
    <rect x="165.604" y="13.294" width="201.987" height="379.264" style="fill: none; stroke: rgb(0, 0, 0);" class="figure-group figure-box figure-dashed"/>
    <g transform="matrix(1, 0, 0, 1, 86.588493, 97.835014)">
      <rect x="122.142" y="237.233" width="143.734" height="37.366" style="fill: none; stroke: rgb(0, 0, 0);" class="figure-element figure-box"/>
      <text x="153.606" y="135.187" style="font-size: 13px; white-space: pre;" transform="matrix(1, 0, 0, 1, -4.451978, 125.642685)" class="figure-text">convolution</text>
    </g>
    <g transform="matrix(1, 0, 0, 1, 86.588539, 37.50499)">
      <rect x="122.142" y="237.233" width="143.734" height="37.366" style="fill: none; stroke: rgb(0, 0, 0);" class="figure-element figure-box"/>
      <text x="153.606" y="135.187" style="font-size: 13px; white-space: pre;" transform="matrix(1, 0, 0, 1, -4.451978, 125.642685)" class="figure-text">ReLU</text>
    </g>
    <g transform="matrix(1, 0, 0, 1, 86.588539, -22.825003)">
      <rect x="122.142" y="237.233" width="143.734" height="37.366" style="fill: none; stroke: rgb(0, 0, 0);" class="figure-element figure-box"/>
      <text x="153.606" y="135.187" style="font-size: 13px; white-space: pre;" transform="matrix(1, 0, 0, 1, -4.451978, 125.642685)" class="figure-text">convolution</text>
    </g>
    <g transform="matrix(1, 0, 0, 1, 86.588539, -83.154991)">
      <rect x="122.142" y="237.233" width="143.734" height="37.366" style="fill: none; stroke: rgb(0, 0, 0);" class="figure-element figure-box"/>
      <text x="153.606" y="135.187" style="font-size: 13px; white-space: pre;" transform="matrix(1, 0, 0, 1, -4.451978, 125.642685)" class="figure-text">batch normalization</text>
    </g>
    <g transform="matrix(1, 0, 0, 1, 86.588539, -143.485001)" class="film-layer">
      <rect x="122.142" y="237.233" width="143.734" height="37.366" style="fill: none; stroke: rgb(0, 0, 0);" class="figure-element figure-box figure-film-layer"/>
      <text x="170.177" y="260.83" style="font-size: 13px; white-space: pre;" class="figure-text">FiLM</text>
    </g>
    <g transform="matrix(1, 0, 0, 1, 86.588493, -203.815002)">
      <rect x="122.142" y="237.233" width="143.734" height="37.366" style="fill: none; stroke: rgb(0, 0, 0);" class="figure-element figure-box"/>
      <text x="170.177" y="260.83" style="font-size: 13px; white-space: pre;" class="figure-text">ReLU</text>
    </g>
    <path style="fill: none; stroke: rgb(0, 0, 0);" d="M 280.598 411.296 L 280.598 372.434" class="figure-line"/>
    <path style="fill: none; stroke: rgb(0, 0, 0);" d="M 280.598 335.068 L 280.598 312.104" class="figure-line"/>
    <path style="fill: none; stroke: rgb(0, 0, 0);" d="M 280.598 274.738 L 280.598 251.774" class="figure-line"/>
    <path style="fill: none; stroke: rgb(0, 0, 0);" d="M 280.598 214.408 L 280.598 191.444" class="figure-line"/>
    <path style="fill: none; stroke: rgb(0, 0, 0);" d="M 280.598 154.078 L 280.598 131.114" class="figure-line"/>
    <path style="fill: none; stroke: rgb(0, 0, 0);" d="M 280.598 93.748 L 280.598 70.784" class="figure-line"/>
    <path style="fill: none; stroke: rgb(0, 0, 0);" d="M 280.598 33.418 L 280.598 -3.825" class="figure-line"/>
  </g>
  <path style="fill: none; stroke: rgb(0, 0, 0);" d="M 215.406 436.642 L 263.004 436.642 L 263.004 163.625 L 309.168 163.625" class="figure-line"/>
  <path style="fill: none; stroke: rgb(0, 0, 0);" d="M 309.168 281.318 L 263.004 281.318" class="figure-line"/>
  <path style="fill: none; stroke: rgb(0, 0, 0);" d="M 309.168 222.472 L 263.004 222.472" class="figure-line"/>
  <rect x="309.168" y="400" width="144" height="96" style="fill: rgb(216, 216, 216);" id="image-placeholder">
    <title>image placeholder</title>
  </rect>
  <path style="fill: none; stroke: rgb(0, 0, 0);" d="M 537.09 153.346 L 569.319 153.346" class="figure-line"/>
  <text x="269.011" y="156.492" style="font-size: 13px; white-space: pre;" class="figure-text"><tspan>β</tspan><tspan class="subscript">N</tspan><tspan>, γ</tspan><tspan class="subscript">N</tspan></text>
  <text x="269.011" y="215.338" style="font-size: 13px; white-space: pre;" class="figure-text"><tspan>β</tspan><tspan class="subscript">2</tspan><tspan>, γ</tspan><tspan class="subscript">2</tspan></text>
  <text x="116.991" y="51.162" style="font-size: 13px; white-space: pre;" class="figure-text" transform="matrix(1, 0, 0, 1.000001, 152.019623, 223.021576)"><tspan>β</tspan><tspan class="subscript">1</tspan><tspan>, γ</tspan><tspan class="subscript">1</tspan></text>
  <text x="537.33" y="146.679" style="font-size: 13px; white-space: pre;" class="figure-text"><tspan>β</tspan><tspan class="subscript">1</tspan><tspan>, γ</tspan><tspan class="subscript">1</tspan></text>
  <path style="fill: none; stroke: rgb(0, 0, 0);" d="M 453.168 262.482 L 526.193 54.048" class="figure-line figure-dashed"/>
  <path style="fill: none; stroke: rgb(0, 0, 0);" d="M 453.168 300 L 526.193 433.633" class="figure-line figure-dashed"/>
  <path style="stroke: rgb(0, 0, 0);" d="M 102.161 84.791 C 99.382 85.79 96.785 87.236 94.471 89.071 L 96.021 84.791 L 94.471 80.511 C 96.785 82.346 99.382 83.791 102.161 84.791 Z" class="figure-path"/>
  <path style="stroke: rgb(0, 0, 0);" d="M 102.161 135.055 C 99.382 136.054 96.785 137.5 94.471 139.335 L 96.021 135.055 L 94.471 130.775 C 96.785 132.61 99.382 134.055 102.161 135.055 Z" class="figure-path"/>
  <path style="stroke: rgb(0, 0, 0);" d="M 102.161 185.32 C 99.382 186.319 96.785 187.765 94.471 189.6 L 96.021 185.32 L 94.471 181.04 C 96.785 182.875 99.382 184.32 102.161 185.32 Z" class="figure-path"/>
  <path style="stroke: rgb(0, 0, 0);" d="M 102.161 235.584 C 99.382 236.583 96.785 238.029 94.471 239.864 L 96.021 235.584 L 94.471 231.304 C 96.785 233.139 99.382 234.584 102.161 235.584 Z" class="figure-path"/>
  <path style="stroke: rgb(0, 0, 0);" d="M 102.161 285.849 C 99.382 286.848 96.785 288.294 94.471 290.129 L 96.021 285.849 L 94.471 281.569 C 96.785 283.404 99.382 284.849 102.161 285.849 Z" class="figure-path"/>
  <path style="stroke: rgb(0, 0, 0);" d="M 102.161 336.113 C 99.382 337.112 96.785 338.558 94.471 340.393 L 96.021 336.113 L 94.471 331.833 C 96.785 333.668 99.382 335.113 102.161 336.113 Z" class="figure-path"/>
  <path style="stroke: rgb(0, 0, 0);" d="M 102.161 386.377 C 99.382 387.376 96.785 388.822 94.471 390.657 L 96.021 386.377 L 94.471 382.097 C 96.785 383.932 99.382 385.377 102.161 386.377 Z" class="figure-path"/>
  <path style="stroke: rgb(0, 0, 0);" d="M 309.301 163.625 C 306.522 164.624 303.925 166.07 301.611 167.905 L 303.161 163.625 L 301.611 159.345 C 303.925 161.18 306.522 162.625 309.301 163.625 Z" class="figure-path"/>
  <path style="stroke: rgb(0, 0, 0);" d="M 309.301 222.471 C 306.522 223.47 303.925 224.916 301.611 226.751 L 303.161 222.471 L 301.611 218.191 C 303.925 220.026 306.522 221.471 309.301 222.471 Z" class="figure-path"/>
  <path style="stroke: rgb(0, 0, 0);" d="M 309.301 281.317 C 306.522 282.316 303.925 283.762 301.611 285.597 L 303.161 281.317 L 301.611 277.037 C 303.925 278.872 306.522 280.317 309.301 281.317 Z" class="figure-path"/>
  <path style="stroke: rgb(0, 0, 0);" d="M 569.319 153.346 C 566.54 154.345 563.943 155.791 561.629 157.626 L 563.179 153.346 L 561.629 149.066 C 563.943 150.901 566.54 152.346 569.319 153.346 Z" class="figure-path"/>
  <path style="stroke: rgb(0, 0, 0);" d="M 158.704 116.372 C 157.704 113.593 156.259 110.996 154.424 108.682 L 158.704 110.232 L 162.984 108.682 C 161.149 110.996 159.704 113.593 158.704 116.372 Z" class="figure-path"/>
  <path style="stroke: rgb(0, 0, 0);" d="M 158.704 166.637 C 157.704 163.858 156.259 161.261 154.424 158.947 L 158.704 160.497 L 162.984 158.947 C 161.149 161.261 159.704 163.858 158.704 166.637 Z" class="figure-path"/>
  <path style="stroke: rgb(0, 0, 0);" d="M 158.704 216.901 C 157.704 214.122 156.259 211.525 154.424 209.211 L 158.704 210.761 L 162.984 209.211 C 161.149 211.525 159.704 214.122 158.704 216.901 Z" class="figure-path"/>
  <path style="stroke: rgb(0, 0, 0);" d="M 158.704 267.166 C 157.704 264.387 156.259 261.79 154.424 259.476 L 158.704 261.026 L 162.984 259.476 C 161.149 261.79 159.704 264.387 158.704 267.166 Z" class="figure-path"/>
  <path style="stroke: rgb(0, 0, 0);" d="M 158.704 317.43 C 157.704 314.651 156.259 312.054 154.424 309.74 L 158.704 311.29 L 162.984 309.74 C 161.149 312.054 159.704 314.651 158.704 317.43 Z" class="figure-path"/>
  <path style="stroke: rgb(0, 0, 0);" d="M 158.704 367.694 C 157.704 364.915 156.259 362.318 154.424 360.004 L 158.704 361.554 L 162.984 360.004 C 161.149 362.318 159.704 364.915 158.704 367.694 Z" class="figure-path"/>
  <path style="stroke: rgb(0, 0, 0);" d="M 158.704 417.959 C 157.704 415.18 156.259 412.583 154.424 410.269 L 158.704 411.819 L 162.984 410.269 C 161.149 412.583 159.704 415.18 158.704 417.959 Z" class="figure-path"/>
  <path style="stroke: rgb(0, 0, 0);" d="M 381.168 361.851 C 382.168 364.629 383.613 367.227 385.448 369.541 L 381.168 367.991 L 376.888 369.541 C 378.723 367.227 380.169 364.63 381.168 361.851 Z" class="figure-path"/>
  <path style="stroke: rgb(0, 0, 0);" d="M 381.168 300 C 382.168 302.778 383.613 305.376 385.448 307.69 L 381.168 306.14 L 376.888 307.69 C 378.723 305.376 380.169 302.779 381.168 300 Z" class="figure-path"/>
  <path style="stroke: rgb(0, 0, 0);" d="M 381.168 241.154 C 382.168 243.932 383.613 246.53 385.448 248.844 L 381.168 247.294 L 376.888 248.844 C 378.723 246.53 380.169 243.933 381.168 241.154 Z" class="figure-path"/>
  <path style="stroke: rgb(0, 0, 0);" d="M 381.168 118.558 C 382.168 121.336 383.613 123.934 385.448 126.248 L 381.168 124.698 L 376.888 126.248 C 378.723 123.934 380.169 121.337 381.168 118.558 Z" class="figure-path"/>
  <path style="stroke: rgb(0, 0, 0);" d="M 381.168 32.097 C 382.168 34.875 383.613 37.473 385.448 39.787 L 381.168 38.237 L 376.888 39.787 C 378.723 37.473 380.169 34.876 381.168 32.097 Z" class="figure-path"/>
  <path style="stroke: rgb(0, 0, 0);" d="M 641.186 413.349 C 642.186 416.127 643.631 418.725 645.466 421.039 L 641.186 419.489 L 636.906 421.039 C 638.741 418.725 640.187 416.128 641.186 413.349 Z" class="figure-path"/>
  <path style="stroke: rgb(0, 0, 0);" d="M 641.186 353.019 C 642.186 355.797 643.631 358.395 645.466 360.709 L 641.186 359.159 L 636.906 360.709 C 638.741 358.395 640.187 355.798 641.186 353.019 Z" class="figure-path"/>
  <path style="stroke: rgb(0, 0, 0);" d="M 641.186 292.689 C 642.186 295.467 643.631 298.065 645.466 300.379 L 641.186 298.829 L 636.906 300.379 C 638.741 298.065 640.187 295.468 641.186 292.689 Z" class="figure-path"/>
  <path style="stroke: rgb(0, 0, 0);" d="M 641.186 232.359 C 642.186 235.137 643.631 237.735 645.466 240.049 L 641.186 238.499 L 636.906 240.049 C 638.741 237.735 640.187 235.138 641.186 232.359 Z" class="figure-path"/>
  <path style="stroke: rgb(0, 0, 0);" d="M 641.186 172.029 C 642.186 174.807 643.631 177.405 645.466 179.719 L 641.186 178.169 L 636.906 179.719 C 638.741 177.405 640.187 174.808 641.186 172.029 Z" class="figure-path"/>
  <path style="stroke: rgb(0, 0, 0);" d="M 641.186 111.699 C 642.186 114.477 643.631 117.075 645.466 119.389 L 641.186 117.839 L 636.906 119.389 C 638.741 117.075 640.187 114.478 641.186 111.699 Z" class="figure-path"/>
  <path style="stroke: rgb(0, 0, 0);" d="M 641.186 37.09 C 642.186 39.868 643.631 42.466 645.466 44.78 L 641.186 43.23 L 636.906 44.78 C 638.741 42.466 640.187 39.869 641.186 37.09 Z" class="figure-path"/>
</svg>