<?xml version="1.0" encoding="utf-8"?>
<svg viewBox="0 0 744 500" id="scatter-plot" xmlns="http://www.w3.org/2000/svg">
  <rect x="10" y="10" width="480" height="480" style="fill: none;" id="scatter-plot"/>
  <g transform="matrix(1, 0, 0, 1.000065, 10, -87.145264)" id="film-layer-6">
    <title>film layer 6</title>
    <rect x="500" y="97.139" width="121.65" height="29.998" style="stroke: rgb(0, 0, 0);" class="figure-element figure-box"/>
    <text x="603.791" y="32.789" style="font-size: 13px; white-space: pre;" transform="matrix(1, 0, 0, 1.000002, -77.089043, 84.380135)" class="figure-text">FiLM layer 6</text>
  </g>
  <g transform="matrix(1, 0, 0, 1.000065, 9.999977, -39.909805)" id="film-layer-5">
    <title>film layer 5</title>
    <rect x="500" y="97.139" width="121.65" height="29.998" style="stroke: rgb(0, 0, 0);" class="figure-element figure-box"/>
    <text x="603.791" y="32.789" style="font-size: 13px; white-space: pre;" transform="matrix(1, 0, 0, 1.000002, -77.089043, 84.380135)" class="figure-text">FiLM layer 5</text>
  </g>
  <g transform="matrix(1, 0, 0, 1.000065, 9.999977, 7.325655)" id="film-layer-4">
    <title>film layer 4</title>
    <rect x="500" y="97.139" width="121.65" height="29.998" style="stroke: rgb(0, 0, 0);" class="figure-element figure-box"/>
    <text x="603.791" y="32.789" style="font-size: 13px; white-space: pre;" transform="matrix(1, 0, 0, 1.000002, -77.089043, 84.380135)" class="figure-text">FiLM layer 4</text>
  </g>
  <g transform="matrix(1, 0, 0, 1.000065, 9.999977, 54.561115)" id="film-layer-3">
    <title>film layer 3</title>
    <rect x="500" y="97.139" width="121.65" height="29.998" style="stroke: rgb(0, 0, 0);" class="figure-element figure-box"/>
    <text x="603.791" y="32.789" style="font-size: 13px; white-space: pre;" transform="matrix(1, 0, 0, 1.000002, -77.089043, 84.380135)" class="figure-text">FiLM layer 3</text>
  </g>
  <g transform="matrix(1, 0, 0, 1.000065, 9.999977, 101.79657)" id="film-layer-2">
    <title>film layer 2</title>
    <rect x="500" y="97.139" width="121.65" height="29.998" style="stroke: rgb(0, 0, 0);" class="figure-element figure-box"/>
    <text x="603.791" y="32.789" style="font-size: 13px; white-space: pre;" transform="matrix(1, 0, 0, 1.000002, -77.089043, 84.380135)" class="figure-text">FiLM layer 2</text>
  </g>
  <g transform="matrix(1, 0, 0, 1.000065, 9.999977, 149.032059)" id="film-layer-1">
    <title>film layer 1</title>
    <rect x="500" y="97.139" width="121.65" height="29.998" style="stroke: rgb(0, 0, 0);" class="figure-element figure-box"/>
    <text x="603.791" y="32.789" style="font-size: 13px; white-space: pre;" transform="matrix(1, 0, 0, 1.000002, -77.089043, 84.380135)" class="figure-text">FiLM layer 1</text>
  </g>
</svg>
