<?xml version="1.0" encoding="utf-8"?>
<svg viewBox="0 0 744 210.41366577148438" xmlns="http://www.w3.org/2000/svg">
  <title>Feature Map</title>
  <g transform="matrix(1, 0, 0, 1, 294.903748, 110.167625)" id="input-map">
    <path style="stroke: rgb(0, 0, 0); fill: none;" d="M 0 0 L 30 0 L 15 15 L -15 15 Z" class="figure-element"/>
    <path style="stroke: rgb(0, 0, 0); fill: none;" d="M 30 0 L 60 0 L 45 15 L 15 15 Z" class="figure-element"/>
    <path style="stroke: rgb(0, 0, 0); fill: none;" d="M 60 0 L 90 0 L 75 15 L 45 15 Z" class="figure-element"/>
    <path style="stroke: rgb(0, 0, 0); fill: none;" d="M 90 0 L 120 0 L 105 15 L 75 15 Z" class="figure-element"/>
    <path style="stroke: rgb(0, 0, 0); fill: none;" d="M 120 0 L 150 0 L 135 15 L 105 15 Z" class="figure-element"/>
    <path style="stroke: rgb(0, 0, 0); fill: none;" d="M -15 15 L 15 15 L 0 30 L -30 30 Z" class="figure-element"/>
    <path style="stroke: rgb(0, 0, 0); fill: none;" d="M 15 15 L 45 15 L 30 30 L 0 30 Z" class="figure-element"/>
    <path style="stroke: rgb(0, 0, 0); fill: none;" d="M 45 15 L 75 15 L 60 30 L 30 30 Z" class="figure-element"/>
    <path style="stroke: rgb(0, 0, 0); fill: none;" d="M 75 15 L 105 15 L 90 30 L 60 30 Z" class="figure-element"/>
    <path style="stroke: rgb(0, 0, 0); fill: none;" d="M 105 15 L 135 15 L 120 30 L 90 30 Z" class="figure-element"/>
    <path style="stroke: rgb(0, 0, 0); fill: none;" d="M -30 30 L 0 30 L -15 45 L -45 45 Z" class="figure-element"/>
    <path style="stroke: rgb(0, 0, 0); fill: none;" d="M 0 30 L 30 30 L 15 45 L -15 45 Z" class="figure-element"/>
    <path style="stroke: rgb(0, 0, 0); fill: none;" d="M 30 30 L 60 30 L 45 45 L 15 45 Z" class="figure-element"/>
    <path style="stroke: rgb(0, 0, 0); fill: none;" d="M 60 30 L 90 30 L 75 45 L 45 45 Z" class="figure-element"/>
    <path style="stroke: rgb(0, 0, 0); fill: none;" d="M 90 30 L 120 30 L 105 45 L 75 45 Z" class="figure-element"/>
    <path style="stroke: rgb(0, 0, 0); fill: none;" d="M -45 45 L -15 45 L -30 60 L -60 60 Z" class="figure-element"/>
    <path style="stroke: rgb(0, 0, 0); fill: none;" d="M -15 45 L 15 45 L 0 60 L -30 60 Z" class="figure-element"/>
    <path style="stroke: rgb(0, 0, 0); fill: none;" d="M 15 45 L 45 45 L 30 60 L 0 60 Z" class="figure-element"/>
    <path style="stroke: rgb(0, 0, 0); fill: none;" d="M 45 45 L 75 45 L 60 60 L 30 60 Z" class="figure-element"/>
    <path style="stroke: rgb(0, 0, 0); fill: none;" d="M 75 45 L 105 45 L 90 60 L 60 60 Z" class="figure-element"/>
    <path style="stroke: rgb(0, 0, 0); fill: none;" d="M -60 60 L -30 60 L -45 75 L -75 75 Z" class="figure-element"/>
    <path style="stroke: rgb(0, 0, 0); fill: none;" d="M -30 60 L 0 60 L -15 75 L -45 75 Z" class="figure-element"/>
    <path style="stroke: rgb(0, 0, 0); fill: none;" d="M 0 60 L 30 60 L 15 75 L -15 75 Z" class="figure-element"/>
    <path style="stroke: rgb(0, 0, 0); fill: none;" d="M 30 60 L 60 60 L 45 75 L 15 75 Z" class="figure-element"/>
    <path style="stroke: rgb(0, 0, 0); fill: none;" d="M 60 60 L 90 60 L 75 75 L 45 75 Z" class="figure-element"/>
  </g>
  <g transform="matrix(1, 0, 0, 1, 294.703979, 101.667625)" id="kernel">
    <path style="stroke: rgb(0, 0, 0); fill: none;" d="M 0 0 L 30 0 L 15 15 L -15 15 Z" class="figure-element"/>
    <path style="stroke: rgb(0, 0, 0); fill: none;" d="M 30 0 L 60 0 L 45 15 L 15 15 Z" class="figure-element"/>
    <path style="stroke: rgb(0, 0, 0); fill: none;" d="M 60 0 L 90 0 L 75 15 L 45 15 Z" class="figure-element"/>
    <path style="stroke: rgb(0, 0, 0); fill: none;" d="M -15 15 L 15 15 L 0 30 L -30 30 Z" class="figure-element"/>
    <path style="stroke: rgb(0, 0, 0); fill: none;" d="M 15 15 L 45 15 L 30 30 L 0 30 Z" class="figure-element"/>
    <path style="stroke: rgb(0, 0, 0); fill: none;" d="M 45 15 L 75 15 L 60 30 L 30 30 Z" class="figure-element"/>
    <path style="stroke: rgb(0, 0, 0); fill: none;" d="M -30 30 L 0 30 L -15 45 L -45 45 Z" class="figure-element"/>
    <path style="stroke: rgb(0, 0, 0); fill: none;" d="M 0 30 L 30 30 L 15 45 L -15 45 Z" class="figure-element"/>
    <path style="stroke: rgb(0, 0, 0); fill: none;" d="M 30 30 L 60 30 L 45 45 L 15 45 Z" class="figure-element"/>
    <path style="stroke: rgb(0, 0, 0); fill: none;" d="M -45 45 L 0.588 -68.185" class="figure-line"/>
    <path style="stroke: rgb(0, 0, 0); fill: none;" d="M 44.128 45 L 27.662 -68.185" class="figure-line"/>
    <path style="stroke: rgb(0, 0, 0); fill: none;" d="M 90 -0.001 L 44.128 -81.501" class="figure-line"/>
    <path style="stroke: rgb(0, 0, 0); fill: none;" d="M 0.588 -0.001 L 13.315 -81.501" class="figure-line"/>
  </g>
  <g transform="matrix(1, 0, 0, 1, 309.703979, 20.167629)" id="output-map">
    <path style="stroke: rgb(0, 0, 0); fill: none;" d="M 0 0 L 30 0 L 15 15 L -15 15 Z" class="figure-element"/>
    <path style="stroke: rgb(0, 0, 0); fill: none;" d="M 30 0 L 60 0 L 45 15 L 15 15 Z" class="figure-element"/>
    <path style="stroke: rgb(0, 0, 0); fill: none;" d="M 60 0 L 90 0 L 75 15 L 45 15 Z" class="figure-element"/>
    <path style="stroke: rgb(0, 0, 0); fill: none;" d="M -15 15 L 15 15 L 0 30 L -30 30 Z" class="figure-element"/>
    <path style="stroke: rgb(0, 0, 0); fill: none;" d="M 15 15 L 45 15 L 30 30 L 0 30 Z" class="figure-element"/>
    <path style="stroke: rgb(0, 0, 0); fill: none;" d="M 45 15 L 75 15 L 60 30 L 30 30 Z" class="figure-element"/>
    <path style="stroke: rgb(0, 0, 0); fill: none;" d="M -30 30 L 0 30 L -15 45 L -45 45 Z" class="figure-element"/>
    <path style="stroke: rgb(0, 0, 0); fill: none;" d="M 0 30 L 30 30 L 15 45 L -15 45 Z" class="figure-element"/>
    <path style="stroke: rgb(0, 0, 0); fill: none;" d="M 30 30 L 60 30 L 45 45 L 15 45 Z" class="figure-element"/>
  </g>
</svg>