<?xml version="1.0" encoding="utf-8"?>
<svg viewBox="0 0 744 500" xmlns="http://www.w3.org/2000/svg">
  <g transform="matrix(1, 0, 0, 1, 48.333298, -8.329268)" class="style-transfer-network">
    <title>PixelCNN layer</title>
    <g class="filmed-network">
      <rect x="20.122" y="26.828" width="439.494" height="415.934" style="fill: none; stroke: rgb(0, 0, 0);" class="figure-group figure-box figure-filmed-network"/>
      <text x="32.371" y="46.7" style="font-size: 13px; white-space: pre;" class="figure-text">LSTM layer</text>
    </g>
    <text x="62.309" y="468.917" style="font-size: 13px; white-space: pre;" class="figure-text"><tspan style="font-weight: bold;">x</tspan><tspan class="subscript">t</tspan></text>
    <text x="-20.538" y="88.165" style="font-size: 13px; white-space: pre;" class="figure-text"><tspan style="font-weight: bold;">c</tspan><tspan class="subscript">t-1</tspan></text>
    <text x="-20.538" y="391.793" style="font-size: 13px; white-space: pre;" class="figure-text"><tspan style="font-weight: bold;">h</tspan><tspan class="subscript">t-1</tspan></text>
    <path style="fill: none; stroke: rgb(0, 0, 0);" d="M 484.639 194.849 L 412.773 327.873" class="figure-line figure-dashed"/>
    <g transform="matrix(1, 0, 0, 1, -150.894989, 208.104858)" class="film-generator" id="film-gen-utt-sum">
      <rect x="122.142" y="242.785" width="71.092" height="26.261" style="fill: none; stroke: rgb(0, 0, 0);" class="figure-element figure-box figure-film-generator"/>
      <text x="134.062" y="260.769" style="font-size: 13px; white-space: pre;" class="figure-text">utt. sum.</text>
    </g>
    <g transform="matrix(1, 0, 0, 1, -69.972153, -236.591736)">
      <ellipse style="stroke: rgb(0, 0, 0); fill: none;" cx="353.308" cy="319.998" rx="20" ry="20" class="figure-element"/>
      <line style="stroke: rgb(0, 0, 0); fill: none;" x1="353.308" y1="327.498" x2="353.308" y2="312.498" class="figure-line"/>
      <line style="stroke: rgb(0, 0, 0); fill: none;" x1="345.808" y1="319.998" x2="360.808" y2="319.998" class="figure-line"/>
    </g>
    <text x="561.526" y="357.631" style="font-size: 13px; white-space: pre;" class="figure-text">utt. sum.</text>
    <g transform="matrix(1, 0, 0, 1, 199.876862, 110.822769)">
      <ellipse style="stroke: rgb(0, 0, 0); fill: none;" cx="83.459" cy="144.469" rx="20" ry="20" class="figure-element"/>
      <text x="71.321" y="149.348" style="font-size: 13px; white-space: pre;" class="figure-text">tanh</text>
    </g>
    <g transform="matrix(1, 0, 0, 1, 104.864685, 110.822769)">
      <ellipse style="stroke: rgb(0, 0, 0); fill: none;" cx="83.459" cy="144.469" rx="20" ry="20" class="figure-element"/>
      <text x="79.616" y="149.348" style="font-size: 13px; white-space: pre;" class="figure-text">σ</text>
    </g>
    <g transform="matrix(1, 0, 0, 1, 294.889099, -26.328382)">
      <ellipse style="stroke: rgb(0, 0, 0); fill: none;" cx="83.459" cy="144.469" rx="20" ry="20" class="figure-element"/>
      <text x="71.321" y="149.348" style="font-size: 13px; white-space: pre;" class="figure-text">tanh</text>
    </g>
    <g transform="matrix(1, 0, 0, 1, 294.889099, 110.8228)">
      <ellipse style="stroke: rgb(0, 0, 0); fill: none;" cx="83.459" cy="144.469" rx="20" ry="20" class="figure-element"/>
      <text x="79.616" y="149.348" style="font-size: 13px; white-space: pre;" class="figure-text">σ</text>
    </g>
    <g transform="matrix(1, 0, 0, 1, -305.582794, -24.958437)"/>
    <g transform="matrix(1, 0, 0, 1, 9.852499, 110.822784)">
      <ellipse style="stroke: rgb(0, 0, 0); fill: none;" cx="83.459" cy="144.469" rx="20" ry="20" class="figure-element"/>
      <text x="79.616" y="149.348" style="font-size: 13px; white-space: pre;" class="figure-text">σ</text>
    </g>
    <g transform="matrix(1, 0, 0, 1, 93.31147, 83.40625)">
      <ellipse style="stroke: rgb(0, 0, 0); fill: none;" cx="0" cy="0" rx="20" ry="20" class="figure-element"/>
      <ellipse rx="2" ry="2" style="fill: none; stroke: rgb(0, 0, 0);" class="figure-path"/>
    </g>
    <g transform="matrix(1, 0, 0, 1, 283.335876, 174.849014)">
      <ellipse style="stroke: rgb(0, 0, 0); fill: none;" cx="0" cy="0" rx="20" ry="20" class="figure-element"/>
      <ellipse rx="2" ry="2" style="fill: none; stroke: rgb(0, 0, 0);" class="figure-path"/>
    </g>
    <g transform="matrix(1, 0, 0, 1, 378.348114, 174.849014)">
      <ellipse style="stroke: rgb(0, 0, 0); fill: none;" cx="0" cy="0" rx="20" ry="20" class="figure-element"/>
      <ellipse rx="2" ry="2" style="fill: none; stroke: rgb(0, 0, 0);" class="figure-path"/>
    </g>
    <rect x="58.887" y="297.453" width="68.849" height="60.841" style="fill: none; stroke: rgb(0, 0, 0);" class="figure-element figure-box figure-dashed"/>
    <rect x="153.899" y="297.453" width="68.849" height="60.841" style="fill: none; stroke: rgb(0, 0, 0);" class="figure-element figure-box figure-dashed"/>
    <rect x="248.911" y="297.453" width="68.849" height="60.841" style="fill: none; stroke: rgb(0, 0, 0);" class="figure-element figure-box figure-dashed"/>
    <rect x="343.924" y="297.453" width="68.849" height="60.841" style="fill: none; stroke: rgb(0, 0, 0);" class="figure-element figure-box figure-dashed"/>
    <rect x="484.639" y="98.141" width="201.026" height="235.703" style="fill: none; stroke: rgb(0, 0, 0);" class="figure-group figure-box figure-dashed"/>
    <path style="fill: none; stroke: rgb(0, 0, 0);" d="M 3.91 83.406 L 73.311 83.406" class="figure-line"/>
    <path style="fill: none; stroke: rgb(0, 0, 0);" d="M 113.312 83.406 L 263.336 83.406" class="figure-line"/>
    <path style="fill: none; stroke: rgb(0, 0, 0);" d="M 303.336 83.406 L 509.052 83.406" class="figure-line"/>
    <path style="fill: none; stroke: rgb(0, 0, 0);" d="M 93.312 297.453 L 93.312 275.17" class="figure-line"/>
    <path style="fill: none; stroke: rgb(0, 0, 0);" d="M 188.324 297.453 L 188.324 275.17" class="figure-line"/>
    <path style="fill: none; stroke: rgb(0, 0, 0);" d="M 283.336 297.453 L 283.336 275.17" class="figure-line"/>
    <path style="fill: none; stroke: rgb(0, 0, 0);" d="M 378.348 297.453 L 378.348 275.17" class="figure-line"/>
    <path style="fill: none; stroke: rgb(0, 0, 0);" d="M 283.336 235.292 L 283.336 194.849" class="figure-line"/>
    <path style="fill: none; stroke: rgb(0, 0, 0);" d="M 378.348 235.292 L 378.348 194.849" class="figure-line"/>
    <path style="fill: none; stroke: rgb(0, 0, 0);" d="M 378.348 154.849 L 378.348 138.141" class="figure-line"/>
    <path style="fill: none; stroke: rgb(0, 0, 0);" d="M 93.312 235.292 L 93.312 103.406" class="figure-line"/>
    <path style="fill: none; stroke: rgb(0, 0, 0);" d="M 283.336 154.849 L 283.336 103.406" class="figure-line"/>
    <path style="fill: none; stroke: rgb(0, 0, 0);" d="M 398.348 175.234 L 440.481 175.234 L 440.481 386.977 L 509.052 386.977" class="figure-line"/>
    <g transform="matrix(1, 0, 0, 1, 371.875, -39.340679)">
      <rect x="122.142" y="173.834" width="78.135" height="27.38" style="fill: none; stroke: rgb(0, 0, 0);" class="figure-element figure-box" transform="matrix(1, 0, 0, 0.999999, 0, 68.3915)"/>
      <text x="131.074" y="260.801" style="font-size: 13px; white-space: pre;" class="figure-text">layer norm.</text>
    </g>
    <g transform="matrix(1, 0, 0, 1, 231.844025, -195.434753)">
      <ellipse style="stroke: rgb(0, 0, 0); fill: none;" cx="353.308" cy="319.998" rx="20" ry="20" class="figure-element"/>
      <line style="stroke: rgb(0, 0, 0); fill: none;" x1="353.308" y1="327.498" x2="353.308" y2="312.498" class="figure-line"/>
      <line style="stroke: rgb(0, 0, 0); fill: none;" x1="345.808" y1="319.998" x2="360.808" y2="319.998" class="figure-line"/>
    </g>
    <g transform="matrix(1, 0, 0, 1, 371.875031, -90.136688)" class="film-layer">
      <rect x="122.142" y="173.834" width="78.135" height="27.38" style="fill: none; stroke: rgb(0, 0, 0);" class="figure-element figure-box figure-film-layer" transform="matrix(1, 0, 0, 0.999999, 0, 68.3915)"/>
      <text x="145.934" y="260.801" style="font-size: 13px; white-space: pre;" class="figure-text">affine</text>
    </g>
    <g transform="matrix(1, 0, 0, 1, 476.010071, -90.136688)" class="film-layer">
      <rect x="122.142" y="173.834" width="78.135" height="27.38" style="fill: none; stroke: rgb(0, 0, 0);" class="figure-element figure-box figure-film-layer" transform="matrix(1, 0, 0, 0.999999, 0, 68.3915)"/>
      <text x="145.942" y="260.809" style="font-size: 13px; white-space: pre;" class="figure-text">affine</text>
    </g>
    <g transform="matrix(1, 0, 0, 1, 476.010071, -39.340683)">
      <rect x="122.142" y="173.834" width="78.135" height="27.38" style="fill: none; stroke: rgb(0, 0, 0);" class="figure-element figure-box" transform="matrix(1, 0, 0, 0.999999, 0, 68.3915)"/>
      <text x="131.074" y="260.809" style="font-size: 13px; white-space: pre;" class="figure-text">layer norm.</text>
    </g>
    <path style="fill: none; stroke: rgb(0, 0, 0);" d="M 533.084 255.292 L 533.084 230.265" class="figure-line"/>
    <path style="fill: none; stroke: rgb(0, 0, 0);" d="M 587.152 288.551 L 587.152 165.779" class="figure-line"/>
    <path style="fill: none; stroke: rgb(0, 0, 0);" d="M 637.22 255.292 L 637.22 230.265" class="figure-line"/>
    <path style="fill: none; stroke: rgb(0, 0, 0);" d="M 637.22 202.885 L 637.22 179.469" class="figure-line"/>
    <path style="fill: none; stroke: rgb(0, 0, 0);" d="M 533.085 202.885 L 533.085 179.469" class="figure-line"/>
    <path style="fill: none; stroke: rgb(0, 0, 0);" d="M 585.152 104.563 L 585.152 76.141" class="figure-line"/>
    <path style="fill: none; stroke: rgb(0, 0, 0);" d="M 188.324 235.292 L 188.324 175.234 L 263.336 175.234" class="figure=line"/>
    <path style="fill: none; stroke: rgb(0, 0, 0);" d="M 303.336 83.406 L 378.348 83.406 L 378.348 98.141" class="figure=line"/>
    <path style="fill: none; stroke: rgb(0, 0, 0);" d="M 572.152 165.779 L 583.152 165.779" class="figure-line"/>
    <path style="fill: none; stroke: rgb(0, 0, 0);" d="M 533.084 152.089 L 533.084 124.563 L 565.152 124.563" class="figure=line"/>
    <path style="fill: none; stroke: rgb(0, 0, 0);" d="M 605.152 124.563 L 637.22 124.563 L 637.22 152.089" class="figure=line"/>
    <path style="stroke: rgb(0, 0, 0);" d="M 73.311 83.406 C 70.532 84.405 67.935 85.851 65.621 87.686 L 67.171 83.406 L 65.621 79.126 C 67.935 80.961 70.532 82.406 73.311 83.406 Z" class="figure-path"/>
    <path style="stroke: rgb(0, 0, 0);" d="M 263.336 174.849 C 260.557 175.848 257.96 177.294 255.646 179.129 L 257.196 174.849 L 255.646 170.569 C 257.96 172.404 260.557 173.849 263.336 174.849 Z" class="figure-path"/>
    <path style="stroke: rgb(0, 0, 0);" d="M 263.336 83.406 C 260.557 84.404 257.96 85.85 255.646 87.686 L 257.196 83.406 L 255.646 79.126 C 257.96 80.96 260.557 82.406 263.336 83.406 Z" class="figure-path"/>
    <path style="stroke: rgb(0, 0, 0);" d="M 509.052 83.406 C 506.273 84.405 503.676 85.851 501.362 87.686 L 502.912 83.406 L 501.362 79.126 C 503.676 80.961 506.273 82.406 509.052 83.406 Z" class="figure-path"/>
    <path style="stroke: rgb(0, 0, 0);" d="M 565.152 124.563 C 562.373 125.562 559.776 127.008 557.462 128.843 L 559.012 124.563 L 557.462 120.283 C 559.776 122.118 562.373 123.563 565.152 124.563 Z" class="figure-path"/>
    <path style="stroke: rgb(0, 0, 0);" d="M 598.152 165.779 C 595.373 166.778 592.776 168.224 590.462 170.059 L 592.012 165.779 L 590.462 161.499 C 592.776 163.334 595.373 164.779 598.152 165.779 Z" class="figure-path"/>
    <path style="stroke: rgb(0, 0, 0);" d="M -28.995 386.742 C -31.774 387.741 -34.371 389.187 -36.685 391.022 L -35.135 386.742 L -36.685 382.462 C -34.371 384.297 -31.774 385.742 -28.995 386.742 Z" class="figure-path"/>
    <path style="stroke: rgb(0, 0, 0);" d="M -28.995 83.117 C -31.774 84.116 -34.371 85.562 -36.685 87.397 L -35.135 83.117 L -36.685 78.837 C -34.371 80.672 -31.774 82.117 -28.995 83.117 Z" class="figure-path"/>
    <path style="stroke: rgb(0, 0, 0);" d="M 605.152 124.563 C 607.931 123.563 610.528 122.118 612.842 120.283 L 611.292 124.563 L 612.842 128.843 C 610.528 127.008 607.931 125.562 605.152 124.563 Z" class="figure-path"/>
    <path style="stroke: rgb(0, 0, 0);" d="M 572.152 165.779 C 574.931 164.779 577.528 163.334 579.842 161.499 L 578.292 165.779 L 579.842 170.059 C 577.528 168.224 574.931 166.778 572.152 165.779 Z" class="figure-path"/>
    <path style="stroke: rgb(0, 0, 0);" d="M 93.311 275.292 C 94.311 278.07 95.756 280.668 97.591 282.982 L 93.311 281.432 L 89.031 282.982 C 90.866 280.668 92.311 278.071 93.311 275.292 Z" class="figure-path"/>
    <path style="stroke: rgb(0, 0, 0);" d="M 188.324 275.292 C 189.324 278.07 190.769 280.668 192.604 282.982 L 188.324 281.432 L 184.044 282.982 C 185.879 280.668 187.325 278.071 188.324 275.292 Z" class="figure-path"/>
    <path style="stroke: rgb(0, 0, 0);" d="M 283.336 275.292 C 284.336 278.07 285.782 280.668 287.616 282.982 L 283.336 281.432 L 279.056 282.982 C 280.891 280.668 282.337 278.071 283.336 275.292 Z" class="figure-path"/>
    <path style="stroke: rgb(0, 0, 0);" d="M 378.348 275.292 C 379.348 278.07 380.794 280.668 382.628 282.982 L 378.348 281.432 L 374.068 282.982 C 375.904 280.668 377.349 278.071 378.348 275.292 Z" class="figure-path"/>
    <path style="stroke: rgb(0, 0, 0);" d="M 378.348 194.849 C 379.348 197.628 380.794 200.225 382.628 202.539 L 378.348 200.989 L 374.068 202.539 C 375.904 200.225 377.349 197.628 378.348 194.849 Z" class="figure-path"/>
    <path style="stroke: rgb(0, 0, 0);" d="M 283.336 103.406 C 284.336 106.185 285.782 108.782 287.616 111.096 L 283.336 109.546 L 279.056 111.096 C 280.892 108.783 282.337 106.185 283.336 103.406 Z" class="figure-path"/>
    <path style="stroke: rgb(0, 0, 0);" d="M 283.336 194.849 C 284.336 197.628 285.782 200.225 287.616 202.539 L 283.336 200.989 L 279.056 202.539 C 280.891 200.225 282.337 197.628 283.336 194.849 Z" class="figure-path"/>
    <path style="stroke: rgb(0, 0, 0);" d="M 533.085 179.469 C 534.085 182.247 535.531 184.845 537.365 187.159 L 533.085 185.609 L 528.805 187.159 C 530.64 184.845 532.086 182.248 533.085 179.469 Z" class="figure-path"/>
    <path style="stroke: rgb(0, 0, 0);" d="M 637.22 179.469 C 638.22 182.247 639.665 184.845 641.5 187.159 L 637.22 185.609 L 632.94 187.159 C 634.775 184.845 636.22 182.248 637.22 179.469 Z" class="figure-path"/>
    <path style="stroke: rgb(0, 0, 0);" d="M 533.084 230.265 C 534.084 233.043 535.531 235.641 537.365 237.955 L 533.084 236.405 L 528.805 237.955 C 530.64 235.641 532.086 233.044 533.084 230.265 Z" class="figure-path"/>
    <path style="stroke: rgb(0, 0, 0);" d="M 637.22 230.265 C 638.219 233.043 639.665 235.641 641.5 237.955 L 637.22 236.405 L 632.94 237.955 C 634.775 235.641 636.22 233.044 637.22 230.265 Z" class="figure-path"/>
    <path style="stroke: rgb(0, 0, 0);" d="M 585.152 76.141 C 586.151 78.919 587.597 81.517 589.432 83.831 L 585.152 82.281 L 580.872 83.831 C 582.707 81.517 584.152 78.92 585.152 76.141 Z" class="figure-path"/>
    <path style="stroke: rgb(0, 0, 0);" d="M 509.052 386.742 C 506.273 387.741 503.676 389.187 501.362 391.022 L 502.912 386.742 L 501.362 382.462 C 503.676 384.297 506.273 385.742 509.052 386.742 Z" class="figure-path"/>
    <path style="fill: none; stroke: rgb(0, 0, 0);" d="M -48.333 83.117 L -28.995 83.117" class="figure-line"/>
    <path style="fill: none; stroke: rgb(0, 0, 0);" d="M -48.333 386.742 L -28.995 386.742" class="figure-line"/>
    <path style="fill: none; stroke: rgb(0, 0, 0);" d="M 3.91 386.977 L 362.348 386.977" class="figure-line"/>
    <path style="fill: none; stroke: rgb(0, 0, 0);" d="M 77.312 386.742 L 77.312 358.294" class="figure-line"/>
    <path style="fill: none; stroke: rgb(0, 0, 0);" d="M 172.324 386.742 L 172.324 358.294" class="figure-line"/>
    <path style="fill: none; stroke: rgb(0, 0, 0);" d="M 267.336 386.742 L 267.336 358.294" class="figure-line"/>
    <path style="fill: none; stroke: rgb(0, 0, 0);" d="M 362.348 386.977 L 362.348 358.294" class="figure-line"/>
    <path style="fill: none; stroke: rgb(0, 0, 0);" d="M 6.793 402.977 L 378.348 402.977" class="figure-line"/>
    <path style="fill: none; stroke: rgb(0, 0, 0);" d="M 67.297 418.977 L 394.348 418.977" class="figure-line"/>
    <path style="stroke: rgb(0, 0, 0);" d="M 77.312 358.294 C 78.312 361.072 79.757 363.67 81.592 365.984 L 77.312 364.434 L 73.032 365.984 C 74.867 363.67 76.312 361.073 77.312 358.294 Z" class="figure-path"/>
    <path style="stroke: rgb(0, 0, 0);" d="M 172.324 358.294 C 173.324 361.072 174.769 363.67 176.604 365.984 L 172.324 364.434 L 168.044 365.984 C 169.879 363.67 171.324 361.073 172.324 358.294 Z" class="figure-path"/>
    <path style="stroke: rgb(0, 0, 0);" d="M 267.336 358.294 C 268.336 361.072 269.781 363.67 271.616 365.984 L 267.336 364.434 L 263.056 365.984 C 264.891 363.67 266.336 361.073 267.336 358.294 Z" class="figure-path"/>
    <path style="stroke: rgb(0, 0, 0);" d="M 362.348 358.294 C 363.348 361.072 364.793 363.67 366.628 365.984 L 362.348 364.434 L 358.068 365.984 C 359.903 363.67 361.348 361.073 362.348 358.294 Z" class="figure-path"/>
    <path style="fill: none; stroke: rgb(0, 0, 0);" d="M 378.348 402.977 L 378.348 358.294" class="figure-line"/>
    <path style="fill: none; stroke: rgb(0, 0, 0);" d="M 394.348 418.977 L 394.348 358.783" class="figure-line"/>
    <path style="fill: none; stroke: rgb(0, 0, 0);" d="M 283.336 402.977 L 283.336 358.783" class="figure-line"/>
    <path style="fill: none; stroke: rgb(0, 0, 0);" d="M 188.324 402.977 L 188.324 357.766" class="figure-line"/>
    <path style="fill: none; stroke: rgb(0, 0, 0);" d="M 93.312 402.977 L 93.312 358.783" class="figure-line"/>
    <path style="fill: none; stroke: rgb(0, 0, 0);" d="M 109.312 418.977 L 109.312 358.783" class="figure-line"/>
    <path style="fill: none; stroke: rgb(0, 0, 0);" d="M 204.324 418.977 L 204.324 357.766" class="figure-line"/>
    <path style="fill: none; stroke: rgb(0, 0, 0);" d="M 299.336 418.977 L 299.336 358.783" class="figure-line"/>
    <path style="stroke: rgb(0, 0, 0);" d="M 93.312 358.783 C 94.312 361.561 95.757 364.159 97.592 366.473 L 93.312 364.923 L 89.032 366.473 C 90.867 364.159 92.312 361.562 93.312 358.783 Z" class="figure-path"/>
    <path style="stroke: rgb(0, 0, 0);" d="M 109.312 358.783 C 110.312 361.561 111.757 364.159 113.592 366.473 L 109.312 364.923 L 105.032 366.473 C 106.867 364.159 108.312 361.562 109.312 358.783 Z" class="figure-path"/>
    <path style="stroke: rgb(0, 0, 0);" d="M 188.324 357.766 C 189.324 360.544 190.769 363.142 192.604 365.456 L 188.324 363.906 L 184.044 365.456 C 185.879 363.142 187.324 360.545 188.324 357.766 Z" class="figure-path"/>
    <path style="stroke: rgb(0, 0, 0);" d="M 204.324 357.766 C 205.324 360.544 206.769 363.142 208.604 365.456 L 204.324 363.906 L 200.044 365.456 C 201.879 363.142 203.324 360.545 204.324 357.766 Z" class="figure-path"/>
    <path style="stroke: rgb(0, 0, 0);" d="M 283.336 358.783 C 284.336 361.561 285.781 364.159 287.616 366.473 L 283.336 364.923 L 279.056 366.473 C 280.891 364.159 282.336 361.562 283.336 358.783 Z" class="figure-path"/>
    <path style="stroke: rgb(0, 0, 0);" d="M 299.336 358.783 C 300.336 361.561 301.781 364.159 303.616 366.473 L 299.336 364.923 L 295.056 366.473 C 296.891 364.159 298.336 361.562 299.336 358.783 Z" class="figure-path"/>
    <path style="stroke: rgb(0, 0, 0);" d="M 378.348 358.294 C 379.348 361.072 380.793 363.67 382.628 365.984 L 378.348 364.434 L 374.068 365.984 C 375.903 363.67 377.348 361.073 378.348 358.294 Z" class="figure-path"/>
    <path style="stroke: rgb(0, 0, 0);" d="M 394.348 358.783 C 395.348 361.561 396.793 364.159 398.628 366.473 L 394.348 364.923 L 390.068 366.473 C 391.903 364.159 393.348 361.562 394.348 358.783 Z" class="figure-path"/>
    <text x="521.952" y="357.631" style="font-size: 13px; white-space: pre;" class="figure-text"><tspan style="font-weight: bold;">h</tspan><tspan class="subscript">t-1</tspan></text>
    <text x="632.224" y="357.639" style="font-size: 13px; white-space: pre;" class="figure-text"><tspan style="font-weight: bold;">x</tspan><tspan class="subscript">t</tspan></text>
    <path style="fill: none; stroke: rgb(0, 0, 0);" d="M 6.793 450.89 L 6.793 402.977" class="figure-line"/>
    <path style="fill: none; stroke: rgb(0, 0, 0);" d="M 67.297 456.422 L 67.297 418.977" class="figure-line"/>
    <path style="fill: none; stroke: rgb(0, 0, 0);" d="M 42.339 464.02 L 58.887 464.02" class="figure-line"/>
    <path style="stroke: rgb(0, 0, 0);" d="M 378.348 98.141 C 377.348 95.362 375.902 92.765 374.068 90.451 L 378.348 92.001 L 382.628 90.451 C 380.793 92.764 379.347 95.362 378.348 98.141 Z" class="figure-path"/>
    <path style="stroke: rgb(0, 0, 0);" d="M 378.348 154.849 C 377.348 152.07 375.902 149.473 374.068 147.159 L 378.348 148.709 L 382.628 147.159 C 380.793 149.472 379.347 152.07 378.348 154.849 Z" class="figure-path"/>
    <path style="stroke: rgb(0, 0, 0);" d="M 42.339 464.02 C 45.118 463.02 47.715 461.575 50.029 459.74 L 48.479 464.02 L 50.029 468.3 C 47.715 466.465 45.118 465.019 42.339 464.02 Z" class="figure-path"/>
    <g transform="matrix(1, 0, 0, 1, 371.875, 12.313442)">
      <rect x="122.142" y="173.834" width="78.135" height="27.38" style="fill: none; stroke: rgb(0, 0, 0);" class="figure-element figure-box" transform="matrix(1, 0, 0, 0.999999, 0, 68.3915)"/>
      <text x="146.56" y="260.722" style="font-size: 13px; white-space: pre;" class="figure-text">linear</text>
    </g>
    <g transform="matrix(1, 0, 0, 1, 476.010071, 12.313442)">
      <rect x="122.142" y="173.834" width="78.135" height="27.38" style="fill: none; stroke: rgb(0, 0, 0);" class="figure-element figure-box" transform="matrix(1, 0, 0, 0.999999, 0, 68.3915)"/>
      <text x="146.56" y="260.745" style="font-size: 13px; white-space: pre;" class="figure-text">linear</text>
    </g>
    <path style="stroke: rgb(0, 0, 0);" d="M 533.083 301.919 C 534.083 304.697 535.531 307.295 537.365 309.609 L 533.083 308.059 L 528.805 309.609 C 530.64 307.295 532.086 304.698 533.083 301.919 Z" class="figure-path"/>
    <path style="stroke: rgb(0, 0, 0);" d="M 637.219 301.919 C 638.219 304.697 639.666 307.295 641.5 309.609 L 637.219 308.059 L 632.94 309.609 C 634.775 307.295 636.221 304.698 637.219 301.919 Z" class="figure-path"/>
    <path style="fill: none; stroke: rgb(0, 0, 0);" d="M 533.085 345.031 L 533.085 301.919" class="figure-line"/>
    <path style="fill: none; stroke: rgb(0, 0, 0);" d="M 637.22 345.031 L 637.22 301.919" class="figure-line"/>
    <text x="514.53" y="88.343" style="font-size: 13px; white-space: pre;" class="figure-text"><tspan style="font-weight: bold;">c</tspan><tspan class="subscript">t</tspan></text>
    <text x="514.53" y="391.784" style="font-size: 13px; white-space: pre;" class="figure-text"><tspan style="font-weight: bold;">h</tspan><tspan class="subscript">t</tspan></text>
    <g transform="matrix(1, 0, 0, 1, 423.942474, 46.325912)" class="film-generator" id="film-gen-linear">
      <rect x="122.142" y="173.834" width="78.135" height="27.38" style="fill: none; stroke: rgb(0, 0, 0);" class="figure-element figure-box figure-film-generator" transform="matrix(1, 0, 0, 0.999999, 0, 68.3915)"/>
      <text x="146.56" y="260.722" style="font-size: 13px; white-space: pre;" class="figure-text">linear</text>
    </g>
    <path style="stroke: rgb(0, 0, 0);" d="M 585.15 315.931 C 586.15 318.709 587.598 321.307 589.432 323.621 L 585.15 322.071 L 580.872 323.621 C 582.707 321.307 584.153 318.71 585.15 315.931 Z" class="figure-path"/>
    <path style="fill: none; stroke: rgb(0, 0, 0);" d="M 585.152 345.031 L 585.152 315.931" class="figure-line"/>
    <path style="fill: none; stroke: rgb(0, 0, 0);" d="M 583.152 288.551 L 583.152 165.779" class="figure-line"/>
    <path style="fill: none; stroke: rgb(0, 0, 0);" d="M 587.152 165.779 L 598.152 165.779" class="figure-line"/>
  </g>
</svg>