<?xml version="1.0" encoding="utf-8"?>
<svg viewBox="0 0 744 110" xmlns="http://www.w3.org/2000/svg">
  <g transform="matrix(1, 0, 0, 1, -51.71875, -38.539066)">
    <text x="61.733" y="93.431" style="font-size: 13px; white-space: pre;" class="figure-text"><tspan style="font-size: 13px; word-spacing: 0px;">W</tspan><tspan class="subscript" style="font-size: 13px; word-spacing: 0px;">1</tspan><tspan style="font-size: 13px; word-spacing: 0px;"> =</tspan></text>
    <g transform="matrix(1, 0, 0, 1, 95.46875, 48.867065)">
      <path style="fill: none; stroke: rgb(0, 0, 0);" d="M 0 5.672 C 0 2.358 2.686 -0.328 6 -0.328 L 20 -0.328 L 20 19.672 L 0 19.672 Z" class="figure-element"/>
      <path style="fill: none; stroke: rgb(0, 0, 0);" d="M 20 -0.328 L 34 -0.328 C 37.314 -0.328 40 2.358 40 5.672 L 40 19.672 L 20 19.672 Z" class="figure-element figure-faded"/>
      <path style="fill: none; stroke: rgb(0, 0, 0);" d="M 0 19.672 L 20 19.672 L 20 39.672 L 0 39.672 Z" class="figure-element figure-faded"/>
      <path style="fill: none; stroke: rgb(0, 0, 0);" d="M 20 19.672 L 40 19.672 L 40 39.672 L 20 39.672 Z" class="figure-element figure-faded"/>
      <path style="fill: none; stroke: rgb(0, 0, 0);" d="M 0 39.672 L 20 39.672 L 20 59.672 L 0 59.672 Z" class="figure-element figure-faded"/>
      <path style="fill: none; stroke: rgb(0, 0, 0);" d="M 20 39.672 L 40 39.672 L 40 59.672 L 20 59.672 Z" class="figure-element figure-faded"/>
      <path style="fill: none; stroke: rgb(0, 0, 0);" d="M 0 59.672 L 20 59.672 L 20 79.672 L 6 79.672 C 2.686 79.672 0 76.986 0 73.672 Z" class="figure-element figure-faded"/>
      <path style="fill: none; stroke: rgb(0, 0, 0);" d="M 20 59.672 L 40 59.672 L 40 73.672 C 40 76.986 37.314 79.672 34 79.672 L 20 79.672 Z" class="figure-element"/>
    </g>
    <g transform="matrix(1, 0, 0, 1, 140.468765, 68.867065)" id="w-1">
      <path style="fill: none; stroke: rgb(0, 0, 0);" d="M 0 5.672 C 0 2.358 2.686 -0.328 6 -0.328 L 20 -0.328 L 20 19.672 L 0 19.672 Z" class="figure-element"/>
      <path style="fill: none; stroke: rgb(0, 0, 0);" d="M 20 -0.328 L 40 -0.328 L 40 19.672 L 20 19.672 Z" class="figure-element"/>
      <path style="fill: none; stroke: rgb(0, 0, 0);" d="M 40 -0.328 L 54 -0.328 C 57.314 -0.328 60 2.358 60 5.672 L 60 19.672 L 40 19.672 Z" class="figure-element"/>
      <path style="fill: none; stroke: rgb(0, 0, 0);" d="M 0 19.672 L 20 19.672 L 20 39.672 L 6 39.672 C 2.686 39.672 0 36.986 0 33.672 Z" class="figure-element"/>
      <path style="fill: none; stroke: rgb(0, 0, 0);" d="M 20 19.672 L 40 19.672 L 40 39.672 L 20 39.672 Z" class="figure-element"/>
      <path style="fill: none; stroke: rgb(0, 0, 0);" d="M 40 19.672 L 60 19.672 L 60 33.672 C 60 36.986 57.314 39.672 54 39.672 L 40 39.672 Z" class="figure-element"/>
    </g>
    <text x="205.472" y="93.434" style="font-size: 13px; white-space: pre;" class="figure-text">=</text>
    <g transform="matrix(1, 0, 0, 1, 218.32814, 48.867065)" id="w-1-full">
      <path style="fill: none; stroke: rgb(0, 0, 0);" d="M 0 5.672 C 0 2.358 2.686 -0.328 6 -0.328 L 20 -0.328 L 20 19.672 L 0 19.672 Z" class="figure-element"/>
      <path style="fill: none; stroke: rgb(0, 0, 0);" d="M 20 -0.328 L 40 -0.328 L 40 19.672 L 20 19.672 Z" class="figure-element"/>
      <path style="fill: none; stroke: rgb(0, 0, 0);" d="M 40 -0.328 L 54 -0.328 C 57.314 -0.328 60 2.358 60 5.672 L 60 19.672 L 40 19.672 Z" class="figure-element"/>
      <path style="fill: none; stroke: rgb(0, 0, 0);" d="M 0 19.672 L 20 19.672 L 20 39.672 L 0 39.672 Z" class="figure-element figure-faded"/>
      <path style="fill: none; stroke: rgb(0, 0, 0);" d="M 20 19.672 L 40 19.672 L 40 39.672 L 20 39.672 Z" class="figure-element figure-faded"/>
      <path style="fill: none; stroke: rgb(0, 0, 0);" d="M 40 19.672 L 60 19.672 L 60 39.672 L 40 39.672 Z" class="figure-element figure-faded"/>
      <path style="fill: none; stroke: rgb(0, 0, 0);" d="M 0 39.672 L 20 39.672 L 20 59.672 L 0 59.672 Z" class="figure-element figure-faded"/>
      <path style="fill: none; stroke: rgb(0, 0, 0);" d="M 20 39.672 L 40 39.672 L 40 59.672 L 20 59.672 Z" class="figure-element figure-faded"/>
      <path style="fill: none; stroke: rgb(0, 0, 0);" d="M 40 39.672 L 60 39.672 L 60 59.672 L 40 59.672 Z" class="figure-element figure-faded"/>
      <path style="fill: none; stroke: rgb(0, 0, 0);" d="M 0 59.672 L 20 59.672 L 20 79.672 L 6 79.672 C 2.686 79.672 0 76.986 0 73.672 Z" class="figure-element"/>
      <path style="fill: none; stroke: rgb(0, 0, 0);" d="M 20 59.672 L 40 59.672 L 40 79.672 L 20 79.672 Z" class="figure-element"/>
      <path style="fill: none; stroke: rgb(0, 0, 0);" d="M 40 59.672 L 60 59.672 L 60 73.672 C 60 76.986 57.314 79.672 54 79.672 L 40 79.672 Z" class="figure-element"/>
    </g>
  </g>
  <g transform="matrix(1, 0, 0, 1, 201.976227, -38.539062)">
    <text x="61.733" y="93.431" style="font-size: 13px; white-space: pre;" class="figure-text"><tspan style="font-size: 13px; word-spacing: 0px;">W</tspan><tspan class="subscript" style="font-size: 13px; word-spacing: 0px;">2</tspan><tspan style="font-size: 13px; word-spacing: 0px;"> =</tspan></text>
    <g transform="matrix(1, 0, 0, 1, 95.46875, 48.867065)">
      <path style="fill: none; stroke: rgb(0, 0, 0);" d="M 0 5.672 C 0 2.358 2.686 -0.328 6 -0.328 L 20 -0.328 L 20 19.672 L 0 19.672 Z" class="figure-element figure-faded"/>
      <path style="fill: none; stroke: rgb(0, 0, 0);" d="M 20 -0.328 L 34 -0.328 C 37.314 -0.328 40 2.358 40 5.672 L 40 19.672 L 20 19.672 Z" class="figure-element figure-faded"/>
      <path style="fill: none; stroke: rgb(0, 0, 0);" d="M 0 19.672 L 20 19.672 L 20 39.672 L 0 39.672 Z" class="figure-element"/>
      <path style="fill: none; stroke: rgb(0, 0, 0);" d="M 20 19.672 L 40 19.672 L 40 39.672 L 20 39.672 Z" class="figure-element figure-faded"/>
      <path style="fill: none; stroke: rgb(0, 0, 0);" d="M 0 39.672 L 20 39.672 L 20 59.672 L 0 59.672 Z" class="figure-element figure-faded"/>
      <path style="fill: none; stroke: rgb(0, 0, 0);" d="M 20 39.672 L 40 39.672 L 40 59.672 L 20 59.672 Z" class="figure-element figure-faded"/>
      <path style="fill: none; stroke: rgb(0, 0, 0);" d="M 0 59.672 L 20 59.672 L 20 79.672 L 6 79.672 C 2.686 79.672 0 76.986 0 73.672 Z" class="figure-element figure-faded"/>
      <path style="fill: none; stroke: rgb(0, 0, 0);" d="M 20 59.672 L 40 59.672 L 40 73.672 C 40 76.986 37.314 79.672 34 79.672 L 20 79.672 Z" class="figure-element"/>
    </g>
    <g transform="matrix(1, 0, 0, 1, 140.468765, 68.867065)" id="w-2">
      <path style="fill: none; stroke: rgb(0, 0, 0);" d="M 0 5.672 C 0 2.358 2.686 -0.328 6 -0.328 L 20 -0.328 L 20 19.672 L 0 19.672 Z" class="figure-element"/>
      <path style="fill: none; stroke: rgb(0, 0, 0);" d="M 20 -0.328 L 40 -0.328 L 40 19.672 L 20 19.672 Z" class="figure-element"/>
      <path style="fill: none; stroke: rgb(0, 0, 0);" d="M 40 -0.328 L 54 -0.328 C 57.314 -0.328 60 2.358 60 5.672 L 60 19.672 L 40 19.672 Z" class="figure-element"/>
      <path style="fill: none; stroke: rgb(0, 0, 0);" d="M 0 19.672 L 20 19.672 L 20 39.672 L 6 39.672 C 2.686 39.672 0 36.986 0 33.672 Z" class="figure-element"/>
      <path style="fill: none; stroke: rgb(0, 0, 0);" d="M 20 19.672 L 40 19.672 L 40 39.672 L 20 39.672 Z" class="figure-element"/>
      <path style="fill: none; stroke: rgb(0, 0, 0);" d="M 40 19.672 L 60 19.672 L 60 33.672 C 60 36.986 57.314 39.672 54 39.672 L 40 39.672 Z" class="figure-element"/>
    </g>
    <text x="205.472" y="93.434" style="font-size: 13px; white-space: pre;" class="figure-text">=</text>
    <g transform="matrix(1, 0, 0, 1, 218.32814, 48.867065)" id="w-2-full">
      <path style="fill: none; stroke: rgb(0, 0, 0);" d="M 0 5.672 C 0 2.358 2.686 -0.328 6 -0.328 L 20 -0.328 L 20 19.672 L 0 19.672 Z" class="figure-element figure-faded"/>
      <path style="fill: none; stroke: rgb(0, 0, 0);" d="M 20 -0.328 L 40 -0.328 L 40 19.672 L 20 19.672 Z" class="figure-element figure-faded"/>
      <path style="fill: none; stroke: rgb(0, 0, 0);" d="M 40 -0.328 L 54 -0.328 C 57.314 -0.328 60 2.358 60 5.672 L 60 19.672 L 40 19.672 Z" class="figure-element figure-faded"/>
      <path style="fill: none; stroke: rgb(0, 0, 0);" d="M 0 19.672 L 20 19.672 L 20 39.672 L 0 39.672 Z" class="figure-element"/>
      <path style="fill: none; stroke: rgb(0, 0, 0);" d="M 20 19.672 L 40 19.672 L 40 39.672 L 20 39.672 Z" class="figure-element"/>
      <path style="fill: none; stroke: rgb(0, 0, 0);" d="M 40 19.672 L 60 19.672 L 60 39.672 L 40 39.672 Z" class="figure-element"/>
      <path style="fill: none; stroke: rgb(0, 0, 0);" d="M 0 39.672 L 20 39.672 L 20 59.672 L 0 59.672 Z" class="figure-element figure-faded"/>
      <path style="fill: none; stroke: rgb(0, 0, 0);" d="M 20 39.672 L 40 39.672 L 40 59.672 L 20 59.672 Z" class="figure-element figure-faded"/>
      <path style="fill: none; stroke: rgb(0, 0, 0);" d="M 40 39.672 L 60 39.672 L 60 59.672 L 40 59.672 Z" class="figure-element figure-faded"/>
      <path style="fill: none; stroke: rgb(0, 0, 0);" d="M 0 59.672 L 20 59.672 L 20 79.672 L 6 79.672 C 2.686 79.672 0 76.986 0 73.672 Z" class="figure-element"/>
      <path style="fill: none; stroke: rgb(0, 0, 0);" d="M 20 59.672 L 40 59.672 L 40 79.672 L 20 79.672 Z" class="figure-element"/>
      <path style="fill: none; stroke: rgb(0, 0, 0);" d="M 40 59.672 L 60 59.672 L 60 73.672 C 60 76.986 57.314 79.672 54 79.672 L 40 79.672 Z" class="figure-element"/>
    </g>
  </g>
  <g transform="matrix(1, 0, 0, 1, 455.671265, -38.539059)">
    <text x="61.733" y="93.431" style="font-size: 13px; white-space: pre;" class="figure-text"><tspan style="font-size: 13px; word-spacing: 0px;">W</tspan><tspan class="subscript" style="font-size: 13px; word-spacing: 0px;">3</tspan><tspan style="font-size: 13px; word-spacing: 0px;"> =</tspan></text>
    <g transform="matrix(1, 0, 0, 1, 95.46875, 48.867065)">
      <path style="fill: none; stroke: rgb(0, 0, 0);" d="M 0 5.672 C 0 2.358 2.686 -0.328 6 -0.328 L 20 -0.328 L 20 19.672 L 0 19.672 Z" class="figure-element figure-faded"/>
      <path style="fill: none; stroke: rgb(0, 0, 0);" d="M 20 -0.328 L 34 -0.328 C 37.314 -0.328 40 2.358 40 5.672 L 40 19.672 L 20 19.672 Z" class="figure-element figure-faded"/>
      <path style="fill: none; stroke: rgb(0, 0, 0);" d="M 0 19.672 L 20 19.672 L 20 39.672 L 0 39.672 Z" class="figure-element figure-faded"/>
      <path style="fill: none; stroke: rgb(0, 0, 0);" d="M 20 19.672 L 40 19.672 L 40 39.672 L 20 39.672 Z" class="figure-element figure-faded"/>
      <path style="fill: none; stroke: rgb(0, 0, 0);" d="M 0 39.672 L 20 39.672 L 20 59.672 L 0 59.672 Z" class="figure-element"/>
      <path style="fill: none; stroke: rgb(0, 0, 0);" d="M 20 39.672 L 40 39.672 L 40 59.672 L 20 59.672 Z" class="figure-element figure-faded"/>
      <path style="fill: none; stroke: rgb(0, 0, 0);" d="M 0 59.672 L 20 59.672 L 20 79.672 L 6 79.672 C 2.686 79.672 0 76.986 0 73.672 Z" class="figure-element figure-faded"/>
      <path style="fill: none; stroke: rgb(0, 0, 0);" d="M 20 59.672 L 40 59.672 L 40 73.672 C 40 76.986 37.314 79.672 34 79.672 L 20 79.672 Z" class="figure-element"/>
    </g>
    <g transform="matrix(1, 0, 0, 1, 140.468765, 68.867065)" id="w-3">
      <path style="fill: none; stroke: rgb(0, 0, 0);" d="M 0 5.672 C 0 2.358 2.686 -0.328 6 -0.328 L 20 -0.328 L 20 19.672 L 0 19.672 Z" class="figure-element"/>
      <path style="fill: none; stroke: rgb(0, 0, 0);" d="M 20 -0.328 L 40 -0.328 L 40 19.672 L 20 19.672 Z" class="figure-element"/>
      <path style="fill: none; stroke: rgb(0, 0, 0);" d="M 40 -0.328 L 54 -0.328 C 57.314 -0.328 60 2.358 60 5.672 L 60 19.672 L 40 19.672 Z" class="figure-element"/>
      <path style="fill: none; stroke: rgb(0, 0, 0);" d="M 0 19.672 L 20 19.672 L 20 39.672 L 6 39.672 C 2.686 39.672 0 36.986 0 33.672 Z" class="figure-element"/>
      <path style="fill: none; stroke: rgb(0, 0, 0);" d="M 20 19.672 L 40 19.672 L 40 39.672 L 20 39.672 Z" class="figure-element"/>
      <path style="fill: none; stroke: rgb(0, 0, 0);" d="M 40 19.672 L 60 19.672 L 60 33.672 C 60 36.986 57.314 39.672 54 39.672 L 40 39.672 Z" class="figure-element"/>
    </g>
    <text x="205.472" y="93.434" style="font-size: 13px; white-space: pre;" class="figure-text">=</text>
    <g transform="matrix(1, 0, 0, 1, 218.32814, 48.867065)" id="w-3-full">
      <path style="fill: none; stroke: rgb(0, 0, 0);" d="M 0 5.672 C 0 2.358 2.686 -0.328 6 -0.328 L 20 -0.328 L 20 19.672 L 0 19.672 Z" class="figure-element figure-faded"/>
      <path style="fill: none; stroke: rgb(0, 0, 0);" d="M 20 -0.328 L 40 -0.328 L 40 19.672 L 20 19.672 Z" class="figure-element figure-faded"/>
      <path style="fill: none; stroke: rgb(0, 0, 0);" d="M 40 -0.328 L 54 -0.328 C 57.314 -0.328 60 2.358 60 5.672 L 60 19.672 L 40 19.672 Z" class="figure-element figure-faded"/>
      <path style="fill: none; stroke: rgb(0, 0, 0);" d="M 0 19.672 L 20 19.672 L 20 39.672 L 0 39.672 Z" class="figure-element figure-faded"/>
      <path style="fill: none; stroke: rgb(0, 0, 0);" d="M 20 19.672 L 40 19.672 L 40 39.672 L 20 39.672 Z" class="figure-element figure-faded"/>
      <path style="fill: none; stroke: rgb(0, 0, 0);" d="M 40 19.672 L 60 19.672 L 60 39.672 L 40 39.672 Z" class="figure-element figure-faded"/>
      <path style="fill: none; stroke: rgb(0, 0, 0);" d="M 0 39.672 L 20 39.672 L 20 59.672 L 0 59.672 Z" class="figure-element"/>
      <path style="fill: none; stroke: rgb(0, 0, 0);" d="M 20 39.672 L 40 39.672 L 40 59.672 L 20 59.672 Z" class="figure-element"/>
      <path style="fill: none; stroke: rgb(0, 0, 0);" d="M 40 39.672 L 60 39.672 L 60 59.672 L 40 59.672 Z" class="figure-element"/>
      <path style="fill: none; stroke: rgb(0, 0, 0);" d="M 0 59.672 L 20 59.672 L 20 79.672 L 6 79.672 C 2.686 79.672 0 76.986 0 73.672 Z" class="figure-element"/>
      <path style="fill: none; stroke: rgb(0, 0, 0);" d="M 20 59.672 L 40 59.672 L 40 79.672 L 20 79.672 Z" class="figure-element"/>
      <path style="fill: none; stroke: rgb(0, 0, 0);" d="M 40 59.672 L 60 59.672 L 60 73.672 C 60 76.986 57.314 79.672 54 79.672 L 40 79.672 Z" class="figure-element"/>
    </g>
  </g>
</svg>
