<?xml version="1.0" encoding="utf-8"?>
<svg viewBox="0 0 744 500" xmlns="http://www.w3.org/2000/svg" xmlns:xlink="http://www.w3.org/1999/xlink">
  <defs>
    <symbol id="arrow-right" viewBox="0 0 7.69 8.56">
      <title>Right arrow</title>
      <path style="fill: rgb(0, 0, 0);" d="M 7.69 4.28 C 4.911 5.279 2.314 6.725 0 8.56 L 1.55 4.28 L 0 0 C 2.314 1.835 4.911 3.28 7.69 4.28 Z" class="figure-path"/>
    </symbol>
    <symbol id="arrow-up" viewBox="0 0 8.56 7.69">
      <title>Up arrow</title>
      <path style="fill: rgb(0, 0, 0);" d="M 4.28 0 a 27.2 27.2 0 0 0 4.28 7.69 L 4.28 6.14 l -4.28 1.55 A 27.17 27.17 0 0 0 4.28 0 Z" class="figure-path"/>
    </symbol>
    <symbol id="arrow-left" viewBox="0 0 7.69 8.56">
      <title>Left arrow</title>
      <path style="fill: rgb(0, 0, 0);" d="M 0 4.28 a 27.2 27.2 0 0 0 7.69 -4.28 L 6.14 4.28 l 1.55 4.28 A 27.18 27.18 0 0 0 0 4.28 Z" class="figure-path"/>
    </symbol>
    <symbol id="arrow-down" viewBox="0 0 8.56 7.69">
      <title>Down arrow</title>
      <path style="fill: rgb(0, 0, 0);" d="M 4.28 7.69 a 27.2 27.2 0 0 0 -4.28 -7.69 l 4.28 1.55 4.28 -1.55 A 27.18 27.18 0 0 0 4.28 7.69 Z" class="figure-path"/>
    </symbol>
  </defs>
  <g transform="matrix(1, 0, 0, 1, 42.585468, 8.635989)">
    <title>FiLM Generator</title>
    <rect x="91.561" y="92.492" width="179.844" height="297.744" style="fill: rgb(195, 170, 170);" class="figure-network"/>
    <text x="5.004" y="254.928" class="figure-text" transform="matrix(1, 0, 0, 1.000001, 130.045502, -8.63625)" style="font-size: 13px; white-space: pre;">FiLM generator</text>
  </g>
  <line style="stroke: rgb(0, 0, 0);" x1="80.594" y1="250" x2="134.146" y2="250" class="figure-line"/>
  <use width="7.690000057220459" height="8.5600004196167" transform="matrix(1, 0, 0, 1, 126.45600128173828, 245.71998596191406)" xlink:href="#arrow-right"/>
  <text x="5.004" y="254.928" style="font-size: 13px; white-space: pre;" class="figure-text">conditioning</text>
  <g transform="matrix(1, 0, 0, 1, -396.036987, 114.870956)" id="mlp-button">
    <title>MLP Button</title>
    <rect x="401.037" y="353.528" width="109.009" height="31.601" style="fill: rgb(216, 216, 216);"/>
    <text x="5.004" y="254.928" style="font-size: 13px; white-space: pre;" class="figure-text" transform="matrix(1, 0, 0, 1.000001, 420.268036, 119.390778)">MLP layer</text>
  </g>
  <g transform="matrix(1, 0, 0, 1, -258.025726, 114.870956)" id="cnn-button">
    <title>CNN Button</title>
    <rect x="401.037" y="353.528" width="109.009" height="31.601" style="fill: rgb(216, 216, 216);"/>
    <text x="5.004" y="254.928" style="font-size: 13px; white-space: pre;" class="figure-text" transform="matrix(1, 0, 0, 1.000001, 419.471161, 119.390778)">CNN layer</text>
  </g>
  <g transform="matrix(1, 0, 0, 1, -120.015167, 114.870499)" id="full-button">
    <title>Full Button</title>
    <rect x="488.752" y="409.145" width="109.009" height="31.601" style="fill: rgb(216, 216, 216);" transform="matrix(1.000001, 0, 0, 1, -87.714812, -55.616547)"/>
    <text x="5.004" y="254.928" style="font-size: 13px; white-space: pre;" class="figure-text" transform="matrix(1, 0, 0, 1.000001, 413.182831, 119.391212)">Full network</text>
  </g>
  <g id="mlp-figure">
    <title>MLP Figure</title>
    <g transform="matrix(1, 0, 0, 1, 539.000061, 417.45697)" id="input-layer">
      <title>Input Layer</title>
      <rect x="0" y="0" width="50" height="50" style="fill: rgb(216, 216, 216);" class="figure-unit"/>
      <rect x="50" y="0" width="50" height="50" style="fill: rgb(216, 216, 216);" class="figure-unit"/>
      <rect x="100" y="0" width="50" height="50" style="fill: rgb(216, 216, 216);" class="figure-unit"/>
      <rect x="150" y="0" width="50" height="50" style="fill: rgb(216, 216, 216);" class="figure-unit"/>
    </g>
    <g transform="matrix(1, 0, 0, 1, 539.000061, 32.543026)" id="output-layer">
      <title>Output Layer</title>
      <rect x="0" y="0" width="50" height="50" style="fill: rgb(216, 216, 216);" class="figure-unit"/>
      <rect x="50" y="0" width="50" height="50" style="fill: rgb(216, 216, 216);" class="figure-unit"/>
      <rect x="100" y="0" width="50" height="50" style="fill: rgb(216, 216, 216);" class="figure-unit"/>
      <rect x="150" y="0" width="50" height="50" style="fill: rgb(216, 216, 216);" class="figure-unit"/>
    </g>
    <g transform="matrix(1, 0, 0, 1, 539.000061, 417.457001)" id="intermediate-layer">
      <title>Input Layer</title>
      <rect x="0" y="0" width="50" height="50" style="fill: rgb(216, 216, 216);" class="figure-unit"/>
      <rect x="50" y="0" width="50" height="50" style="fill: rgb(216, 216, 216);" class="figure-unit"/>
      <rect x="100" y="0" width="50" height="50" style="fill: rgb(216, 216, 216);" class="figure-unit"/>
      <rect x="150" y="0" width="50" height="50" style="fill: rgb(216, 216, 216);" class="figure-unit"/>
    </g>
    <rect x="0" y="0" width="50" height="50" transform="matrix(1, 0, 0, 1, 539, 289.153)" id="scaling-guide" style="fill: none;"/>
    <rect x="0" y="0" width="50" height="50" transform="matrix(1, 0, 0, 1, 539, 160.848)" id="shifting-guide" style="fill: none;"/>
  </g>
  <g id="cnn-figure">
    <title>CNN Figure</title>
  </g>
  <g id="full-figure">
    <title>Full Figure</title>
  </g>
</svg>
