<?xml version="1.0" encoding="utf-8"?>
<svg viewBox="0 0 744 340" xmlns="http://www.w3.org/2000/svg" xmlns:xlink="http://www.w3.org/1999/xlink">
  <defs>
    <symbol id="arrow-right" viewBox="0 0 7.69 8.56">
      <title>Right arrow</title>
      <path style="stroke: rgb(0, 0, 0);" d="M 7.69 4.28 C 4.911 5.279 2.314 6.725 0 8.56 L 1.55 4.28 L 0 0 C 2.314 1.835 4.911 3.28 7.69 4.28 Z" class="figure-path"/>
    </symbol>
    <symbol id="arrow-up" viewBox="0 0 8.56 7.69">
      <title>Up arrow</title>
      <path style="stroke: rgb(0, 0, 0);" d="M 4.28 0 a 27.2 27.2 0 0 0 4.28 7.69 L 4.28 6.14 l -4.28 1.55 A 27.17 27.17 0 0 0 4.28 0 Z" class="figure-path"/>
    </symbol>
    <symbol id="arrow-left" viewBox="0 0 7.69 8.56">
      <title>Left arrow</title>
      <path style="stroke: rgb(0, 0, 0);" d="M 0 4.28 a 27.2 27.2 0 0 0 7.69 -4.28 L 6.14 4.28 l 1.55 4.28 A 27.18 27.18 0 0 0 0 4.28 Z" class="figure-path"/>
    </symbol>
    <symbol id="arrow-down" viewBox="0 0 8.56 7.69">
      <title>Down arrow</title>
      <path style="stroke: rgb(0, 0, 0);" d="M 4.28 7.69 a 27.2 27.2 0 0 0 -4.28 -7.69 l 4.28 1.55 4.28 -1.55 A 27.18 27.18 0 0 0 4.28 7.69 Z" class="figure-path"/>
    </symbol>
  </defs>
  <g transform="matrix(1, 0, 0, 1, 12.167987, -27.098)" id="g-1">
    <title>FiLM</title>
    <rect x="-2.168" y="37.098" width="724" height="320" style="fill: none; stroke: rgb(0, 0, 0);" class="figure-group figure-box"/>
    <text x="5.819" y="57.768" style="font-size: 13px; white-space: pre;" class="figure-text">FiLM</text>
    <g transform="matrix(1, 0, 0, 1, 50.420662, -32.220589)">
      <title>y_1</title>
      <g transform="matrix(1, 0, 0, 1, -4.182672, 197.121094)">
        <title>x</title>
        <path style="fill: none; stroke: rgb(0, 0, 0);" transform="matrix(1, 0, 0, 1, 0, 0)" d="M 0 6 a 6 6 0 0 1 6 -6 l 14 0 l 0 20 l -14 0 a 6 6 0 0 1 -6 -6 Z" class="figure-element"/>
        <path style="fill: none; stroke: rgb(0, 0, 0);" transform="matrix(1, 0, 0, 1, 20, 0)" d="M 0 0 l 20 0 l 0 20 l -20 0 Z" class="figure-element"/>
        <path style="fill: none; stroke: rgb(0, 0, 0);" transform="matrix(1, 0, 0, 1, 40, 0)" d="M 0 0 l 14 0 a 6 6 0 0 1 6 6 l 0 8 a 6 6 0 0 1 -6 6 l -14 0 Z" class="figure-element"/>
        <path style="fill: none; stroke: rgb(0, 0, 0);" transform="matrix(1, 0, 0, 1, 60, 0)" d="M 0 6 a 6 6 0 0 1 6 -6 l 8 0 a 6 6 0 0 1 6 6 l 0 8 a 6 6 0 0 1 -6 6 l -8 0 a 6 6 0 0 1 -6 -6 Z" class="figure-element"/>
        <text x="59.454" y="324.652" style="font-size: 13px; white-space: pre;" class="figure-text" transform="matrix(0.999998, 0, 0, 1, -32.59362, -292.125)"><tspan style="font-weight: bold;">x</tspan></text>
        <text x="59.454" y="324.652" style="font-size: 13px; white-space: pre;" class="figure-text" transform="matrix(0.999998, 0, 0, 1, 7.672003, -309.71875)">1</text>
      </g>
      <g transform="matrix(1, 0, 0, 1, 48.316669, 280.448639)">
        <title>W_1</title>
        <path style="fill: none; stroke: rgb(0, 0, 0);" d="M 0 5.672 C 0 2.358 2.686 -0.328 6 -0.328 L 20 -0.328 L 20 19.672 L 0 19.672 Z" class="figure-element"/>
        <path style="fill: none; stroke: rgb(0, 0, 0);" d="M 20 -0.328 L 40 -0.328 L 40 19.672 L 20 19.672 Z" class="figure-element"/>
        <path style="fill: none; stroke: rgb(0, 0, 0);" d="M 40 -0.328 L 54 -0.328 C 57.314 -0.328 60 2.358 60 5.672 L 60 19.672 L 40 19.672 Z" class="figure-element"/>
        <path d="M 0 19.672 L 20 19.672 L 20 39.672 L 0 39.672 Z" class="figure-element figure-faded" style="fill: none; stroke: rgb(0, 0, 0);"/>
        <path d="M 20 19.672 L 40 19.672 L 40 39.672 L 20 39.672 Z" class="figure-element figure-faded" style="fill: none; stroke: rgb(0, 0, 0);"/>
        <path d="M 40 19.672 L 60 19.672 L 60 39.672 L 40 39.672 Z" class="figure-element figure-faded" style="fill: none; stroke: rgb(0, 0, 0);"/>
        <path d="M 0 39.672 L 20 39.672 L 20 59.672 L 0 59.672 Z" class="figure-element figure-faded" style="fill: none; stroke: rgb(0, 0, 0);"/>
        <path d="M 20 39.672 L 40 39.672 L 40 59.672 L 20 59.672 Z" class="figure-element figure-faded" style="fill: none; stroke: rgb(0, 0, 0);"/>
        <path d="M 40 39.672 L 60 39.672 L 60 59.672 L 40 59.672 Z" class="figure-element figure-faded" style="fill: none; stroke: rgb(0, 0, 0);"/>
        <path style="fill: none; stroke: rgb(0, 0, 0);" d="M 0 59.672 L 20 59.672 L 20 79.672 L 6 79.672 C 2.686 79.672 0 76.986 0 73.672 Z" class="figure-element"/>
        <path style="fill: none; stroke: rgb(0, 0, 0);" d="M 20 59.672 L 40 59.672 L 40 79.672 L 20 79.672 Z" class="figure-element"/>
        <path style="fill: none; stroke: rgb(0, 0, 0);" d="M 40 59.672 L 60 59.672 L 60 73.672 C 60 76.986 57.314 79.672 54 79.672 L 40 79.672 Z" class="figure-element"/>
        <text x="24.008" y="95.196" style="font-size: 13px; white-space: pre;" class="figure-text"><tspan>W</tspan><tspan dy="0.5ex" class="subscript">1</tspan></text>
      </g>
      <g transform="matrix(0, 1, -1, 0, 133.316666, 280.120636)">
        <title>z</title>
        <path style="fill: none; stroke: rgb(0, 0, 0);" transform="matrix(1, 0, 0, 1, 0, 0)" d="M 0 6 a 6 6 0 0 1 6 -6 l 14 0 l 0 20 l -14 0 a 6 6 0 0 1 -6 -6 Z" class="figure-element"/>
        <path style="fill: none; stroke: rgb(0, 0, 0);" transform="matrix(1, 0, 0, 1, 20, 0)" d="M 0 0 l 20 0 l 0 20 l -20 0 Z" class="figure-element"/>
        <path style="fill: none; stroke: rgb(0, 0, 0);" transform="matrix(1, 0, 0, 1, 40, 0)" d="M 0 0 l 14 0 a 6 6 0 0 1 6 6 l 0 8 a 6 6 0 0 1 -6 6 l -14 0 Z" class="figure-element"/>
        <text x="59.454" y="324.652" style="font-size: 13px; white-space: pre;" class="figure-text" transform="matrix(0, -0.999996, 1, 0, -289.851562, 54.452885)"><tspan>f(</tspan><tspan style="font-weight: bold;">c</tspan><tspan>)</tspan></text>
      </g>
      <path style="fill: none; stroke: rgb(0, 0, 0);" class="figure-line" d="M 48.317 277.121 C 48.317 261.121 90.817 277.121 90.817 261.121 C 90.817 277.121 133.317 261.121 133.317 277.121"/>
      <path style="fill: none; stroke: rgb(0, 0, 0);" class="figure-line" d="M -4.183 194.121 C -4.183 178.121 64.567 194.121 64.567 178.121 C 64.567 194.121 133.317 178.121 133.317 194.121"/>
      <g transform="matrix(0, 1, -1, 0, 103.24031869933833, 203.17410436167654)">
        <title>W_1 f(c)</title>
        <path style="fill: none; stroke: rgb(0, 0, 0);" d="M -6.053 8.423 C -6.053 5.109 -3.367 2.423 -0.053 2.423 L 13.947 2.423 L 13.947 22.423 L -0.053 22.423 C -3.367 22.423 -6.053 19.737 -6.053 16.423 Z" class="figure-element"/>
        <path style="fill: none; stroke: rgb(0, 0, 0);" d="M 13.947 2.423 L 33.947 2.423 L 33.947 22.423 L 13.947 22.423 Z" class="figure-element"/>
        <path style="fill: none; stroke: rgb(0, 0, 0);" d="M 33.947 2.423 L 47.947 2.423 C 51.261 2.423 53.947 5.109 53.947 8.423 L 53.947 16.423 C 53.947 19.737 51.261 22.423 47.947 22.423 L 33.947 22.423 Z" class="figure-element"/>
        <text x="59.454" y="324.652" style="font-size: 13px; white-space: pre;" class="figure-text" transform="matrix(0, -0.999996, 1, 0, -295.904541, 56.875904)"><tspan>W</tspan><tspan dy="0.5ex" class="subscript">1</tspan><tspan dy="-0.5ex" > f(</tspan><tspan style="font-weight: bold;">c</tspan><tspan>)</tspan></text>
      </g>
    </g>
    <g transform="matrix(1, 0, 0, 1, 281.412842, 115.876701)">
      <title>y_2</title>
      <g transform="matrix(1, 0, 0, 1, -2.245323, 49.024063)">
        <title>x</title>
        <path style="fill: none; stroke: rgb(0, 0, 0);" transform="matrix(1, 0, 0, 1, 0, 0)" d="M 0 6 a 6 6 0 0 1 6 -6 l 14 0 l 0 20 l -14 0 a 6 6 0 0 1 -6 -6 Z" class="figure-element"/>
        <path style="fill: none; stroke: rgb(0, 0, 0);" transform="matrix(1, 0, 0, 1, 20, 0)" d="M 0 0 l 20 0 l 0 20 l -20 0 Z" class="figure-element"/>
        <path style="fill: none; stroke: rgb(0, 0, 0);" transform="matrix(1, 0, 0, 1, 40, 0)" d="M 0 0 l 14 0 a 6 6 0 0 1 6 6 l 0 8 a 6 6 0 0 1 -6 6 l -14 0 Z" class="figure-element"/>
        <path style="fill: none; stroke: rgb(0, 0, 0);" transform="matrix(1, 0, 0, 1, 60, 0)" d="M 0 6 a 6 6 0 0 1 6 -6 l 8 0 a 6 6 0 0 1 6 6 l 0 8 a 6 6 0 0 1 -6 6 l -8 0 a 6 6 0 0 1 -6 -6 Z" class="figure-element"/>
        <text x="59.454" y="324.652" style="font-size: 13px; white-space: pre;" class="figure-text" transform="matrix(1.000001, 0, 0, 1, -32.593815, -291.984375)"><tspan style="font-weight: bold;">x</tspan></text>
        <text x="59.454" y="324.652" style="font-size: 13px; white-space: pre;" class="figure-text" transform="matrix(0.999998, 0, 0, 1, 7.671993, -309.71875)">1</text>
      </g>
      <g transform="matrix(1, 0, 0, 1, 50.255093, 131.904373)">
        <title>W_2</title>
        <path d="M 0 6.119 C 0 2.806 2.686 0.119 6 0.119 L 20 0.119 L 20 20.119 L 0 20.119 Z" class="figure-element figure-faded" style="fill: none; stroke: rgb(0, 0, 0);"/>
        <path d="M 20 0.119 L 40 0.119 L 40 20.119 L 20 20.119 Z" class="figure-element figure-faded" style="fill: none; stroke: rgb(0, 0, 0);"/>
        <path d="M 40 0.119 L 54 0.119 C 57.314 0.119 60 2.806 60 6.119 L 60 20.119 L 40 20.119 Z" class="figure-element figure-faded" style="fill: none; stroke: rgb(0, 0, 0);"/>
        <path style="fill: none; stroke: rgb(0, 0, 0);" d="M 0 20.119 L 20 20.119 L 20 40.119 L 0 40.119 Z" class="figure-element"/>
        <path style="fill: none; stroke: rgb(0, 0, 0);" d="M 20 20.119 L 40 20.119 L 40 40.119 L 20 40.119 Z" class="figure-element"/>
        <path style="fill: none; stroke: rgb(0, 0, 0);" d="M 40 20.119 L 60 20.119 L 60 40.119 L 40 40.119 Z" class="figure-element"/>
        <path d="M 0 40.119 L 20 40.119 L 20 60.119 L 0 60.119 Z" class="figure-element figure-faded" style="fill: none; stroke: rgb(0, 0, 0);"/>
        <path d="M 20 40.119 L 40 40.119 L 40 60.119 L 20 60.119 Z" class="figure-element figure-faded" style="fill: none; stroke: rgb(0, 0, 0);"/>
        <path d="M 40 40.119 L 60 40.119 L 60 60.119 L 40 60.119 Z" class="figure-element figure-faded" style="fill: none; stroke: rgb(0, 0, 0);"/>
        <path style="fill: none; stroke: rgb(0, 0, 0);" d="M 0 60.119 L 20 60.119 L 20 80.119 L 6 80.119 C 2.686 80.119 0 77.433 0 74.119 Z" class="figure-element"/>
        <path style="fill: none; stroke: rgb(0, 0, 0);" d="M 20 60.119 L 40 60.119 L 40 80.119 L 20 80.119 Z" class="figure-element"/>
        <path style="fill: none; stroke: rgb(0, 0, 0);" d="M 40 60.119 L 60 60.119 L 60 74.119 C 60 77.433 57.314 80.119 54 80.119 L 40 80.119 Z" class="figure-element"/>
        <text x="24.003" y="95.65" style="font-size: 13px; white-space: pre;" class="figure-text"><tspan>W</tspan><tspan dy="0.5ex" class="subscript">2</tspan></text>
      </g>
      <g transform="matrix(0, 1, -1, 0, 135.255096, 132.023361)">
        <title>z</title>
        <path style="fill: none; stroke: rgb(0, 0, 0);" transform="matrix(1, 0, 0, 1, 0, 0)" d="M 0 6 a 6 6 0 0 1 6 -6 l 14 0 l 0 20 l -14 0 a 6 6 0 0 1 -6 -6 Z" class="figure-element"/>
        <path style="fill: none; stroke: rgb(0, 0, 0);" transform="matrix(1, 0, 0, 1, 20, 0)" d="M 0 0 l 20 0 l 0 20 l -20 0 Z" class="figure-element"/>
        <path style="fill: none; stroke: rgb(0, 0, 0);" d="M 0 0 l 14 0 a 6 6 0 0 1 6 6 l 0 8 a 6 6 0 0 1 -6 6 l -14 0 Z" class="figure-element" transform="matrix(1, 0, 0, 1, 40, 0)"/>
        <text x="59.454" y="324.652" style="font-size: 13px; white-space: pre;" class="figure-text" transform="matrix(0, -0.999996, 1, 0, -289.851562, 54.452885)"><tspan>f(</tspan><tspan style="font-weight: bold;">c</tspan><tspan>)</tspan></text>
      </g>
      <path style="fill: none; stroke: rgb(0, 0, 0);" class="figure-line" d="M 50.255 129.023 C 50.255 113.023 92.755 129.023 92.755 113.023 C 92.755 129.023 135.255 113.023 135.255 129.023"/>
      <path style="fill: none; stroke: rgb(0, 0, 0);" class="figure-line" d="M -2.245 46.024 C -2.245 30.024 66.505 46.024 66.505 30.024 C 66.505 46.024 135.255 30.024 135.255 46.024"/>
      <g transform="matrix(0, 1, -1, 0, 112.258652, 57.74707)">
        <title>W_2 f(c)</title>
        <path style="fill: none; stroke: rgb(0, 0, 0);" d="M -8.723 15.504 C -8.723 12.19 -6.037 9.504 -2.723 9.504 L 11.277 9.504 L 11.277 29.504 L -2.723 29.504 C -6.037 29.504 -8.723 26.817 -8.723 23.504 Z" class="figure-element"/>
        <path style="fill: none; stroke: rgb(0, 0, 0);" d="M 11.277 9.504 L 31.277 9.504 L 31.277 29.504 L 11.277 29.504 Z" class="figure-element"/>
        <path style="fill: none; stroke: rgb(0, 0, 0);" d="M 31.277 9.504 L 45.277 9.504 C 48.591 9.504 51.277 12.19 51.277 15.504 L 51.277 23.504 C 51.277 26.817 48.591 29.504 45.277 29.504 L 31.277 29.504 Z" class="figure-element"/>
        <text x="59.454" y="324.652" style="font-size: 13px; white-space: pre;" class="figure-text" transform="matrix(0, -0.999996, 1, 0, -298.574554, 63.956902)"><tspan>W</tspan><tspan dy="0.5ex" class="subscript">2</tspan><tspan dy="-0.5ex" > f(</tspan><tspan style="font-weight: bold;">c</tspan><tspan>)</tspan></text>
      </g>
    </g>
    <g transform="matrix(1, 0, 0, 1, 353.090485, 159.433411)">
      <title>y_3</title>
      <g transform="matrix(1, 0, 0, 1, 159.007599, 5.467008)">
        <title>x</title>
        <path style="fill: none; stroke: rgb(0, 0, 0);" transform="matrix(1, 0, 0, 1, 0, 0)" d="M 0 6 a 6 6 0 0 1 6 -6 l 14 0 l 0 20 l -14 0 a 6 6 0 0 1 -6 -6 Z" class="figure-element"/>
        <path style="fill: none; stroke: rgb(0, 0, 0);" transform="matrix(1, 0, 0, 1, 20, 0)" d="M 0 0 l 20 0 l 0 20 l -20 0 Z" class="figure-element"/>
        <path style="fill: none; stroke: rgb(0, 0, 0);" transform="matrix(1, 0, 0, 1, 40, 0)" d="M 0 0 l 14 0 a 6 6 0 0 1 6 6 l 0 8 a 6 6 0 0 1 -6 6 l -14 0 Z" class="figure-element"/>
        <path style="fill: none; stroke: rgb(0, 0, 0);" transform="matrix(1, 0, 0, 1, 60, 0)" d="M 0 6 a 6 6 0 0 1 6 -6 l 8 0 a 6 6 0 0 1 6 6 l 0 8 a 6 6 0 0 1 -6 6 l -8 0 a 6 6 0 0 1 -6 -6 Z" class="figure-element"/>
        <text x="59.454" y="324.652" style="font-size: 13px; white-space: pre;" class="figure-text" transform="matrix(1.000001, 0, 0, 1, -32.593773, -291.984375)"><tspan style="font-weight: bold;">x</tspan></text>
        <text x="59.454" y="324.652" style="font-size: 13px; white-space: pre;" class="figure-text" transform="matrix(0.999998, 0, 0, 1, 7.672003, -309.71875)">1</text>
      </g>
      <g transform="matrix(1, 0, 0, 1, 211.507645, 108.466881)">
        <title>W_3</title>
        <path d="M 0 -14 C 0 -17.314 2.686 -20 6 -20 L 20 -20 L 20 0 L 0 0 Z" class="figure-element figure-faded" style="fill: none; stroke: rgb(0, 0, 0);"/>
        <path d="M 20 -20 L 40 -20 L 40 0 L 20 0 Z" class="figure-element figure-faded" style="fill: none; stroke: rgb(0, 0, 0);"/>
        <path d="M 40 -20 L 54 -20 C 57.314 -20 60 -17.314 60 -14 L 60 0 L 40 0 Z" class="figure-element figure-faded" style="fill: none; stroke: rgb(0, 0, 0);"/>
        <path d="M 0 0 L 20 0 L 20 20 L 0 20 Z" class="figure-element figure-faded" style="fill: none; stroke: rgb(0, 0, 0);"/>
        <path d="M 20 0 L 40 0 L 40 20 L 20 20 Z" class="figure-element figure-faded" style="fill: none; stroke: rgb(0, 0, 0);"/>
        <path d="M 40 0 L 60 0 L 60 20 L 40 20 Z" class="figure-element figure-faded" style="fill: none; stroke: rgb(0, 0, 0);"/>
        <path style="fill: none; stroke: rgb(0, 0, 0);" d="M 0 20 L 20 20 L 20 40 L 0 40 Z" class="figure-element"/>
        <path style="fill: none; stroke: rgb(0, 0, 0);" d="M 20 20 L 40 20 L 40 40 L 20 40 Z" class="figure-element"/>
        <path style="fill: none; stroke: rgb(0, 0, 0);" d="M 40 20 L 60 20 L 60 40 L 40 40 Z" class="figure-element"/>
        <path style="fill: none; stroke: rgb(0, 0, 0);" d="M 0 40 L 20 40 L 20 60 L 6 60 C 2.686 60 0 57.314 0 54 Z" class="figure-element"/>
        <path style="fill: none; stroke: rgb(0, 0, 0);" d="M 20 40 L 40 40 L 40 60 L 20 60 Z" class="figure-element"/>
        <path style="fill: none; stroke: rgb(0, 0, 0);" d="M 40 40 L 60 40 L 60 54 C 60 57.314 57.314 60 54 60 L 40 60 Z" class="figure-element"/>
        <text x="24.002" y="75.523" style="font-size: 13px; white-space: pre;" class="figure-text"><tspan>W</tspan><tspan dy="0.5ex" class="subscript">3</tspan></text>
      </g>
      <g transform="matrix(0, 1, -1, 0, 296.50766, 88.46685)">
        <title>z</title>
        <path style="fill: none; stroke: rgb(0, 0, 0);" transform="matrix(1, 0, 0, 1, 0, 0)" d="M 0 6 a 6 6 0 0 1 6 -6 l 14 0 l 0 20 l -14 0 a 6 6 0 0 1 -6 -6 Z" class="figure-element"/>
        <path style="fill: none; stroke: rgb(0, 0, 0);" transform="matrix(1, 0, 0, 1, 20, 0)" d="M 0 0 l 20 0 l 0 20 l -20 0 Z" class="figure-element"/>
        <path style="fill: none; stroke: rgb(0, 0, 0);" transform="matrix(1, 0, 0, 1, 40, 0)" d="M 0 0 l 14 0 a 6 6 0 0 1 6 6 l 0 8 a 6 6 0 0 1 -6 6 l -14 0 Z" class="figure-element"/>
        <text x="26.793" y="249.719" style="font-size: 13px; white-space: pre;" class="figure-text" transform="matrix(0, -1, 1, 0, -214.929687, 21.781195)"><tspan>f(</tspan><tspan style="font-weight: bold;">c</tspan><tspan>)</tspan></text>
      </g>
      <g transform="matrix(0, 1, -1, 0, 265.020599, 5.467006)">
        <title>W_3 z</title>
        <path style="fill: none; stroke: rgb(0, 0, 0);" d="M 0 7.013 C 0 3.699 2.686 1.013 6 1.013 L 20 1.013 L 20 21.013 L 6 21.013 C 2.686 21.013 0 18.326 0 15.013 Z" class="figure-element"/>
        <path style="fill: none; stroke: rgb(0, 0, 0);" d="M 20 1.013 L 40 1.013 L 40 21.013 L 20 21.013 Z" class="figure-element"/>
        <path style="fill: none; stroke: rgb(0, 0, 0);" d="M 40 1.013 L 54 1.013 C 57.314 1.013 60 3.699 60 7.013 L 60 15.013 C 60 18.326 57.314 21.013 54 21.013 L 40 21.013 Z" class="figure-element"/>
        <text x="26.793" y="249.719" style="font-size: 13px; white-space: pre;" class="figure-text" transform="matrix(0, -1, 1, 0, -214.929687, 22.794247)"><tspan>W</tspan><tspan dy="0.5ex" class="subscript">3</tspan><tspan dy="-0.5ex" > f(</tspan><tspan style="font-weight: bold;">c</tspan><tspan>)</tspan></text>
      </g>
      <path style="fill: none; stroke: rgb(0, 0, 0);" class="figure-line" d="M 211.508 85.467 C 211.508 69.467 254.008 85.467 254.008 69.467 C 254.008 85.467 296.508 69.467 296.508 85.467"/>
      <path style="fill: none; stroke: rgb(0, 0, 0);" class="figure-line" d="M 159.008 2.467 C 159.008 -13.533 227.758 2.467 227.758 -13.533 C 227.758 2.467 296.508 -13.533 296.508 2.467"/>
    </g>
    <g transform="matrix(1, 0, 0, 1, 288.007874, 49.377853)">
      <title>y</title>
      <path style="fill: none; stroke: rgb(0, 0, 0);" transform="matrix(1, 0, 0, 1, 0, 0)" d="M 0 6 a 6 6 0 0 1 6 -6 l 34 0 l 0 40 l -34 0 a 6 6 0 0 1 -6 -6 Z" class="figure-element"/>
      <path style="fill: none; stroke: rgb(0, 0, 0);" transform="matrix(1, 0, 0, 1, 40, 0)" d="M 0 0 l 40 0 l 0 40 l -40 0 Z" class="figure-element"/>
      <path style="fill: none; stroke: rgb(0, 0, 0);" transform="matrix(1, 0, 0, 1, 80, 0)" d="M 0 0 l 34 0 a 6 6 0 0 1 6 6 l 0 28 a 6 6 0 0 1 -6 6 l -34 0 Z" class="figure-element"/>
      <text x="-11.49" y="25.033" style="font-size: 13px; white-space: pre;" class="figure-text">y</text>
    </g>
    <use width="8.5600004196167" height="7.690000057220459" transform="matrix(1, 0, 0, 1, 303.7278747558594, 89.37785339355469)" xlink:href="#arrow-up"/>
    <use width="8.5600004196167" height="7.690000057220459" transform="matrix(1, 0, 0, 1, 343.72784423828125, 89.37785339355469)" xlink:href="#arrow-up"/>
    <use width="8.5600004196167" height="7.690000057220459" transform="matrix(1, 0, 0, 1, 383.7278747558594, 89.37785339355469)" xlink:href="#arrow-up"/>
    <path style="fill: none; stroke: rgb(0, 0, 0);" class="figure-line" d="M 388.008 89.377 C 383.728 167.147 580.618 113.716 580.618 140.9"/>
    <path style="fill: none; stroke: rgb(0, 0, 0);" class="figure-line" d="M 348.008 89.377 L 348.008 140.9"/>
    <path style="fill: none; stroke: rgb(0, 0, 0);" class="figure-line" d="M 308.008 89.377 C 312.288 167.147 124.345 97.067 114.118 140.9"/>
    <path style="fill: rgb(216, 216, 216); stroke: rgb(0, 0, 0);" d="M 396.904 440.005"/>
    <path style="fill: rgb(216, 216, 216); stroke: rgb(0, 0, 0);" d="M 279.935 410.603"/>
  </g>
</svg>
