<?xml version="1.0" encoding="utf-8"?>
<svg viewBox="0 0 744 500" xmlns="http://www.w3.org/2000/svg" xmlns:xlink="http://www.w3.org/1999/xlink">
  <defs>
    <symbol id="arrow-right" viewBox="0 0 7.69 8.56">
      <title>Right arrow</title>
      <path style="fill: rgb(0, 0, 0);" d="M 7.69 4.28 C 4.911 5.279 2.314 6.725 0 8.56 L 1.55 4.28 L 0 0 C 2.314 1.835 4.911 3.28 7.69 4.28 Z" class="figure-path"/>
    </symbol>
    <symbol id="arrow-up" viewBox="0 0 8.56 7.69">
      <title>Up arrow</title>
      <path style="fill: rgb(0, 0, 0);" d="M 4.28 0 a 27.2 27.2 0 0 0 4.28 7.69 L 4.28 6.14 l -4.28 1.55 A 27.17 27.17 0 0 0 4.28 0 Z" class="figure-path"/>
    </symbol>
    <symbol id="arrow-left" viewBox="0 0 7.69 8.56">
      <title>Left arrow</title>
      <path style="fill: rgb(0, 0, 0);" d="M 0 4.28 a 27.2 27.2 0 0 0 7.69 -4.28 L 6.14 4.28 l 1.55 4.28 A 27.18 27.18 0 0 0 0 4.28 Z" class="figure-path"/>
    </symbol>
    <symbol id="arrow-down" viewBox="0 0 8.56 7.69">
      <title>Down arrow</title>
      <path style="fill: rgb(0, 0, 0);" d="M 4.28 7.69 a 27.2 27.2 0 0 0 -4.28 -7.69 l 4.28 1.55 4.28 -1.55 A 27.18 27.18 0 0 0 4.28 7.69 Z" class="figure-path"/>
    </symbol>
  </defs>
  <g transform="matrix(1, 0, 0, 1, 10, -0.000009)" id="mlp-figure">
    <title>MLP Figure</title>
    <rect y="10" width="357" height="480" style="fill: none;"/>
    <g transform="matrix(1, 0, 0, 1, 197.000031, 440)" id="input-layer">
      <title>Input Layer</title>
      <g transform="matrix(1, 0, 0, 1, 0, 0)" class="feature">
        <path style="fill: #ffffff;" d="M 0 6 a 6 6 0 0 1 6 -6 l 34 0 l 0 40 l -34 0 a 6 6 0 0 1 -6 -6 Z" class="figure-line"/>
        <g transform="matrix(1, 0, 0, 1, 20, 20)">
          <line style="stroke: rgb(0, 0, 0);" x1="0" y1="0" x2="0" y2="-16" class="figure-line"/>
          <line style="stroke: rgb(0, 0, 0);" x1="0" y1="-16" x2="-4" y2="-12" class="figure-line"/>
          <line style="stroke: rgb(0, 0, 0);" x1="0" y1="-16" x2="4" y2="-12" class="figure-line"/>
        </g>
      </g>
      <g transform="matrix(1, 0, 0, 1, 40, 0)" class="feature">
        <path style="fill: #ffffff;" d="M 0 0 l 40 0 l 0 40 l -40 0 Z" class="figure-line"/>
        <g transform="matrix(1, 0, 0, 1, 20, 20)">
          <line style="stroke: rgb(0, 0, 0);" x1="0" y1="0" x2="0" y2="-16" class="figure-line"/>
          <line style="stroke: rgb(0, 0, 0);" x1="0" y1="-16" x2="-4" y2="-12" class="figure-line"/>
          <line style="stroke: rgb(0, 0, 0);" x1="0" y1="-16" x2="4" y2="-12" class="figure-line"/>
        </g>
      </g>
      <g transform="matrix(1, 0, 0, 1, 80, 0)" class="feature">
        <path style="fill: #ffffff;" d="M 0 0 l 40 0 l 0 40 l -40 0 Z" class="figure-line"/>
        <g transform="matrix(1, 0, 0, 1, 20, 20)">
          <line style="stroke: rgb(0, 0, 0);" x1="0" y1="0" x2="0" y2="-16" class="figure-line"/>
          <line style="stroke: rgb(0, 0, 0);" x1="0" y1="-16" x2="-4" y2="-12" class="figure-line"/>
          <line style="stroke: rgb(0, 0, 0);" x1="0" y1="-16" x2="4" y2="-12" class="figure-line"/>
        </g>
      </g>
      <g transform="matrix(1, 0, 0, 1, 120, 0)" class="feature">
        <path style="fill: #ffffff;" d="M 0 0 l 34 0 a 6 6 0 0 1 6 6 l 0 28 a 6 6 0 0 1 -6 6 l -34 0 Z" class="figure-line"/>
        <g transform="matrix(1, 0, 0, 1, 20, 20)">
          <line style="stroke: rgb(0, 0, 0);" x1="0" y1="0" x2="0" y2="-16" class="figure-line"/>
          <line style="stroke: rgb(0, 0, 0);" x1="0" y1="-16" x2="-4" y2="-12" class="figure-line"/>
          <line style="stroke: rgb(0, 0, 0);" x1="0" y1="-16" x2="4" y2="-12" class="figure-line"/>
        </g>
      </g>
    </g>
    <line style="stroke: rgb(0, 0, 0);" x1="277" y1="440" x2="277" y2="372.5" class="figure-line"/>
    <use width="8.5600004196167" height="7.690000057220459" transform="matrix(1, 0, 0, 1, 272.72003173828125, 372.4999694824219)" xlink:href="#arrow-up"/>
    <g transform="matrix(1, 0, 0, 1, 0.000017, 332.499969)" id="gamma">
      <title>Gamma</title>
      <g transform="matrix(1, 0, 0, 1, 0, 0)" class="feature">
        <path style="fill: #ffffff;" d="M 0 6 a 6 6 0 0 1 6 -6 l 34 0 l 0 40 l -34 0 a 6 6 0 0 1 -6 -6 Z" class="figure-line"/>
        <g transform="matrix(1, 0, 0, 1, 20, 20)">
          <line style="stroke: rgb(0, 0, 0);" x1="0" y1="0" x2="0" y2="-16" class="figure-line"/>
          <line style="stroke: rgb(0, 0, 0);" x1="0" y1="-16" x2="-4" y2="-12" class="figure-line"/>
          <line style="stroke: rgb(0, 0, 0);" x1="0" y1="-16" x2="4" y2="-12" class="figure-line"/>
        </g>
      </g>
      <g transform="matrix(1, 0, 0, 1, 40, 0)" class="feature">
        <path style="fill: #ffffff;" d="M 0 0 l 40 0 l 0 40 l -40 0 Z" class="figure-line"/>
        <g transform="matrix(1, 0, 0, 1, 20, 20)">
          <line style="stroke: rgb(0, 0, 0);" x1="0" y1="0" x2="0" y2="-16" class="figure-line"/>
          <line style="stroke: rgb(0, 0, 0);" x1="0" y1="-16" x2="-4" y2="-12" class="figure-line"/>
          <line style="stroke: rgb(0, 0, 0);" x1="0" y1="-16" x2="4" y2="-12" class="figure-line"/>
        </g>
      </g>
      <g transform="matrix(1, 0, 0, 1, 80, 0)" class="feature">
        <path style="fill: #ffffff;" d="M 0 0 l 40 0 l 0 40 l -40 0 Z" class="figure-line"/>
        <g transform="matrix(1, 0, 0, 1, 20, 20)">
          <line style="stroke: rgb(0, 0, 0);" x1="0" y1="0" x2="0" y2="-16" class="figure-line"/>
          <line style="stroke: rgb(0, 0, 0);" x1="0" y1="-16" x2="-4" y2="-12" class="figure-line"/>
          <line style="stroke: rgb(0, 0, 0);" x1="0" y1="-16" x2="4" y2="-12" class="figure-line"/>
        </g>
      </g>
      <g transform="matrix(1, 0, 0, 1, 120, 0)" class="feature">
        <path style="fill: #ffffff;" d="M 0 0 l 34 0 a 6 6 0 0 1 6 6 l 0 28 a 6 6 0 0 1 -6 6 l -34 0 Z" class="figure-line"/>
        <g transform="matrix(1, 0, 0, 1, 20, 20)">
          <line style="stroke: rgb(0, 0, 0);" x1="0" y1="0" x2="0" y2="-16" class="figure-line"/>
          <line style="stroke: rgb(0, 0, 0);" x1="0" y1="-16" x2="-4" y2="-12" class="figure-line"/>
          <line style="stroke: rgb(0, 0, 0);" x1="0" y1="-16" x2="4" y2="-12" class="figure-line"/>
        </g>
      </g>
    </g>
    <text x="59.454" y="324.652" style="font-size: 13px; white-space: pre;" class="figure-text" transform="matrix(0.999999, 0, 0, 1, 17.187553, -10)" id="gamma-label">γ</text>
    <line style="stroke: rgb(0, 0, 0);" x1="160" y1="352.5" x2="257" y2="352.5" class="figure-line"/>
    <use width="7.690000057220459" height="8.5600004196167" transform="matrix(1, 0, 0, 1, 249.30999755859375, 348.219970703125)" xlink:href="#arrow-right"/>
    <g transform="matrix(1, 0, 0, 1, 277, 137.499985)">
      <title>Scaling Operator</title>
      <ellipse style="fill: rgb(216, 216, 216);" cx="0" cy="0" rx="20" ry="20" class="figure-operator"/>
      <line style="stroke: rgb(0, 0, 0);" x1="0" y1="7.5" x2="0" y2="-7.5" class="figure-line"/>
      <line style="stroke: rgb(0, 0, 0);" x1="-7.5" y1="0" x2="7.5" y2="0" class="figure-line"/>
    </g>
    <line style="stroke: rgb(0, 0, 0);" x1="277" y1="332.5" x2="277" y2="265" class="figure-line"/>
    <use width="8.5600004196167" height="7.690000057220459" transform="matrix(1, 0, 0, 1, 272.7200012207031, 264.9999694824219)" xlink:href="#arrow-up"/>
    <g transform="matrix(1, 0, 0, 1, 197, 224.999969)" id="scaled-layer">
      <title>Scaled Layer</title>
      <g transform="matrix(1, 0, 0, 1, 0, 0)" class="feature">
        <path style="fill: #ffffff;" d="M 0 6 a 6 6 0 0 1 6 -6 l 34 0 l 0 40 l -34 0 a 6 6 0 0 1 -6 -6 Z" class="figure-line"/>
        <g transform="matrix(1, 0, 0, 1, 20, 20)">
          <line style="stroke: rgb(0, 0, 0);" x1="0" y1="0" x2="0" y2="-16" class="figure-line"/>
          <line style="stroke: rgb(0, 0, 0);" x1="0" y1="-16" x2="-4" y2="-12" class="figure-line"/>
          <line style="stroke: rgb(0, 0, 0);" x1="0" y1="-16" x2="4" y2="-12" class="figure-line"/>
        </g>
      </g>
      <g transform="matrix(1, 0, 0, 1, 40, 0)" class="feature">
        <path style="fill: #ffffff;" d="M 0 0 l 40 0 l 0 40 l -40 0 Z" class="figure-line"/>
        <g transform="matrix(1, 0, 0, 1, 20, 20)">
          <line style="stroke: rgb(0, 0, 0);" x1="0" y1="0" x2="0" y2="-16" class="figure-line"/>
          <line style="stroke: rgb(0, 0, 0);" x1="0" y1="-16" x2="-4" y2="-12" class="figure-line"/>
          <line style="stroke: rgb(0, 0, 0);" x1="0" y1="-16" x2="4" y2="-12" class="figure-line"/>
        </g>
      </g>
      <g transform="matrix(1, 0, 0, 1, 80, 0)" class="feature">
        <path style="fill: #ffffff;" d="M 0 0 l 40 0 l 0 40 l -40 0 Z" class="figure-line"/>
        <g transform="matrix(1, 0, 0, 1, 20, 20)">
          <line style="stroke: rgb(0, 0, 0);" x1="0" y1="0" x2="0" y2="-16" class="figure-line"/>
          <line style="stroke: rgb(0, 0, 0);" x1="0" y1="-16" x2="-4" y2="-12" class="figure-line"/>
          <line style="stroke: rgb(0, 0, 0);" x1="0" y1="-16" x2="4" y2="-12" class="figure-line"/>
        </g>
      </g>
      <g transform="matrix(1, 0, 0, 1, 120, 0)" class="feature">
        <path style="fill: #ffffff;" d="M 0 0 l 34 0 a 6 6 0 0 1 6 6 l 0 28 a 6 6 0 0 1 -6 6 l -34 0 Z" class="figure-line"/>
        <g transform="matrix(1, 0, 0, 1, 20, 20)">
          <line style="stroke: rgb(0, 0, 0);" x1="0" y1="0" x2="0" y2="-16" class="figure-line"/>
          <line style="stroke: rgb(0, 0, 0);" x1="0" y1="-16" x2="-4" y2="-12" class="figure-line"/>
          <line style="stroke: rgb(0, 0, 0);" x1="0" y1="-16" x2="4" y2="-12" class="figure-line"/>
        </g>
      </g>
    </g>
    <line style="stroke: rgb(0, 0, 0);" x1="277" y1="225" x2="277" y2="157.5" class="figure-line"/>
    <use width="8.5600004196167" height="7.690000057220459" transform="matrix(1, 0, 0, 1, 272.7200012207031, 157.5)" xlink:href="#arrow-up"/>
    <g transform="matrix(1, 0, 0, 1, -0.000003, 117.499977)" id="beta">
      <title>Beta</title>
      <g transform="matrix(1, 0, 0, 1, 0, 0)" class="feature">
        <path style="fill: #ffffff;" d="M 0 6 a 6 6 0 0 1 6 -6 l 34 0 l 0 40 l -34 0 a 6 6 0 0 1 -6 -6 Z" class="figure-line"/>
        <g transform="matrix(1, 0, 0, 1, 20, 20)">
          <line style="stroke: rgb(0, 0, 0);" x1="0" y1="0" x2="0" y2="-16" class="figure-line"/>
          <line style="stroke: rgb(0, 0, 0);" x1="0" y1="-16" x2="-4" y2="-12" class="figure-line"/>
          <line style="stroke: rgb(0, 0, 0);" x1="0" y1="-16" x2="4" y2="-12" class="figure-line"/>
        </g>
      </g>
      <g transform="matrix(1, 0, 0, 1, 40, 0)" class="feature">
        <path style="fill: #ffffff;" d="M 0 0 l 40 0 l 0 40 l -40 0 Z" class="figure-line"/>
        <g transform="matrix(1, 0, 0, 1, 20, 20)">
          <line style="stroke: rgb(0, 0, 0);" x1="0" y1="0" x2="0" y2="-16" class="figure-line"/>
          <line style="stroke: rgb(0, 0, 0);" x1="0" y1="-16" x2="-4" y2="-12" class="figure-line"/>
          <line style="stroke: rgb(0, 0, 0);" x1="0" y1="-16" x2="4" y2="-12" class="figure-line"/>
        </g>
      </g>
      <g transform="matrix(1, 0, 0, 1, 80, 0)" class="feature">
        <path style="fill: #ffffff;" d="M 0 0 l 40 0 l 0 40 l -40 0 Z" class="figure-line"/>
        <g transform="matrix(1, 0, 0, 1, 20, 20)">
          <line style="stroke: rgb(0, 0, 0);" x1="0" y1="0" x2="0" y2="-16" class="figure-line"/>
          <line style="stroke: rgb(0, 0, 0);" x1="0" y1="-16" x2="-4" y2="-12" class="figure-line"/>
          <line style="stroke: rgb(0, 0, 0);" x1="0" y1="-16" x2="4" y2="-12" class="figure-line"/>
        </g>
      </g>
      <g transform="matrix(1, 0, 0, 1, 120, 0)" class="feature">
        <path style="fill: #ffffff;" d="M 0 0 l 34 0 a 6 6 0 0 1 6 6 l 0 28 a 6 6 0 0 1 -6 6 l -34 0 Z" class="figure-line"/>
        <g transform="matrix(1, 0, 0, 1, 20, 20)">
          <line style="stroke: rgb(0, 0, 0);" x1="0" y1="0" x2="0" y2="-16" class="figure-line"/>
          <line style="stroke: rgb(0, 0, 0);" x1="0" y1="-16" x2="-4" y2="-12" class="figure-line"/>
          <line style="stroke: rgb(0, 0, 0);" x1="0" y1="-16" x2="4" y2="-12" class="figure-line"/>
        </g>
      </g>
    </g>
    <text x="76.446" y="99.636" class="figure-text" style="font-size: 13px; white-space: pre;" id="beta-label">β</text>
    <line style="stroke: rgb(0, 0, 0);" x1="160" y1="137.5" x2="257" y2="137.5" class="figure-line"/>
    <use width="7.690000057220459" height="8.5600004196167" transform="matrix(1, 0, 0, 1, 249.30999755859375, 133.21998596191406)" xlink:href="#arrow-right"/>
    <g transform="matrix(1, 0, 0, 1, 277, 352.499969)">
      <title>Shifting Operator</title>
      <ellipse style="fill: rgb(216, 216, 216);" cx="0" cy="0" rx="20" ry="20" class="figure-operator"/>
      <ellipse rx="4" ry="4" style="fill: rgb(102, 102, 102);"/>
    </g>
    <line style="stroke: rgb(0, 0, 0);" x1="277" y1="117.5" x2="277" y2="50" class="figure-line"/>
    <use width="8.5600004196167" height="7.690000057220459" transform="matrix(1, 0, 0, 1, 272.7200012207031, 50.0000114440918)" xlink:href="#arrow-up"/>
    <g transform="matrix(1, 0, 0, 1, 197, 10.000008)" id="shifted-layer">
      <title>Shifted Layer</title>
      <g transform="matrix(1, 0, 0, 1, 0, 0)" class="feature">
        <path style="fill: #ffffff;" d="M 0 6 a 6 6 0 0 1 6 -6 l 34 0 l 0 40 l -34 0 a 6 6 0 0 1 -6 -6 Z" class="figure-line"/>
        <g transform="matrix(1, 0, 0, 1, 20, 20)">
          <line style="stroke: rgb(0, 0, 0);" x1="0" y1="0" x2="0" y2="-16" class="figure-line"/>
          <line style="stroke: rgb(0, 0, 0);" x1="0" y1="-16" x2="-4" y2="-12" class="figure-line"/>
          <line style="stroke: rgb(0, 0, 0);" x1="0" y1="-16" x2="4" y2="-12" class="figure-line"/>
        </g>
      </g>
      <g transform="matrix(1, 0, 0, 1, 40, 0)" class="feature">
        <path style="fill: #ffffff;" d="M 0 0 l 40 0 l 0 40 l -40 0 Z" class="figure-line"/>
        <g transform="matrix(1, 0, 0, 1, 20, 20)">
          <line style="stroke: rgb(0, 0, 0);" x1="0" y1="0" x2="0" y2="-16" class="figure-line"/>
          <line style="stroke: rgb(0, 0, 0);" x1="0" y1="-16" x2="-4" y2="-12" class="figure-line"/>
          <line style="stroke: rgb(0, 0, 0);" x1="0" y1="-16" x2="4" y2="-12" class="figure-line"/>
        </g>
      </g>
      <g transform="matrix(1, 0, 0, 1, 80, 0)" class="feature">
        <path style="fill: #ffffff;" d="M 0 0 l 40 0 l 0 40 l -40 0 Z" class="figure-line"/>
        <g transform="matrix(1, 0, 0, 1, 20, 20)">
          <line style="stroke: rgb(0, 0, 0);" x1="0" y1="0" x2="0" y2="-16" class="figure-line"/>
          <line style="stroke: rgb(0, 0, 0);" x1="0" y1="-16" x2="-4" y2="-12" class="figure-line"/>
          <line style="stroke: rgb(0, 0, 0);" x1="0" y1="-16" x2="4" y2="-12" class="figure-line"/>
        </g>
      </g>
      <g transform="matrix(1, 0, 0, 1, 120, 0)" class="feature">
        <path style="fill: #ffffff;" d="M 0 0 l 34 0 a 6 6 0 0 1 6 6 l 0 28 a 6 6 0 0 1 -6 6 l -34 0 Z" class="figure-line"/>
        <g transform="matrix(1, 0, 0, 1, 20, 20)">
          <line style="stroke: rgb(0, 0, 0);" x1="0" y1="0" x2="0" y2="-16" class="figure-line"/>
          <line style="stroke: rgb(0, 0, 0);" x1="0" y1="-16" x2="-4" y2="-12" class="figure-line"/>
          <line style="stroke: rgb(0, 0, 0);" x1="0" y1="-16" x2="4" y2="-12" class="figure-line"/>
        </g>
      </g>
    </g>
  </g>
  <g transform="matrix(1, 0, 0, 1, 377, 10)" id="cnn-figure">
    <title>CNN Figure</title>
    <rect width="357" height="480" style="fill: none;"/>
  </g>
</svg>
