<?xml version="1.0" standalone="yes"?>

<svg version="1.1" viewBox="0.0 0.0 960.0 720.0" fill="none" stroke="none" stroke-linecap="square" stroke-miterlimit="10" xmlns="http://www.w3.org/2000/svg" xmlns:xlink="http://www.w3.org/1999/xlink"><clipPath id="p.0"><path d="m0 0l960.0 0l0 720.0l-960.0 0l0 -720.0z" clip-rule="nonzero"></path></clipPath><g clip-path="url(#p.0)"><path fill="#000000" fill-opacity="0.0" d="m0 0l960.0 0l0 720.0l-960.0 0z" fill-rule="evenodd"></path><path fill="#000000" fill-opacity="0.0" d="m528.6693 139.44458l0 0c0 -27.748161 22.494324 -50.242477 50.24243 -50.242477l200.96387 0l0 0c13.325134 0 26.104553 5.2933884 35.526794 14.715675c9.422302 9.422295 14.715698 22.20166 14.715698 35.526802l0 405.53082c0 27.748108 -22.494324 50.24243 -50.242493 50.24243l-200.96387 0c-27.748108 0 -50.24243 -22.494324 -50.24243 -50.24243z" fill-rule="evenodd"></path><path stroke="#666666" stroke-width="2.0" stroke-linejoin="round" stroke-linecap="butt" d="m528.6693 139.44458l0 0c0 -27.748161 22.494324 -50.242477 50.24243 -50.242477l200.96387 0l0 0c13.325134 0 26.104553 5.2933884 35.526794 14.715675c9.422302 9.422295 14.715698 22.20166 14.715698 35.526802l0 405.53082c0 27.748108 -22.494324 50.24243 -50.242493 50.24243l-200.96387 0c-27.748108 0 -50.24243 -22.494324 -50.24243 -50.24243z" fill-rule="evenodd"></path><path fill="#000000" d="m616.703 555.5317l0 4.9375l2.28125 0q0.796875 0 1.15625 -0.34375q0.375 -0.34375 0.5 -1.375l0.34375 0l0 4.25l-0.34375 0q-0.015625 -0.734375 -0.203125 -1.0625q-0.171875 -0.34375 -0.5 -0.515625q-0.3125 -0.171875 -0.953125 -0.171875l-2.28125 0l0 3.9375q0 0.96875 0.125 1.265625q0.078125 0.234375 0.375 0.40625q0.421875 0.21875 0.859375 0.21875l0.453125 0l0 0.34375l-5.390625 0l0 -0.34375l0.4375 0q0.78125 0 1.140625 -0.453125q0.21875 -0.296875 0.21875 -1.4375l0 -8.125q0 -0.953125 -0.125 -1.25q-0.09375 -0.234375 -0.375 -0.40625q-0.40625 -0.21875 -0.859375 -0.21875l-0.4375 0l0 -0.34375l9.359375 0l0.109375 2.765625l-0.3125 0q-0.25 -0.890625 -0.578125 -1.296875q-0.3125 -0.40625 -0.78125 -0.59375q-0.46875 -0.1875 -1.453125 -0.1875l-2.765625 0zm9.235107 -1.296875q0.390625 0 0.65625 0.28125q0.28125 0.265625 0.28125 0.65625q0 0.390625 -0.28125 0.671875q-0.265625 0.265625 -0.65625 0.265625q-0.390625 0 -0.671875 -0.265625q-0.265625 -0.28125 -0.265625 -0.671875q0 -0.390625 0.265625 -0.65625q0.28125 -0.28125 0.671875 -0.28125zm0.78125 4.4375l0 6.828125q0 0.796875 0.109375 1.0625q0.109375 0.265625 0.34375 0.40625q0.234375 0.125 0.828125 0.125l0 0.328125l-4.125 0l0 -0.328125q0.625 0 0.828125 -0.125q0.21875 -0.125 0.34375 -0.390625q0.125 -0.28125 0.125 -1.078125l0 -3.28125q0 -1.375 -0.078125 -1.78125q-0.0625 -0.296875 -0.203125 -0.40625q-0.140625 -0.125 -0.390625 -0.125q-0.25 0 -0.625 0.140625l-0.125 -0.328125l2.5625 -1.046875l0.40625 0zm12.542664 5.265625l0.3125 0.0625l-1.078125 3.421875l-9.75 0l0 -0.34375l0.484375 0q0.796875 0 1.140625 -0.515625q0.1875 -0.296875 0.1875 -1.375l0 -8.125q0 -1.171875 -0.25 -1.46875q-0.375 -0.40625 -1.078125 -0.40625l-0.484375 0l0 -0.34375l5.703125 0l0 0.34375q-1.0 -0.015625 -1.40625 0.1875q-0.40625 0.1875 -0.5625 0.484375q-0.140625 0.296875 -0.140625 1.421875l0 7.90625q0 0.765625 0.15625 1.0625q0.109375 0.1875 0.328125 0.28125q0.234375 0.09375 1.453125 0.09375l0.921875 0q1.453125 0 2.03125 -0.203125q0.578125 -0.21875 1.0625 -0.765625q0.484375 -0.546875 0.96875 -1.71875zm8.286621 3.484375l-4.875 -10.578125l0 8.390625q0 1.171875 0.25 1.453125q0.34375 0.390625 1.09375 0.390625l0.4375 0l0 0.34375l-4.375 0l0 -0.34375l0.453125 0q0.796875 0 1.125 -0.484375q0.203125 -0.296875 0.203125 -1.359375l0 -8.21875q0 -0.828125 -0.1875 -1.203125q-0.125 -0.265625 -0.484375 -0.4375q-0.34375 -0.1875 -1.109375 -0.1875l0 -0.34375l3.5625 0l4.5625 9.84375l4.5 -9.84375l3.5625 0l0 0.34375l-0.4375 0q-0.8125 0 -1.140625 0.484375q-0.203125 0.296875 -0.203125 1.34375l0 8.21875q0 1.171875 0.25 1.453125q0.34375 0.390625 1.09375 0.390625l0.4375 0l0 0.34375l-5.34375 0l0 -0.34375l0.4375 0q0.8125 0 1.140625 -0.484375q0.203125 -0.296875 0.203125 -1.359375l0 -8.390625l-4.859375 10.578125l-0.296875 0zm9.572754 -4.96875l4.796875 0l0 1.40625l-4.796875 0l0 -1.40625zm7.4627075 -0.328125q0 1.890625 0.921875 2.96875q0.9375 1.078125 2.1875 1.078125q0.828125 0 1.4375 -0.453125q0.625 -0.46875 1.046875 -1.578125l0.28125 0.1875q-0.1875 1.265625 -1.125 2.3125q-0.9375 1.046875 -2.34375 1.046875q-1.53125 0 -2.625 -1.1875q-1.09375 -1.203125 -1.09375 -3.21875q0 -2.171875 1.109375 -3.390625q1.125 -1.234375 2.8125 -1.234375q1.4375 0 2.34375 0.953125q0.921875 0.9375 0.921875 2.515625l-5.875 0zm0 -0.53125l3.9375 0q-0.046875 -0.828125 -0.1875 -1.15625q-0.234375 -0.515625 -0.703125 -0.8125q-0.453125 -0.296875 -0.953125 -0.296875q-0.765625 0 -1.375 0.59375q-0.609375 0.59375 -0.71875 1.671875zm12.858643 4.875q-0.625 0.640625 -1.21875 0.9375q-0.59375 0.28125 -1.28125 0.28125q-1.390625 0 -2.4375 -1.15625q-1.03125 -1.171875 -1.03125 -3.0q0 -1.828125 1.15625 -3.34375q1.15625 -1.53125 2.953125 -1.53125q1.125 0 1.859375 0.71875l0 -1.5625q0 -1.453125 -0.078125 -1.78125q-0.0625 -0.34375 -0.21875 -0.46875q-0.140625 -0.125 -0.359375 -0.125q-0.234375 0 -0.640625 0.15625l-0.125 -0.328125l2.53125 -1.03125l0.421875 0l0 9.8125q0 1.5 0.0625 1.828125q0.078125 0.328125 0.234375 0.46875q0.15625 0.125 0.359375 0.125q0.25 0 0.65625 -0.15625l0.109375 0.328125l-2.53125 1.046875l-0.421875 0l0 -1.21875zm0 -0.65625l0 -4.375q-0.046875 -0.625 -0.328125 -1.140625q-0.28125 -0.53125 -0.75 -0.796875q-0.453125 -0.265625 -0.890625 -0.265625q-0.8125 0 -1.453125 0.734375q-0.84375 0.96875 -0.84375 2.828125q0 1.875 0.8125 2.875q0.828125 0.984375 1.828125 0.984375q0.84375 0 1.625 -0.84375zm10.4765625 -5.34375q1.484375 -1.796875 2.84375 -1.796875q0.6875 0 1.1875 0.359375q0.5 0.34375 0.796875 1.140625q0.21875 0.546875 0.21875 1.703125l0 3.625q0 0.8125 0.125 1.09375q0.09375 0.234375 0.3125 0.375q0.234375 0.125 0.859375 0.125l0 0.328125l-4.203125 0l0 -0.328125l0.171875 0q0.59375 0 0.828125 -0.1875q0.234375 -0.1875 0.328125 -0.53125q0.046875 -0.140625 0.046875 -0.875l0 -3.484375q0 -1.15625 -0.3125 -1.671875q-0.296875 -0.53125 -1.015625 -0.53125q-1.09375 0 -2.1875 1.203125l0 4.484375q0 0.859375 0.09375 1.0625q0.125 0.28125 0.34375 0.40625q0.234375 0.125 0.9375 0.125l0 0.328125l-4.203125 0l0 -0.328125l0.1875 0q0.640625 0 0.875 -0.328125q0.234375 -0.34375 0.234375 -1.265625l0 -3.15625q0 -1.53125 -0.078125 -1.859375q-0.0625 -0.34375 -0.21875 -0.453125q-0.140625 -0.125 -0.375 -0.125q-0.265625 0 -0.625 0.140625l-0.140625 -0.328125l2.5625 -1.046875l0.40625 0l0 1.796875zm8.265625 1.65625q0 1.890625 0.921875 2.96875q0.9375 1.078125 2.1875 1.078125q0.828125 0 1.4375 -0.453125q0.625 -0.46875 1.046875 -1.578125l0.28125 0.1875q-0.1875 1.265625 -1.125 2.3125q-0.9375 1.046875 -2.34375 1.046875q-1.53125 0 -2.625 -1.1875q-1.09375 -1.203125 -1.09375 -3.21875q0 -2.171875 1.109375 -3.390625q1.125 -1.234375 2.8125 -1.234375q1.4375 0 2.34375 0.953125q0.921875 0.9375 0.921875 2.515625l-5.875 0zm0 -0.53125l3.9375 0q-0.046875 -0.828125 -0.1875 -1.15625q-0.234375 -0.515625 -0.703125 -0.8125q-0.453125 -0.296875 -0.953125 -0.296875q-0.765625 0 -1.375 0.59375q-0.609375 0.59375 -0.71875 1.671875zm9.327393 -5.46875l0 2.796875l1.984375 0l0 0.65625l-1.984375 0l0 5.5q0 0.828125 0.234375 1.125q0.234375 0.28125 0.609375 0.28125q0.3125 0 0.59375 -0.1875q0.28125 -0.1875 0.4375 -0.5625l0.375 0q-0.328125 0.90625 -0.921875 1.375q-0.59375 0.453125 -1.234375 0.453125q-0.421875 0 -0.828125 -0.234375q-0.40625 -0.234375 -0.609375 -0.671875q-0.1875 -0.453125 -0.1875 -1.375l0 -5.703125l-1.34375 0l0 -0.3125q0.515625 -0.203125 1.046875 -0.6875q0.53125 -0.484375 0.953125 -1.15625q0.203125 -0.359375 0.59375 -1.296875l0.28125 0zm2.2457886 2.796875l3.5625 0l0 0.34375q-0.5 0.03125 -0.65625 0.171875q-0.140625 0.140625 -0.140625 0.40625q0 0.28125 0.15625 0.6875l1.8125 4.890625l1.828125 -3.96875l-0.484375 -1.265625q-0.21875 -0.546875 -0.578125 -0.765625q-0.203125 -0.125 -0.765625 -0.15625l0 -0.34375l4.046875 0l0 0.34375q-0.671875 0.03125 -0.953125 0.25q-0.171875 0.140625 -0.171875 0.46875q0 0.1875 0.0625 0.375l1.9375 4.875l1.78125 -4.703125q0.1875 -0.5 0.1875 -0.796875q0 -0.171875 -0.1875 -0.3125q-0.171875 -0.140625 -0.703125 -0.15625l0 -0.34375l2.6875 0l0 0.34375q-0.8125 0.125 -1.1875 1.09375l-2.84375 7.328125l-0.375 0l-2.125 -5.4375l-2.484375 5.4375l-0.34375 0l-2.71875 -7.15625q-0.265625 -0.671875 -0.53125 -0.90625q-0.265625 -0.234375 -0.8125 -0.359375l0 -0.34375zm18.097961 -0.25q1.9375 0 3.09375 1.46875q1.0 1.25 1.0 2.875q0 1.140625 -0.546875 2.3125q-0.546875 1.171875 -1.515625 1.765625q-0.953125 0.59375 -2.140625 0.59375q-1.90625 0 -3.046875 -1.53125q-0.953125 -1.296875 -0.953125 -2.90625q0 -1.15625 0.578125 -2.3125q0.578125 -1.15625 1.515625 -1.703125q0.953125 -0.5625 2.015625 -0.5625zm-0.28125 0.609375q-0.5 0 -1.0 0.296875q-0.484375 0.28125 -0.796875 1.015625q-0.3125 0.734375 -0.3125 1.890625q0 1.84375 0.734375 3.1875q0.75 1.34375 1.953125 1.34375q0.90625 0 1.484375 -0.734375q0.578125 -0.75 0.578125 -2.546875q0 -2.265625 -0.96875 -3.5625q-0.65625 -0.890625 -1.671875 -0.890625zm7.9375 -0.609375l0 1.90625q1.0625 -1.90625 2.1875 -1.90625q0.515625 0 0.84375 0.3125q0.34375 0.3125 0.34375 0.71875q0 0.359375 -0.25 0.609375q-0.234375 0.25 -0.578125 0.25q-0.3125 0 -0.71875 -0.3125q-0.40625 -0.328125 -0.59375 -0.328125q-0.171875 0 -0.375 0.1875q-0.40625 0.375 -0.859375 1.25l0 4.078125q0 0.703125 0.171875 1.0625q0.125 0.25 0.421875 0.421875q0.3125 0.171875 0.890625 0.171875l0 0.328125l-4.34375 0l0 -0.328125q0.640625 0 0.953125 -0.203125q0.234375 -0.15625 0.328125 -0.484375q0.046875 -0.15625 0.046875 -0.890625l0 -3.296875q0 -1.484375 -0.0625 -1.765625q-0.0625 -0.28125 -0.21875 -0.40625q-0.15625 -0.140625 -0.40625 -0.140625q-0.28125 0 -0.640625 0.140625l-0.09375 -0.328125l2.5625 -1.046875l0.390625 0zm6.2439575 -4.4375l0 8.453125l2.15625 -1.96875q0.6875 -0.640625 0.796875 -0.796875q0.078125 -0.109375 0.078125 -0.234375q0 -0.171875 -0.15625 -0.3125q-0.15625 -0.140625 -0.5 -0.15625l0 -0.296875l3.6875 0l0 0.296875q-0.75 0.015625 -1.265625 0.234375q-0.5 0.21875 -1.109375 0.765625l-2.171875 2.0l2.171875 2.765625q0.90625 1.140625 1.234375 1.4375q0.4375 0.4375 0.765625 0.578125q0.234375 0.09375 0.8125 0.09375l0 0.328125l-4.125 0l0 -0.328125q0.34375 -0.015625 0.46875 -0.109375q0.140625 -0.09375 0.140625 -0.28125q0 -0.203125 -0.375 -0.6875l-2.609375 -3.328125l0 2.828125q0 0.828125 0.109375 1.09375q0.125 0.25 0.328125 0.359375q0.21875 0.109375 0.9375 0.125l0 0.328125l-4.328125 0l0 -0.328125q0.65625 0 0.96875 -0.15625q0.203125 -0.109375 0.296875 -0.328125q0.140625 -0.296875 0.140625 -1.046875l0 -7.75q0 -1.46875 -0.0625 -1.796875q-0.0625 -0.328125 -0.21875 -0.453125q-0.140625 -0.125 -0.375 -0.125q-0.203125 0 -0.59375 0.15625l-0.15625 -0.328125l2.53125 -1.03125l0.421875 0z" fill-rule="nonzero"></path><path fill="#000000" fill-opacity="0.0" d="m174.38583 633.21783l251.52756 0l0 58.64569l-251.52756 0z" fill-rule="evenodd"></path><path fill="#000000" d="m219.59883 649.0079l0.359375 5.390625l-0.359375 0q-0.734375 -2.421875 -2.078125 -3.484375q-1.34375 -1.0625 -3.234375 -1.0625q-1.578125 0 -2.859375 0.796875q-1.28125 0.796875 -2.015625 2.5625q-0.71875 1.75 -0.71875 4.375q0 2.15625 0.6875 3.734375q0.6875 1.578125 2.078125 2.421875q1.390625 0.84375 3.171875 0.84375q1.546875 0 2.71875 -0.65625q1.1875 -0.671875 2.609375 -2.640625l0.359375 0.234375q-1.1875 2.125 -2.78125 3.109375q-1.59375 0.984375 -3.78125 0.984375q-3.953125 0 -6.125 -2.921875q-1.609375 -2.1875 -1.609375 -5.140625q0 -2.375 1.0625 -4.359375q1.0625 -2.0 2.921875 -3.09375q1.875 -1.09375 4.09375 -1.09375q1.71875 0 3.40625 0.84375q0.484375 0.25 0.703125 0.25q0.3125 0 0.546875 -0.21875q0.296875 -0.3125 0.4375 -0.875l0.40625 0zm7.5546875 5.203125q2.4375 0 3.921875 1.84375q1.25 1.578125 1.25 3.640625q0 1.4375 -0.703125 2.921875q-0.6875 1.46875 -1.90625 2.21875q-1.203125 0.75 -2.6875 0.75q-2.421875 0 -3.859375 -1.9375q-1.203125 -1.625 -1.203125 -3.65625q0 -1.46875 0.734375 -2.921875q0.734375 -1.46875 1.921875 -2.15625q1.203125 -0.703125 2.53125 -0.703125zm-0.359375 0.75q-0.625 0 -1.25 0.375q-0.625 0.375 -1.015625 1.296875q-0.390625 0.921875 -0.390625 2.375q0 2.34375 0.9375 4.046875q0.9375 1.703125 2.453125 1.703125q1.140625 0 1.875 -0.9375q0.734375 -0.9375 0.734375 -3.234375q0 -2.859375 -1.21875 -4.5q-0.84375 -1.125 -2.125 -1.125zm10.234375 1.515625q1.890625 -2.265625 3.609375 -2.265625q0.875 0 1.5 0.4375q0.640625 0.4375 1.015625 1.4375q0.25 0.703125 0.25 2.15625l0 4.59375q0 1.015625 0.171875 1.375q0.125 0.296875 0.40625 0.46875q0.296875 0.15625 1.0625 0.15625l0 0.421875l-5.296875 0l0 -0.421875l0.21875 0q0.75 0 1.046875 -0.21875q0.296875 -0.234375 0.421875 -0.6875q0.046875 -0.171875 0.046875 -1.09375l0 -4.40625q0 -1.453125 -0.390625 -2.109375q-0.375 -0.671875 -1.28125 -0.671875q-1.390625 0 -2.78125 1.515625l0 5.671875q0 1.078125 0.140625 1.34375q0.15625 0.34375 0.4375 0.5q0.296875 0.15625 1.171875 0.15625l0 0.421875l-5.3125 0l0 -0.421875l0.234375 0q0.828125 0 1.109375 -0.40625q0.296875 -0.421875 0.296875 -1.59375l0 -3.984375q0 -1.9375 -0.09375 -2.359375q-0.09375 -0.421875 -0.28125 -0.578125q-0.171875 -0.15625 -0.46875 -0.15625q-0.328125 0 -0.796875 0.1875l-0.171875 -0.421875l3.234375 -1.3125l0.5 0l0 2.265625zm16.453125 7.578125q-0.78125 0.8125 -1.53125 1.171875q-0.75 0.359375 -1.609375 0.359375q-1.765625 0 -3.078125 -1.46875q-1.3125 -1.46875 -1.3125 -3.78125q0 -2.3125 1.453125 -4.21875q1.453125 -1.921875 3.734375 -1.921875q1.421875 0 2.34375 0.90625l0 -1.984375q0 -1.84375 -0.09375 -2.265625q-0.078125 -0.421875 -0.265625 -0.5625q-0.1875 -0.15625 -0.46875 -0.15625q-0.296875 0 -0.8125 0.1875l-0.140625 -0.421875l3.1875 -1.3125l0.53125 0l0 12.421875q0 1.875 0.078125 2.296875q0.09375 0.421875 0.28125 0.59375q0.203125 0.15625 0.46873474 0.15625q0.3125 0 0.84375 -0.203125l0.125 0.40625l-3.1874847 1.328125l-0.546875 0l0 -1.53125zm0 -0.828125l0 -5.53125q-0.0625 -0.796875 -0.421875 -1.453125q-0.34375 -0.65625 -0.921875 -0.984375q-0.578125 -0.34375 -1.140625 -0.34375q-1.03125 0 -1.828125 0.9375q-1.078125 1.21875 -1.078125 3.5625q0 2.359375 1.03125 3.625q1.03125 1.25 2.296875 1.25q1.078125 0 2.0625 -1.0625zm7.1562347 -14.640625q0.484375 0 0.828125 0.359375q0.359375 0.34375 0.359375 0.828125q0 0.5 -0.359375 0.859375q-0.34375 0.34375 -0.828125 0.34375q-0.5 0 -0.859375 -0.34375q-0.34375 -0.359375 -0.34375 -0.859375q0 -0.484375 0.34375 -0.828125q0.359375 -0.359375 0.859375 -0.359375zm0.96875 5.625l0 8.625q0 1.0 0.140625 1.34375q0.15625 0.328125 0.4375 0.5q0.296875 0.15625 1.046875 0.15625l0 0.421875l-5.203125 0l0 -0.421875q0.78125 0 1.046875 -0.15625q0.265625 -0.15625 0.421875 -0.5q0.171875 -0.359375 0.171875 -1.34375l0 -4.140625q0 -1.75 -0.109375 -2.265625q-0.078125 -0.375 -0.265625 -0.515625q-0.171875 -0.15625 -0.46875 -0.15625q-0.328125 0 -0.796875 0.1875l-0.171875 -0.421875l3.234375 -1.3125l0.515625 0zm6.0898438 -3.21875l0 3.53125l2.5 0l0 0.8125l-2.5 0l0 6.96875q0 1.046875 0.296875 1.40625q0.296875 0.359375 0.765625 0.359375q0.390625 0 0.75 -0.234375q0.359375 -0.25 0.5625 -0.71875l0.453125 0q-0.40625 1.15625 -1.15625 1.734375q-0.75 0.578125 -1.546875 0.578125q-0.546875 0 -1.0625 -0.296875q-0.515625 -0.296875 -0.765625 -0.84375q-0.234375 -0.5625 -0.234375 -1.734375l0 -7.21875l-1.703125 0l0 -0.375q0.640625 -0.265625 1.3125 -0.875q0.6875 -0.625 1.203125 -1.46875q0.28125 -0.4375 0.75 -1.625l0.375 0zm6.2773438 -2.40625q0.484375 0 0.828125 0.359375q0.359375 0.34375 0.359375 0.828125q0 0.5 -0.359375 0.859375q-0.34375 0.34375 -0.828125 0.34375q-0.5 0 -0.859375 -0.34375q-0.34375 -0.359375 -0.34375 -0.859375q0 -0.484375 0.34375 -0.828125q0.359375 -0.359375 0.859375 -0.359375zm0.96875 5.625l0 8.625q0 1.0 0.140625 1.34375q0.15625 0.328125 0.4375 0.5q0.296875 0.15625 1.046875 0.15625l0 0.421875l-5.203125 0l0 -0.421875q0.78125 0 1.046875 -0.15625q0.265625 -0.15625 0.421875 -0.5q0.171875 -0.359375 0.171875 -1.34375l0 -4.140625q0 -1.75 -0.109375 -2.265625q-0.078125 -0.375 -0.265625 -0.515625q-0.171875 -0.15625 -0.46875 -0.15625q-0.328125 0 -0.796875 0.1875l-0.171875 -0.421875l3.234375 -1.3125l0.515625 0zm8.214844 0q2.4375 0 3.921875 1.84375q1.25 1.578125 1.25 3.640625q0 1.4375 -0.703125 2.921875q-0.6875 1.46875 -1.90625 2.21875q-1.203125 0.75 -2.6875 0.75q-2.421875 0 -3.859375 -1.9375q-1.203125 -1.625 -1.203125 -3.65625q0 -1.46875 0.734375 -2.921875q0.734375 -1.46875 1.921875 -2.15625q1.203125 -0.703125 2.53125 -0.703125zm-0.359375 0.75q-0.625 0 -1.25 0.375q-0.625 0.375 -1.015625 1.296875q-0.390625 0.921875 -0.390625 2.375q0 2.34375 0.9375 4.046875q0.9375 1.703125 2.453125 1.703125q1.140625 0 1.875 -0.9375q0.734375 -0.9375 0.734375 -3.234375q0 -2.859375 -1.21875 -4.5q-0.84375 -1.125 -2.125 -1.125zm10.234375 1.515625q1.890625 -2.265625 3.609375 -2.265625q0.875 0 1.5 0.4375q0.640625 0.4375 1.015625 1.4375q0.25 0.703125 0.25 2.15625l0 4.59375q0 1.015625 0.171875 1.375q0.125 0.296875 0.40625 0.46875q0.296875 0.15625 1.0625 0.15625l0 0.421875l-5.296875 0l0 -0.421875l0.21875 0q0.75 0 1.046875 -0.21875q0.296875 -0.234375 0.421875 -0.6875q0.046875 -0.171875 0.046875 -1.09375l0 -4.40625q0 -1.453125 -0.390625 -2.109375q-0.375 -0.671875 -1.28125 -0.671875q-1.390625 0 -2.78125 1.515625l0 5.671875q0 1.078125 0.140625 1.34375q0.15625 0.34375 0.4375 0.5q0.296875 0.15625 1.171875 0.15625l0 0.421875l-5.3125 0l0 -0.421875l0.234375 0q0.828125 0 1.109375 -0.40625q0.296875 -0.421875 0.296875 -1.59375l0 -3.984375q0 -1.9375 -0.09375 -2.359375q-0.09375 -0.421875 -0.28125 -0.578125q-0.171875 -0.15625 -0.46875 -0.15625q-0.328125 0 -0.796875 0.1875l-0.171875 -0.421875l3.234375 -1.3125l0.5 0l0 2.265625zm11.609375 -7.890625q0.484375 0 0.828125 0.359375q0.359375 0.34375 0.359375 0.828125q0 0.5 -0.359375 0.859375q-0.34375 0.34375 -0.828125 0.34375q-0.5 0 -0.859375 -0.34375q-0.34375 -0.359375 -0.34375 -0.859375q0 -0.484375 0.34375 -0.828125q0.359375 -0.359375 0.859375 -0.359375zm0.96875 5.625l0 8.625q0 1.0 0.140625 1.34375q0.15625 0.328125 0.4375 0.5q0.296875 0.15625 1.046875 0.15625l0 0.421875l-5.203125 0l0 -0.421875q0.78125 0 1.046875 -0.15625q0.265625 -0.15625 0.421875 -0.5q0.171875 -0.359375 0.171875 -1.34375l0 -4.140625q0 -1.75 -0.109375 -2.265625q-0.078125 -0.375 -0.265625 -0.515625q-0.171875 -0.15625 -0.46875 -0.15625q-0.328125 0 -0.796875 0.1875l-0.171875 -0.421875l3.234375 -1.3125l0.515625 0zm6.0898438 2.265625q1.890625 -2.265625 3.609375 -2.265625q0.875 0 1.5 0.4375q0.640625 0.4375 1.015625 1.4375q0.25 0.703125 0.25 2.15625l0 4.59375q0 1.015625 0.171875 1.375q0.125 0.296875 0.40625 0.46875q0.296875 0.15625 1.0625 0.15625l0 0.421875l-5.296875 0l0 -0.421875l0.21875 0q0.75 0 1.046875 -0.21875q0.296875 -0.234375 0.421875 -0.6875q0.046875 -0.171875 0.046875 -1.09375l0 -4.40625q0 -1.453125 -0.390625 -2.109375q-0.375 -0.671875 -1.28125 -0.671875q-1.390625 0 -2.78125 1.515625l0 5.671875q0 1.078125 0.140625 1.34375q0.15625 0.34375 0.4375 0.5q0.296875 0.15625 1.171875 0.15625l0 0.421875l-5.3125 0l0 -0.421875l0.234375 0q0.828125 0 1.109375 -0.40625q0.296875 -0.421875 0.296875 -1.59375l0 -3.984375q0 -1.9375 -0.09375 -2.359375q-0.09375 -0.421875 -0.28125 -0.578125q-0.171875 -0.15625 -0.46875 -0.15625q-0.328125 0 -0.796875 0.1875l-0.171875 -0.421875l3.234375 -1.3125l0.5 0l0 2.265625zm11.75 4.859375q-0.984375 -0.46875 -1.515625 -1.328125q-0.53125 -0.875 -0.53125 -1.90625q0 -1.59375 1.203125 -2.734375q1.203125 -1.15625 3.078125 -1.15625q1.53125 0 2.65625 0.75l2.28125 0q0.5 0 0.578125 0.03125q0.09375 0.015625 0.125 0.09375q0.0625 0.109375 0.0625 0.375q0 0.296875 -0.046875 0.421875q-0.046875 0.0625 -0.140625 0.09375q-0.078125 0.03125 -0.578125 0.03125l-1.390625 0q0.65625 0.84375 0.65625 2.15625q0 1.5 -1.15625 2.578125q-1.140625 1.0625 -3.078125 1.0625q-0.796875 0 -1.625 -0.234375q-0.515625 0.4375 -0.703125 0.78125q-0.1875 0.328125 -0.1875 0.5625q0 0.203125 0.1875 0.390625q0.203125 0.1875 0.765625 0.265625q0.328125 0.046875 1.640625 0.078125q2.421875 0.0625 3.125 0.171875q1.09375 0.140625 1.734375 0.8125q0.65625 0.65625 0.65625 1.609375q0 1.328125 -1.234375 2.484375q-1.828125 1.71875 -4.765625 1.71875q-2.265625 0 -3.828125 -1.03125q-0.875 -0.578125 -0.875 -1.21875q0 -0.28125 0.125 -0.5625q0.203125 -0.421875 0.828125 -1.203125q0.078125 -0.109375 1.1875 -1.265625q-0.609375 -0.359375 -0.859375 -0.640625q-0.25 -0.296875 -0.25 -0.65625q0 -0.421875 0.328125 -0.96875q0.34375 -0.546875 1.546875 -1.5625zm2.03125 -6.5625q-0.859375 0 -1.453125 0.6875q-0.578125 0.6875 -0.578125 2.125q0 1.84375 0.796875 2.859375q0.609375 0.78125 1.546875 0.78125q0.890625 0 1.453125 -0.671875q0.578125 -0.671875 0.578125 -2.09375q0 -1.859375 -0.796875 -2.921875q-0.609375 -0.765625 -1.546875 -0.765625zm-2.15625 10.484375q-0.546875 0.59375 -0.828125 1.109375q-0.28125 0.515625 -0.28125 0.953125q0 0.5625 0.6875 0.984375q1.171875 0.734375 3.375 0.734375q2.109375 0 3.109375 -0.75q1.015625 -0.75 1.015625 -1.59375q0 -0.609375 -0.609375 -0.859375q-0.609375 -0.265625 -2.40625 -0.3125q-2.640625 -0.0625 -4.0625 -0.265625zm22.1875 -11.046875l0 3.65625l-0.390625 0q-0.4375 -1.734375 -1.140625 -2.34375q-0.6875 -0.625 -1.765625 -0.625q-0.828125 0 -1.328125 0.4375q-0.5 0.421875 -0.5 0.953125q0 0.65625 0.375 1.125q0.359375 0.484375 1.46875 1.015625l1.71875 0.84375q2.375 1.15625 2.375 3.046875q0 1.46875 -1.109375 2.375q-1.109375 0.890625 -2.484375 0.890625q-0.984375 0 -2.25 -0.359375q-0.375 -0.109375 -0.625 -0.109375q-0.265625 0 -0.421875 0.3125l-0.390625 0l0 -3.84375l0.390625 0q0.328125 1.640625 1.25 2.484375q0.921875 0.828125 2.078125 0.828125q0.8125 0 1.3125 -0.46875q0.515625 -0.484375 0.515625 -1.15625q0 -0.8125 -0.578125 -1.359375q-0.5625 -0.546875 -2.265625 -1.390625q-1.6875 -0.84375 -2.21875 -1.53125q-0.53125 -0.65625 -0.53125 -1.6875q0 -1.3125 0.90625 -2.203125q0.90625 -0.890625 2.359375 -0.890625q0.625 0 1.53125 0.265625q0.59375 0.171875 0.796875 0.171875q0.1875 0 0.28125 -0.078125q0.109375 -0.078125 0.25 -0.359375l0.390625 0zm5.1367188 -5.625q0.484375 0 0.828125 0.359375q0.359375 0.34375 0.359375 0.828125q0 0.5 -0.359375 0.859375q-0.34375 0.34375 -0.828125 0.34375q-0.5 0 -0.859375 -0.34375q-0.34375 -0.359375 -0.34375 -0.859375q0 -0.484375 0.34375 -0.828125q0.359375 -0.359375 0.859375 -0.359375zm0.96875 5.625l0 8.625q0 1.0 0.140625 1.34375q0.15625 0.328125 0.4375 0.5q0.296875 0.15625 1.046875 0.15625l0 0.421875l-5.203125 0l0 -0.421875q0.78125 0 1.046875 -0.15625q0.265625 -0.15625 0.421875 -0.5q0.171875 -0.359375 0.171875 -1.34375l0 -4.140625q0 -1.75 -0.109375 -2.265625q-0.078125 -0.375 -0.265625 -0.515625q-0.171875 -0.15625 -0.46875 -0.15625q-0.328125 0 -0.796875 0.1875l-0.171875 -0.421875l3.234375 -1.3125l0.515625 0zm5.8398438 7.125q-0.984375 -0.46875 -1.515625 -1.328125q-0.53125 -0.875 -0.53125 -1.90625q0 -1.59375 1.203125 -2.734375q1.203125 -1.15625 3.078125 -1.15625q1.53125 0 2.65625 0.75l2.28125 0q0.5 0 0.578125 0.03125q0.09375 0.015625 0.125 0.09375q0.0625 0.109375 0.0625 0.375q0 0.296875 -0.046875 0.421875q-0.046875 0.0625 -0.140625 0.09375q-0.078125 0.03125 -0.578125 0.03125l-1.390625 0q0.65625 0.84375 0.65625 2.15625q0 1.5 -1.15625 2.578125q-1.140625 1.0625 -3.078125 1.0625q-0.796875 0 -1.625 -0.234375q-0.515625 0.4375 -0.703125 0.78125q-0.1875 0.328125 -0.1875 0.5625q0 0.203125 0.1875 0.390625q0.203125 0.1875 0.765625 0.265625q0.328125 0.046875 1.640625 0.078125q2.421875 0.0625 3.125 0.171875q1.09375 0.140625 1.734375 0.8125q0.65625 0.65625 0.65625 1.609375q0 1.328125 -1.234375 2.484375q-1.828125 1.71875 -4.765625 1.71875q-2.265625 0 -3.828125 -1.03125q-0.875 -0.578125 -0.875 -1.21875q0 -0.28125 0.125 -0.5625q0.203125 -0.421875 0.828125 -1.203125q0.078125 -0.109375 1.1875 -1.265625q-0.609375 -0.359375 -0.859375 -0.640625q-0.25 -0.296875 -0.25 -0.65625q0 -0.421875 0.328125 -0.96875q0.34375 -0.546875 1.546875 -1.5625zm2.03125 -6.5625q-0.859375 0 -1.453125 0.6875q-0.578125 0.6875 -0.578125 2.125q0 1.84375 0.796875 2.859375q0.609375 0.78125 1.546875 0.78125q0.890625 0 1.453125 -0.671875q0.578125 -0.671875 0.578125 -2.09375q0 -1.859375 -0.796875 -2.921875q-0.609375 -0.765625 -1.546875 -0.765625zm-2.15625 10.484375q-0.546875 0.59375 -0.828125 1.109375q-0.28125 0.515625 -0.28125 0.953125q0 0.5625 0.6875 0.984375q1.171875 0.734375 3.375 0.734375q2.109375 0 3.109375 -0.75q1.015625 -0.75 1.015625 -1.59375q0 -0.609375 -0.609375 -0.859375q-0.609375 -0.265625 -2.40625 -0.3125q-2.640625 -0.0625 -4.0625 -0.265625zm12.375 -8.78125q1.890625 -2.265625 3.609375 -2.265625q0.875 0 1.5 0.4375q0.640625 0.4375 1.015625 1.4375q0.25 0.703125 0.25 2.15625l0 4.59375q0 1.015625 0.171875 1.375q0.125 0.296875 0.40625 0.46875q0.296875 0.15625 1.0625 0.15625l0 0.421875l-5.296875 0l0 -0.421875l0.21875 0q0.75 0 1.046875 -0.21875q0.296875 -0.234375 0.421875 -0.6875q0.046875 -0.171875 0.046875 -1.09375l0 -4.40625q0 -1.453125 -0.390625 -2.109375q-0.375 -0.671875 -1.28125 -0.671875q-1.390625 0 -2.78125 1.515625l0 5.671875q0 1.078125 0.140625 1.34375q0.15625 0.34375 0.4375 0.5q0.296875 0.15625 1.171875 0.15625l0 0.421875l-5.3125 0l0 -0.421875l0.234375 0q0.828125 0 1.109375 -0.40625q0.296875 -0.421875 0.296875 -1.59375l0 -3.984375q0 -1.9375 -0.09375 -2.359375q-0.09375 -0.421875 -0.28125 -0.578125q-0.171875 -0.15625 -0.46875 -0.15625q-0.328125 0 -0.796875 0.1875l-0.171875 -0.421875l3.234375 -1.3125l0.5 0l0 2.265625zm14.953125 7.234375q-1.640625 1.28125 -2.0625 1.46875q-0.640625 0.296875 -1.359375 0.296875q-1.109375 0 -1.828125 -0.75q-0.71875 -0.765625 -0.71875 -2.015625q0 -0.78125 0.34375 -1.359375q0.484375 -0.796875 1.671875 -1.5q1.1875 -0.703125 3.953125 -1.703125l0 -0.421875q0 -1.609375 -0.515625 -2.203125q-0.5 -0.609375 -1.46875 -0.609375q-0.734375 0 -1.171875 0.40625q-0.453125 0.390625 -0.453125 0.90625l0.03125 0.6875q0 0.53125 -0.28125 0.828125q-0.265625 0.296875 -0.71875 0.296875q-0.4375 0 -0.71875 -0.296875q-0.265625 -0.3125 -0.265625 -0.84375q0 -1.0 1.03125 -1.84375q1.03125 -0.84375 2.890625 -0.84375q1.4375 0 2.34375 0.46875q0.703125 0.375 1.03125 1.140625q0.203125 0.5 0.203125 2.0625l0 3.640625q0 1.546875 0.0625 1.890625q0.0625 0.34375 0.1875 0.46875q0.140625 0.109375 0.3125 0.109375q0.1875 0 0.328125 -0.078125q0.25 -0.15625 0.953125 -0.859375l0 0.65625q-1.3125 1.765625 -2.515625 1.765625q-0.5625 0 -0.90625 -0.40625q-0.34375 -0.40625 -0.359375 -1.359375zm0 -0.765625l0 -4.09375q-1.765625 0.703125 -2.28125 1.0q-0.921875 0.515625 -1.328125 1.078125q-0.390625 0.5625 -0.390625 1.234375q0 0.84375 0.5 1.40625q0.5 0.546875 1.15625 0.546875q0.890625 0 2.34375 -1.171875zm8.261719 -14.359375l0 14.25q0 1.0 0.140625 1.328125q0.15625 0.328125 0.453125 0.5q0.3125 0.171875 1.140625 0.171875l0 0.421875l-5.25 0l0 -0.421875q0.734375 0 1.0 -0.15625q0.265625 -0.15625 0.421875 -0.5q0.15625 -0.359375 0.15625 -1.34375l0 -9.75q0 -1.828125 -0.09375 -2.234375q-0.078125 -0.421875 -0.265625 -0.5625q-0.171875 -0.15625 -0.453125 -0.15625q-0.296875 0 -0.765625 0.1875l-0.203125 -0.421875l3.203125 -1.3125l0.515625 0z" fill-rule="nonzero"></path><path fill="#000000" fill-opacity="0.0" d="m548.30707 454.82184l0 0c0 -8.66568 7.0249634 -15.690613 15.690613 -15.690613l230.79205 0c4.161377 0 8.152344 1.6531067 11.09491 4.5956726c2.942566 2.942566 4.595642 6.9335327 4.595642 11.09494l0 62.760498c0 8.66571 -7.0249023 15.690613 -15.690552 15.690613l-230.79205 0c-8.665649 0 -15.690613 -7.0249023 -15.690613 -15.690613z" fill-rule="evenodd"></path><path stroke="#666666" stroke-width="2.0" stroke-linejoin="round" stroke-linecap="butt" d="m548.30707 454.82184l0 0c0 -8.66568 7.0249634 -15.690613 15.690613 -15.690613l230.79205 0c4.161377 0 8.152344 1.6531067 11.09491 4.5956726c2.942566 2.942566 4.595642 6.9335327 4.595642 11.09494l0 62.760498c0 8.66571 -7.0249023 15.690613 -15.690552 15.690613l-230.79205 0c-8.665649 0 -15.690613 -7.0249023 -15.690613 -15.690613z" fill-rule="evenodd"></path><path fill="#000000" d="m639.9232 480.2471l0 4.359375l-0.34375 0q-0.171875 -1.25 -0.609375 -1.984375q-0.421875 -0.75 -1.21875 -1.1875q-0.796875 -0.4375 -1.65625 -0.4375q-0.96875 0 -1.609375 0.59375q-0.625 0.578125 -0.625 1.328125q0 0.578125 0.40625 1.0625q0.578125 0.6875 2.734375 1.84375q1.765625 0.953125 2.40625 1.46875q0.640625 0.5 0.984375 1.1875q0.359375 0.671875 0.359375 1.4375q0 1.421875 -1.109375 2.453125q-1.109375 1.03125 -2.859375 1.03125q-0.546875 0 -1.015625 -0.078125q-0.296875 -0.046875 -1.203125 -0.328125q-0.90625 -0.296875 -1.140625 -0.296875q-0.234375 0 -0.375 0.140625q-0.125 0.125 -0.1875 0.5625l-0.34375 0l0 -4.3125l0.34375 0q0.234375 1.359375 0.640625 2.03125q0.40625 0.671875 1.25 1.125q0.84375 0.4375 1.84375 0.4375q1.15625 0 1.828125 -0.609375q0.671875 -0.609375 0.671875 -1.453125q0 -0.453125 -0.25 -0.921875q-0.25 -0.484375 -0.796875 -0.890625q-0.359375 -0.28125 -1.984375 -1.1875q-1.609375 -0.90625 -2.296875 -1.4375q-0.671875 -0.546875 -1.03125 -1.1875q-0.34375 -0.65625 -0.34375 -1.4375q0 -1.34375 1.03125 -2.328125q1.046875 -0.984375 2.65625 -0.984375q1.0 0 2.125 0.5q0.515625 0.234375 0.734375 0.234375q0.234375 0 0.390625 -0.140625q0.15625 -0.15625 0.25 -0.59375l0.34375 0zm9.703857 4.375l0 5.15625q0 1.46875 0.0625 1.796875q0.078125 0.328125 0.21875 0.46875q0.15625 0.125 0.359375 0.125q0.296875 0 0.65625 -0.15625l0.125 0.328125l-2.53125 1.046875l-0.421875 0l0 -1.8125q-1.09375 1.1875 -1.671875 1.5q-0.578125 0.3125 -1.21875 0.3125q-0.71875 0 -1.25 -0.40625q-0.515625 -0.421875 -0.71875 -1.0625q-0.203125 -0.65625 -0.203125 -1.84375l0 -3.796875q0 -0.609375 -0.125 -0.828125q-0.125 -0.234375 -0.390625 -0.359375q-0.25 -0.140625 -0.921875 -0.125l0 -0.34375l2.984375 0l0 5.6875q0 1.1875 0.40625 1.5625q0.421875 0.375 1.0 0.375q0.40625 0 0.90625 -0.25q0.5 -0.25 1.203125 -0.96875l0 -4.8125q0 -0.71875 -0.265625 -0.96875q-0.265625 -0.265625 -1.09375 -0.28125l0 -0.34375l2.890625 0zm4.203125 1.46875q1.234375 -1.71875 2.65625 -1.71875q1.3125 0 2.28125 1.125q0.984375 1.109375 0.984375 3.046875q0 2.265625 -1.5 3.65625q-1.296875 1.1875 -2.875 1.1875q-0.75 0 -1.515625 -0.265625q-0.765625 -0.28125 -1.5625 -0.8125l0 -8.8125q0 -1.4375 -0.078125 -1.765625q-0.0625 -0.34375 -0.21875 -0.46875q-0.140625 -0.125 -0.359375 -0.125q-0.265625 0 -0.65625 0.15625l-0.125 -0.328125l2.546875 -1.03125l0.421875 0l0 6.15625zm0 0.59375l0 5.078125q0.46875 0.46875 0.96875 0.703125q0.515625 0.234375 1.046875 0.234375q0.84375 0 1.5625 -0.921875q0.734375 -0.921875 0.734375 -2.703125q0 -1.625 -0.734375 -2.5q-0.71875 -0.890625 -1.640625 -0.890625q-0.5 0 -0.984375 0.25q-0.375 0.1875 -0.953125 0.75zm7.171875 1.46875l4.796875 0l0 1.40625l-4.796875 0l0 -1.40625zm8.5251465 -1.984375q1.484375 -1.796875 2.84375 -1.796875q0.6875 0 1.1875 0.359375q0.5 0.34375 0.796875 1.140625q0.21875 0.546875 0.21875 1.703125l0 3.625q0 0.8125 0.125 1.09375q0.09375 0.234375 0.3125 0.375q0.234375 0.125 0.859375 0.125l0 0.328125l-4.203125 0l0 -0.328125l0.171875 0q0.59375 0 0.828125 -0.1875q0.234375 -0.1875 0.328125 -0.53125q0.046875 -0.140625 0.046875 -0.875l0 -3.484375q0 -1.15625 -0.3125 -1.671875q-0.296875 -0.53125 -1.015625 -0.53125q-1.09375 0 -2.1875 1.203125l0 4.484375q0 0.859375 0.09375 1.0625q0.125 0.28125 0.34375 0.40625q0.234375 0.125 0.9375 0.125l0 0.328125l-4.203125 0l0 -0.328125l0.1875 0q0.640625 0 0.875 -0.328125q0.234375 -0.34375 0.234375 -1.265625l0 -3.15625q0 -1.53125 -0.078125 -1.859375q-0.0625 -0.34375 -0.21875 -0.453125q-0.140625 -0.125 -0.375 -0.125q-0.265625 0 -0.625 0.140625l-0.140625 -0.328125l2.5625 -1.046875l0.40625 0l0 1.796875zm8.265625 1.65625q0 1.890625 0.921875 2.96875q0.9375 1.078125 2.1875 1.078125q0.828125 0 1.4375 -0.453125q0.625 -0.46875 1.046875 -1.578125l0.28125 0.1875q-0.1875 1.265625 -1.125 2.3125q-0.9375 1.046875 -2.34375 1.046875q-1.53125 0 -2.625 -1.1875q-1.09375 -1.203125 -1.09375 -3.21875q0 -2.171875 1.109375 -3.390625q1.125 -1.234375 2.8125 -1.234375q1.4375 0 2.34375 0.953125q0.921875 0.9375 0.921875 2.515625l-5.875 0zm0 -0.53125l3.9375 0q-0.046875 -0.828125 -0.1875 -1.15625q-0.234375 -0.515625 -0.703125 -0.8125q-0.453125 -0.296875 -0.953125 -0.296875q-0.765625 0 -1.375 0.59375q-0.609375 0.59375 -0.71875 1.671875zm9.327393 -5.46875l0 2.796875l1.984375 0l0 0.65625l-1.984375 0l0 5.5q0 0.828125 0.234375 1.125q0.234375 0.28125 0.609375 0.28125q0.3125 0 0.59375 -0.1875q0.28125 -0.1875 0.4375 -0.5625l0.375 0q-0.328125 0.90625 -0.921875 1.375q-0.59375 0.453125 -1.234375 0.453125q-0.421875 0 -0.828125 -0.234375q-0.40625 -0.234375 -0.609375 -0.671875q-0.1875 -0.453125 -0.1875 -1.375l0 -5.703125l-1.34375 0l0 -0.3125q0.515625 -0.203125 1.046875 -0.6875q0.53125 -0.484375 0.953125 -1.15625q0.203125 -0.359375 0.59375 -1.296875l0.28125 0zm2.2458496 2.796875l3.5625 0l0 0.34375q-0.5 0.03125 -0.65625 0.171875q-0.140625 0.140625 -0.140625 0.40625q0 0.28125 0.15625 0.6875l1.8125 4.890625l1.828125 -3.96875l-0.484375 -1.265625q-0.21875 -0.546875 -0.578125 -0.765625q-0.203125 -0.125 -0.765625 -0.15625l0 -0.34375l4.046875 0l0 0.34375q-0.671875 0.03125 -0.953125 0.25q-0.171875 0.140625 -0.171875 0.46875q0 0.1875 0.0625 0.375l1.9375 4.875l1.78125 -4.703125q0.1875 -0.5 0.1875 -0.796875q0 -0.171875 -0.1875 -0.3125q-0.171875 -0.140625 -0.703125 -0.15625l0 -0.34375l2.6875 0l0 0.34375q-0.8125 0.125 -1.1875 1.09375l-2.84375 7.328125l-0.375 0l-2.125 -5.4375l-2.484375 5.4375l-0.34375 0l-2.71875 -7.15625q-0.265625 -0.671875 -0.53125 -0.90625q-0.265625 -0.234375 -0.8125 -0.359375l0 -0.34375zm18.0979 -0.25q1.9375 0 3.09375 1.46875q1.0 1.25 1.0 2.875q0 1.140625 -0.546875 2.3125q-0.546875 1.171875 -1.515625 1.765625q-0.953125 0.59375 -2.140625 0.59375q-1.90625 0 -3.046875 -1.53125q-0.953125 -1.296875 -0.953125 -2.90625q0 -1.15625 0.578125 -2.3125q0.578125 -1.15625 1.515625 -1.703125q0.953125 -0.5625 2.015625 -0.5625zm-0.28125 0.609375q-0.5 0 -1.0 0.296875q-0.484375 0.28125 -0.796875 1.015625q-0.3125 0.734375 -0.3125 1.890625q0 1.84375 0.734375 3.1875q0.75 1.34375 1.953125 1.34375q0.90625 0 1.484375 -0.734375q0.578125 -0.75 0.578125 -2.546875q0 -2.265625 -0.96875 -3.5625q-0.65625 -0.890625 -1.671875 -0.890625zm7.9375 -0.609375l0 1.90625q1.0625 -1.90625 2.1875 -1.90625q0.515625 0 0.84375 0.3125q0.34375 0.3125 0.34375 0.71875q0 0.359375 -0.25 0.609375q-0.234375 0.25 -0.578125 0.25q-0.3125 0 -0.71875 -0.3125q-0.40625 -0.328125 -0.59375 -0.328125q-0.171875 0 -0.375 0.1875q-0.40625 0.375 -0.859375 1.25l0 4.078125q0 0.703125 0.171875 1.0625q0.125 0.25 0.421875 0.421875q0.3125 0.171875 0.890625 0.171875l0 0.328125l-4.34375 0l0 -0.328125q0.640625 0 0.953125 -0.203125q0.234375 -0.15625 0.328125 -0.484375q0.046875 -0.15625 0.046875 -0.890625l0 -3.296875q0 -1.484375 -0.0625 -1.765625q-0.0625 -0.28125 -0.21875 -0.40625q-0.15625 -0.140625 -0.40625 -0.140625q-0.28125 0 -0.640625 0.140625l-0.09375 -0.328125l2.5625 -1.046875l0.390625 0zm6.2439575 -4.4375l0 8.453125l2.15625 -1.96875q0.6875 -0.640625 0.796875 -0.796875q0.078125 -0.109375 0.078125 -0.234375q0 -0.171875 -0.15625 -0.3125q-0.15625 -0.140625 -0.5 -0.15625l0 -0.296875l3.6875 0l0 0.296875q-0.75 0.015625 -1.265625 0.234375q-0.5 0.21875 -1.109375 0.765625l-2.171875 2.0l2.171875 2.765625q0.90625 1.140625 1.234375 1.4375q0.4375 0.4375 0.765625 0.578125q0.234375 0.09375 0.8125 0.09375l0 0.328125l-4.125 0l0 -0.328125q0.34375 -0.015625 0.46875 -0.109375q0.140625 -0.09375 0.140625 -0.28125q0 -0.203125 -0.375 -0.6875l-2.609375 -3.328125l0 2.828125q0 0.828125 0.109375 1.09375q0.125 0.25 0.328125 0.359375q0.21875 0.109375 0.9375 0.125l0 0.328125l-4.328125 0l0 -0.328125q0.65625 0 0.96875 -0.15625q0.203125 -0.109375 0.296875 -0.328125q0.140625 -0.296875 0.140625 -1.046875l0 -7.75q0 -1.46875 -0.0625 -1.796875q-0.0625 -0.328125 -0.21875 -0.453125q-0.140625 -0.125 -0.375 -0.125q-0.203125 0 -0.59375 0.15625l-0.15625 -0.328125l2.53125 -1.03125l0.421875 0z" fill-rule="nonzero"></path><path fill="#000000" fill-opacity="0.0" d="m548.30707 288.7438l0 0c0 -8.66568 7.0249634 -15.690582 15.690613 -15.690582l230.79205 0c4.161377 0 8.152344 1.6531067 11.09491 4.595642c2.942566 2.942566 4.595642 6.9335327 4.595642 11.09494l0 62.76053c0 8.66568 -7.0249023 15.690613 -15.690552 15.690613l-230.79205 0c-8.665649 0 -15.690613 -7.024933 -15.690613 -15.690613z" fill-rule="evenodd"></path><path stroke="#666666" stroke-width="2.0" stroke-linejoin="round" stroke-linecap="butt" d="m548.30707 288.7438l0 0c0 -8.66568 7.0249634 -15.690582 15.690613 -15.690582l230.79205 0c4.161377 0 8.152344 1.6531067 11.09491 4.595642c2.942566 2.942566 4.595642 6.9335327 4.595642 11.09494l0 62.76053c0 8.66568 -7.0249023 15.690613 -15.690552 15.690613l-230.79205 0c-8.665649 0 -15.690613 -7.024933 -15.690613 -15.690613z" fill-rule="evenodd"></path><path fill="#000000" d="m639.9232 314.16907l0 4.359375l-0.34375 0q-0.171875 -1.25 -0.609375 -1.984375q-0.421875 -0.75 -1.21875 -1.1875q-0.796875 -0.4375 -1.65625 -0.4375q-0.96875 0 -1.609375 0.59375q-0.625 0.578125 -0.625 1.328125q0 0.578125 0.40625 1.0625q0.578125 0.6875 2.734375 1.84375q1.765625 0.953125 2.40625 1.46875q0.640625 0.5 0.984375 1.1875q0.359375 0.671875 0.359375 1.4375q0 1.421875 -1.109375 2.453125q-1.109375 1.03125 -2.859375 1.03125q-0.546875 0 -1.015625 -0.078125q-0.296875 -0.046875 -1.203125 -0.328125q-0.90625 -0.296875 -1.140625 -0.296875q-0.234375 0 -0.375 0.140625q-0.125 0.125 -0.1875 0.5625l-0.34375 0l0 -4.3125l0.34375 0q0.234375 1.359375 0.640625 2.03125q0.40625 0.671875 1.25 1.125q0.84375 0.4375 1.84375 0.4375q1.15625 0 1.828125 -0.609375q0.671875 -0.609375 0.671875 -1.453125q0 -0.453125 -0.25 -0.921875q-0.25 -0.484375 -0.796875 -0.890625q-0.359375 -0.28125 -1.984375 -1.1875q-1.609375 -0.90625 -2.296875 -1.4375q-0.671875 -0.546875 -1.03125 -1.1875q-0.34375 -0.65625 -0.34375 -1.4375q0 -1.34375 1.03125 -2.328125q1.046875 -0.984375 2.65625 -0.984375q1.0 0 2.125 0.5q0.515625 0.234375 0.734375 0.234375q0.234375 0 0.390625 -0.140625q0.15625 -0.15625 0.25 -0.59375l0.34375 0zm9.703857 4.375l0 5.15625q0 1.46875 0.0625 1.796875q0.078125 0.328125 0.21875 0.46875q0.15625 0.125 0.359375 0.125q0.296875 0 0.65625 -0.15625l0.125 0.328125l-2.53125 1.046875l-0.421875 0l0 -1.8125q-1.09375 1.1875 -1.671875 1.5q-0.578125 0.3125 -1.21875 0.3125q-0.71875 0 -1.25 -0.40625q-0.515625 -0.421875 -0.71875 -1.0625q-0.203125 -0.65625 -0.203125 -1.84375l0 -3.796875q0 -0.609375 -0.125 -0.828125q-0.125 -0.234375 -0.390625 -0.359375q-0.25 -0.140625 -0.921875 -0.125l0 -0.34375l2.984375 0l0 5.6875q0 1.1875 0.40625 1.5625q0.421875 0.375 1.0 0.375q0.40625 0 0.90625 -0.25q0.5 -0.25 1.203125 -0.96875l0 -4.8125q0 -0.71875 -0.265625 -0.96875q-0.265625 -0.265625 -1.09375 -0.28125l0 -0.34375l2.890625 0zm4.203125 1.46875q1.234375 -1.71875 2.65625 -1.71875q1.3125 0 2.28125 1.125q0.984375 1.109375 0.984375 3.046875q0 2.265625 -1.5 3.65625q-1.296875 1.1875 -2.875 1.1875q-0.75 0 -1.515625 -0.265625q-0.765625 -0.28125 -1.5625 -0.8125l0 -8.8125q0 -1.4375 -0.078125 -1.765625q-0.0625 -0.34375 -0.21875 -0.46875q-0.140625 -0.125 -0.359375 -0.125q-0.265625 0 -0.65625 0.15625l-0.125 -0.328125l2.546875 -1.03125l0.421875 0l0 6.15625zm0 0.59375l0 5.078125q0.46875 0.46875 0.96875 0.703125q0.515625 0.234375 1.046875 0.234375q0.84375 0 1.5625 -0.921875q0.734375 -0.921875 0.734375 -2.703125q0 -1.625 -0.734375 -2.5q-0.71875 -0.890625 -1.640625 -0.890625q-0.5 0 -0.984375 0.25q-0.375 0.1875 -0.953125 0.75zm7.171875 1.46875l4.796875 0l0 1.40625l-4.796875 0l0 -1.40625zm8.5251465 -1.984375q1.484375 -1.796875 2.84375 -1.796875q0.6875 0 1.1875 0.359375q0.5 0.34375 0.796875 1.140625q0.21875 0.546875 0.21875 1.703125l0 3.625q0 0.8125 0.125 1.09375q0.09375 0.234375 0.3125 0.375q0.234375 0.125 0.859375 0.125l0 0.328125l-4.203125 0l0 -0.328125l0.171875 0q0.59375 0 0.828125 -0.1875q0.234375 -0.1875 0.328125 -0.53125q0.046875 -0.140625 0.046875 -0.875l0 -3.484375q0 -1.15625 -0.3125 -1.671875q-0.296875 -0.53125 -1.015625 -0.53125q-1.09375 0 -2.1875 1.203125l0 4.484375q0 0.859375 0.09375 1.0625q0.125 0.28125 0.34375 0.40625q0.234375 0.125 0.9375 0.125l0 0.328125l-4.203125 0l0 -0.328125l0.1875 0q0.640625 0 0.875 -0.328125q0.234375 -0.34375 0.234375 -1.265625l0 -3.15625q0 -1.53125 -0.078125 -1.859375q-0.0625 -0.34375 -0.21875 -0.453125q-0.140625 -0.125 -0.375 -0.125q-0.265625 0 -0.625 0.140625l-0.140625 -0.328125l2.5625 -1.046875l0.40625 0l0 1.796875zm8.265625 1.65625q0 1.890625 0.921875 2.96875q0.9375 1.078125 2.1875 1.078125q0.828125 0 1.4375 -0.453125q0.625 -0.46875 1.046875 -1.578125l0.28125 0.1875q-0.1875 1.265625 -1.125 2.3125q-0.9375 1.046875 -2.34375 1.046875q-1.53125 0 -2.625 -1.1875q-1.09375 -1.203125 -1.09375 -3.21875q0 -2.171875 1.109375 -3.390625q1.125 -1.234375 2.8125 -1.234375q1.4375 0 2.34375 0.953125q0.921875 0.9375 0.921875 2.515625l-5.875 0zm0 -0.53125l3.9375 0q-0.046875 -0.828125 -0.1875 -1.15625q-0.234375 -0.515625 -0.703125 -0.8125q-0.453125 -0.296875 -0.953125 -0.296875q-0.765625 0 -1.375 0.59375q-0.609375 0.59375 -0.71875 1.671875zm9.327393 -5.46875l0 2.796875l1.984375 0l0 0.65625l-1.984375 0l0 5.5q0 0.828125 0.234375 1.125q0.234375 0.28125 0.609375 0.28125q0.3125 0 0.59375 -0.1875q0.28125 -0.1875 0.4375 -0.5625l0.375 0q-0.328125 0.90625 -0.921875 1.375q-0.59375 0.453125 -1.234375 0.453125q-0.421875 0 -0.828125 -0.234375q-0.40625 -0.234375 -0.609375 -0.671875q-0.1875 -0.453125 -0.1875 -1.375l0 -5.703125l-1.34375 0l0 -0.3125q0.515625 -0.203125 1.046875 -0.6875q0.53125 -0.484375 0.953125 -1.15625q0.203125 -0.359375 0.59375 -1.296875l0.28125 0zm2.2458496 2.796875l3.5625 0l0 0.34375q-0.5 0.03125 -0.65625 0.171875q-0.140625 0.140625 -0.140625 0.40625q0 0.28125 0.15625 0.6875l1.8125 4.890625l1.828125 -3.96875l-0.484375 -1.265625q-0.21875 -0.546875 -0.578125 -0.765625q-0.203125 -0.125 -0.765625 -0.15625l0 -0.34375l4.046875 0l0 0.34375q-0.671875 0.03125 -0.953125 0.25q-0.171875 0.140625 -0.171875 0.46875q0 0.1875 0.0625 0.375l1.9375 4.875l1.78125 -4.703125q0.1875 -0.5 0.1875 -0.796875q0 -0.171875 -0.1875 -0.3125q-0.171875 -0.140625 -0.703125 -0.15625l0 -0.34375l2.6875 0l0 0.34375q-0.8125 0.125 -1.1875 1.09375l-2.84375 7.328125l-0.375 0l-2.125 -5.4375l-2.484375 5.4375l-0.34375 0l-2.71875 -7.15625q-0.265625 -0.671875 -0.53125 -0.90625q-0.265625 -0.234375 -0.8125 -0.359375l0 -0.34375zm18.0979 -0.25q1.9375 0 3.09375 1.46875q1.0 1.25 1.0 2.875q0 1.140625 -0.546875 2.3125q-0.546875 1.171875 -1.515625 1.765625q-0.953125 0.59375 -2.140625 0.59375q-1.90625 0 -3.046875 -1.53125q-0.953125 -1.296875 -0.953125 -2.90625q0 -1.15625 0.578125 -2.3125q0.578125 -1.15625 1.515625 -1.703125q0.953125 -0.5625 2.015625 -0.5625zm-0.28125 0.609375q-0.5 0 -1.0 0.296875q-0.484375 0.28125 -0.796875 1.015625q-0.3125 0.734375 -0.3125 1.890625q0 1.84375 0.734375 3.1875q0.75 1.34375 1.953125 1.34375q0.90625 0 1.484375 -0.734375q0.578125 -0.75 0.578125 -2.546875q0 -2.265625 -0.96875 -3.5625q-0.65625 -0.890625 -1.671875 -0.890625zm7.9375 -0.609375l0 1.90625q1.0625 -1.90625 2.1875 -1.90625q0.515625 0 0.84375 0.3125q0.34375 0.3125 0.34375 0.71875q0 0.359375 -0.25 0.609375q-0.234375 0.25 -0.578125 0.25q-0.3125 0 -0.71875 -0.3125q-0.40625 -0.328125 -0.59375 -0.328125q-0.171875 0 -0.375 0.1875q-0.40625 0.375 -0.859375 1.25l0 4.078125q0 0.703125 0.171875 1.0625q0.125 0.25 0.421875 0.421875q0.3125 0.171875 0.890625 0.171875l0 0.328125l-4.34375 0l0 -0.328125q0.640625 0 0.953125 -0.203125q0.234375 -0.15625 0.328125 -0.484375q0.046875 -0.15625 0.046875 -0.890625l0 -3.296875q0 -1.484375 -0.0625 -1.765625q-0.0625 -0.28125 -0.21875 -0.40625q-0.15625 -0.140625 -0.40625 -0.140625q-0.28125 0 -0.640625 0.140625l-0.09375 -0.328125l2.5625 -1.046875l0.390625 0zm6.2439575 -4.4375l0 8.453125l2.15625 -1.96875q0.6875 -0.640625 0.796875 -0.796875q0.078125 -0.109375 0.078125 -0.234375q0 -0.171875 -0.15625 -0.3125q-0.15625 -0.140625 -0.5 -0.15625l0 -0.296875l3.6875 0l0 0.296875q-0.75 0.015625 -1.265625 0.234375q-0.5 0.21875 -1.109375 0.765625l-2.171875 2.0l2.171875 2.765625q0.90625 1.140625 1.234375 1.4375q0.4375 0.4375 0.765625 0.578125q0.234375 0.09375 0.8125 0.09375l0 0.328125l-4.125 0l0 -0.328125q0.34375 -0.015625 0.46875 -0.109375q0.140625 -0.09375 0.140625 -0.28125q0 -0.203125 -0.375 -0.6875l-2.609375 -3.328125l0 2.828125q0 0.828125 0.109375 1.09375q0.125 0.25 0.328125 0.359375q0.21875 0.109375 0.9375 0.125l0 0.328125l-4.328125 0l0 -0.328125q0.65625 0 0.96875 -0.15625q0.203125 -0.109375 0.296875 -0.328125q0.140625 -0.296875 0.140625 -1.046875l0 -7.75q0 -1.46875 -0.0625 -1.796875q-0.0625 -0.328125 -0.21875 -0.453125q-0.140625 -0.125 -0.375 -0.125q-0.203125 0 -0.59375 0.15625l-0.15625 -0.328125l2.53125 -1.03125l0.421875 0z" fill-rule="nonzero"></path><path fill="#000000" fill-opacity="0.0" d="m548.30707 130.67482l0 0c0 -7.793022 6.317505 -14.110512 14.110535 -14.110512l233.95221 0c3.7423096 0 7.331421 1.4866333 9.9776 4.1328735c2.6462402 2.6462326 4.1328735 6.235298 4.1328735 9.977638l0 56.440384c0 7.79303 -6.317444 14.110519 -14.110474 14.110519l-233.95221 0c-7.79303 0 -14.110535 -6.3174896 -14.110535 -14.110519z" fill-rule="evenodd"></path><path stroke="#666666" stroke-width="2.0" stroke-linejoin="round" stroke-linecap="butt" d="m548.30707 130.67482l0 0c0 -7.793022 6.317505 -14.110512 14.110535 -14.110512l233.95221 0c3.7423096 0 7.331421 1.4866333 9.9776 4.1328735c2.6462402 2.6462326 4.1328735 6.235298 4.1328735 9.977638l0 56.440384c0 7.79303 -6.317444 14.110519 -14.110474 14.110519l-233.95221 0c-7.79303 0 -14.110535 -6.3174896 -14.110535 -14.110519z" fill-rule="evenodd"></path><path fill="#000000" d="m639.9232 152.94002l0 4.359375l-0.34375 0q-0.171875 -1.25 -0.609375 -1.984375q-0.421875 -0.75 -1.21875 -1.1875q-0.796875 -0.4375 -1.65625 -0.4375q-0.96875 0 -1.609375 0.59375q-0.625 0.578125 -0.625 1.328125q0 0.578125 0.40625 1.0625q0.578125 0.6875 2.734375 1.84375q1.765625 0.953125 2.40625 1.46875q0.640625 0.5 0.984375 1.1875q0.359375 0.671875 0.359375 1.4375q0 1.421875 -1.109375 2.453125q-1.109375 1.03125 -2.859375 1.03125q-0.546875 0 -1.015625 -0.078125q-0.296875 -0.046875 -1.203125 -0.328125q-0.90625 -0.296875 -1.140625 -0.296875q-0.234375 0 -0.375 0.140625q-0.125 0.125 -0.1875 0.5625l-0.34375 0l0 -4.3125l0.34375 0q0.234375 1.359375 0.640625 2.03125q0.40625 0.671875 1.25 1.125q0.84375 0.4375 1.84375 0.4375q1.15625 0 1.828125 -0.609375q0.671875 -0.609375 0.671875 -1.453125q0 -0.453125 -0.25 -0.921875q-0.25 -0.484375 -0.796875 -0.890625q-0.359375 -0.28125 -1.984375 -1.1875q-1.609375 -0.90625 -2.296875 -1.4375q-0.671875 -0.546875 -1.03125 -1.1875q-0.34375 -0.65625 -0.34375 -1.4375q0 -1.34375 1.03125 -2.328125q1.046875 -0.984375 2.65625 -0.984375q1.0 0 2.125 0.5q0.515625 0.234375 0.734375 0.234375q0.234375 0 0.390625 -0.140625q0.15625 -0.15625 0.25 -0.59375l0.34375 0zm9.703857 4.375l0 5.15625q0 1.46875 0.0625 1.796875q0.078125 0.328125 0.21875 0.46875q0.15625 0.125 0.359375 0.125q0.296875 0 0.65625 -0.15625l0.125 0.328125l-2.53125 1.046875l-0.421875 0l0 -1.8125q-1.09375 1.1875 -1.671875 1.5q-0.578125 0.3125 -1.21875 0.3125q-0.71875 0 -1.25 -0.40625q-0.515625 -0.421875 -0.71875 -1.0625q-0.203125 -0.65625 -0.203125 -1.84375l0 -3.796875q0 -0.609375 -0.125 -0.828125q-0.125 -0.234375 -0.390625 -0.359375q-0.25 -0.140625 -0.921875 -0.125l0 -0.34375l2.984375 0l0 5.6875q0 1.1875 0.40625 1.5625q0.421875 0.375 1.0 0.375q0.40625 0 0.90625 -0.25q0.5 -0.25 1.203125 -0.96875l0 -4.8125q0 -0.71875 -0.265625 -0.96875q-0.265625 -0.265625 -1.09375 -0.28125l0 -0.34375l2.890625 0zm4.203125 1.46875q1.234375 -1.71875 2.65625 -1.71875q1.3125 0 2.28125 1.125q0.984375 1.109375 0.984375 3.046875q0 2.265625 -1.5 3.65625q-1.296875 1.1875 -2.875 1.1875q-0.75 0 -1.515625 -0.265625q-0.765625 -0.28125 -1.5625 -0.8125l0 -8.8125q0 -1.4375 -0.078125 -1.765625q-0.0625 -0.34375 -0.21875 -0.46875q-0.140625 -0.125 -0.359375 -0.125q-0.265625 0 -0.65625 0.15625l-0.125 -0.328125l2.546875 -1.03125l0.421875 0l0 6.15625zm0 0.59375l0 5.078125q0.46875 0.46875 0.96875 0.703125q0.515625 0.234375 1.046875 0.234375q0.84375 0 1.5625 -0.921875q0.734375 -0.921875 0.734375 -2.703125q0 -1.625 -0.734375 -2.5q-0.71875 -0.890625 -1.640625 -0.890625q-0.5 0 -0.984375 0.25q-0.375 0.1875 -0.953125 0.75zm7.171875 1.46875l4.796875 0l0 1.40625l-4.796875 0l0 -1.40625zm8.5251465 -1.984375q1.484375 -1.796875 2.84375 -1.796875q0.6875 0 1.1875 0.359375q0.5 0.34375 0.796875 1.140625q0.21875 0.546875 0.21875 1.703125l0 3.625q0 0.8125 0.125 1.09375q0.09375 0.234375 0.3125 0.375q0.234375 0.125 0.859375 0.125l0 0.328125l-4.203125 0l0 -0.328125l0.171875 0q0.59375 0 0.828125 -0.1875q0.234375 -0.1875 0.328125 -0.53125q0.046875 -0.140625 0.046875 -0.875l0 -3.484375q0 -1.15625 -0.3125 -1.671875q-0.296875 -0.53125 -1.015625 -0.53125q-1.09375 0 -2.1875 1.203125l0 4.484375q0 0.859375 0.09375 1.0625q0.125 0.28125 0.34375 0.40625q0.234375 0.125 0.9375 0.125l0 0.328125l-4.203125 0l0 -0.328125l0.1875 0q0.640625 0 0.875 -0.328125q0.234375 -0.34375 0.234375 -1.265625l0 -3.15625q0 -1.53125 -0.078125 -1.859375q-0.0625 -0.34375 -0.21875 -0.453125q-0.140625 -0.125 -0.375 -0.125q-0.265625 0 -0.625 0.140625l-0.140625 -0.328125l2.5625 -1.046875l0.40625 0l0 1.796875zm8.265625 1.65625q0 1.890625 0.921875 2.96875q0.9375 1.078125 2.1875 1.078125q0.828125 0 1.4375 -0.453125q0.625 -0.46875 1.046875 -1.578125l0.28125 0.1875q-0.1875 1.265625 -1.125 2.3125q-0.9375 1.046875 -2.34375 1.046875q-1.53125 0 -2.625 -1.1875q-1.09375 -1.203125 -1.09375 -3.21875q0 -2.171875 1.109375 -3.390625q1.125 -1.234375 2.8125 -1.234375q1.4375 0 2.34375 0.953125q0.921875 0.9375 0.921875 2.515625l-5.875 0zm0 -0.53125l3.9375 0q-0.046875 -0.828125 -0.1875 -1.15625q-0.234375 -0.515625 -0.703125 -0.8125q-0.453125 -0.296875 -0.953125 -0.296875q-0.765625 0 -1.375 0.59375q-0.609375 0.59375 -0.71875 1.671875zm9.327393 -5.46875l0 2.796875l1.984375 0l0 0.65625l-1.984375 0l0 5.5q0 0.828125 0.234375 1.125q0.234375 0.28125 0.609375 0.28125q0.3125 0 0.59375 -0.1875q0.28125 -0.1875 0.4375 -0.5625l0.375 0q-0.328125 0.90625 -0.921875 1.375q-0.59375 0.453125 -1.234375 0.453125q-0.421875 0 -0.828125 -0.234375q-0.40625 -0.234375 -0.609375 -0.671875q-0.1875 -0.453125 -0.1875 -1.375l0 -5.703125l-1.34375 0l0 -0.3125q0.515625 -0.203125 1.046875 -0.6875q0.53125 -0.484375 0.953125 -1.15625q0.203125 -0.359375 0.59375 -1.296875l0.28125 0zm2.2458496 2.796875l3.5625 0l0 0.34375q-0.5 0.03125 -0.65625 0.171875q-0.140625 0.140625 -0.140625 0.40625q0 0.28125 0.15625 0.6875l1.8125 4.890625l1.828125 -3.96875l-0.484375 -1.265625q-0.21875 -0.546875 -0.578125 -0.765625q-0.203125 -0.125 -0.765625 -0.15625l0 -0.34375l4.046875 0l0 0.34375q-0.671875 0.03125 -0.953125 0.25q-0.171875 0.140625 -0.171875 0.46875q0 0.1875 0.0625 0.375l1.9375 4.875l1.78125 -4.703125q0.1875 -0.5 0.1875 -0.796875q0 -0.171875 -0.1875 -0.3125q-0.171875 -0.140625 -0.703125 -0.15625l0 -0.34375l2.6875 0l0 0.34375q-0.8125 0.125 -1.1875 1.09375l-2.84375 7.328125l-0.375 0l-2.125 -5.4375l-2.484375 5.4375l-0.34375 0l-2.71875 -7.15625q-0.265625 -0.671875 -0.53125 -0.90625q-0.265625 -0.234375 -0.8125 -0.359375l0 -0.34375zm18.0979 -0.25q1.9375 0 3.09375 1.46875q1.0 1.25 1.0 2.875q0 1.140625 -0.546875 2.3125q-0.546875 1.171875 -1.515625 1.765625q-0.953125 0.59375 -2.140625 0.59375q-1.90625 0 -3.046875 -1.53125q-0.953125 -1.296875 -0.953125 -2.90625q0 -1.15625 0.578125 -2.3125q0.578125 -1.15625 1.515625 -1.703125q0.953125 -0.5625 2.015625 -0.5625zm-0.28125 0.609375q-0.5 0 -1.0 0.296875q-0.484375 0.28125 -0.796875 1.015625q-0.3125 0.734375 -0.3125 1.890625q0 1.84375 0.734375 3.1875q0.75 1.34375 1.953125 1.34375q0.90625 0 1.484375 -0.734375q0.578125 -0.75 0.578125 -2.546875q0 -2.265625 -0.96875 -3.5625q-0.65625 -0.890625 -1.671875 -0.890625zm7.9375 -0.609375l0 1.90625q1.0625 -1.90625 2.1875 -1.90625q0.515625 0 0.84375 0.3125q0.34375 0.3125 0.34375 0.71875q0 0.359375 -0.25 0.609375q-0.234375 0.25 -0.578125 0.25q-0.3125 0 -0.71875 -0.3125q-0.40625 -0.328125 -0.59375 -0.328125q-0.171875 0 -0.375 0.1875q-0.40625 0.375 -0.859375 1.25l0 4.078125q0 0.703125 0.171875 1.0625q0.125 0.25 0.421875 0.421875q0.3125 0.171875 0.890625 0.171875l0 0.328125l-4.34375 0l0 -0.328125q0.640625 0 0.953125 -0.203125q0.234375 -0.15625 0.328125 -0.484375q0.046875 -0.15625 0.046875 -0.890625l0 -3.296875q0 -1.484375 -0.0625 -1.765625q-0.0625 -0.28125 -0.21875 -0.40625q-0.15625 -0.140625 -0.40625 -0.140625q-0.28125 0 -0.640625 0.140625l-0.09375 -0.328125l2.5625 -1.046875l0.390625 0zm6.2439575 -4.4375l0 8.453125l2.15625 -1.96875q0.6875 -0.640625 0.796875 -0.796875q0.078125 -0.109375 0.078125 -0.234375q0 -0.171875 -0.15625 -0.3125q-0.15625 -0.140625 -0.5 -0.15625l0 -0.296875l3.6875 0l0 0.296875q-0.75 0.015625 -1.265625 0.234375q-0.5 0.21875 -1.109375 0.765625l-2.171875 2.0l2.171875 2.765625q0.90625 1.140625 1.234375 1.4375q0.4375 0.4375 0.765625 0.578125q0.234375 0.09375 0.8125 0.09375l0 0.328125l-4.125 0l0 -0.328125q0.34375 -0.015625 0.46875 -0.109375q0.140625 -0.09375 0.140625 -0.28125q0 -0.203125 -0.375 -0.6875l-2.609375 -3.328125l0 2.828125q0 0.828125 0.109375 1.09375q0.125 0.25 0.328125 0.359375q0.21875 0.109375 0.9375 0.125l0 0.328125l-4.328125 0l0 -0.328125q0.65625 0 0.96875 -0.15625q0.203125 -0.109375 0.296875 -0.328125q0.140625 -0.296875 0.140625 -1.046875l0 -7.75q0 -1.46875 -0.0625 -1.796875q-0.0625 -0.328125 -0.21875 -0.453125q-0.140625 -0.125 -0.375 -0.125q-0.203125 0 -0.59375 0.15625l-0.15625 -0.328125l2.53125 -1.03125l0.421875 0z" fill-rule="nonzero"></path><path fill="#000000" fill-opacity="0.0" d="m548.30707 217.59074l0 0c0 -5.398285 4.3762207 -9.774475 9.774475 -9.774475l242.62433 0c2.5923462 0 5.078491 1.0298157 6.91156 2.8628845c1.8330688 1.8330688 2.862854 4.3192444 2.862854 6.9115906l0 39.096725c0 5.398285 -4.3761597 9.774475 -9.774414 9.774475l-242.62433 0c-5.3982544 0 -9.774475 -4.37619 -9.774475 -9.774475z" fill-rule="evenodd"></path><path stroke="#666666" stroke-width="2.0" stroke-linejoin="round" stroke-linecap="butt" d="m548.30707 217.59074l0 0c0 -5.398285 4.3762207 -9.774475 9.774475 -9.774475l242.62433 0c2.5923462 0 5.078491 1.0298157 6.91156 2.8628845c1.8330688 1.8330688 2.862854 4.3192444 2.862854 6.9115906l0 39.096725c0 5.398285 -4.3761597 9.774475 -9.774414 9.774475l-242.62433 0c-5.3982544 0 -9.774475 -4.37619 -9.774475 -9.774475z" fill-rule="evenodd"></path><path fill="#000000" d="m640.538 232.16847l0 4.9375l2.28125 0q0.796875 0 1.15625 -0.34375q0.375 -0.34375 0.5 -1.375l0.34375 0l0 4.25l-0.34375 0q-0.015625 -0.734375 -0.203125 -1.0625q-0.171875 -0.34375 -0.5 -0.515625q-0.3125 -0.171875 -0.953125 -0.171875l-2.28125 0l0 3.9375q0 0.96875 0.125 1.265625q0.078125 0.234375 0.375 0.40625q0.421875 0.21875 0.859375 0.21875l0.453125 0l0 0.34375l-5.390625 0l0 -0.34375l0.4375 0q0.78125 0 1.140625 -0.453125q0.21875 -0.296875 0.21875 -1.4375l0 -8.125q0 -0.953125 -0.125 -1.25q-0.09375 -0.234375 -0.375 -0.40625q-0.40625 -0.21875 -0.859375 -0.21875l-0.4375 0l0 -0.34375l9.359375 0l0.109375 2.765625l-0.3125 0q-0.25 -0.890625 -0.578125 -1.296875q-0.3125 -0.40625 -0.78125 -0.59375q-0.46875 -0.1875 -1.453125 -0.1875l-2.765625 0zm9.235107 -1.296875q0.390625 0 0.65625 0.28125q0.28125 0.265625 0.28125 0.65625q0 0.390625 -0.28125 0.671875q-0.265625 0.265625 -0.65625 0.265625q-0.390625 0 -0.671875 -0.265625q-0.265625 -0.28125 -0.265625 -0.671875q0 -0.390625 0.265625 -0.65625q0.28125 -0.28125 0.671875 -0.28125zm0.78125 4.4375l0 6.828125q0 0.796875 0.109375 1.0625q0.109375 0.265625 0.34375 0.40625q0.234375 0.125 0.828125 0.125l0 0.328125l-4.125 0l0 -0.328125q0.625 0 0.828125 -0.125q0.21875 -0.125 0.34375 -0.390625q0.125 -0.28125 0.125 -1.078125l0 -3.28125q0 -1.375 -0.078125 -1.78125q-0.0625 -0.296875 -0.203125 -0.40625q-0.140625 -0.125 -0.390625 -0.125q-0.25 0 -0.625 0.140625l-0.125 -0.328125l2.5625 -1.046875l0.40625 0zm12.542664 5.265625l0.3125 0.0625l-1.078125 3.421875l-9.75 0l0 -0.34375l0.484375 0q0.796875 0 1.140625 -0.515625q0.1875 -0.296875 0.1875 -1.375l0 -8.125q0 -1.171875 -0.25 -1.46875q-0.375 -0.40625 -1.078125 -0.40625l-0.484375 0l0 -0.34375l5.703125 0l0 0.34375q-1.0 -0.015625 -1.40625 0.1875q-0.40625 0.1875 -0.5625 0.484375q-0.140625 0.296875 -0.140625 1.421875l0 7.90625q0 0.765625 0.15625 1.0625q0.109375 0.1875 0.328125 0.28125q0.234375 0.09375 1.453125 0.09375l0.921875 0q1.453125 0 2.03125 -0.203125q0.578125 -0.21875 1.0625 -0.765625q0.484375 -0.546875 0.96875 -1.71875zm8.286621 3.484375l-4.875 -10.578125l0 8.390625q0 1.171875 0.25 1.453125q0.34375 0.390625 1.09375 0.390625l0.4375 0l0 0.34375l-4.375 0l0 -0.34375l0.453125 0q0.796875 0 1.125 -0.484375q0.203125 -0.296875 0.203125 -1.359375l0 -8.21875q0 -0.828125 -0.1875 -1.203125q-0.125 -0.265625 -0.484375 -0.4375q-0.34375 -0.1875 -1.109375 -0.1875l0 -0.34375l3.5625 0l4.5625 9.84375l4.5 -9.84375l3.5625 0l0 0.34375l-0.4375 0q-0.8125 0 -1.140625 0.484375q-0.203125 0.296875 -0.203125 1.34375l0 8.21875q0 1.171875 0.25 1.453125q0.34375 0.390625 1.09375 0.390625l0.4375 0l0 0.34375l-5.34375 0l0 -0.34375l0.4375 0q0.8125 0 1.140625 -0.484375q0.203125 -0.296875 0.203125 -1.359375l0 -8.390625l-4.859375 10.578125l-0.296875 0zm16.986816 -13.1875l0 11.265625q0 0.796875 0.109375 1.0625q0.125 0.25 0.359375 0.390625q0.25 0.140625 0.90625 0.140625l0 0.328125l-4.171875 0l0 -0.328125q0.59375 0 0.796875 -0.125q0.21875 -0.125 0.328125 -0.390625q0.125 -0.28125 0.125 -1.078125l0 -7.71875q0 -1.4375 -0.0625 -1.765625q-0.0625 -0.328125 -0.203125 -0.453125q-0.140625 -0.125 -0.359375 -0.125q-0.25 0 -0.625 0.15625l-0.15625 -0.328125l2.53125 -1.03125l0.421875 0zm7.0739136 11.96875q-1.3125 1.0 -1.640625 1.15625q-0.5 0.234375 -1.0625 0.234375q-0.890625 0 -1.46875 -0.59375q-0.5625 -0.609375 -0.5625 -1.59375q0 -0.625 0.28125 -1.078125q0.390625 -0.625 1.328125 -1.171875q0.9375 -0.5625 3.125 -1.359375l0 -0.34375q0 -1.265625 -0.40625 -1.734375q-0.390625 -0.484375 -1.171875 -0.484375q-0.578125 0 -0.921875 0.3125q-0.359375 0.328125 -0.359375 0.734375l0.015625 0.53125q0 0.4375 -0.21875 0.671875q-0.203125 0.21875 -0.5625 0.21875q-0.34375 0 -0.5625 -0.234375q-0.21875 -0.25 -0.21875 -0.65625q0 -0.796875 0.8125 -1.46875q0.828125 -0.671875 2.296875 -0.671875q1.125 0 1.859375 0.375q0.546875 0.296875 0.796875 0.90625q0.171875 0.40625 0.171875 1.640625l0 2.875q0 1.21875 0.046875 1.5q0.046875 0.265625 0.15625 0.359375q0.109375 0.09375 0.25 0.09375q0.140625 0 0.25 -0.0625q0.203125 -0.125 0.75 -0.6875l0 0.53125q-1.03125 1.390625 -1.984375 1.390625q-0.453125 0 -0.71875 -0.3125q-0.265625 -0.328125 -0.28125 -1.078125zm0 -0.609375l0 -3.234375q-1.390625 0.546875 -1.8125 0.78125q-0.734375 0.40625 -1.046875 0.859375q-0.3125 0.4375 -0.3125 0.96875q0 0.671875 0.390625 1.109375q0.40625 0.4375 0.921875 0.4375q0.71875 0 1.859375 -0.921875zm2.9836426 -6.671875l3.96875 0l0 0.34375l-0.203125 0q-0.421875 0 -0.625 0.1875q-0.203125 0.171875 -0.203125 0.4375q0 0.375 0.296875 1.015625l2.078125 4.28125l1.890625 -4.703125q0.171875 -0.375 0.171875 -0.75q0 -0.15625 -0.078125 -0.25q-0.0625 -0.09375 -0.234375 -0.15625q-0.15625 -0.0625 -0.546875 -0.0625l0 -0.34375l2.765625 0l0 0.34375q-0.34375 0.03125 -0.53125 0.15625q-0.1875 0.109375 -0.40625 0.40625q-0.078125 0.140625 -0.3125 0.71875l-3.46875 8.484375q-0.5 1.234375 -1.3125 1.859375q-0.8125 0.625 -1.5625 0.625q-0.546875 0 -0.90625 -0.3125q-0.34375 -0.3125 -0.34375 -0.71875q0 -0.390625 0.25 -0.625q0.265625 -0.234375 0.703125 -0.234375q0.3125 0 0.84375 0.203125q0.359375 0.140625 0.453125 0.140625q0.28125 0 0.609375 -0.296875q0.328125 -0.28125 0.671875 -1.109375l0.59375 -1.46875l-3.046875 -6.421875q-0.140625 -0.28125 -0.453125 -0.703125q-0.21875 -0.328125 -0.375 -0.4375q-0.21875 -0.15625 -0.6875 -0.265625l0 -0.34375zm11.234375 3.203125q0 1.890625 0.921875 2.96875q0.9375 1.078125 2.1875 1.078125q0.828125 0 1.4375 -0.453125q0.625 -0.46875 1.046875 -1.578125l0.28125 0.1875q-0.1875 1.265625 -1.125 2.3125q-0.9375 1.046875 -2.34375 1.046875q-1.53125 0 -2.625 -1.1875q-1.09375 -1.203125 -1.09375 -3.21875q0 -2.171875 1.109375 -3.390625q1.125 -1.234375 2.8125 -1.234375q1.4375 0 2.34375 0.953125q0.921875 0.9375 0.921875 2.515625l-5.875 0zm0 -0.53125l3.9375 0q-0.046875 -0.828125 -0.1875 -1.15625q-0.234375 -0.515625 -0.703125 -0.8125q-0.453125 -0.296875 -0.953125 -0.296875q-0.765625 0 -1.375 0.59375q-0.609375 0.59375 -0.71875 1.671875zm9.343079 -2.921875l0 1.90625q1.0625 -1.90625 2.1875 -1.90625q0.515625 0 0.84375 0.3125q0.34375 0.3125 0.34375 0.71875q0 0.359375 -0.25 0.609375q-0.234375 0.25 -0.578125 0.25q-0.3125 0 -0.71875 -0.3125q-0.40625 -0.328125 -0.59375 -0.328125q-0.171875 0 -0.375 0.1875q-0.40625 0.375 -0.859375 1.25l0 4.078125q0 0.703125 0.171875 1.0625q0.125 0.25 0.421875 0.421875q0.3125 0.171875 0.890625 0.171875l0 0.328125l-4.34375 0l0 -0.328125q0.640625 0 0.953125 -0.203125q0.234375 -0.15625 0.328125 -0.484375q0.046875 -0.15625 0.046875 -0.890625l0 -3.296875q0 -1.484375 -0.0625 -1.765625q-0.0625 -0.28125 -0.21875 -0.40625q-0.15625 -0.140625 -0.40625 -0.140625q-0.28125 0 -0.640625 0.140625l-0.09375 -0.328125l2.5625 -1.046875l0.390625 0z" fill-rule="nonzero"></path><path fill="#000000" fill-opacity="0.0" d="m548.30707 382.04877l0 0c0 -5.3983154 4.3762207 -9.774475 9.774475 -9.774475l242.62433 0c2.5923462 0 5.078491 1.0297852 6.91156 2.862854c1.8330688 1.8330688 2.862854 4.3192444 2.862854 6.911621l0 39.09671c0 5.398285 -4.3761597 9.774475 -9.774414 9.774475l-242.62433 0c-5.3982544 0 -9.774475 -4.37619 -9.774475 -9.774475z" fill-rule="evenodd"></path><path stroke="#666666" stroke-width="2.0" stroke-linejoin="round" stroke-linecap="butt" d="m548.30707 382.04877l0 0c0 -5.3983154 4.3762207 -9.774475 9.774475 -9.774475l242.62433 0c2.5923462 0 5.078491 1.0297852 6.91156 2.862854c1.8330688 1.8330688 2.862854 4.3192444 2.862854 6.911621l0 39.09671c0 5.398285 -4.3761597 9.774475 -9.774414 9.774475l-242.62433 0c-5.3982544 0 -9.774475 -4.37619 -9.774475 -9.774475z" fill-rule="evenodd"></path><path fill="#000000" d="m640.538 396.6265l0 4.9375l2.28125 0q0.796875 0 1.15625 -0.34375q0.375 -0.34375 0.5 -1.375l0.34375 0l0 4.25l-0.34375 0q-0.015625 -0.734375 -0.203125 -1.0625q-0.171875 -0.34375 -0.5 -0.515625q-0.3125 -0.171875 -0.953125 -0.171875l-2.28125 0l0 3.9375q0 0.96875 0.125 1.265625q0.078125 0.234375 0.375 0.40625q0.421875 0.21875 0.859375 0.21875l0.453125 0l0 0.34375l-5.390625 0l0 -0.34375l0.4375 0q0.78125 0 1.140625 -0.453125q0.21875 -0.296875 0.21875 -1.4375l0 -8.125q0 -0.953125 -0.125 -1.25q-0.09375 -0.234375 -0.375 -0.40625q-0.40625 -0.21875 -0.859375 -0.21875l-0.4375 0l0 -0.34375l9.359375 0l0.109375 2.765625l-0.3125 0q-0.25 -0.890625 -0.578125 -1.296875q-0.3125 -0.40625 -0.78125 -0.59375q-0.46875 -0.1875 -1.453125 -0.1875l-2.765625 0zm9.235107 -1.296875q0.390625 0 0.65625 0.28125q0.28125 0.265625 0.28125 0.65625q0 0.390625 -0.28125 0.671875q-0.265625 0.265625 -0.65625 0.265625q-0.390625 0 -0.671875 -0.265625q-0.265625 -0.28125 -0.265625 -0.671875q0 -0.390625 0.265625 -0.65625q0.28125 -0.28125 0.671875 -0.28125zm0.78125 4.4375l0 6.828125q0 0.796875 0.109375 1.0625q0.109375 0.265625 0.34375 0.40625q0.234375 0.125 0.828125 0.125l0 0.328125l-4.125 0l0 -0.328125q0.625 0 0.828125 -0.125q0.21875 -0.125 0.34375 -0.390625q0.125 -0.28125 0.125 -1.078125l0 -3.28125q0 -1.375 -0.078125 -1.78125q-0.0625 -0.296875 -0.203125 -0.40625q-0.140625 -0.125 -0.390625 -0.125q-0.25 0 -0.625 0.140625l-0.125 -0.328125l2.5625 -1.046875l0.40625 0zm12.542664 5.265625l0.3125 0.0625l-1.078125 3.421875l-9.75 0l0 -0.34375l0.484375 0q0.796875 0 1.140625 -0.515625q0.1875 -0.296875 0.1875 -1.375l0 -8.125q0 -1.171875 -0.25 -1.46875q-0.375 -0.40625 -1.078125 -0.40625l-0.484375 0l0 -0.34375l5.703125 0l0 0.34375q-1.0 -0.015625 -1.40625 0.1875q-0.40625 0.1875 -0.5625 0.484375q-0.140625 0.296875 -0.140625 1.421875l0 7.90625q0 0.765625 0.15625 1.0625q0.109375 0.1875 0.328125 0.28125q0.234375 0.09375 1.453125 0.09375l0.921875 0q1.453125 0 2.03125 -0.203125q0.578125 -0.21875 1.0625 -0.765625q0.484375 -0.546875 0.96875 -1.71875zm8.286621 3.484375l-4.875 -10.578125l0 8.390625q0 1.171875 0.25 1.453125q0.34375 0.390625 1.09375 0.390625l0.4375 0l0 0.34375l-4.375 0l0 -0.34375l0.453125 0q0.796875 0 1.125 -0.484375q0.203125 -0.296875 0.203125 -1.359375l0 -8.21875q0 -0.828125 -0.1875 -1.203125q-0.125 -0.265625 -0.484375 -0.4375q-0.34375 -0.1875 -1.109375 -0.1875l0 -0.34375l3.5625 0l4.5625 9.84375l4.5 -9.84375l3.5625 0l0 0.34375l-0.4375 0q-0.8125 0 -1.140625 0.484375q-0.203125 0.296875 -0.203125 1.34375l0 8.21875q0 1.171875 0.25 1.453125q0.34375 0.390625 1.09375 0.390625l0.4375 0l0 0.34375l-5.34375 0l0 -0.34375l0.4375 0q0.8125 0 1.140625 -0.484375q0.203125 -0.296875 0.203125 -1.359375l0 -8.390625l-4.859375 10.578125l-0.296875 0zm16.986816 -13.1875l0 11.265625q0 0.796875 0.109375 1.0625q0.125 0.25 0.359375 0.390625q0.25 0.140625 0.90625 0.140625l0 0.328125l-4.171875 0l0 -0.328125q0.59375 0 0.796875 -0.125q0.21875 -0.125 0.328125 -0.390625q0.125 -0.28125 0.125 -1.078125l0 -7.71875q0 -1.4375 -0.0625 -1.765625q-0.0625 -0.328125 -0.203125 -0.453125q-0.140625 -0.125 -0.359375 -0.125q-0.25 0 -0.625 0.15625l-0.15625 -0.328125l2.53125 -1.03125l0.421875 0zm7.0739136 11.96875q-1.3125 1.0 -1.640625 1.15625q-0.5 0.234375 -1.0625 0.234375q-0.890625 0 -1.46875 -0.59375q-0.5625 -0.609375 -0.5625 -1.59375q0 -0.625 0.28125 -1.078125q0.390625 -0.625 1.328125 -1.171875q0.9375 -0.5625 3.125 -1.359375l0 -0.34375q0 -1.265625 -0.40625 -1.734375q-0.390625 -0.484375 -1.171875 -0.484375q-0.578125 0 -0.921875 0.3125q-0.359375 0.328125 -0.359375 0.734375l0.015625 0.53125q0 0.4375 -0.21875 0.671875q-0.203125 0.21875 -0.5625 0.21875q-0.34375 0 -0.5625 -0.234375q-0.21875 -0.25 -0.21875 -0.65625q0 -0.796875 0.8125 -1.46875q0.828125 -0.671875 2.296875 -0.671875q1.125 0 1.859375 0.375q0.546875 0.296875 0.796875 0.90625q0.171875 0.40625 0.171875 1.640625l0 2.875q0 1.21875 0.046875 1.5q0.046875 0.265625 0.15625 0.359375q0.109375 0.09375 0.25 0.09375q0.140625 0 0.25 -0.0625q0.203125 -0.125 0.75 -0.6875l0 0.53125q-1.03125 1.390625 -1.984375 1.390625q-0.453125 0 -0.71875 -0.3125q-0.265625 -0.328125 -0.28125 -1.078125zm0 -0.609375l0 -3.234375q-1.390625 0.546875 -1.8125 0.78125q-0.734375 0.40625 -1.046875 0.859375q-0.3125 0.4375 -0.3125 0.96875q0 0.671875 0.390625 1.109375q0.40625 0.4375 0.921875 0.4375q0.71875 0 1.859375 -0.921875zm2.9836426 -6.671875l3.96875 0l0 0.34375l-0.203125 0q-0.421875 0 -0.625 0.1875q-0.203125 0.171875 -0.203125 0.4375q0 0.375 0.296875 1.015625l2.078125 4.28125l1.890625 -4.703125q0.171875 -0.375 0.171875 -0.75q0 -0.15625 -0.078125 -0.25q-0.0625 -0.09375 -0.234375 -0.15625q-0.15625 -0.0625 -0.546875 -0.0625l0 -0.34375l2.765625 0l0 0.34375q-0.34375 0.03125 -0.53125 0.15625q-0.1875 0.109375 -0.40625 0.40625q-0.078125 0.140625 -0.3125 0.71875l-3.46875 8.484375q-0.5 1.234375 -1.3125 1.859375q-0.8125 0.625 -1.5625 0.625q-0.546875 0 -0.90625 -0.3125q-0.34375 -0.3125 -0.34375 -0.71875q0 -0.390625 0.25 -0.625q0.265625 -0.234375 0.703125 -0.234375q0.3125 0 0.84375 0.203125q0.359375 0.140625 0.453125 0.140625q0.28125 0 0.609375 -0.296875q0.328125 -0.28125 0.671875 -1.109375l0.59375 -1.46875l-3.046875 -6.421875q-0.140625 -0.28125 -0.453125 -0.703125q-0.21875 -0.328125 -0.375 -0.4375q-0.21875 -0.15625 -0.6875 -0.265625l0 -0.34375zm11.234375 3.203125q0 1.890625 0.921875 2.96875q0.9375 1.078125 2.1875 1.078125q0.828125 0 1.4375 -0.453125q0.625 -0.46875 1.046875 -1.578125l0.28125 0.1875q-0.1875 1.265625 -1.125 2.3125q-0.9375 1.046875 -2.34375 1.046875q-1.53125 0 -2.625 -1.1875q-1.09375 -1.203125 -1.09375 -3.21875q0 -2.171875 1.109375 -3.390625q1.125 -1.234375 2.8125 -1.234375q1.4375 0 2.34375 0.953125q0.921875 0.9375 0.921875 2.515625l-5.875 0zm0 -0.53125l3.9375 0q-0.046875 -0.828125 -0.1875 -1.15625q-0.234375 -0.515625 -0.703125 -0.8125q-0.453125 -0.296875 -0.953125 -0.296875q-0.765625 0 -1.375 0.59375q-0.609375 0.59375 -0.71875 1.671875zm9.343079 -2.921875l0 1.90625q1.0625 -1.90625 2.1875 -1.90625q0.515625 0 0.84375 0.3125q0.34375 0.3125 0.34375 0.71875q0 0.359375 -0.25 0.609375q-0.234375 0.25 -0.578125 0.25q-0.3125 0 -0.71875 -0.3125q-0.40625 -0.328125 -0.59375 -0.328125q-0.171875 0 -0.375 0.1875q-0.40625 0.375 -0.859375 1.25l0 4.078125q0 0.703125 0.171875 1.0625q0.125 0.25 0.421875 0.421875q0.3125 0.171875 0.890625 0.171875l0 0.328125l-4.34375 0l0 -0.328125q0.640625 0 0.953125 -0.203125q0.234375 -0.15625 0.328125 -0.484375q0.046875 -0.15625 0.046875 -0.890625l0 -3.296875q0 -1.484375 -0.0625 -1.765625q-0.0625 -0.28125 -0.21875 -0.40625q-0.15625 -0.140625 -0.40625 -0.140625q-0.28125 0 -0.640625 0.140625l-0.09375 -0.328125l2.5625 -1.046875l0.390625 0z" fill-rule="nonzero"></path><path fill="#000000" fill-opacity="0.0" d="m149.4252 265.53882l0 0c0 -21.172775 17.163925 -38.336716 38.336716 -38.336716l224.77538 0c10.1675415 0 19.91864 4.039032 27.108154 11.228561c7.1895447 7.1895294 11.228577 16.940628 11.228577 27.108154l0 153.34232c0 21.17279 -17.16394 38.3367 -38.33673 38.3367l-224.77538 0l0 0c-21.17279 0 -38.336716 -17.16391 -38.336716 -38.3367z" fill-rule="evenodd"></path><path stroke="#666666" stroke-width="2.0" stroke-linejoin="round" stroke-linecap="butt" d="m149.4252 265.53882l0 0c0 -21.172775 17.163925 -38.336716 38.336716 -38.336716l224.77538 0c10.1675415 0 19.91864 4.039032 27.108154 11.228561c7.1895447 7.1895294 11.228577 16.940628 11.228577 27.108154l0 153.34232c0 21.17279 -17.16394 38.3367 -38.33673 38.3367l-224.77538 0l0 0c-21.17279 0 -38.336716 -17.16391 -38.336716 -38.3367z" fill-rule="evenodd"></path><path fill="#000000" d="m211.04593 337.23935l0 4.9375l2.28125 0q0.796875 0 1.15625 -0.34375q0.375 -0.34375 0.5 -1.375l0.34375 0l0 4.25l-0.34375 0q-0.015625 -0.734375 -0.203125 -1.0625q-0.171875 -0.34375 -0.5 -0.515625q-0.3125 -0.171875 -0.953125 -0.171875l-2.28125 0l0 3.9375q0 0.96875 0.125 1.265625q0.078125 0.234375 0.375 0.40625q0.421875 0.21875 0.859375 0.21875l0.453125 0l0 0.34375l-5.390625 0l0 -0.34375l0.4375 0q0.78125 0 1.140625 -0.453125q0.21875 -0.296875 0.21875 -1.4375l0 -8.125q0 -0.953125 -0.125 -1.25q-0.09375 -0.234375 -0.375 -0.40625q-0.40625 -0.21875 -0.859375 -0.21875l-0.4375 0l0 -0.34375l9.359375 0l0.109375 2.765625l-0.3125 0q-0.25 -0.890625 -0.578125 -1.296875q-0.3125 -0.40625 -0.78125 -0.59375q-0.46875 -0.1875 -1.453125 -0.1875l-2.765625 0zm9.235092 -1.296875q0.390625 0 0.65625 0.28125q0.28125 0.265625 0.28125 0.65625q0 0.390625 -0.28125 0.671875q-0.265625 0.265625 -0.65625 0.265625q-0.390625 0 -0.671875 -0.265625q-0.265625 -0.28125 -0.265625 -0.671875q0 -0.390625 0.265625 -0.65625q0.28125 -0.28125 0.671875 -0.28125zm0.78125 4.4375l0 6.828125q0 0.796875 0.109375 1.0625q0.109375 0.265625 0.34375 0.40625q0.234375 0.125 0.828125 0.125l0 0.328125l-4.125 0l0 -0.328125q0.625 0 0.828125 -0.125q0.21875 -0.125 0.34375 -0.390625q0.125 -0.28125 0.125 -1.078125l0 -3.28125q0 -1.375 -0.078125 -1.78125q-0.0625 -0.296875 -0.203125 -0.40625q-0.140625 -0.125 -0.390625 -0.125q-0.25 0 -0.625 0.140625l-0.125 -0.328125l2.5625 -1.046875l0.40625 0zm12.542679 5.265625l0.3125 0.0625l-1.078125 3.421875l-9.75 0l0 -0.34375l0.484375 0q0.796875 0 1.140625 -0.515625q0.1875 -0.296875 0.1875 -1.375l0 -8.125q0 -1.171875 -0.25 -1.46875q-0.375 -0.40625 -1.078125 -0.40625l-0.484375 0l0 -0.34375l5.703125 0l0 0.34375q-1.0 -0.015625 -1.40625 0.1875q-0.40625 0.1875 -0.5625 0.484375q-0.140625 0.296875 -0.140625 1.421875l0 7.90625q0 0.765625 0.15625 1.0625q0.109375 0.1875 0.328125 0.28125q0.234375 0.09375 1.453125 0.09375l0.921875 0q1.453125 0 2.03125 -0.203125q0.578125 -0.21875 1.0625 -0.765625q0.484375 -0.546875 0.96875 -1.71875zm8.286606 3.484375l-4.875 -10.578125l0 8.390625q0 1.171875 0.25 1.453125q0.34375 0.390625 1.09375 0.390625l0.4375 0l0 0.34375l-4.375 0l0 -0.34375l0.453125 0q0.796875 0 1.125 -0.484375q0.203125 -0.296875 0.203125 -1.359375l0 -8.21875q0 -0.828125 -0.1875 -1.203125q-0.125 -0.265625 -0.484375 -0.4375q-0.34375 -0.1875 -1.109375 -0.1875l0 -0.34375l3.5625 0l4.5625 9.84375l4.5 -9.84375l3.5625 0l0 0.34375l-0.4375 0q-0.8125 0 -1.140625 0.484375q-0.203125 0.296875 -0.203125 1.34375l0 8.21875q0 1.171875 0.25 1.453125q0.34375 0.390625 1.09375 0.390625l0.4375 0l0 0.34375l-5.34375 0l0 -0.34375l0.4375 0q0.8125 0 1.140625 -0.484375q0.203125 -0.296875 0.203125 -1.359375l0 -8.390625l-4.859375 10.578125l-0.296875 0zm9.572769 -4.96875l4.796875 0l0 1.40625l-4.796875 0l0 -1.40625zm8.306427 1.875q-0.765625 -0.390625 -1.1875 -1.0625q-0.421875 -0.6875 -0.421875 -1.515625q0 -1.265625 0.953125 -2.171875q0.953125 -0.90625 2.4375 -0.90625q1.21875 0 2.109375 0.59375l1.796875 0q0.390625 0 0.453125 0.03125q0.078125 0.015625 0.09375 0.078125q0.0625 0.078125 0.0625 0.296875q0 0.234375 -0.046875 0.328125q-0.03125 0.046875 -0.109375 0.078125q-0.0625 0.03125 -0.453125 0.03125l-1.109375 0q0.515625 0.65625 0.515625 1.703125q0 1.1875 -0.90625 2.03125q-0.90625 0.84375 -2.4375 0.84375q-0.625 0 -1.28125 -0.1875q-0.421875 0.359375 -0.5625 0.625q-0.140625 0.25 -0.140625 0.4375q0 0.15625 0.15625 0.3125q0.15625 0.140625 0.59375 0.203125q0.265625 0.046875 1.296875 0.078125q1.921875 0.046875 2.484375 0.125q0.859375 0.125 1.375 0.640625q0.515625 0.515625 0.515625 1.28125q0 1.046875 -0.984375 1.96875q-1.453125 1.34375 -3.78125 1.34375q-1.78125 0 -3.015625 -0.796875q-0.703125 -0.46875 -0.703125 -0.96875q0 -0.21875 0.109375 -0.4375q0.15625 -0.34375 0.640625 -0.96875q0.0625 -0.078125 0.953125 -1.0q-0.484375 -0.28125 -0.6875 -0.5q-0.203125 -0.234375 -0.203125 -0.53125q0 -0.3125 0.265625 -0.75q0.265625 -0.4375 1.21875 -1.234375zm1.625 -5.203125q-0.6875 0 -1.15625 0.546875q-0.46875 0.546875 -0.46875 1.671875q0 1.46875 0.640625 2.28125q0.484375 0.609375 1.21875 0.609375q0.703125 0 1.15625 -0.53125q0.46875 -0.53125 0.46875 -1.65625q0 -1.484375 -0.640625 -2.3125q-0.484375 -0.609375 -1.21875 -0.609375zm-1.703125 8.296875q-0.4375 0.46875 -0.671875 0.875q-0.21875 0.421875 -0.21875 0.765625q0 0.4375 0.546875 0.765625q0.921875 0.578125 2.671875 0.578125q1.671875 0 2.46875 -0.59375q0.796875 -0.578125 0.796875 -1.25q0 -0.484375 -0.484375 -0.6875q-0.484375 -0.203125 -1.90625 -0.234375q-2.09375 -0.0625 -3.203125 -0.21875zm8.5625 -5.296875q0 1.890625 0.921875 2.96875q0.9375 1.078125 2.1875 1.078125q0.828125 0 1.4375 -0.453125q0.625 -0.46875 1.046875 -1.578125l0.28125 0.1875q-0.1875 1.265625 -1.125 2.3125q-0.9375 1.046875 -2.34375 1.046875q-1.53125 0 -2.625 -1.1875q-1.09375 -1.203125 -1.09375 -3.21875q0 -2.171875 1.109375 -3.390625q1.125 -1.234375 2.8125 -1.234375q1.4375 0 2.34375 0.953125q0.921875 0.9375 0.921875 2.515625l-5.875 0zm0 -0.53125l3.9375 0q-0.046875 -0.828125 -0.1875 -1.15625q-0.234375 -0.515625 -0.703125 -0.8125q-0.453125 -0.296875 -0.953125 -0.296875q-0.765625 0 -1.375 0.59375q-0.609375 0.59375 -0.71875 1.671875zm9.343048 -1.125q1.484375 -1.796875 2.84375 -1.796875q0.6875 0 1.1875 0.359375q0.5 0.34375 0.796875 1.140625q0.21875 0.546875 0.21875 1.703125l0 3.625q0 0.8125 0.125 1.09375q0.09375 0.234375 0.3125 0.375q0.234375 0.125 0.859375 0.125l0 0.328125l-4.203125 0l0 -0.328125l0.171875 0q0.59375 0 0.828125 -0.1875q0.234375 -0.1875 0.328125 -0.53125q0.046875 -0.140625 0.046875 -0.875l0 -3.484375q0 -1.15625 -0.3125 -1.671875q-0.296875 -0.53125 -1.015625 -0.53125q-1.09375 0 -2.1875 1.203125l0 4.484375q0 0.859375 0.09375 1.0625q0.125 0.28125 0.34375 0.40625q0.234375 0.125 0.9375 0.125l0 0.328125l-4.203125 0l0 -0.328125l0.1875 0q0.640625 0 0.875 -0.328125q0.234375 -0.34375 0.234375 -1.265625l0 -3.15625q0 -1.53125 -0.078125 -1.859375q-0.0625 -0.34375 -0.21875 -0.453125q-0.140625 -0.125 -0.375 -0.125q-0.265625 0 -0.625 0.140625l-0.140625 -0.328125l2.5625 -1.046875l0.40625 0l0 1.796875zm8.265625 1.65625q0 1.890625 0.921875 2.96875q0.9375 1.078125 2.1874695 1.078125q0.828125 0 1.4375 -0.453125q0.625 -0.46875 1.046875 -1.578125l0.28125 0.1875q-0.1875 1.265625 -1.125 2.3125q-0.9375 1.046875 -2.3437195 1.046875q-1.53125 0 -2.625 -1.1875q-1.09375 -1.203125 -1.09375 -3.21875q0 -2.171875 1.109375 -3.390625q1.125 -1.234375 2.8125 -1.234375q1.4374695 0 2.3437195 0.953125q0.921875 0.9375 0.921875 2.515625l-5.8749695 0zm0 -0.53125l3.9374695 0q-0.046875 -0.828125 -0.1875 -1.15625q-0.234375 -0.515625 -0.703125 -0.8125q-0.45309448 -0.296875 -0.9530945 -0.296875q-0.765625 0 -1.375 0.59375q-0.609375 0.59375 -0.71875 1.671875zm9.343018 -2.921875l0 1.90625q1.0625 -1.90625 2.1875 -1.90625q0.515625 0 0.84375 0.3125q0.34375 0.3125 0.34375 0.71875q0 0.359375 -0.25 0.609375q-0.234375 0.25 -0.578125 0.25q-0.3125 0 -0.71875 -0.3125q-0.40625 -0.328125 -0.59375 -0.328125q-0.171875 0 -0.375 0.1875q-0.40625 0.375 -0.859375 1.25l0 4.078125q0 0.703125 0.171875 1.0625q0.125 0.25 0.421875 0.421875q0.3125 0.171875 0.890625 0.171875l0 0.328125l-4.34375 0l0 -0.328125q0.640625 0 0.953125 -0.203125q0.234375 -0.15625 0.328125 -0.484375q0.046875 -0.15625 0.046875 -0.890625l0 -3.296875q0 -1.484375 -0.0625 -1.765625q-0.0625 -0.28125 -0.21875 -0.40625q-0.15625 -0.140625 -0.40625 -0.140625q-0.28125 0 -0.640625 0.140625l-0.09375 -0.328125l2.5625 -1.046875l0.390625 0zm8.540802 7.53125q-1.3125 1.0 -1.640625 1.15625q-0.5 0.234375 -1.0625 0.234375q-0.890625 0 -1.46875 -0.59375q-0.5625 -0.609375 -0.5625 -1.59375q0 -0.625 0.28125 -1.078125q0.390625 -0.625 1.328125 -1.171875q0.9375 -0.5625 3.125 -1.359375l0 -0.34375q0 -1.265625 -0.40625 -1.734375q-0.390625 -0.484375 -1.171875 -0.484375q-0.578125 0 -0.921875 0.3125q-0.359375 0.328125 -0.359375 0.734375l0.015625 0.53125q0 0.4375 -0.21875 0.671875q-0.203125 0.21875 -0.5625 0.21875q-0.34375 0 -0.5625 -0.234375q-0.21875 -0.25 -0.21875 -0.65625q0 -0.796875 0.8125 -1.46875q0.828125 -0.671875 2.296875 -0.671875q1.125 0 1.859375 0.375q0.546875 0.296875 0.796875 0.90625q0.171875 0.40625 0.171875 1.640625l0 2.875q0 1.21875 0.046875 1.5q0.046875 0.265625 0.15625 0.359375q0.109375 0.09375 0.25 0.09375q0.140625 0 0.25 -0.0625q0.203125 -0.125 0.75 -0.6875l0 0.53125q-1.03125 1.390625 -1.984375 1.390625q-0.453125 0 -0.71875 -0.3125q-0.265625 -0.328125 -0.28125 -1.078125zm0 -0.609375l0 -3.234375q-1.390625 0.546875 -1.8125 0.78125q-0.734375 0.40625 -1.046875 0.859375q-0.3125 0.4375 -0.3125 0.96875q0 0.671875 0.390625 1.109375q0.40625 0.4375 0.921875 0.4375q0.71875 0 1.859375 -0.921875zm5.9367676 -9.46875l0 2.796875l1.984375 0l0 0.65625l-1.984375 0l0 5.5q0 0.828125 0.234375 1.125q0.234375 0.28125 0.609375 0.28125q0.3125 0 0.59375 -0.1875q0.28125 -0.1875 0.4375 -0.5625l0.375 0q-0.328125 0.90625 -0.921875 1.375q-0.59375 0.453125 -1.234375 0.453125q-0.421875 0 -0.828125 -0.234375q-0.40625 -0.234375 -0.609375 -0.671875q-0.1875 -0.453125 -0.1875 -1.375l0 -5.703125l-1.34375 0l0 -0.3125q0.515625 -0.203125 1.046875 -0.6875q0.53125 -0.484375 0.953125 -1.15625q0.203125 -0.359375 0.59375 -1.296875l0.28125 0zm6.870819 2.546875q1.9375 0 3.09375 1.46875q1.0 1.25 1.0 2.875q0 1.140625 -0.546875 2.3125q-0.546875 1.171875 -1.515625 1.765625q-0.953125 0.59375 -2.140625 0.59375q-1.90625 0 -3.046875 -1.53125q-0.953125 -1.296875 -0.953125 -2.90625q0 -1.15625 0.578125 -2.3125q0.578125 -1.15625 1.515625 -1.703125q0.953125 -0.5625 2.015625 -0.5625zm-0.28125 0.609375q-0.5 0 -1.0 0.296875q-0.484375 0.28125 -0.796875 1.015625q-0.3125 0.734375 -0.3125 1.890625q0 1.84375 0.734375 3.1875q0.75 1.34375 1.953125 1.34375q0.90625 0 1.484375 -0.734375q0.578125 -0.75 0.578125 -2.546875q0 -2.265625 -0.96875 -3.5625q-0.65625 -0.890625 -1.671875 -0.890625zm7.9375 -0.609375l0 1.90625q1.0625 -1.90625 2.1875 -1.90625q0.515625 0 0.84375 0.3125q0.34375 0.3125 0.34375 0.71875q0 0.359375 -0.25 0.609375q-0.234375 0.25 -0.578125 0.25q-0.3125 0 -0.71875 -0.3125q-0.40625 -0.328125 -0.59375 -0.328125q-0.171875 0 -0.375 0.1875q-0.40625 0.375 -0.859375 1.25l0 4.078125q0 0.703125 0.171875 1.0625q0.125 0.25 0.421875 0.421875q0.3125 0.171875 0.890625 0.171875l0 0.328125l-4.34375 0l0 -0.328125q0.640625 0 0.953125 -0.203125q0.234375 -0.15625 0.328125 -0.484375q0.046875 -0.15625 0.046875 -0.890625l0 -3.296875q0 -1.484375 -0.0625 -1.765625q-0.0625 -0.28125 -0.21875 -0.40625q-0.15625 -0.140625 -0.40625 -0.140625q-0.28125 0 -0.640625 0.140625l-0.09375 -0.328125l2.5625 -1.046875l0.390625 0zm10.8767395 1.796875q1.484375 -1.796875 2.84375 -1.796875q0.6875 0 1.1875 0.359375q0.5 0.34375 0.796875 1.140625q0.21875 0.546875 0.21875 1.703125l0 3.625q0 0.8125 0.125 1.09375q0.09375 0.234375 0.3125 0.375q0.234375 0.125 0.859375 0.125l0 0.328125l-4.203125 0l0 -0.328125l0.171875 0q0.59375 0 0.828125 -0.1875q0.234375 -0.1875 0.328125 -0.53125q0.046875 -0.140625 0.046875 -0.875l0 -3.484375q0 -1.15625 -0.3125 -1.671875q-0.296875 -0.53125 -1.015625 -0.53125q-1.09375 0 -2.1875 1.203125l0 4.484375q0 0.859375 0.09375 1.0625q0.125 0.28125 0.34375 0.40625q0.234375 0.125 0.9375 0.125l0 0.328125l-4.203125 0l0 -0.328125l0.1875 0q0.640625 0 0.875 -0.328125q0.234375 -0.34375 0.234375 -1.265625l0 -3.15625q0 -1.53125 -0.078125 -1.859375q-0.0625 -0.34375 -0.21875 -0.453125q-0.140625 -0.125 -0.375 -0.125q-0.265625 0 -0.625 0.140625l-0.140625 -0.328125l2.5625 -1.046875l0.40625 0l0 1.796875zm8.265625 1.65625q0 1.890625 0.921875 2.96875q0.9375 1.078125 2.1875 1.078125q0.828125 0 1.4375 -0.453125q0.625 -0.46875 1.046875 -1.578125l0.28125 0.1875q-0.1875 1.265625 -1.125 2.3125q-0.9375 1.046875 -2.34375 1.046875q-1.53125 0 -2.625 -1.1875q-1.09375 -1.203125 -1.09375 -3.21875q0 -2.171875 1.109375 -3.390625q1.125 -1.234375 2.8125 -1.234375q1.4375 0 2.34375 0.953125q0.921875 0.9375 0.921875 2.515625l-5.875 0zm0 -0.53125l3.9375 0q-0.046875 -0.828125 -0.1875 -1.15625q-0.234375 -0.515625 -0.703125 -0.8125q-0.453125 -0.296875 -0.953125 -0.296875q-0.765625 0 -1.375 0.59375q-0.609375 0.59375 -0.71875 1.671875zm9.327393 -5.46875l0 2.796875l1.984375 0l0 0.65625l-1.984375 0l0 5.5q0 0.828125 0.234375 1.125q0.234375 0.28125 0.609375 0.28125q0.3125 0 0.59375 -0.1875q0.28125 -0.1875 0.4375 -0.5625l0.375 0q-0.328125 0.90625 -0.921875 1.375q-0.59375 0.453125 -1.234375 0.453125q-0.421875 0 -0.828125 -0.234375q-0.40625 -0.234375 -0.609375 -0.671875q-0.1875 -0.453125 -0.1875 -1.375l0 -5.703125l-1.34375 0l0 -0.3125q0.515625 -0.203125 1.046875 -0.6875q0.53125 -0.484375 0.953125 -1.15625q0.203125 -0.359375 0.59375 -1.296875l0.28125 0zm2.245819 2.796875l3.5625 0l0 0.34375q-0.5 0.03125 -0.65625 0.171875q-0.140625 0.140625 -0.140625 0.40625q0 0.28125 0.15625 0.6875l1.8125 4.890625l1.828125 -3.96875l-0.484375 -1.265625q-0.21875 -0.546875 -0.578125 -0.765625q-0.203125 -0.125 -0.765625 -0.15625l0 -0.34375l4.046875 0l0 0.34375q-0.671875 0.03125 -0.953125 0.25q-0.171875 0.140625 -0.171875 0.46875q0 0.1875 0.0625 0.375l1.9375 4.875l1.78125 -4.703125q0.1875 -0.5 0.1875 -0.796875q0 -0.171875 -0.1875 -0.3125q-0.171875 -0.140625 -0.703125 -0.15625l0 -0.34375l2.6875 0l0 0.34375q-0.8125 0.125 -1.1875 1.09375l-2.84375 7.328125l-0.375 0l-2.125 -5.4375l-2.484375 5.4375l-0.34375 0l-2.71875 -7.15625q-0.265625 -0.671875 -0.53125 -0.90625q-0.265625 -0.234375 -0.8125 -0.359375l0 -0.34375zm18.09793 -0.25q1.9375 0 3.09375 1.46875q1.0 1.25 1.0 2.875q0 1.140625 -0.546875 2.3125q-0.546875 1.171875 -1.515625 1.765625q-0.953125 0.59375 -2.140625 0.59375q-1.90625 0 -3.046875 -1.53125q-0.953125 -1.296875 -0.953125 -2.90625q0 -1.15625 0.578125 -2.3125q0.578125 -1.15625 1.515625 -1.703125q0.953125 -0.5625 2.015625 -0.5625zm-0.28125 0.609375q-0.5 0 -1.0 0.296875q-0.484375 0.28125 -0.796875 1.015625q-0.3125 0.734375 -0.3125 1.890625q0 1.84375 0.734375 3.1875q0.75 1.34375 1.953125 1.34375q0.90625 0 1.484375 -0.734375q0.578125 -0.75 0.578125 -2.546875q0 -2.265625 -0.96875 -3.5625q-0.65625 -0.890625 -1.671875 -0.890625zm7.9375 -0.609375l0 1.90625q1.0625 -1.90625 2.1875 -1.90625q0.515625 0 0.84375 0.3125q0.34375 0.3125 0.34375 0.71875q0 0.359375 -0.25 0.609375q-0.234375 0.25 -0.578125 0.25q-0.3125 0 -0.71875 -0.3125q-0.40625 -0.328125 -0.59375 -0.328125q-0.171875 0 -0.375 0.1875q-0.40625 0.375 -0.859375 1.25l0 4.078125q0 0.703125 0.171875 1.0625q0.125 0.25 0.421875 0.421875q0.3125 0.171875 0.890625 0.171875l0 0.328125l-4.34375 0l0 -0.328125q0.640625 0 0.953125 -0.203125q0.234375 -0.15625 0.328125 -0.484375q0.046875 -0.15625 0.046875 -0.890625l0 -3.296875q0 -1.484375 -0.0625 -1.765625q-0.0625 -0.28125 -0.21875 -0.40625q-0.15625 -0.140625 -0.40625 -0.140625q-0.28125 0 -0.640625 0.140625l-0.09375 -0.328125l2.5625 -1.046875l0.390625 0zm6.243927 -4.4375l0 8.453125l2.15625 -1.96875q0.6875 -0.640625 0.796875 -0.796875q0.078125 -0.109375 0.078125 -0.234375q0 -0.171875 -0.15625 -0.3125q-0.15625 -0.140625 -0.5 -0.15625l0 -0.296875l3.6875 0l0 0.296875q-0.75 0.015625 -1.265625 0.234375q-0.5 0.21875 -1.109375 0.765625l-2.171875 2.0l2.171875 2.765625q0.90625 1.140625 1.234375 1.4375q0.4375 0.4375 0.765625 0.578125q0.234375 0.09375 0.8125 0.09375l0 0.328125l-4.125 0l0 -0.328125q0.34375 -0.015625 0.46875 -0.109375q0.140625 -0.09375 0.140625 -0.28125q0 -0.203125 -0.375 -0.6875l-2.609375 -3.328125l0 2.828125q0 0.828125 0.109375 1.09375q0.125 0.25 0.328125 0.359375q0.21875 0.109375 0.9375 0.125l0 0.328125l-4.328125 0l0 -0.328125q0.65625 0 0.96875 -0.15625q0.203125 -0.109375 0.296875 -0.328125q0.140625 -0.296875 0.140625 -1.046875l0 -7.75q0 -1.46875 -0.0625 -1.796875q-0.0625 -0.328125 -0.21875 -0.453125q-0.140625 -0.125 -0.375 -0.125q-0.203125 0 -0.59375 0.15625l-0.15625 -0.328125l2.53125 -1.03125l0.421875 0z" fill-rule="nonzero"></path><path fill="#000000" fill-opacity="0.0" d="m553.62994 633.21783l251.52753 0l0 58.64569l-251.52753 0z" fill-rule="evenodd"></path><path fill="#000000" d="m661.46985 664.8204l0 0.4375l-6.8125 0l0 -0.4375l0.5625 0q0.984375 0 1.4375 -0.578125q0.28125 -0.375 0.28125 -1.796875l0 -10.265625q0 -1.203125 -0.15625 -1.59375q-0.109375 -0.296875 -0.484375 -0.5q-0.515625 -0.28125 -1.078125 -0.28125l-0.5625 0l0 -0.4375l6.8125 0l0 0.4375l-0.578125 0q-0.96875 0 -1.40625 0.5625q-0.296875 0.375 -0.296875 1.8125l0 10.265625q0 1.203125 0.15625 1.59375q0.109375 0.296875 0.484375 0.5q0.5 0.28125 1.0625 0.28125l0.578125 0zm4.4609375 -8.34375q1.890625 -2.265625 3.609375 -2.265625q0.875 0 1.5 0.4375q0.640625 0.4375 1.015625 1.4375q0.25 0.703125 0.25 2.15625l0 4.59375q0 1.015625 0.171875 1.375q0.125 0.296875 0.40625 0.46875q0.296875 0.15625 1.0625 0.15625l0 0.421875l-5.296875 0l0 -0.421875l0.21875 0q0.75 0 1.046875 -0.21875q0.296875 -0.234375 0.421875 -0.6875q0.046875 -0.171875 0.046875 -1.09375l0 -4.40625q0 -1.453125 -0.390625 -2.109375q-0.375 -0.671875 -1.28125 -0.671875q-1.390625 0 -2.78125 1.515625l0 5.671875q0 1.078125 0.140625 1.34375q0.15625 0.34375 0.4375 0.5q0.296875 0.15625 1.171875 0.15625l0 0.421875l-5.3125 0l0 -0.421875l0.234375 0q0.828125 0 1.109375 -0.40625q0.296875 -0.421875 0.296875 -1.59375l0 -3.984375q0 -1.9375 -0.09375 -2.359375q-0.09375 -0.421875 -0.28125 -0.578125q-0.171875 -0.15625 -0.46875 -0.15625q-0.328125 0 -0.796875 0.1875l-0.171875 -0.421875l3.234375 -1.3125l0.5 0l0 2.265625zm8.09375 -0.890625l3.3125 -1.328125l0.453125 0l0 2.5q0.828125 -1.421875 1.65625 -1.984375q0.84375 -0.5625 1.765625 -0.5625q1.625 0 2.703125 1.265625q1.328125 1.546875 1.328125 4.03125q0 2.765625 -1.59375 4.59375q-1.3125 1.484375 -3.3125 1.484375q-0.859375 0 -1.5 -0.25q-0.46875 -0.171875 -1.046875 -0.703125l0 3.28125q0 1.09375 0.125 1.390625q0.140625 0.296875 0.46875 0.46875q0.34375 0.1875 1.21875 0.1875l0 0.4375l-5.625 0l0 -0.4375l0.296875 0q0.640625 0.015625 1.09375 -0.25q0.21875 -0.125 0.34375 -0.421875q0.125 -0.28125 0.125 -1.453125l0 -10.15625q0 -1.03125 -0.09375 -1.3125q-0.09375 -0.28125 -0.296875 -0.421875q-0.203125 -0.140625 -0.5625 -0.140625q-0.28125 0 -0.703125 0.15625l-0.15625 -0.375zm3.765625 1.859375l0 4.015625q0 1.296875 0.09375 1.703125q0.171875 0.6875 0.8125 1.203125q0.640625 0.515625 1.609375 0.515625q1.171875 0 1.890625 -0.921875q0.953125 -1.1875 0.953125 -3.359375q0 -2.453125 -1.078125 -3.78125q-0.75 -0.921875 -1.78125 -0.921875q-0.5625 0 -1.109375 0.28125q-0.421875 0.21875 -1.390625 1.265625zm18.421875 -2.921875l0 6.5q0 1.859375 0.09375 2.28125q0.09375 0.421875 0.28125 0.59375q0.1875 0.15625 0.453125 0.15625q0.359375 0 0.8125 -0.203125l0.171875 0.40625l-3.21875 1.328125l-0.515625 0l0 -2.28125q-1.390625 1.5 -2.125 1.890625q-0.71875 0.390625 -1.53125 0.390625q-0.890625 0 -1.5625 -0.515625q-0.65625 -0.53125 -0.921875 -1.34375q-0.25 -0.828125 -0.25 -2.328125l0 -4.796875q0 -0.75 -0.171875 -1.046875q-0.15625 -0.296875 -0.484375 -0.453125q-0.3125 -0.15625 -1.15625 -0.140625l0 -0.4375l3.75 0l0 7.1875q0 1.5 0.515625 1.96875q0.53125 0.46875 1.265625 0.46875q0.515625 0 1.140625 -0.3125q0.640625 -0.328125 1.53125 -1.21875l0 -6.078125q0 -0.921875 -0.34375 -1.234375q-0.328125 -0.328125 -1.390625 -0.34375l0 -0.4375l3.65625 0zm5.71875 -3.53125l0 3.53125l2.5 0l0 0.8125l-2.5 0l0 6.96875q0 1.046875 0.296875 1.40625q0.296875 0.359375 0.765625 0.359375q0.390625 0 0.75 -0.234375q0.359375 -0.25 0.5625 -0.71875l0.453125 0q-0.40625 1.15625 -1.15625 1.734375q-0.75 0.578125 -1.546875 0.578125q-0.546875 0 -1.0625 -0.296875q-0.515625 -0.296875 -0.765625 -0.84375q-0.234375 -0.5625 -0.234375 -1.734375l0 -7.21875l-1.703125 0l0 -0.375q0.640625 -0.265625 1.3125 -0.875q0.6875 -0.625 1.203125 -1.46875q0.28125 -0.4375 0.75 -1.625l0.375 0z" fill-rule="nonzero"></path><path fill="#000000" fill-opacity="0.0" d="m553.62994 0l251.52753 0l0 58.645668l-251.52753 0z" fill-rule="evenodd"></path><path fill="#000000" d="m654.84094 15.790001q3.09375 0 5.359375 2.34375q2.265625 2.34375 2.265625 5.859375q0 3.625 -2.28125 6.015625q-2.28125 2.390625 -5.53125 2.390625q-3.28125 0 -5.515625 -2.328125q-2.234375 -2.328125 -2.234375 -6.03125q0 -3.796875 2.578125 -6.1875q2.234375 -2.0625 5.359375 -2.0625zm-0.21875 0.84375q-2.140625 0 -3.421875 1.59375q-1.609375 1.96875 -1.609375 5.765625q0 3.890625 1.65625 5.984375q1.28125 1.59375 3.375 1.59375q2.25 0 3.703125 -1.75q1.453125 -1.75 1.453125 -5.5q0 -4.078125 -1.59375 -6.09375q-1.296875 -1.59375 -3.5625 -1.59375zm18.925781 4.671875l0 6.5q0 1.859375 0.09375 2.28125q0.09375 0.421875 0.28125 0.59375q0.1875 0.15625 0.453125 0.15625q0.359375 0 0.8125 -0.203125l0.171875 0.40625l-3.21875 1.328125l-0.515625 0l0 -2.28125q-1.390625 1.5 -2.125 1.890625q-0.71875 0.390625 -1.53125 0.390625q-0.890625 0 -1.5625 -0.515625q-0.65625 -0.53125 -0.921875 -1.34375q-0.25 -0.828125 -0.25 -2.328125l0 -4.796875q0 -0.75 -0.171875 -1.046875q-0.15625 -0.296875 -0.484375 -0.453125q-0.3125 -0.15625 -1.15625 -0.140625l0 -0.4375l3.75 0l0 7.1875q0 1.5 0.515625 1.96875q0.53125 0.46875 1.265625 0.46875q0.515625 0 1.140625 -0.3125q0.640625 -0.328125 1.53125 -1.21875l0 -6.078125q0 -0.921875 -0.34375 -1.234375q-0.328125 -0.328125 -1.390625 -0.34375l0 -0.4375l3.65625 0zm5.71875 -3.53125l0 3.53125l2.5 0l0 0.8125l-2.5 0l0 6.96875q0 1.046875 0.296875 1.40625q0.296875 0.359375 0.765625 0.359375q0.390625 0 0.75 -0.234375q0.359375 -0.25 0.5625 -0.71875l0.453125 0q-0.40625 1.15625 -1.15625 1.734375q-0.75 0.578125 -1.546875 0.578125q-0.546875 0 -1.0625 -0.296875q-0.515625 -0.296875 -0.765625 -0.84375q-0.234375 -0.5625 -0.234375 -1.734375l0 -7.21875l-1.703125 0l0 -0.375q0.640625 -0.265625 1.3125 -0.875q0.6875 -0.625 1.203125 -1.46875q0.28125 -0.4375 0.75 -1.625l0.375 0zm2.7617188 4.59375l3.3125 -1.328125l0.453125 0l0 2.5q0.828125 -1.421875 1.65625 -1.984375q0.84375 -0.5625 1.765625 -0.5625q1.625 0 2.703125 1.265625q1.328125 1.546875 1.328125 4.03125q0 2.765625 -1.59375 4.59375q-1.3125 1.484375 -3.3125 1.484375q-0.859375 0 -1.5 -0.25q-0.46875 -0.171875 -1.046875 -0.703125l0 3.28125q0 1.09375 0.125 1.390625q0.140625 0.296875 0.46875 0.46875q0.34375 0.1875 1.21875 0.1875l0 0.4375l-5.625 0l0 -0.4375l0.296875 0q0.640625 0.015625 1.09375 -0.25q0.21875 -0.125 0.34375 -0.421875q0.125 -0.28125 0.125 -1.453125l0 -10.15625q0 -1.03125 -0.09375 -1.3125q-0.09375 -0.28125 -0.296875 -0.421875q-0.203125 -0.140625 -0.5625 -0.140625q-0.28125 0 -0.703125 0.15625l-0.15625 -0.375zm3.765625 1.859375l0 4.015625q0 1.296875 0.09375 1.703125q0.171875 0.6875 0.8125 1.203125q0.640625 0.515625 1.609375 0.515625q1.171875 0 1.890625 -0.921875q0.953125 -1.1875 0.953125 -3.359375q0 -2.453125 -1.078125 -3.78125q-0.75 -0.921875 -1.78125 -0.921875q-0.5625 0 -1.109375 0.28125q-0.421875 0.21875 -1.390625 1.265625zm18.421875 -2.921875l0 6.5q0 1.859375 0.09375 2.28125q0.09375 0.421875 0.28125 0.59375q0.1875 0.15625 0.453125 0.15625q0.359375 0 0.8125 -0.203125l0.171875 0.40625l-3.21875 1.328125l-0.515625 0l0 -2.28125q-1.390625 1.5 -2.125 1.890625q-0.71875 0.390625 -1.53125 0.390625q-0.890625 0 -1.5625 -0.515625q-0.65625 -0.53125 -0.921875 -1.34375q-0.25 -0.828125 -0.25 -2.328125l0 -4.796875q0 -0.75 -0.171875 -1.046875q-0.15625 -0.296875 -0.484375 -0.453125q-0.3125 -0.15625 -1.15625 -0.140625l0 -0.4375l3.75 0l0 7.1875q0 1.5 0.515625 1.96875q0.53125 0.46875 1.265625 0.46875q0.515625 0 1.140625 -0.3125q0.640625 -0.328125 1.53125 -1.21875l0 -6.078125q0 -0.921875 -0.34375 -1.234375q-0.328125 -0.328125 -1.390625 -0.34375l0 -0.4375l3.65625 0zm5.71875 -3.53125l0 3.53125l2.5 0l0 0.8125l-2.5 0l0 6.96875q0 1.046875 0.296875 1.40625q0.296875 0.359375 0.765625 0.359375q0.390625 0 0.75 -0.234375q0.359375 -0.25 0.5625 -0.71875l0.453125 0q-0.40625 1.15625 -1.15625 1.734375q-0.75 0.578125 -1.546875 0.578125q-0.546875 0 -1.0625 -0.296875q-0.515625 -0.296875 -0.765625 -0.84375q-0.234375 -0.5625 -0.234375 -1.734375l0 -7.21875l-1.703125 0l0 -0.375q0.640625 -0.265625 1.3125 -0.875q0.6875 -0.625 1.203125 -1.46875q0.28125 -0.4375 0.75 -1.625l0.375 0z" fill-rule="nonzero"></path><path fill="#000000" fill-opacity="0.0" d="m300.1496 633.21783l0 -176.0" fill-rule="evenodd"></path><path stroke="#666666" stroke-width="2.0" stroke-linejoin="round" stroke-linecap="butt" d="m300.1496 633.21783l0 -164.0" fill-rule="evenodd"></path><path fill="#666666" stroke="#666666" stroke-width="2.0" stroke-linecap="butt" d="m303.45306 469.21783l-3.3034668 -9.076172l-3.3034668 9.076172z" fill-rule="evenodd"></path><path fill="#000000" fill-opacity="0.0" d="m679.3937 633.21783l0 -37.984253" fill-rule="evenodd"></path><path stroke="#666666" stroke-width="2.0" stroke-linejoin="round" stroke-linecap="butt" d="m679.3937 633.21783l0 -25.984253" fill-rule="evenodd"></path><path fill="#666666" stroke="#666666" stroke-width="2.0" stroke-linecap="butt" d="m682.69714 607.2336l-3.3034668 -9.076172l-3.3034668 9.076172z" fill-rule="evenodd"></path><path fill="#000000" fill-opacity="0.0" d="m679.3937 89.2021l0 -30.551186" fill-rule="evenodd"></path><path stroke="#666666" stroke-width="2.0" stroke-linejoin="round" stroke-linecap="butt" d="m679.3937 89.2021l0 -18.551186" fill-rule="evenodd"></path><path fill="#666666" stroke="#666666" stroke-width="2.0" stroke-linecap="butt" d="m682.69714 70.65092l-3.3034668 -9.076195l-3.3034668 9.076195z" fill-rule="evenodd"></path><path fill="#000000" fill-opacity="0.0" d="m450.87402 342.20996l48.716614 0l0 -105.07085l48.732178 0" fill-rule="evenodd"></path><path stroke="#666666" stroke-width="2.0" stroke-linejoin="round" stroke-linecap="butt" d="m450.87402 342.20996l48.716614 0l0 -105.07085l36.732178 0" fill-rule="evenodd"></path><path fill="#666666" stroke="#666666" stroke-width="2.0" stroke-linecap="butt" d="m536.3228 240.44257l9.076233 -3.3034515l-9.076233 -3.3034668z" fill-rule="evenodd"></path><path fill="#000000" fill-opacity="0.0" d="m450.87402 342.20996l48.716614 0l0 59.40158l48.732178 0" fill-rule="evenodd"></path><path stroke="#666666" stroke-width="2.0" stroke-linejoin="round" stroke-linecap="butt" d="m450.87402 342.20996l48.716614 0l0 59.40158l36.732178 0" fill-rule="evenodd"></path><path fill="#666666" stroke="#666666" stroke-width="2.0" stroke-linecap="butt" d="m536.3228 404.915l9.076233 -3.3034668l-9.076233 -3.3034668z" fill-rule="evenodd"></path></g></svg>

