<?xml version="1.0" encoding="utf-8"?>
<svg viewBox="0 0 744 500" xmlns="http://www.w3.org/2000/svg">
  <text x="5.004" y="254.928" style="font-size: 13px; white-space: pre;" class="figure-text">conditioning</text>
  <line style="stroke: rgb(0, 0, 0);" x1="80.594" y1="250" x2="134.146" y2="250" class="figure-line"/>
  <g transform="matrix(1, 0, 0, 1, 42.585468, 8.635989)" class="film-generator">
    <title>FiLM Generator</title>
    <rect x="91.561" y="92.492" width="179.844" height="297.744" style="fill: none; stroke: rgb(0, 0, 0);" class="figure-group figure-box figure-film-generator"/>
    <text x="5.004" y="254.928" class="figure-text" transform="matrix(1, 0, 0, 1.000001, 130.045502, -8.63625)" style="font-size: 13px; white-space: pre;">FiLM generator</text>
  </g>
  <line style="stroke: rgb(0, 0, 0);" x1="313.99" y1="250" x2="372.433" y2="250" class="figure-line"/>
  <g class="filmed-network">
    <title>FiLM-ed Network</title>
    <rect x="479.315" y="37.803" width="259.685" height="415.559" style="fill: none; stroke: rgb(0, 0, 0);" class="figure-group figure-box figure-filmed-network"/>
    <g>
      <title>Input</title>
      <text x="5.004" y="254.928" style="font-size: 13px; white-space: pre;" class="figure-text" transform="matrix(1, 0, 0, 1.000001, 590.454407, 225.003632)">input</text>
    </g>
    <line style="stroke: rgb(0, 0, 0);" x1="609.157" y1="467.457" x2="609.157" y2="437.052" class="figure-line"/>
    <g transform="matrix(1, 0, 0, 1, 378.391449, 166.016449)">
      <title>Subnetwork</title>
      <rect x="119.766" y="208.684" width="222" height="62.352" style="fill: none; stroke: rgb(0, 0, 0);" class="figure-element figure-box"/>
      <text x="195.98" y="244.6" style="font-size: 13px; white-space: pre;" class="figure-text">sub-network</text>
    </g>
    <line style="stroke: rgb(0, 0, 0);" x1="609.157" y1="374.7" x2="609.157" y2="350.692" class="figure-line"/>
    <line style="stroke: rgb(0, 0, 0);" x1="609.158" y1="305.645" x2="609.158" y2="281.636" class="figure-line"/>
    <g transform="matrix(1, 0, 0, 1, 378.391479, 38.774292)">
      <title>Subnetwork</title>
      <rect x="119.766" y="180.51" width="222" height="62.352" style="fill: none; stroke: rgb(0, 0, 0);" class="figure-element figure-box"/>
      <text x="195.979" y="216.426" style="font-size: 13px; white-space: pre;" class="figure-text">sub-network</text>
    </g>
    <line style="stroke: rgb(0, 0, 0);" x1="609.157" y1="219.284" x2="609.157" y2="195.276" class="figure-line"/>
    <line style="stroke: rgb(0, 0, 0);" x1="609.157" y1="150.229" x2="609.157" y2="126.221" class="figure-line"/>
    <g transform="matrix(1, 0, 0, 1, 378.391479, -85.694366)">
      <title>Subnetwork</title>
      <rect x="119.766" y="149.563" width="222" height="62.352" style="fill: none; stroke: rgb(0, 0, 0);" class="figure-element figure-box"/>
      <text x="195.979" y="185.479" style="font-size: 13px; white-space: pre;" class="figure-text">sub-network</text>
    </g>
    <line style="stroke: rgb(0, 0, 0);" x1="609.157" y1="63.869" x2="609.157" y2="22.531" class="figure-line"/>
    <g>
      <title>Output</title>
      <text x="591.389" y="15.684" style="font-size: 13px; white-space: pre;" class="figure-text">output</text>
    </g>
    <path style="stroke: rgb(0, 0, 0);" d="M 609.157 437.052 C 610.156 439.831 611.602 442.428 613.438 444.742 L 609.157 443.192 L 604.878 444.742 C 606.712 442.428 608.157 439.831 609.157 437.052 Z" class="figure-path"/>
    <path style="stroke: rgb(0, 0, 0);" d="M 609.158 350.692 C 610.157 353.471 611.603 356.068 613.438 358.382 L 609.158 356.832 L 604.878 358.382 C 606.713 356.068 608.158 353.471 609.158 350.692 Z" class="figure-path"/>
    <path style="stroke: rgb(0, 0, 0);" d="M 609.158 281.636 C 610.157 284.415 611.603 287.012 613.438 289.326 L 609.158 287.776 L 604.878 289.326 C 606.713 287.012 608.158 284.415 609.158 281.636 Z" class="figure-path"/>
    <path style="stroke: rgb(0, 0, 0);" d="M 609.158 195.276 C 610.157 198.055 611.603 200.652 613.438 202.966 L 609.158 201.416 L 604.878 202.966 C 606.713 200.652 608.158 198.055 609.158 195.276 Z" class="figure-path"/>
    <path style="stroke: rgb(0, 0, 0);" d="M 609.158 126.221 C 610.157 129 611.603 131.597 613.438 133.911 L 609.158 132.361 L 604.878 133.911 C 606.713 131.597 608.158 129 609.158 126.221 Z" class="figure-path"/>
    <path style="stroke: rgb(0, 0, 0);" d="M 609.158 22.531 C 610.157 25.31 611.603 27.907 613.438 30.221 L 609.158 28.671 L 604.878 30.221 C 606.714 27.907 608.158 25.31 609.158 22.531 Z" class="figure-path"/>
    <g transform="matrix(0.9999999999999999, 0, 0, 0.9999999999999999, -87.75824015111863, 37.63495427362767)">
      <title>Output</title>
      <text x="575.278" y="17.544" style="font-size: 13px; white-space: pre;" class="figure-text">FiLM-ed network</text>
    </g>
  </g>
  <g transform="matrix(1, 0, 0, 1, 144.902435, 27.552868)" class="film-layer">
    <title>FiLM</title>
    <rect x="353.255" y="278.092" width="222" height="45.047" style="fill: none; stroke: rgb(0, 0, 0);" class="figure-element figure-box figure-film-layer"/>
    <text x="450.695" y="305.358" style="font-size: 13px; white-space: pre;" class="figure-text">FiLM</text>
  </g>
  <g transform="matrix(1, 0, 0, 1, 144.902481, -96.725906)" class="film-layer">
    <title>FiLM</title>
    <rect x="353.255" y="246.955" width="222" height="45.047" style="fill: none; stroke: rgb(0, 0, 0);" class="figure-element figure-box figure-film-layer"/>
    <text x="450.706" y="274.215" style="font-size: 13px; white-space: pre;" class="figure-text">FiLM</text>
  </g>
  <rect x="493.139" y="105.246" width="48.433" height="327.554" style="fill: none; stroke: rgb(0, 0, 0);" class="figure-group figure-box" transform="matrix(0.999999, 0, 0, 1, -120.705225, -21.089162)"/>
  <g transform="matrix(1, 0, 0, 1, -64.403244, -132.472992)">
    <title>FiLM Parameters</title>
    <rect x="446.055" y="232.473" width="30" height="140" style="fill: none; stroke: rgb(0, 0, 0);" class="figure-element figure-box"/>
    <text x="450.706" y="274.215" style="font-size: 13px; white-space: pre;" class="figure-text" transform="matrix(0, -1, 1, 0, 191.759125, 799.02771)">FiLM parameters</text>
  </g>
  <g transform="matrix(1, 0, 0, 1, -73.168266, 23.13402)">
    <title>FiLM Parameters</title>
    <rect x="454.821" y="236.866" width="30" height="140" style="fill: none; stroke: rgb(0, 0, 0);" class="figure-element figure-box"/>
    <text x="450.706" y="274.215" style="font-size: 13px; white-space: pre;" class="figure-text" transform="matrix(0, -1, 1, 0, 200.52417, 803.420715)">FiLM parameters</text>
  </g>
  <line style="stroke: rgb(0, 0, 0);" x1="411.653" y1="172.753" x2="498.157" y2="172.753" class="figure-line"/>
  <line style="stroke: rgb(0, 0, 0);" x1="411.653" y1="328.168" x2="498.158" y2="328.168" class="figure-line"/>
  <path style="stroke: rgb(0, 0, 0);" d="M 134.146 250 C 131.367 250.999 128.77 252.445 126.456 254.28 L 128.006 250 L 126.456 245.72 C 128.77 247.555 131.367 249 134.146 250 Z" class="figure-path"/>
  <path style="stroke: rgb(0, 0, 0);" d="M 372.433 250 C 369.654 250.999 367.057 252.445 364.743 254.28 L 366.293 250 L 364.743 245.72 C 367.057 247.555 369.654 249 372.433 250 Z" class="figure-path"/>
  <path style="stroke: rgb(0, 0, 0);" d="M 498.157 172.753 C 495.378 173.752 492.781 175.198 490.467 177.033 L 492.017 172.753 L 490.467 168.473 C 492.781 170.308 495.378 171.753 498.157 172.753 Z" class="figure-path"/>
  <path style="stroke: rgb(0, 0, 0);" d="M 498.157 328.168 C 495.378 329.167 492.781 330.613 490.467 332.448 L 492.017 328.168 L 490.467 323.888 C 492.781 325.723 495.378 327.168 498.157 328.168 Z" class="figure-path"/>
</svg>
