<?xml version="1.0" encoding="utf-8"?>
<svg viewBox="0 0 744 340" xmlns="http://www.w3.org/2000/svg" xmlns:xlink="http://www.w3.org/1999/xlink">
  <defs>
    <symbol id="arrow-right" viewBox="0 0 7.69 8.56">
      <title>Right arrow</title>
      <path style="stroke: rgb(0, 0, 0);" d="M 7.69 4.28 C 4.911 5.279 2.314 6.725 0 8.56 L 1.55 4.28 L 0 0 C 2.314 1.835 4.911 3.28 7.69 4.28 Z" class="figure-path"/>
    </symbol>
    <symbol id="arrow-up" viewBox="0 0 8.56 7.69">
      <title>Up arrow</title>
      <path style="stroke: rgb(0, 0, 0);" d="M 4.28 0 a 27.2 27.2 0 0 0 4.28 7.69 L 4.28 6.14 l -4.28 1.55 A 27.17 27.17 0 0 0 4.28 0 Z" class="figure-path"/>
    </symbol>
    <symbol id="arrow-left" viewBox="0 0 7.69 8.56">
      <title>Left arrow</title>
      <path style="stroke: rgb(0, 0, 0);" d="M 0 4.28 a 27.2 27.2 0 0 0 7.69 -4.28 L 6.14 4.28 l 1.55 4.28 A 27.18 27.18 0 0 0 0 4.28 Z" class="figure-path"/>
    </symbol>
    <symbol id="arrow-down" viewBox="0 0 8.56 7.69">
      <title>Down arrow</title>
      <path style="stroke: rgb(0, 0, 0);" d="M 4.28 7.69 a 27.2 27.2 0 0 0 -4.28 -7.69 l 4.28 1.55 4.28 -1.55 A 27.18 27.18 0 0 0 4.28 7.69 Z" class="figure-path"/>
    </symbol>
  </defs>
  <g transform="matrix(1, 0, 0, 1, 12.167987, -27.098)" id="mlp-figure">
    <title>gating</title>
    <rect x="-2.168" y="37.098" width="724" height="320" style="fill: none; stroke: rgb(0, 0, 0);" class="figure-group figure-box"/>
    <text x="5.819" y="57.768" style="font-size: 13px; white-space: pre;" class="figure-text">Gating</text>
    <g transform="matrix(1, 0, 0, 1, 79.770432, -57.220444)">
      <title>y_1</title>
      <g transform="matrix(1, 0, 0, 1, 14.739582, 217.867477)">
        <title>x</title>
        <path style="fill: none; stroke: rgb(0, 0, 0);" transform="matrix(1, 0, 0, 1, 0, 0)" d="M 0 6 a 6 6 0 0 1 6 -6 l 14 0 l 0 20 l -14 0 a 6 6 0 0 1 -6 -6 Z" class="figure-element"/>
        <path style="fill: none; stroke: rgb(0, 0, 0);" transform="matrix(1, 0, 0, 1, 20, 0)" d="M 0 0 l 20 0 l 0 20 l -20 0 Z" class="figure-element"/>
        <path style="fill: none; stroke: rgb(0, 0, 0);" transform="matrix(1, 0, 0, 1, 40, 0)" d="M 0 0 l 14 0 a 6 6 0 0 1 6 6 l 0 8 a 6 6 0 0 1 -6 6 l -14 0 Z" class="figure-element"/>
        <text x="59.454" y="324.652" style="font-size: 13px; white-space: pre;" class="figure-text" transform="matrix(0.999998, 0, 0, 1, -32.593624, -291.984375)">x</text>
      </g>
      <text x="59.454" y="324.652" style="font-size: 13px; white-space: pre;" class="figure-text" transform="matrix(0.999998, 0, 0, 1, -35.80299, 25.788195)">σ</text>
      <path style="fill: none; stroke: rgb(0, 0, 0);" d="M 43.317 316.121 C 34.386 316.121 34.386 374.971 43.317 374.971" class="figure-line"/>
      <path style="fill: none; stroke: rgb(0, 0, 0);" d="M 145.282 316.121 C 136.351 316.121 136.351 374.971 145.282 374.971" class="figure-line" transform="matrix(-1, 0, 0, -1, 283.865761, 691.092065)"/>
      <path style="fill: none; stroke: rgb(0, 0, 0);" class="figure-line" d="M 36.619 313.121 C 36.619 297.121 90.95 313.121 90.95 297.121 C 90.95 313.121 145.282 297.121 145.282 313.121"/>
      <g transform="matrix(1, 0, 0, 1, 48.316677, 316.120758)">
        <title>W_1</title>
        <path style="fill: none; stroke: rgb(0, 0, 0);" transform="matrix(1, 0, 0, 1, 0, 0)" d="M 0 6 a 6 6 0 0 1 6 -6 l 14 0 l 0 20 l -20 0 Z" class="figure-element"/>
        <path style="fill: none; stroke: rgb(0, 0, 0);" transform="matrix(1, 0, 0, 1, 20, 0)" d="M 0 0 l 20 0 l 0 20 l -20 0 Z" class="figure-element"/>
        <path style="fill: none; stroke: rgb(0, 0, 0);" transform="matrix(1, 0, 0, 1, 40, 0)" d="M 0 0 l 14 0 a 6 6 0 0 1 6 6 l 0 14l -20 0 Z" class="figure-element"/>
        <path style="fill: none; stroke: rgb(0, 0, 0);" transform="matrix(1, 0, 0, 1, 0, 20)" d="M 0 0 l 20 0 l 0 20 l -20 0 Z" class="figure-element figure-faded"/>
        <path style="fill: none; stroke: rgb(0, 0, 0);" transform="matrix(1, 0, 0, 1, 20, 20)" d="M 0 0 l 20 0 l 0 20 l -20 0 Z" class="figure-element figure-faded"/>
        <path style="fill: none; stroke: rgb(0, 0, 0);" transform="matrix(1, 0, 0, 1, 40, 20)" d="M 0 0 l 20 0 l 0 20 l -20 0 Z" class="figure-element figure-faded"/>
        <path style="fill: none; stroke: rgb(0, 0, 0);" transform="matrix(1, 0, 0, 1, 0, 40)" d="M 0 0 l 20 0 l 0 20 l -14 0 a 6 6 0 0 1 -6 -6 Z" class="figure-element figure-faded"/>
        <path style="fill: none; stroke: rgb(0, 0, 0);" transform="matrix(1, 0, 0, 1, 20, 40)" d="M 0 0 l 20 0 l 0 20 l -20 0 Z" class="figure-element figure-faded"/>
        <path style="fill: none; stroke: rgb(0, 0, 0);" transform="matrix(1, 0, 0, 1, 40, 40)" d="M 0 0 l 20 0 l 0 14 a 6 6 0 0 1 -6 6 l -14 0 Z" class="figure-element figure-faded"/>
        <text x="24.008" y="75.43" style="font-size: 13px; white-space: pre;" class="figure-text">W</text>
        <text x="36.004" y="77.425" class="figure-text subscript" style="font-size: 13px; white-space: pre;">1</text>
      </g>
      <g transform="matrix(0, 1, -1, 0, 133.316681, 316.120728)">
        <title>z</title>
        <path style="fill: none; stroke: rgb(0, 0, 0);" transform="matrix(1, 0, 0, 1, 0, 0)" d="M 0 6 a 6 6 0 0 1 6 -6 l 14 0 l 0 20 l -14 0 a 6 6 0 0 1 -6 -6 Z" class="figure-element"/>
        <path style="fill: none; stroke: rgb(0, 0, 0);" transform="matrix(1, 0, 0, 1, 20, 0)" d="M 0 0 l 20 0 l 0 20 l -20 0 Z" class="figure-element"/>
        <path style="fill: none; stroke: rgb(0, 0, 0);" transform="matrix(1, 0, 0, 1, 40, 0)" d="M 0 0 l 14 0 a 6 6 0 0 1 6 6 l 0 8 a 6 6 0 0 1 -6 6 l -14 0 Z" class="figure-element"/>
        <text x="59.454" y="324.652" style="font-size: 13px; white-space: pre;" class="figure-text" transform="matrix(0, -0.999996, 1, 0, -251.984375, 72.593506)">z</text>
      </g>
      <g transform="matrix(0, 1, -1, 0, 99.739563, 217.867462)">
        <title>W_1 z</title>
        <path style="fill: none; stroke: rgb(0, 0, 0);" transform="matrix(1, 0, 0, 1, 0, 0)" d="M 0 6 a 6 6 0 0 1 6 -6 l 14 0 l 0 20 l -14 0 a 6 6 0 0 1 -6 -6 Z" class="figure-element"/>
        <path style="fill: none; stroke: rgb(0, 0, 0);" transform="matrix(1, 0, 0, 1, 20, 0)" d="M 0 0 l 20 0 l 0 20 l -20 0 Z" class="figure-element figure-faded"/>
        <path style="fill: none; stroke: rgb(0, 0, 0);" transform="matrix(1, 0, 0, 1, 40, 0)" d="M 0 0 l 14 0 a 6 6 0 0 1 6 6 l 0 8 a 6 6 0 0 1 -6 6 l -14 0 Z" class="figure-element figure-faded"/>
        <text x="59.454" y="324.652" style="font-size: 13px; white-space: pre;" class="figure-text" transform="matrix(0, -0.999996, 1, 0, -251.984375, 81.702843)">W  z</text>
        <text x="89.886" y="282.322" class="figure-text subscript" style="font-size: 13px; white-space: pre;" transform="matrix(0, -1, 1, 0, -205.73082, 100.816574)">1</text>
      </g>
      <path style="fill: none; stroke: rgb(0, 0, 0);" class="figure-line" d="M 14.74 217.867 C 14.74 203.58 59.575 217.867 59.575 203.58 C 59.575 217.867 104.411 203.58 104.411 217.867"/>
    </g>
    <g transform="matrix(1, 0, 0, 1, 284.960052, -57.220451)">
      <title>y_2</title>
      <g transform="matrix(1, 0, 0, 1, 14.739582, 217.867477)">
        <title>x</title>
        <path style="fill: none; stroke: rgb(0, 0, 0);" transform="matrix(1, 0, 0, 1, 0, 0)" d="M 0 6 a 6 6 0 0 1 6 -6 l 14 0 l 0 20 l -14 0 a 6 6 0 0 1 -6 -6 Z" class="figure-element"/>
        <path style="fill: none; stroke: rgb(0, 0, 0);" transform="matrix(1, 0, 0, 1, 20, 0)" d="M 0 0 l 20 0 l 0 20 l -20 0 Z" class="figure-element"/>
        <path style="fill: none; stroke: rgb(0, 0, 0);" transform="matrix(1, 0, 0, 1, 40, 0)" d="M 0 0 l 14 0 a 6 6 0 0 1 6 6 l 0 8 a 6 6 0 0 1 -6 6 l -14 0 Z" class="figure-element"/>
        <text x="59.454" y="324.652" style="font-size: 13px; white-space: pre;" class="figure-text" transform="matrix(0.999998, 0, 0, 1, -32.593624, -291.984375)">x</text>
      </g>
      <text x="59.454" y="324.652" style="font-size: 13px; white-space: pre;" class="figure-text" transform="matrix(0.999998, 0, 0, 1, -35.80299, 25.788195)">σ</text>
      <path style="fill: none; stroke: rgb(0, 0, 0);" d="M 43.317 316.121 C 34.386 316.121 34.386 374.971 43.317 374.971" class="figure-line"/>
      <path style="fill: none; stroke: rgb(0, 0, 0);" d="M 145.282 316.121 C 136.351 316.121 136.351 374.971 145.282 374.971" class="figure-line" transform="matrix(-1, 0, 0, -1, 283.865761, 691.092065)"/>
      <path style="fill: none; stroke: rgb(0, 0, 0);" class="figure-line" d="M 36.619 313.121 C 36.619 297.121 90.95 313.121 90.95 297.121 C 90.95 313.121 145.282 297.121 145.282 313.121"/>
      <g transform="matrix(1, 0, 0, 1, 48.316677, 316.120758)">
        <title>W_2</title>
        <path style="fill: none; stroke: rgb(0, 0, 0);" transform="matrix(1, 0, 0, 1, 0, 0)" d="M 0 6 a 6 6 0 0 1 6 -6 l 14 0 l 0 20 l -20 0 Z" class="figure-element"/>
        <path style="fill: none; stroke: rgb(0, 0, 0);" transform="matrix(1, 0, 0, 1, 20, 0)" d="M 0 0 l 20 0 l 0 20 l -20 0 Z" class="figure-element"/>
        <path style="fill: none; stroke: rgb(0, 0, 0);" transform="matrix(1, 0, 0, 1, 40, 0)" d="M 0 0 l 14 0 a 6 6 0 0 1 6 6 l 0 14l -20 0 Z" class="figure-element"/>
        <path style="fill: none; stroke: rgb(0, 0, 0);" transform="matrix(1, 0, 0, 1, 0, 20)" d="M 0 0 l 20 0 l 0 20 l -20 0 Z" class="figure-element figure-faded"/>
        <path style="fill: none; stroke: rgb(0, 0, 0);" transform="matrix(1, 0, 0, 1, 20, 20)" d="M 0 0 l 20 0 l 0 20 l -20 0 Z" class="figure-element figure-faded"/>
        <path style="fill: none; stroke: rgb(0, 0, 0);" transform="matrix(1, 0, 0, 1, 40, 20)" d="M 0 0 l 20 0 l 0 20 l -20 0 Z" class="figure-element figure-faded"/>
        <path style="fill: none; stroke: rgb(0, 0, 0);" transform="matrix(1, 0, 0, 1, 0, 40)" d="M 0 0 l 20 0 l 0 20 l -14 0 a 6 6 0 0 1 -6 -6 Z" class="figure-element figure-faded"/>
        <path style="fill: none; stroke: rgb(0, 0, 0);" transform="matrix(1, 0, 0, 1, 20, 40)" d="M 0 0 l 20 0 l 0 20 l -20 0 Z" class="figure-element figure-faded"/>
        <path style="fill: none; stroke: rgb(0, 0, 0);" transform="matrix(1, 0, 0, 1, 40, 40)" d="M 0 0 l 20 0 l 0 14 a 6 6 0 0 1 -6 6 l -14 0 Z" class="figure-element figure-faded"/>
        <text x="24.008" y="75.43" style="font-size: 13px; white-space: pre;" class="figure-text">W</text>
        <text x="36.004" y="77.425" class="figure-text subscript" style="font-size: 13px; white-space: pre;">2</text>
      </g>
      <g transform="matrix(0, 1, -1, 0, 133.316681, 316.120728)">
        <title>z</title>
        <path style="fill: none; stroke: rgb(0, 0, 0);" transform="matrix(1, 0, 0, 1, 0, 0)" d="M 0 6 a 6 6 0 0 1 6 -6 l 14 0 l 0 20 l -14 0 a 6 6 0 0 1 -6 -6 Z" class="figure-element"/>
        <path style="fill: none; stroke: rgb(0, 0, 0);" transform="matrix(1, 0, 0, 1, 20, 0)" d="M 0 0 l 20 0 l 0 20 l -20 0 Z" class="figure-element"/>
        <path style="fill: none; stroke: rgb(0, 0, 0);" transform="matrix(1, 0, 0, 1, 40, 0)" d="M 0 0 l 14 0 a 6 6 0 0 1 6 6 l 0 8 a 6 6 0 0 1 -6 6 l -14 0 Z" class="figure-element"/>
        <text x="59.454" y="324.652" style="font-size: 13px; white-space: pre;" class="figure-text" transform="matrix(0, -0.999996, 1, 0, -251.984375, 72.593506)">z</text>
      </g>
      <g transform="matrix(0, 1, -1, 0, 99.739563, 217.867462)">
        <title>W_2 z</title>
        <path style="fill: none; stroke: rgb(0, 0, 0);" transform="matrix(1, 0, 0, 1, 0, 0)" d="M 0 6 a 6 6 0 0 1 6 -6 l 14 0 l 0 20 l -14 0 a 6 6 0 0 1 -6 -6 Z" class="figure-element"/>
        <path style="fill: none; stroke: rgb(0, 0, 0);" transform="matrix(1, 0, 0, 1, 20, 0)" d="M 0 0 l 20 0 l 0 20 l -20 0 Z" class="figure-element figure-faded"/>
        <path style="fill: none; stroke: rgb(0, 0, 0);" transform="matrix(1, 0, 0, 1, 40, 0)" d="M 0 0 l 14 0 a 6 6 0 0 1 6 6 l 0 8 a 6 6 0 0 1 -6 6 l -14 0 Z" class="figure-element figure-faded"/>
        <text x="59.454" y="324.652" style="font-size: 13px; white-space: pre;" class="figure-text" transform="matrix(0, -0.999996, 1, 0, -251.984375, 81.702843)">W  z</text>
        <text x="89.886" y="282.322" class="figure-text subscript" style="font-size: 13px; white-space: pre;" transform="matrix(0, -1, 1, 0, -205.73082, 100.816574)">2</text>
      </g>
      <path style="fill: none; stroke: rgb(0, 0, 0);" class="figure-line" d="M 14.74 217.867 C 14.74 203.58 59.575 217.867 59.575 203.58 C 59.575 217.867 104.411 203.58 104.411 217.867"/>
    </g>
    <g transform="matrix(1, 0, 0, 1, 509.290375, -57.220451)">
      <title>y_3</title>
      <g transform="matrix(1, 0, 0, 1, 14.739582, 217.867477)">
        <title>x</title>
        <path style="fill: none; stroke: rgb(0, 0, 0);" transform="matrix(1, 0, 0, 1, 0, 0)" d="M 0 6 a 6 6 0 0 1 6 -6 l 14 0 l 0 20 l -14 0 a 6 6 0 0 1 -6 -6 Z" class="figure-element"/>
        <path style="fill: none; stroke: rgb(0, 0, 0);" transform="matrix(1, 0, 0, 1, 20, 0)" d="M 0 0 l 20 0 l 0 20 l -20 0 Z" class="figure-element"/>
        <path style="fill: none; stroke: rgb(0, 0, 0);" transform="matrix(1, 0, 0, 1, 40, 0)" d="M 0 0 l 14 0 a 6 6 0 0 1 6 6 l 0 8 a 6 6 0 0 1 -6 6 l -14 0 Z" class="figure-element"/>
        <text x="59.454" y="324.652" style="font-size: 13px; white-space: pre;" class="figure-text" transform="matrix(0.999998, 0, 0, 1, -32.593624, -291.984375)">x</text>
      </g>
      <text x="59.454" y="324.652" style="font-size: 13px; white-space: pre;" class="figure-text" transform="matrix(0.999998, 0, 0, 1, -35.80299, 25.788195)">σ</text>
      <path style="fill: none; stroke: rgb(0, 0, 0);" d="M 43.317 316.121 C 34.386 316.121 34.386 374.971 43.317 374.971" class="figure-line"/>
      <path style="fill: none; stroke: rgb(0, 0, 0);" d="M 145.282 316.121 C 136.351 316.121 136.351 374.971 145.282 374.971" class="figure-line" transform="matrix(-1, 0, 0, -1, 283.865761, 691.092065)"/>
      <path style="fill: none; stroke: rgb(0, 0, 0);" class="figure-line" d="M 36.619 313.121 C 36.619 297.121 90.95 313.121 90.95 297.121 C 90.95 313.121 145.282 297.121 145.282 313.121"/>
      <g transform="matrix(1, 0, 0, 1, 48.316677, 316.120758)">
        <title>W_3</title>
        <path style="fill: none; stroke: rgb(0, 0, 0);" transform="matrix(1, 0, 0, 1, 0, 0)" d="M 0 6 a 6 6 0 0 1 6 -6 l 14 0 l 0 20 l -20 0 Z" class="figure-element"/>
        <path style="fill: none; stroke: rgb(0, 0, 0);" transform="matrix(1, 0, 0, 1, 20, 0)" d="M 0 0 l 20 0 l 0 20 l -20 0 Z" class="figure-element"/>
        <path style="fill: none; stroke: rgb(0, 0, 0);" transform="matrix(1, 0, 0, 1, 40, 0)" d="M 0 0 l 14 0 a 6 6 0 0 1 6 6 l 0 14l -20 0 Z" class="figure-element"/>
        <path style="fill: none; stroke: rgb(0, 0, 0);" transform="matrix(1, 0, 0, 1, 0, 20)" d="M 0 0 l 20 0 l 0 20 l -20 0 Z" class="figure-element figure-faded"/>
        <path style="fill: none; stroke: rgb(0, 0, 0);" transform="matrix(1, 0, 0, 1, 20, 20)" d="M 0 0 l 20 0 l 0 20 l -20 0 Z" class="figure-element figure-faded"/>
        <path style="fill: none; stroke: rgb(0, 0, 0);" transform="matrix(1, 0, 0, 1, 40, 20)" d="M 0 0 l 20 0 l 0 20 l -20 0 Z" class="figure-element figure-faded"/>
        <path style="fill: none; stroke: rgb(0, 0, 0);" transform="matrix(1, 0, 0, 1, 0, 40)" d="M 0 0 l 20 0 l 0 20 l -14 0 a 6 6 0 0 1 -6 -6 Z" class="figure-element figure-faded"/>
        <path style="fill: none; stroke: rgb(0, 0, 0);" transform="matrix(1, 0, 0, 1, 20, 40)" d="M 0 0 l 20 0 l 0 20 l -20 0 Z" class="figure-element figure-faded"/>
        <path style="fill: none; stroke: rgb(0, 0, 0);" transform="matrix(1, 0, 0, 1, 40, 40)" d="M 0 0 l 20 0 l 0 14 a 6 6 0 0 1 -6 6 l -14 0 Z" class="figure-element figure-faded"/>
        <text x="24.008" y="75.43" style="font-size: 13px; white-space: pre;" class="figure-text">W</text>
        <text x="36.004" y="77.425" class="figure-text subscript" style="font-size: 13px; white-space: pre;">3</text>
      </g>
      <g transform="matrix(0, 1, -1, 0, 133.316681, 316.120728)">
        <title>z</title>
        <path style="fill: none; stroke: rgb(0, 0, 0);" transform="matrix(1, 0, 0, 1, 0, 0)" d="M 0 6 a 6 6 0 0 1 6 -6 l 14 0 l 0 20 l -14 0 a 6 6 0 0 1 -6 -6 Z" class="figure-element"/>
        <path style="fill: none; stroke: rgb(0, 0, 0);" transform="matrix(1, 0, 0, 1, 20, 0)" d="M 0 0 l 20 0 l 0 20 l -20 0 Z" class="figure-element"/>
        <path style="fill: none; stroke: rgb(0, 0, 0);" transform="matrix(1, 0, 0, 1, 40, 0)" d="M 0 0 l 14 0 a 6 6 0 0 1 6 6 l 0 8 a 6 6 0 0 1 -6 6 l -14 0 Z" class="figure-element"/>
        <text x="59.454" y="324.652" style="font-size: 13px; white-space: pre;" class="figure-text" transform="matrix(0, -0.999996, 1, 0, -251.984375, 72.593506)">z</text>
      </g>
      <g transform="matrix(0, 1, -1, 0, 99.739563, 217.867462)">
        <title>W_3 z</title>
        <path style="fill: none; stroke: rgb(0, 0, 0);" transform="matrix(1, 0, 0, 1, 0, 0)" d="M 0 6 a 6 6 0 0 1 6 -6 l 14 0 l 0 20 l -14 0 a 6 6 0 0 1 -6 -6 Z" class="figure-element"/>
        <path style="fill: none; stroke: rgb(0, 0, 0);" transform="matrix(1, 0, 0, 1, 20, 0)" d="M 0 0 l 20 0 l 0 20 l -20 0 Z" class="figure-element figure-faded"/>
        <path style="fill: none; stroke: rgb(0, 0, 0);" transform="matrix(1, 0, 0, 1, 40, 0)" d="M 0 0 l 14 0 a 6 6 0 0 1 6 6 l 0 8 a 6 6 0 0 1 -6 6 l -14 0 Z" class="figure-element figure-faded"/>
        <text x="59.454" y="324.652" style="font-size: 13px; white-space: pre;" class="figure-text" transform="matrix(0, -0.999996, 1, 0, -251.984375, 81.702843)">W  z</text>
        <text x="89.886" y="282.322" class="figure-text subscript" style="font-size: 13px; white-space: pre;" transform="matrix(0, -1, 1, 0, -205.73082, 100.816574)">3</text>
      </g>
      <path style="fill: none; stroke: rgb(0, 0, 0);" class="figure-line" d="M 14.74 217.867 C 14.74 203.58 59.575 217.867 59.575 203.58 C 59.575 217.867 104.411 203.58 104.411 217.867"/>
    </g>
    <g transform="matrix(1, 0, 0, 1, 299.83194, 47.13044)">
      <title>y</title>
      <path style="fill: none; stroke: rgb(0, 0, 0);" transform="matrix(1, 0, 0, 1, 0, 0)" d="M 0 6 a 6 6 0 0 1 6 -6 l 34 0 l 0 40 l -34 0 a 6 6 0 0 1 -6 -6 Z" class="figure-element"/>
      <path style="fill: none; stroke: rgb(0, 0, 0);" transform="matrix(1, 0, 0, 1, 40, 0)" d="M 0 0 l 40 0 l 0 40 l -40 0 Z" class="figure-element"/>
      <path style="fill: none; stroke: rgb(0, 0, 0);" transform="matrix(1, 0, 0, 1, 80, 0)" d="M 0 0 l 34 0 a 6 6 0 0 1 6 6 l 0 28 a 6 6 0 0 1 -6 6 l -34 0 Z" class="figure-element"/>
      <text x="-11.49" y="25.033" style="font-size: 13px; white-space: pre;" class="figure-text">y</text>
    </g>
    <use width="8.5600004196167" height="7.690000057220459" transform="matrix(1, 0, 0, 1, 315.55194091796875, 87.13043975830078)" xlink:href="#arrow-up"/>
    <use width="8.5600004196167" height="7.690000057220459" transform="matrix(1, 0, 0, 1, 355.5519104003906, 87.13043975830078)" xlink:href="#arrow-up"/>
    <use width="8.5600004196167" height="7.690000057220459" transform="matrix(1, 0, 0, 1, 395.55194091796875, 87.13043975830078)" xlink:href="#arrow-up"/>
    <path style="fill: none; stroke: rgb(0, 0, 0);" class="figure-line" d="M 399.832 87.13 C 390.684 146.36 568.465 108.805 568.465 140.037"/>
    <path style="fill: none; stroke: rgb(0, 0, 0);" class="figure-line" d="M 359.832 87.13 C 364.112 121.964 345.196 121.278 345.196 140.037"/>
    <path style="fill: none; stroke: rgb(0, 0, 0);" class="figure-line" d="M 319.832 87.13 C 329.905 146.36 139.486 101.777 139.486 140.037"/>
  </g>
</svg>
