<?xml version="1.0" encoding="utf-8"?>
<svg viewBox="0 0 744 110" xmlns="http://www.w3.org/2000/svg">
  <g transform="matrix(1, 0, 0, 1, -51.71875, -38.539066)">
    <text x="61.733" y="93.431" style="font-size: 13px; white-space: pre;" class="figure-text"><tspan>W</tspan><tspan class="subscript">1</tspan><tspan> =</tspan></text>
    <g transform="matrix(1, 0, 0, 1, 95.46875, 48.867065)">
      <path style="fill: none; stroke: rgb(0, 0, 0);" d="M 0 5.672 C 0 2.358 2.686 -0.328 6 -0.328 L 20 -0.328 L 20 19.672 L 6 19.672 C 2.686 19.672 0 16.986 0 13.672 Z" class="figure-element" transform="matrix(0, 1, -1, 0, 19.671998, -0.327999)"/>
      <path style="fill: none; stroke: rgb(0, 0, 0);" d="M 0 19.672 L 20 19.672 L 20 39.672 L 0 39.672 Z" class="figure-element figure-faded"/>
      <path style="fill: none; stroke: rgb(0, 0, 0);" d="M 0 39.672 L 20 39.672 L 20 59.672 L 0 59.672 Z" class="figure-element figure-faded"/>
      <path style="fill: none; stroke: rgb(0, 0, 0);" d="M 0 59.672 L 14 59.672 C 17.313 59.672 20 62.358 20 65.672 L 20 73.672 C 20 76.986 17.313 79.672 14 79.672 L 0 79.672 Z" class="figure-element figure-faded" transform="matrix(0, 1, -1, 0, 79.671993, 59.671996)"/>
    </g>
    <g transform="matrix(1, 0, 0, 1, 120.46875, 78.867065)" id="w-1">
      <path style="fill: none; stroke: rgb(0, 0, 0);" d="M 0 5.672 C 0 2.358 2.686 -0.328 6 -0.328 L 20 -0.328 L 20 19.672 L 6 19.672 C 2.686 19.672 0 16.986 0 13.672 Z" class="figure-element"/>
      <path style="fill: none; stroke: rgb(0, 0, 0);" d="M 20 -0.328 L 40 -0.328 L 40 19.672 L 20 19.672 Z" class="figure-element"/>
      <path style="fill: none; stroke: rgb(0, 0, 0);" d="M 40 -0.328 L 54 -0.328 C 57.314 -0.328 60 2.358 60 5.672 L 60 13.672 C 60 16.986 57.314 19.672 54 19.672 L 40 19.672 Z" class="figure-element"/>
    </g>
    <text x="185.472" y="93.434" style="font-size: 13px; white-space: pre;" class="figure-text">=</text>
    <g transform="matrix(1, 0, 0, 1, 198.312515, 48.867065)" id="w-1-full">
      <path style="fill: none; stroke: rgb(0, 0, 0);" d="M 0 5.672 C 0 2.358 2.686 -0.328 6 -0.328 L 20 -0.328 L 20 19.672 L 0 19.672 Z" class="figure-element"/>
      <path style="fill: none; stroke: rgb(0, 0, 0);" d="M 20 -0.328 L 40 -0.328 L 40 19.672 L 20 19.672 Z" class="figure-element"/>
      <path style="fill: none; stroke: rgb(0, 0, 0);" d="M 40 -0.328 L 54 -0.328 C 57.314 -0.328 60 2.358 60 5.672 L 60 19.672 L 40 19.672 Z" class="figure-element"/>
      <path style="fill: none; stroke: rgb(0, 0, 0);" d="M 0 19.672 L 20 19.672 L 20 39.672 L 0 39.672 Z" class="figure-element figure-faded"/>
      <path style="fill: none; stroke: rgb(0, 0, 0);" d="M 20 19.672 L 40 19.672 L 40 39.672 L 20 39.672 Z" class="figure-element figure-faded"/>
      <path style="fill: none; stroke: rgb(0, 0, 0);" d="M 40 19.672 L 60 19.672 L 60 39.672 L 40 39.672 Z" class="figure-element figure-faded"/>
      <path style="fill: none; stroke: rgb(0, 0, 0);" d="M 0 39.672 L 20 39.672 L 20 59.672 L 0 59.672 Z" class="figure-element figure-faded"/>
      <path style="fill: none; stroke: rgb(0, 0, 0);" d="M 20 39.672 L 40 39.672 L 40 59.672 L 20 59.672 Z" class="figure-element figure-faded"/>
      <path style="fill: none; stroke: rgb(0, 0, 0);" d="M 40 39.672 L 60 39.672 L 60 59.672 L 40 59.672 Z" class="figure-element figure-faded"/>
      <path style="fill: none; stroke: rgb(0, 0, 0);" d="M 0 59.672 L 20 59.672 L 20 79.672 L 6 79.672 C 2.686 79.672 0 76.986 0 73.672 Z" class="figure-element figure-faded"/>
      <path style="fill: none; stroke: rgb(0, 0, 0);" d="M 20 59.672 L 40 59.672 L 40 79.672 L 20 79.672 Z" class="figure-element figure-faded"/>
      <path style="fill: none; stroke: rgb(0, 0, 0);" d="M 40 59.672 L 60 59.672 L 60 73.672 C 60 76.986 57.314 79.672 54 79.672 L 40 79.672 Z" class="figure-element figure-faded"/>
    </g>
  </g>
  <g transform="matrix(1, 0, 0, 1, 211.984085, -38.539059)">
    <text x="61.733" y="93.431" style="font-size: 13px; white-space: pre;" class="figure-text"><tspan>W</tspan><tspan class="subscript">3</tspan><tspan> =</tspan></text>
    <g transform="matrix(1, 0, 0, 1, 95.46875, 48.867065)">
      <path style="fill: none; stroke: rgb(0, 0, 0);" d="M 0 5.672 C 0 2.358 2.686 -0.328 6 -0.328 L 20 -0.328 L 20 19.672 L 6 19.672 C 2.686 19.672 0 16.986 0 13.672 Z" class="figure-element figure-faded" transform="matrix(0, 1, -1, 0, 19.671998, -0.327999)"/>
      <path style="fill: none; stroke: rgb(0, 0, 0);" d="M 0 19.672 L 20 19.672 L 20 39.672 L 0 39.672 Z" class="figure-element"/>
      <path style="fill: none; stroke: rgb(0, 0, 0);" d="M 0 39.672 L 20 39.672 L 20 59.672 L 0 59.672 Z" class="figure-element figure-faded"/>
      <path style="fill: none; stroke: rgb(0, 0, 0);" d="M 0 59.672 L 14 59.672 C 17.313 59.672 20 62.358 20 65.672 L 20 73.672 C 20 76.986 17.313 79.672 14 79.672 L 0 79.672 Z" class="figure-element figure-faded" transform="matrix(0, 1, -1, 0, 79.671993, 59.671996)"/>
    </g>
    <g transform="matrix(1, 0, 0, 1, 120.46875, 78.867065)" id="w-2">
      <path style="fill: none; stroke: rgb(0, 0, 0);" d="M 0 5.672 C 0 2.358 2.686 -0.328 6 -0.328 L 20 -0.328 L 20 19.672 L 6 19.672 C 2.686 19.672 0 16.986 0 13.672 Z" class="figure-element"/>
      <path style="fill: none; stroke: rgb(0, 0, 0);" d="M 20 -0.328 L 40 -0.328 L 40 19.672 L 20 19.672 Z" class="figure-element"/>
      <path style="fill: none; stroke: rgb(0, 0, 0);" d="M 40 -0.328 L 54 -0.328 C 57.314 -0.328 60 2.358 60 5.672 L 60 13.672 C 60 16.986 57.314 19.672 54 19.672 L 40 19.672 Z" class="figure-element"/>
    </g>
    <text x="185.472" y="93.434" style="font-size: 13px; white-space: pre;" class="figure-text">=</text>
    <g transform="matrix(1, 0, 0, 1, 198.312515, 48.867065)" id="w-2-full">
      <path style="fill: none; stroke: rgb(0, 0, 0);" d="M 0 5.672 C 0 2.358 2.686 -0.328 6 -0.328 L 20 -0.328 L 20 19.672 L 0 19.672 Z" class="figure-element figure-faded"/>
      <path style="fill: none; stroke: rgb(0, 0, 0);" d="M 20 -0.328 L 40 -0.328 L 40 19.672 L 20 19.672 Z" class="figure-element figure-faded"/>
      <path style="fill: none; stroke: rgb(0, 0, 0);" d="M 40 -0.328 L 54 -0.328 C 57.314 -0.328 60 2.358 60 5.672 L 60 19.672 L 40 19.672 Z" class="figure-element figure-faded"/>
      <path style="fill: none; stroke: rgb(0, 0, 0);" d="M 0 19.672 L 20 19.672 L 20 39.672 L 0 39.672 Z" class="figure-element"/>
      <path style="fill: none; stroke: rgb(0, 0, 0);" d="M 20 19.672 L 40 19.672 L 40 39.672 L 20 39.672 Z" class="figure-element"/>
      <path style="fill: none; stroke: rgb(0, 0, 0);" d="M 40 19.672 L 60 19.672 L 60 39.672 L 40 39.672 Z" class="figure-element"/>
      <path style="fill: none; stroke: rgb(0, 0, 0);" d="M 0 39.672 L 20 39.672 L 20 59.672 L 0 59.672 Z" class="figure-element figure-faded"/>
      <path style="fill: none; stroke: rgb(0, 0, 0);" d="M 20 39.672 L 40 39.672 L 40 59.672 L 20 59.672 Z" class="figure-element figure-faded"/>
      <path style="fill: none; stroke: rgb(0, 0, 0);" d="M 40 39.672 L 60 39.672 L 60 59.672 L 40 59.672 Z" class="figure-element figure-faded"/>
      <path style="fill: none; stroke: rgb(0, 0, 0);" d="M 0 59.672 L 20 59.672 L 20 79.672 L 6 79.672 C 2.686 79.672 0 76.986 0 73.672 Z" class="figure-element figure-faded"/>
      <path style="fill: none; stroke: rgb(0, 0, 0);" d="M 20 59.672 L 40 59.672 L 40 79.672 L 20 79.672 Z" class="figure-element figure-faded"/>
      <path style="fill: none; stroke: rgb(0, 0, 0);" d="M 40 59.672 L 60 59.672 L 60 73.672 C 60 76.986 57.314 79.672 54 79.672 L 40 79.672 Z" class="figure-element figure-faded"/>
    </g>
  </g>
  <g transform="matrix(1, 0, 0, 1, 475.68689, -38.539059)">
    <text x="61.733" y="93.431" style="font-size: 13px; white-space: pre;" class="figure-text"><tspan>W</tspan><tspan class="subscript">2</tspan><tspan> =</tspan></text>
    <g transform="matrix(1, 0, 0, 1, 95.46875, 48.867065)">
      <path style="fill: none; stroke: rgb(0, 0, 0);" d="M 0 5.672 C 0 2.358 2.686 -0.328 6 -0.328 L 20 -0.328 L 20 19.672 L 6 19.672 C 2.686 19.672 0 16.986 0 13.672 Z" class="figure-element figure-faded" transform="matrix(0, 1, -1, 0, 19.671998, -0.327999)"/>
      <path style="fill: none; stroke: rgb(0, 0, 0);" d="M 0 19.672 L 20 19.672 L 20 39.672 L 0 39.672 Z" class="figure-element figure-faded"/>
      <path style="fill: none; stroke: rgb(0, 0, 0);" d="M 0 39.672 L 20 39.672 L 20 59.672 L 0 59.672 Z" class="figure-element"/>
      <path style="fill: none; stroke: rgb(0, 0, 0);" d="M 0 59.672 L 14 59.672 C 17.313 59.672 20 62.358 20 65.672 L 20 73.672 C 20 76.986 17.313 79.672 14 79.672 L 0 79.672 Z" class="figure-element figure-faded" transform="matrix(0, 1, -1, 0, 79.671993, 59.671996)"/>
    </g>
    <g transform="matrix(1, 0, 0, 1, 120.46875, 78.867065)" id="w-3">
      <path style="fill: none; stroke: rgb(0, 0, 0);" d="M 0 5.672 C 0 2.358 2.686 -0.328 6 -0.328 L 20 -0.328 L 20 19.672 L 6 19.672 C 2.686 19.672 0 16.986 0 13.672 Z" class="figure-element"/>
      <path style="fill: none; stroke: rgb(0, 0, 0);" d="M 20 -0.328 L 40 -0.328 L 40 19.672 L 20 19.672 Z" class="figure-element"/>
      <path style="fill: none; stroke: rgb(0, 0, 0);" d="M 40 -0.328 L 54 -0.328 C 57.314 -0.328 60 2.358 60 5.672 L 60 13.672 C 60 16.986 57.314 19.672 54 19.672 L 40 19.672 Z" class="figure-element"/>
    </g>
    <text x="185.472" y="93.434" style="font-size: 13px; white-space: pre;" class="figure-text">=</text>
    <g transform="matrix(1, 0, 0, 1, 198.312515, 48.867065)" id="w-3-full">
      <path style="fill: none; stroke: rgb(0, 0, 0);" d="M 0 5.672 C 0 2.358 2.686 -0.328 6 -0.328 L 20 -0.328 L 20 19.672 L 0 19.672 Z" class="figure-element figure-faded"/>
      <path style="fill: none; stroke: rgb(0, 0, 0);" d="M 20 -0.328 L 40 -0.328 L 40 19.672 L 20 19.672 Z" class="figure-element figure-faded"/>
      <path style="fill: none; stroke: rgb(0, 0, 0);" d="M 40 -0.328 L 54 -0.328 C 57.314 -0.328 60 2.358 60 5.672 L 60 19.672 L 40 19.672 Z" class="figure-element figure-faded"/>
      <path style="fill: none; stroke: rgb(0, 0, 0);" d="M 0 19.672 L 20 19.672 L 20 39.672 L 0 39.672 Z" class="figure-element figure-faded"/>
      <path style="fill: none; stroke: rgb(0, 0, 0);" d="M 20 19.672 L 40 19.672 L 40 39.672 L 20 39.672 Z" class="figure-element figure-faded"/>
      <path style="fill: none; stroke: rgb(0, 0, 0);" d="M 40 19.672 L 60 19.672 L 60 39.672 L 40 39.672 Z" class="figure-element figure-faded"/>
      <path style="fill: none; stroke: rgb(0, 0, 0);" d="M 0 39.672 L 20 39.672 L 20 59.672 L 0 59.672 Z" class="figure-element"/>
      <path style="fill: none; stroke: rgb(0, 0, 0);" d="M 20 39.672 L 40 39.672 L 40 59.672 L 20 59.672 Z" class="figure-element"/>
      <path style="fill: none; stroke: rgb(0, 0, 0);" d="M 40 39.672 L 60 39.672 L 60 59.672 L 40 59.672 Z" class="figure-element"/>
      <path style="fill: none; stroke: rgb(0, 0, 0);" d="M 0 59.672 L 20 59.672 L 20 79.672 L 6 79.672 C 2.686 79.672 0 76.986 0 73.672 Z" class="figure-element figure-faded"/>
      <path style="fill: none; stroke: rgb(0, 0, 0);" d="M 20 59.672 L 40 59.672 L 40 79.672 L 20 79.672 Z" class="figure-element figure-faded"/>
      <path style="fill: none; stroke: rgb(0, 0, 0);" d="M 40 59.672 L 60 59.672 L 60 73.672 C 60 76.986 57.314 79.672 54 79.672 L 40 79.672 Z" class="figure-element figure-faded"/>
    </g>
  </g>
</svg>
