<?xml version="1.0" encoding="utf-8"?>
<svg viewBox="0 0 744 700" xmlns="http://www.w3.org/2000/svg">
  <g transform="matrix(1, 0, 0, 1, 341.796143, 423.387695)" class="film-generator">
    <title>linguistic pipeline</title>
    <rect x="5.11" y="-261.01" width="313.145" height="439.82" style="fill: none; stroke: rgb(0, 0, 0);" class="figure-group figure-box figure-film-generator"/>
    <text x="19.125" y="-235.831" style="font-size: 13px; white-space: pre;" class="figure-text">linguistic pipeline</text>
    <text x="139.184" y="214.94" style="font-size: 13px; white-space: pre;" class="figure-text">Is the umbrella upside down?</text>
    <g transform="matrix(1, 0, 0, 1, 13.888788, -112.685486)">
      <rect x="119.376" y="237.233" width="169.181" height="37.366" style="fill: none; stroke: rgb(0, 0, 0);" class="figure-element figure-box"/>
      <text x="187.53" y="260.83" style="font-size: 13px; white-space: pre;" class="figure-text">LSTM</text>
    </g>
    <path style="fill: none; stroke: rgb(0, 0, 0);" d="M 217.855 202.391 L 217.855 161.913" class="figure-line"/>
    <path style="fill: none; stroke: rgb(0, 0, 0);" d="M 217.855 124.548 L 217.855 -341.965" class="figure-line"/>
    <path style="fill: none; stroke: rgb(0, 0, 0);" d="M 217.855 12.833 L 128.654 12.833" class="figure-line"/>
    <path style="fill: none; stroke: rgb(0, 0, 0);" d="M 217.855 -185.969 L 128.654 -185.969" class="figure-line"/>
  </g>
  <g transform="matrix(1, 0, 0, 1, 204.316269, 180.304184)">
    <title>MLP</title>
    <rect x="152.791" y="237.233" width="113.085" height="37.366" style="fill: none; stroke: rgb(0, 0, 0);" class="figure-element figure-box"/>
    <text x="196.331" y="260.83" style="font-size: 13px; white-space: pre;" class="figure-text">MLP</text>
  </g>
  <g transform="matrix(1, 0, 0, 1, -33.506149, 74.654167)" class="filmed-network">
    <title>visual pipeline</title>
    <rect x="107.35" y="87.721" width="260.241" height="439.82" style="fill: none; stroke: rgb(0, 0, 0);" class="figure-group figure-box figure-filmed-network"/>
    <g transform="matrix(1, 0, 0, 1, 43.461544, 233.766617)">
      <rect x="100.717" y="237.233" width="186.588" height="37.366" style="fill: none; stroke: rgb(0, 0, 0);" class="figure-element figure-box"/>
      <text x="159.226" y="260.83" style="font-size: 13px; white-space: pre;" class="figure-text">sub-network</text>
    </g>
    <text x="122.032" y="112.918" style="font-size: 13px; white-space: pre;" class="figure-text">visual pipeline</text>
    <g transform="matrix(1, 0, 0, 1, 41.435547, 148.059616)">
      <rect x="102.741" y="178.336" width="186.59" height="127.772" style="fill: none; stroke: rgb(0, 0, 0);" class="figure-element figure-box"/>
      <text x="125.154" y="300.607" style="font-size: 13px; white-space: pre;" class="figure-text" transform="matrix(0, -1, 1, 0, -182.305878, 420.745653)">batch normalization</text>
      <g transform="matrix(1, 0, 0, 1, 835.669128, -35.389072)">
        <rect x="-700.855" y="287.646" width="139.111" height="37.366" style="fill: none; stroke: rgb(0, 0, 0);" class="figure-element figure-box"/>
        <text x="-667.783" y="311.181" style="font-size: 13px; white-space: pre;" class="figure-text">normalization</text>
      </g>
    </g>
    <g transform="matrix(1, 0, 0, 1, 43.463581, 34.964592)">
      <rect x="100.715" y="237.233" width="186.588" height="37.366" style="fill: none; stroke: rgb(0, 0, 0);" class="figure-element figure-box"/>
      <text x="159.224" y="260.83" style="font-size: 13px; white-space: pre;" class="figure-text">sub-network</text>
    </g>
    <g transform="matrix(1, 0, 0, 1, 41.437584, -50.742428)">
      <rect x="102.741" y="178.336" width="186.59" height="127.772" style="fill: none; stroke: rgb(0, 0, 0);" class="figure-element figure-box"/>
      <text x="125.154" y="300.607" style="font-size: 13px; white-space: pre;" class="figure-text" transform="matrix(0, -1, 1, 0, -182.305878, 420.745653)">batch normalization</text>
      <g transform="matrix(1, 0, 0, 1, 835.669128, -35.389072)">
        <rect x="-700.855" y="287.646" width="139.111" height="37.366" style="fill: none; stroke: rgb(0, 0, 0);" class="figure-element figure-box"/>
        <text x="-667.783" y="311.181" style="font-size: 13px; white-space: pre;" class="figure-text">normalization</text>
      </g>
    </g>
    <path style="fill: none; stroke: rgb(0, 0, 0);" d="M 245.806 471 L 245.806 437.683" class="figure-line"/>
    <path style="fill: none; stroke: rgb(0, 0, 0);" d="M 245.806 400.317 L 245.806 380.251" class="figure-line"/>
    <path style="fill: none; stroke: rgb(0, 0, 0);" d="M 390.614 361.566 L 315.362 361.566" class="figure-line"/>
    <path style="fill: none; stroke: rgb(0, 0, 0);" d="M 245.806 272.198 L 245.806 238.881" class="figure-line"/>
    <path style="fill: none; stroke: rgb(0, 0, 0);" d="M 245.806 144.079 L 245.806 65.928" class="figure-line"/>
    <path style="fill: none; stroke: rgb(0, 0, 0);" d="M 245.806 201.515 L 245.806 181.449" class="figure-line"/>
    <path style="fill: none; stroke: rgb(0, 0, 0);" d="M 390.614 162.764 L 315.363 162.764" class="figure-line"/>
    <path style="fill: none; stroke: rgb(0, 0, 0);" d="M 245.806 551.124 L 245.806 508.366" class="figure-line"/>
    <path style="fill: none; stroke: rgb(0, 0, 0);" d="M 245.806 343.001 L 245.806 309.986" class="figure-line"/>
  </g>
  <g transform="matrix(1, 0, 0, 1, 833.926758, 140.930649)" class="film-layer">
    <rect x="-749.554" y="425.112" width="139.11" height="37.37" style="fill: none; stroke: rgb(0, 0, 0);" class="figure-element figure-box figure-film-layer" transform="matrix(1, 0, 0, 0.999999, 58.372131, -148.387043)"/>
    <text x="-678.001" y="300.262" style="font-size: 13px; white-space: pre;" class="figure-text">affine transformation</text>
  </g>
  <g transform="matrix(1, 0, 0, 1, 833.926758, -57.991344)" class="film-layer">
    <rect x="-749.554" y="425.112" width="139.11" height="37.37" style="fill: none; stroke: rgb(0, 0, 0);" class="figure-element figure-box figure-film-layer" transform="matrix(1, 0, 0, 0.999999, 58.372131, -148.387043)"/>
    <text x="-678.001" y="300.262" style="font-size: 13px; white-space: pre;" class="figure-text">affine transformation</text>
  </g>
  <text x="380.123" y="22.691" style="font-size: 13px; white-space: pre;" class="figure-text">Answer: no</text>
  <g transform="matrix(1, 0, 0, 1, -269.792145, 117.892921)">
    <title>attention</title>
    <rect x="343.636" y="-14.677" width="260.24" height="37.366" style="fill: none; stroke: rgb(0, 0, 0);" class="figure-element figure-box"/>
    <text x="449.672" y="8.996" style="font-size: 13px; white-space: pre;" class="figure-text">attention</text>
  </g>
  <g transform="matrix(1, 0, 0, 1, -5.002855, 58.733662)">
    <title>fusion block</title>
    <rect x="155.846" y="-14.677" width="519.313" height="37.366" style="fill: none; stroke: rgb(0, 0, 0);" class="figure-group figure-box"/>
    <text x="381.564" y="9.521" style="font-size: 13px; white-space: pre;" class="figure-text">fusion block</text>
  </g>
  <rect x="180.299" y="625.778" width="64" height="64" style="fill: rgb(216, 216, 216);" id="image-placeholder">
    <title>image placeholder</title>
  </rect>
  <g transform="matrix(1, 0, 0, 1, 204.316254, -18.497852)">
    <title>MLP</title>
    <rect x="152.791" y="237.233" width="113.085" height="37.366" style="fill: none; stroke: rgb(0, 0, 0);" class="figure-element figure-box"/>
    <text x="196.331" y="260.83" style="font-size: 13px; white-space: pre;" class="figure-text">MLP</text>
  </g>
  <path style="fill: none; stroke: rgb(0, 0, 0);" d="M 212.299 103.216 L 212.299 81.422" class="figure-line"/>
  <path style="fill: none; stroke: rgb(0, 0, 0);" d="M 410.497 44.056 L 410.497 30.19" class="figure-line"/>
  <path style="stroke: rgb(0, 0, 0);" d="M 212.299 583.02 C 213.299 585.799 214.744 588.396 216.579 590.71 L 212.299 589.16 L 208.019 590.71 C 209.854 588.397 211.3 585.799 212.299 583.02 Z" class="figure-path"/>
  <path style="stroke: rgb(0, 0, 0);" d="M 212.299 512.337 C 213.299 515.116 214.744 517.713 216.579 520.027 L 212.299 518.477 L 208.019 520.027 C 209.854 517.713 211.3 515.116 212.299 512.337 Z" class="figure-path"/>
  <path style="stroke: rgb(0, 0, 0);" d="M 212.299 455.025 C 213.299 457.804 214.744 460.401 216.579 462.715 L 212.299 461.165 L 208.019 462.715 C 209.854 460.401 211.3 457.804 212.299 455.025 Z" class="figure-path"/>
  <path style="stroke: rgb(0, 0, 0);" d="M 212.299 384.218 C 213.299 386.996 214.744 389.594 216.579 391.908 L 212.299 390.358 L 208.019 391.908 C 209.854 389.594 211.3 386.997 212.299 384.218 Z" class="figure-path"/>
  <path style="stroke: rgb(0, 0, 0);" d="M 212.299 313.535 C 213.299 316.314 214.744 318.911 216.579 321.225 L 212.299 319.676 L 208.019 321.225 C 209.854 318.912 211.3 316.314 212.299 313.535 Z" class="figure-path"/>
  <path style="stroke: rgb(0, 0, 0);" d="M 212.299 256.103 C 213.299 258.882 214.744 261.479 216.579 263.793 L 212.299 262.243 L 208.019 263.793 C 209.854 261.48 211.3 258.882 212.299 256.103 Z" class="figure-path"/>
  <path style="stroke: rgb(0, 0, 0);" d="M 212.299 140.582 C 213.299 143.361 214.744 145.958 216.579 148.272 L 212.299 146.722 L 208.019 148.272 C 209.854 145.958 211.3 143.361 212.299 140.582 Z" class="figure-path"/>
  <path style="stroke: rgb(0, 0, 0);" d="M 212.299 81.423 C 213.299 84.201 214.744 86.799 216.579 89.113 L 212.299 87.563 L 208.019 89.113 C 209.854 86.799 211.3 84.202 212.299 81.423 Z" class="figure-path"/>
  <path style="stroke: rgb(0, 0, 0);" d="M 410.497 30.19 C 411.497 32.969 412.942 35.566 414.777 37.88 L 410.497 36.33 L 406.217 37.88 C 408.052 35.566 409.498 32.969 410.497 30.19 Z" class="figure-path"/>
  <path style="stroke: rgb(0, 0, 0);" d="M 559.651 81.423 C 560.65 84.201 562.096 86.799 563.931 89.113 L 559.651 87.563 L 555.371 89.113 C 557.206 86.799 558.651 84.202 559.651 81.423 Z" class="figure-path"/>
  <path style="stroke: rgb(0, 0, 0);" d="M 559.651 585.301 C 560.651 588.079 562.096 590.677 563.931 592.991 L 559.651 591.441 L 555.371 592.991 C 557.206 590.677 558.652 588.079 559.651 585.301 Z" class="figure-path"/>
  <path style="stroke: rgb(0, 0, 0);" d="M 281.857 237.418 C 284.636 236.418 287.233 234.972 289.547 233.138 L 287.997 237.418 L 289.547 241.698 C 287.233 239.863 284.636 238.417 281.857 237.418 Z" class="figure-path"/>
  <path style="stroke: rgb(0, 0, 0);" d="M 281.856 436.22 C 284.635 435.22 287.232 433.774 289.546 431.94 L 287.996 436.22 L 289.546 440.5 C 287.232 438.665 284.635 437.219 281.856 436.22 Z" class="figure-path"/>
  <path style="stroke: rgb(0, 0, 0);" d="M 470.45 237.419 C 473.229 236.419 475.826 234.973 478.14 233.139 L 476.59 237.419 L 478.14 241.699 C 475.826 239.864 473.229 238.418 470.45 237.419 Z" class="figure-path"/>
  <path style="stroke: rgb(0, 0, 0);" d="M 470.45 436.221 C 473.229 435.221 475.826 433.775 478.14 431.941 L 476.59 436.221 L 478.14 440.501 C 475.826 438.666 473.229 437.22 470.45 436.221 Z" class="figure-path"/>
</svg>
