<?xml version="1.0" encoding="utf-8"?>
<svg viewBox="0 0 744 500" xmlns="http://www.w3.org/2000/svg">
  <g transform="matrix(1, 0, 0, 1, -172.376999, 190.014893)">
    <rect x="400.613" y="155.801" width="133.48" height="30.425" style="fill: none; stroke: rgb(0, 0, 0);" class="figure-element figure-box" transform="matrix(1, 0, 0, 1, 77.023987, 88.300886)"/>
    <text x="530.237" y="264.353" style="font-size: 13px; white-space: pre;" class="figure-text">input</text>
  </g>
  <g transform="matrix(1, 0, 0, 1, 141.560104, 34)">
    <rect x="86.676" y="183.349" width="133.483" height="173.54" style="fill: none; stroke: rgb(0, 0, 0);" class="figure-group figure-box"/>
    <text x="108.668" y="274.933" style="font-size: 13px; white-space: pre;" class="figure-text">expert network 1</text>
  </g>
  <g transform="matrix(1, 0, 0, 1, 301.480927, 33.999985)">
    <rect x="86.676" y="183.349" width="133.483" height="173.54" style="fill: none; stroke: rgb(0, 0, 0);" class="figure-group figure-box"/>
    <text x="107.871" y="274.933" style="font-size: 13px; white-space: pre;" class="figure-text">expert network 2</text>
  </g>
  <g transform="matrix(1, 0, 0, 1, 459.826691, 33.999989)">
    <rect x="86.676" y="183.349" width="133.483" height="173.54" style="fill: none; stroke: rgb(0, 0, 0);" class="figure-group figure-box"/>
    <text x="107.71" y="274.933" style="font-size: 13px; white-space: pre;" class="figure-text">expert network 3</text>
  </g>
  <g transform="matrix(1, 0, 0, 1, 10.497303, -92.677002)">
    <rect x="53.517" y="359.927" width="133.483" height="123.639" style="fill: none; stroke: rgb(0, 0, 0);" class="figure-group figure-box"/>
    <text x="79.862" y="426.638" style="font-size: 13px; white-space: pre;" class="figure-text">gating network</text>
  </g>
  <g transform="matrix(1, 0, 0, 1, 294.978027, 175.496933)">
    <ellipse style="stroke: rgb(0, 0, 0); fill: none;" cx="0" cy="0" rx="15" ry="15" class="figure-element"/>
    <ellipse rx="2" ry="2" style="fill: none; stroke: rgb(0, 0, 0);" class="figure-path"/>
  </g>
  <g transform="matrix(1, 0, 0, 1, 454.89801, 145.496933)">
    <ellipse style="stroke: rgb(0, 0, 0); fill: none;" cx="0" cy="0" rx="15" ry="15" class="figure-element"/>
    <ellipse rx="2" ry="2" style="fill: none; stroke: rgb(0, 0, 0);" class="figure-path"/>
  </g>
  <g transform="matrix(1, 0, 0, 1, 613.244019, 115.496933)">
    <ellipse style="stroke: rgb(0, 0, 0); fill: none;" cx="0" cy="0" rx="15" ry="15" class="figure-element"/>
    <ellipse rx="2" ry="2" style="fill: none; stroke: rgb(0, 0, 0);" class="figure-path"/>
  </g>
  <g transform="matrix(1, 0, 0, 1, 454.89801, 45.47509)">
    <ellipse style="stroke: rgb(0, 0, 0); fill: none;" cx="0" cy="0" rx="15" ry="15" class="figure-element"/>
    <line style="stroke: rgb(0, 0, 0);" x1="0" y1="5" x2="0" y2="-5" class="figure-line"/>
    <line style="stroke: rgb(0, 0, 0);" x1="-5" y1="0" x2="5" y2="0" class="figure-line"/>
  </g>
  <path style="fill: none; stroke: rgb(0, 0, 0);" d="M 294.978 217.349 L 294.978 190.497" class="figure-line"/>
  <path style="fill: none; stroke: rgb(0, 0, 0);" d="M 454.898 217.349 L 454.898 160.497" class="figure-line"/>
  <path style="fill: none; stroke: rgb(0, 0, 0);" d="M 613.244 217.349 L 613.244 130.497" class="figure-line"/>
  <path style="fill: none; stroke: rgb(0, 0, 0);" d="M 454.898 30.475 L 454.898 6.924" class="figure-line"/>
  <path style="stroke: rgb(0, 0, 0);" d="M 130.756 390.889 C 131.755 393.668 133.201 396.265 135.036 398.579 L 130.756 397.029 L 126.476 398.579 C 128.311 396.266 129.756 393.668 130.756 390.889 Z" class="figure-path"/>
  <path style="stroke: rgb(0, 0, 0);" d="M 294.978 390.889 C 295.977 393.668 297.423 396.265 299.258 398.579 L 294.978 397.029 L 290.698 398.579 C 292.533 396.266 293.978 393.668 294.978 390.889 Z" class="figure-path"/>
  <path style="stroke: rgb(0, 0, 0);" d="M 454.898 390.889 C 455.897 393.668 457.343 396.265 459.178 398.579 L 454.898 397.029 L 450.618 398.579 C 452.453 396.266 453.898 393.668 454.898 390.889 Z" class="figure-path"/>
  <path style="stroke: rgb(0, 0, 0);" d="M 613.244 390.889 C 614.243 393.668 615.689 396.265 617.524 398.579 L 613.244 397.029 L 608.964 398.579 C 610.799 396.266 612.244 393.668 613.244 390.889 Z" class="figure-path"/>
  <path style="stroke: rgb(0, 0, 0);" d="M 294.978 190.497 C 295.977 193.276 297.423 195.873 299.258 198.187 L 294.978 196.637 L 290.698 198.187 C 292.533 195.874 293.978 193.276 294.978 190.497 Z" class="figure-path"/>
  <path style="stroke: rgb(0, 0, 0);" d="M 454.898 160.497 C 455.897 163.276 457.343 165.873 459.178 168.187 L 454.898 166.637 L 450.618 168.187 C 452.453 165.874 453.898 163.276 454.898 160.497 Z" class="figure-path"/>
  <path style="stroke: rgb(0, 0, 0);" d="M 613.244 130.497 C 614.243 133.276 615.689 135.873 617.524 138.187 L 613.244 136.637 L 608.964 138.187 C 610.799 135.874 612.244 133.276 613.244 130.497 Z" class="figure-path"/>
  <path style="stroke: rgb(0, 0, 0);" d="M 454.898 6.924 C 455.897 9.703 457.343 12.3 459.178 14.614 L 454.898 13.064 L 450.618 14.614 C 452.453 12.301 453.898 9.703 454.898 6.924 Z" class="figure-path"/>
  <path style="stroke: rgb(0, 0, 0);" d="M 279.978 175.497 C 277.199 176.496 274.602 177.942 272.288 179.777 L 273.838 175.497 L 272.288 171.217 C 274.602 173.052 277.199 174.497 279.978 175.497 Z" class="figure-path figure-filmed-network-arrow"/>
  <path style="stroke: rgb(0, 0, 0);" d="M 439.898 145.497 C 437.119 146.496 434.522 147.942 432.208 149.777 L 433.758 145.497 L 432.208 141.217 C 434.522 143.052 437.119 144.497 439.898 145.497 Z" class="figure-path figure-filmed-network-arrow"/>
  <path style="stroke: rgb(0, 0, 0);" d="M 598.244 115.497 C 595.465 116.496 592.868 117.942 590.554 119.777 L 592.104 115.497 L 590.554 111.217 C 592.868 113.052 595.465 114.497 598.244 115.497 Z" class="figure-path figure-filmed-network-arrow"/>
  <path style="stroke: rgb(0, 0, 0);" d="M 439.898 45.475 C 437.119 46.474 434.522 47.92 432.208 49.755 L 433.758 45.475 L 432.208 41.195 C 434.522 43.03 437.119 44.475 439.898 45.475 Z" class="figure-path figure-filmed-network-arrow"/>
  <path style="stroke: rgb(0, 0, 0);" d="M 469.898 45.475 C 472.677 44.475 475.274 43.03 477.588 41.195 L 476.038 45.475 L 477.588 49.755 C 475.274 47.92 472.677 46.474 469.898 45.475 Z" class="figure-path"/>
  <path style="stroke: rgb(0, 0, 0);" d="M 454.898 60.475 C 455.897 63.254 457.343 65.851 459.178 68.165 L 454.898 66.615 L 450.618 68.165 C 452.453 65.852 453.898 63.254 454.898 60.475 Z" class="figure-path"/>
  <path style="fill: none; stroke: rgb(0, 0, 0);" d="M 454.898 130.497 L 454.898 60.475" class="figure-line"/>
  <path style="fill: none; stroke: rgb(0, 0, 0);" d="M 146.758 216.836 L 146.758 175.497 L 279.978 175.497" class="figure-line"/>
  <path style="fill: none; stroke: rgb(0, 0, 0);" d="M 130.559 216.836 L 130.559 145.497 L 438.74 145.497" class="figure-line"/>
  <path style="fill: none; stroke: rgb(0, 0, 0);" d="M 114.559 216.836 L 114.559 115.497 L 591.1 115.497" class="figure-line"/>
  <path style="fill: none; stroke: rgb(0, 0, 0);" d="M 294.815 160.497 L 294.815 45.475 L 435.628 45.475" class="figure-line"/>
  <path style="fill: none; stroke: rgb(0, 0, 0);" d="M 613.899 100.497 L 613.899 45.475 L 469.898 45.475" class="figure-line"/>
  <path style="fill: none; stroke: rgb(0, 0, 0);" d="M 130.559 412.503 L 613.899 412.503" class="figure-line"/>
  <path style="fill: none; stroke: rgb(0, 0, 0);" d="M 372 434.117 L 372 412.503" class="figure-line"/>
  <path style="fill: none; stroke: rgb(0, 0, 0);" d="M 130.559 412.503 L 130.559 390.889" class="figure-line"/>
  <path style="fill: none; stroke: rgb(0, 0, 0);" d="M 294.815 412.503 L 294.815 390.889" class="figure-line"/>
  <path style="fill: none; stroke: rgb(0, 0, 0);" d="M 454.898 412.503 L 454.898 390.889" class="figure-line"/>
  <path style="fill: none; stroke: rgb(0, 0, 0);" d="M 613.899 412.503 L 613.899 390.889" class="figure-line"/>
  <g transform="matrix(1, 0, 0, 1, -413.61969, -27.265886)">
    <rect x="400.613" y="155.801" width="133.48" height="30.425" style="fill: none; stroke: rgb(0, 0, 0);" class="figure-element figure-box" transform="matrix(1, 0, 0, 1, 77.023987, 88.300886)"/>
    <text x="522.45" y="264.175" style="font-size: 13px; white-space: pre;" class="figure-text">softmax</text>
  </g>
  <path style="stroke: rgb(0, 0, 0);" d="M 114.756 247.985 C 115.755 250.764 117.201 253.361 119.036 255.675 L 114.756 254.125 L 110.476 255.675 C 112.311 253.362 113.756 250.764 114.756 247.985 Z" class="figure-path"/>
  <path style="stroke: rgb(0, 0, 0);" d="M 130.756 247.985 C 131.755 250.764 133.201 253.361 135.036 255.675 L 130.756 254.125 L 126.476 255.675 C 128.311 253.362 129.756 250.764 130.756 247.985 Z" class="figure-path"/>
  <path style="stroke: rgb(0, 0, 0);" d="M 146.756 247.261 C 147.755 250.04 149.201 252.637 151.036 254.951 L 146.756 253.401 L 142.476 254.951 C 144.311 252.638 145.756 250.04 146.756 247.261 Z" class="figure-path"/>
  <path style="fill: none; stroke: rgb(0, 0, 0);" d="M 114.756 267.25 L 114.756 247.985" class="figure-line"/>
  <path style="fill: none; stroke: rgb(0, 0, 0);" d="M 130.756 267.25 L 130.756 247.985" class="figure-line"/>
  <path style="fill: none; stroke: rgb(0, 0, 0);" d="M 146.756 267.25 L 146.756 247.261" class="figure-line"/>
</svg>