<?xml version="1.0" encoding="utf-8"?>
<svg viewBox="0 0 744 500" xmlns="http://www.w3.org/2000/svg">
  <g transform="matrix(1, 0, 0, 1, 129.861893, 39.941525)" class="style-transfer-network">
    <title>PixelCNN layer</title>
    <g class="filmed-network">
      <rect x="21.358" y="26.285" width="553.794" height="367.547" style="fill: none; stroke: rgb(0, 0, 0);" class="figure-group figure-box figure-filmed-network"/>
      <text x="29.371" y="46.7" style="font-size: 13px; white-space: pre;" class="figure-text">PixelCNN layer</text>
    </g>
    <g transform="matrix(1, 0, 0, 1, -48.231125, 170.429901)">
      <rect x="122.142" y="237.233" width="143.734" height="37.366" style="fill: none; stroke: rgb(0, 0, 0);" class="figure-element figure-box"/>
      <text x="158.435" y="260.736" style="font-size: 13px; white-space: pre;" class="figure-text">vertical stack</text>
    </g>
    <g transform="matrix(1, 0, 0, 1, -48.231117, 107.367996)">
      <rect x="122.142" y="237.233" width="143.734" height="37.366" style="fill: none; stroke: rgb(0, 0, 0);" class="figure-element figure-box"/>
      <text x="153.606" y="135.187" style="font-size: 13px; white-space: pre;" transform="matrix(1, 0, 0, 1, -4.451978, 125.642685)" class="figure-text">NxN convolution</text>
    </g>
    <g transform="matrix(1, 0, 0, 1, -101.444626, -16.694113)" class="film-layer">
      <rect x="130.804" y="237.233" width="103.01" height="37.366" style="fill: none; stroke: rgb(0, 0, 0);" class="figure-element figure-box figure-film-layer"/>
      <text x="139.985" y="260.806" style="font-size: 13px; white-space: pre;" class="figure-text">conditional bias</text>
    </g>
    <g transform="matrix(1, 0, 0, 1, -82.570061, -15.02411)" class="film-layer">
      <rect x="240.644" y="235.563" width="103.01" height="37.366" style="fill: none; stroke: rgb(0, 0, 0);" class="figure-element figure-box figure-film-layer"/>
      <text x="249.825" y="259.136" style="font-size: 13px; white-space: pre;" class="figure-text">conditional bias</text>
    </g>
    <g transform="matrix(1, 0, 0, 1, -58.566044, -10.592142)" class="film-layer">
      <rect x="343.479" y="231.131" width="103.01" height="37.366" style="fill: none; stroke: rgb(0, 0, 0);" class="figure-element figure-box figure-film-layer"/>
      <text x="352.66" y="254.704" style="font-size: 13px; white-space: pre;" class="figure-text">conditional bias</text>
    </g>
    <g transform="matrix(1, 0, 0, 1, -68.891609, -12.365005)" class="film-layer">
      <rect x="481.775" y="232.904" width="103.01" height="37.366" style="fill: none; stroke: rgb(0, 0, 0);" class="figure-element figure-box figure-film-layer"/>
      <text x="490.956" y="256.477" style="font-size: 13px; white-space: pre;" class="figure-text">conditional bias</text>
    </g>
    <g transform="matrix(1, 0, 0, 1, 299.275909, 170.429871)">
      <rect x="122.142" y="237.233" width="143.734" height="37.366" style="fill: none; stroke: rgb(0, 0, 0);" class="figure-element figure-box"/>
      <text x="151.296" y="260.722" style="font-size: 13px; white-space: pre;" class="figure-text">horizontal stack</text>
    </g>
    <g transform="matrix(1, 0, 0, 1, 206.472916, 107.368004)">
      <rect x="122.142" y="237.233" width="143.734" height="37.366" style="fill: none; stroke: rgb(0, 0, 0);" class="figure-element figure-box"/>
      <text x="153.606" y="135.187" style="font-size: 13px; white-space: pre;" transform="matrix(1, 0, 0, 1, -4.451978, 125.642685)" class="figure-text">1xN convolution</text>
    </g>
    <g transform="matrix(1, 0, 0, 1, 105.759056, 54.336937)">
      <rect x="122.142" y="237.233" width="119.739" height="37.366" style="fill: none; stroke: rgb(0, 0, 0);" class="figure-element figure-box"/>
      <text x="138.516" y="260.83" style="font-size: 13px; white-space: pre;" class="figure-text">1x1 convolution</text>
    </g>
    <g transform="matrix(1, 0, 0, 1, 62.318848, -23.04941)">
      <ellipse style="stroke: rgb(0, 0, 0); fill: none;" cx="83.459" cy="144.469" rx="20" ry="20" class="figure-element"/>
      <line style="stroke: rgb(0, 0, 0); fill: none;" x1="83.459" y1="151.969" x2="83.459" y2="136.969" class="figure-line" transform="matrix(0.707107, 0.707107, -0.707107, 0.707107, 126.599566, -16.700437)"/>
      <line style="stroke: rgb(0, 0, 0); fill: none;" x1="75.959" y1="144.469" x2="90.959" y2="144.469" class="figure-line" transform="matrix(0.707107, 0.707107, -0.707107, 0.707107, 126.599566, -16.700437)"/>
    </g>
    <g transform="matrix(1, 0, 0, 1, 5.001404, -30.14143)">
      <ellipse style="stroke: rgb(0, 0, 0); fill: none;" cx="387.882" cy="151.561" rx="20" ry="20" class="figure-element"/>
      <line style="stroke: rgb(0, 0, 0); fill: none;" x1="387.882" y1="159.061" x2="387.882" y2="144.061" class="figure-line" transform="matrix(0.707107, 0.707107, -0.707107, 0.707107, 220.777672, -229.882731)"/>
      <line style="stroke: rgb(0, 0, 0); fill: none;" x1="380.382" y1="151.561" x2="395.382" y2="151.561" class="figure-line" transform="matrix(0.707107, 0.707107, -0.707107, 0.707107, 220.777672, -229.882731)"/>
    </g>
    <g transform="matrix(1, 0, 0, 1, 50.888901, -30.14143)">
      <ellipse style="stroke: rgb(0, 0, 0); fill: none;" cx="494.263" cy="83.299" rx="20" ry="20" class="figure-element"/>
      <line style="stroke: rgb(0, 0, 0); fill: none;" x1="494.263" y1="90.799" x2="494.263" y2="75.799" class="figure-line"/>
      <line style="stroke: rgb(0, 0, 0); fill: none;" x1="486.763" y1="83.299" x2="501.763" y2="83.299" class="figure-line"/>
    </g>
    <g transform="matrix(1, 0, 0, 1, 48.196926, -9.744976)">
      <ellipse style="stroke: rgb(0, 0, 0); fill: none;" cx="353.308" cy="319.998" rx="20" ry="20" class="figure-element"/>
      <line style="stroke: rgb(0, 0, 0); fill: none;" x1="353.308" y1="327.498" x2="353.308" y2="312.498" class="figure-line"/>
      <line style="stroke: rgb(0, 0, 0); fill: none;" x1="345.808" y1="319.998" x2="360.808" y2="319.998" class="figure-line"/>
    </g>
    <g transform="matrix(1, 0, 0, 1, -2.594632, 27.936357)">
      <ellipse style="stroke: rgb(0, 0, 0); fill: none;" cx="83.459" cy="144.469" rx="20" ry="20" class="figure-element"/>
      <text x="71.321" y="149.348" style="font-size: 13px; white-space: pre;" class="figure-text">tanh</text>
    </g>
    <g transform="matrix(1, 0, 0, 1, 126.119942, 27.936356)">
      <ellipse style="stroke: rgb(0, 0, 0); fill: none;" cx="83.459" cy="144.469" rx="20" ry="20" class="figure-element"/>
      <text x="79.616" y="149.348" style="font-size: 13px; white-space: pre;" class="figure-text">σ</text>
    </g>
    <g transform="matrix(1, 0, 0, 1, 252.958954, 27.936357)">
      <ellipse style="stroke: rgb(0, 0, 0); fill: none;" cx="83.459" cy="144.469" rx="20" ry="20" class="figure-element"/>
      <text x="71.321" y="149.348" style="font-size: 13px; white-space: pre;" class="figure-text">tanh</text>
    </g>
    <g transform="matrix(1, 0, 0, 1, 365.889893, 27.936356)">
      <ellipse style="stroke: rgb(0, 0, 0); fill: none;" cx="83.459" cy="144.469" rx="20" ry="20" class="figure-element"/>
      <text x="79.616" y="149.348" style="font-size: 13px; white-space: pre;" class="figure-text">σ</text>
    </g>
    <line style="stroke: rgb(0, 0, 0);" x1="145.778" y1="407.663" x2="145.778" y2="381.967" class="figure-line"/>
    <line style="stroke: rgb(0, 0, 0);" x1="80.864" y1="220.539" x2="80.864" y2="192.405" class="figure-line"/>
    <line style="stroke: rgb(0, 0, 0);" x1="209.579" y1="220.539" x2="209.579" y2="192.405" class="figure-line"/>
    <line style="stroke: rgb(0, 0, 0);" x1="545.152" y1="408.607" x2="545.152" y2="73.158" class="figure-line"/>
    <line style="stroke: rgb(0, 0, 0);" x1="347.64" y1="310.253" x2="381.505" y2="310.253" class="figure-line"/>
    <line style="stroke: rgb(0, 0, 0);" x1="401.505" y1="344.601" x2="401.505" y2="330.253" class="figure-line"/>
    <line style="stroke: rgb(0, 0, 0);" x1="336.418" y1="220.539" x2="336.418" y2="192.405" class="figure-line"/>
    <line style="stroke: rgb(0, 0, 0);" x1="449.349" y1="220.539" x2="449.349" y2="192.405" class="figure-line"/>
    <line style="stroke: rgb(0, 0, 0);" x1="144.628" y1="101.42" x2="144.628" y2="6.214" class="figure-line"/>
    <line style="stroke: rgb(0, 0, 0);" x1="545.152" y1="33.158" x2="545.152" y2="6.214" class="figure-line"/>
    <path style="fill: none; stroke: rgb(0, 0, 0);" d="M 545.152 407.663 L 545.152 363.437 L 472.349 363.437" class="figure-line"/>
    <path style="fill: none; stroke: rgb(0, 0, 0);" d="M 144.628 344.601 L 144.628 299.133 L 80.864 299.133 L 80.864 257.905" class="figure-line"/>
    <path style="fill: none; stroke: rgb(0, 0, 0);" d="M 209.579 257.905 L 209.579 303.373 L 144.628 303.373 L 144.628 344.601" class="figure-line" transform="matrix(-1, 0, 0, -1, 354.207001, 602.505982)"/>
    <path style="fill: none; stroke: rgb(0, 0, 0);" d="M 227.901 310.637 L 227.901 344.601 L 144.628 344.601" class="figure-line" transform="matrix(-1, 0, 0, -1, 372.528996, 655.238044)"/>
    <path style="fill: none; stroke: rgb(0, 0, 0);" d="M 399.804 290.253 L 399.804 273.05 L 336.04 273.05 L 336.04 257.451" class="figure-line"/>
    <path style="fill: none; stroke: rgb(0, 0, 0);" d="M 464.755 257.451 L 464.755 274.654 L 399.804 274.654 L 399.804 290.253" class="figure-line" transform="matrix(-1, 0, 0, -1, 864.558979, 547.703962)"/>
    <path style="fill: none; stroke: rgb(0, 0, 0);" d="M 449.349 152.405 L 449.349 120.533 L 412.883 120.533" class="figure-line"/>
    <path style="fill: none; stroke: rgb(0, 0, 0);" d="M 209.579 152.405 L 209.579 120.533 L 165.778 120.533" class="figure-line"/>
    <path style="fill: none; stroke: rgb(0, 0, 0);" d="M 125.778 120.533 L 125.778 152.405 L 80.864 152.405" class="figure-line" transform="matrix(-1, 0, 0, -1, 206.641998, 272.937965)"/>
    <path style="fill: none; stroke: rgb(0, 0, 0);" d="M 372.883 120.533 L 372.883 152.405 L 336.418 152.405" class="figure-line" transform="matrix(-1, 0, 0, -1, 709.300988, 272.937965)"/>
    <path style="fill: none; stroke: rgb(0, 0, 0);" d="M 525.152 53.2 L 525.152 101.42 L 397.225 101.42" class="figure-line" transform="matrix(-1, 0, 0, -1, 922.376981, 154.620021)"/>
    <g transform="matrix(1, 0, 0, 1, -305.582794, -24.958437)">
      <rect x="204.133" y="245.78" width="40.898" height="181.735" style="fill: none; stroke: rgb(0, 0, 0);" class="figure-element figure-box"/>
      <text x="153.606" y="135.187" style="font-size: 13px; white-space: pre;" transform="matrix(0, -1, 1, 0, 95.148209, 565.693085)" class="figure-text">high-level image description</text>
    </g>
    <g transform="matrix(1, 0, 0, 1, -244.406418, -59.455395)" class="film-generator">
      <rect x="204.133" y="298.268" width="40.898" height="145.752" style="fill: none; stroke: rgb(0, 0, 0);" class="figure-element figure-box figure-film-generator"/>
      <text x="153.606" y="135.187" style="font-size: 13px; white-space: pre;" transform="matrix(0, -1, 1, 0, 94.418442, 539.402328)" class="figure-text">linear</text>
    </g>
    <line style="stroke: rgb(0, 0, 0);" x1="-60.551" y1="301.36" x2="-40.273" y2="301.36" class="figure-line"/>
    <path style="stroke: rgb(0, 0, 0);" d="M -40.273 301.36 C -43.052 302.359 -45.649 303.805 -47.963 305.64 L -46.413 301.36 L -47.963 297.08 C -45.649 298.915 -43.052 300.36 -40.273 301.36 Z" class="figure-path"/>
    <line style="stroke: rgb(0, 0, 0);" x1="-60.551" y1="280.702" x2="-40.273" y2="280.702" class="figure-line"/>
    <path style="stroke: rgb(0, 0, 0);" d="M -40.273 280.702 C -43.052 281.701 -45.649 283.147 -47.963 284.982 L -46.413 280.702 L -47.963 276.422 C -45.649 278.257 -43.052 279.702 -40.273 280.702 Z" class="figure-path"/>
    <line style="stroke: rgb(0, 0, 0);" x1="-60.551" y1="322.018" x2="-40.273" y2="322.018" class="figure-line"/>
    <path style="stroke: rgb(0, 0, 0);" d="M -40.273 322.018 C -43.052 323.017 -45.649 324.463 -47.963 326.298 L -46.413 322.018 L -47.963 317.738 C -45.649 319.573 -43.052 321.018 -40.273 322.018 Z" class="figure-path"/>
    <line style="stroke: rgb(0, 0, 0);" x1="-60.551" y1="342.676" x2="-40.273" y2="342.676" class="figure-line"/>
    <path style="stroke: rgb(0, 0, 0);" d="M -40.273 342.676 C -43.052 343.675 -45.649 345.121 -47.963 346.956 L -46.413 342.676 L -47.963 338.396 C -45.649 340.231 -43.052 341.676 -40.273 342.676 Z" class="figure-path"/>
    <path d="M 0.625 322.018 C 308.097 322.018 310.744 338.396 311.618 257.905" style="fill: none; stroke: rgb(0, 0, 0);" class="figure-line figure-dashed figure-film-generator"/>
    <path d="M 0.625 342.676 C 438.662 338.396 443.159 363.437 440.789 257.905" style="fill: none; stroke: rgb(0, 0, 0);" class="figure-line figure-dashed figure-film-generator"/>
    <path style="fill: none; stroke: rgb(0, 0, 0);" d="M 0.625 280.702 C 20.903 280.702 56.195 280.702 53.916 257.758" class="figure-line figure-dashed figure-film-generator"/>
    <path style="fill: none; stroke: rgb(0, 0, 0);" d="M 0.625 301.36 C 49.117 301.36 200.344 290.253 187.085 257.291" class="figure-line figure-dashed figure-film-generator"/>
  </g>
  <path style="stroke: rgb(0, 0, 0);" d="M 275.64 421.909 C 276.64 424.688 278.085 427.285 279.92 429.599 L 275.64 428.049 L 271.36 429.599 C 273.195 427.285 274.641 424.688 275.64 421.909 Z" class="figure-path"/>
  <path style="stroke: rgb(0, 0, 0);" d="M 210.726 297.846 C 211.726 300.625 213.171 303.222 215.006 305.536 L 210.726 303.986 L 206.446 305.536 C 208.281 303.222 209.727 300.625 210.726 297.846 Z" class="figure-path"/>
  <path style="stroke: rgb(0, 0, 0);" d="M 339.441 297.846 C 340.441 300.625 341.886 303.222 343.721 305.536 L 339.441 303.986 L 335.161 305.536 C 336.996 303.222 338.442 300.625 339.441 297.846 Z" class="figure-path"/>
  <path style="stroke: rgb(0, 0, 0);" d="M 274.49 46.156 C 275.49 48.935 276.935 51.532 278.77 53.846 L 274.49 52.296 L 270.21 53.846 C 272.045 51.532 273.491 48.935 274.49 46.156 Z" class="figure-path"/>
  <path style="stroke: rgb(0, 0, 0);" d="M 339.441 232.347 C 340.441 235.126 341.886 237.723 343.721 240.037 L 339.441 238.487 L 335.161 240.037 C 336.996 237.723 338.442 235.126 339.441 232.347 Z" class="figure-path"/>
  <path style="stroke: rgb(0, 0, 0);" d="M 210.726 232.347 C 211.726 235.126 213.171 237.723 215.006 240.037 L 210.726 238.487 L 206.446 240.037 C 208.281 237.723 209.727 235.126 210.726 232.347 Z" class="figure-path"/>
  <path style="stroke: rgb(0, 0, 0);" d="M 675.014 113.099 C 676.014 115.878 677.459 118.475 679.294 120.789 L 675.014 119.239 L 670.734 120.789 C 672.569 118.475 674.015 115.878 675.014 113.099 Z" class="figure-path"/>
  <path style="stroke: rgb(0, 0, 0);" d="M 675.014 46.156 C 676.014 48.935 677.459 51.532 679.294 53.846 L 675.014 52.296 L 670.734 53.846 C 672.569 51.532 674.015 48.935 675.014 46.156 Z" class="figure-path"/>
  <path style="stroke: rgb(0, 0, 0);" d="M 579.211 232.347 C 580.211 235.126 581.656 237.723 583.491 240.037 L 579.211 238.487 L 574.931 240.037 C 576.766 237.723 578.212 235.126 579.211 232.347 Z" class="figure-path"/>
  <path style="stroke: rgb(0, 0, 0);" d="M 466.28 232.347 C 467.28 235.126 468.725 237.723 470.56 240.037 L 466.28 238.487 L 462 240.037 C 463.835 237.723 465.281 235.126 466.28 232.347 Z" class="figure-path"/>
  <path style="stroke: rgb(0, 0, 0);" d="M 466.28 297.846 C 467.28 300.625 468.725 303.222 470.56 305.536 L 466.28 303.986 L 462 305.536 C 463.835 303.222 465.281 300.625 466.28 297.846 Z" class="figure-path"/>
  <path style="stroke: rgb(0, 0, 0);" d="M 594.25 297.846 C 595.25 300.626 596.695 303.223 598.53 305.536 L 594.25 303.987 L 589.97 305.536 C 591.805 303.223 593.251 300.626 594.25 297.846 Z" class="figure-path"/>
  <path style="stroke: rgb(0, 0, 0);" d="M 531.367 370.195 C 532.367 372.974 533.812 375.571 535.647 377.885 L 531.367 376.335 L 527.087 377.885 C 528.922 375.571 530.368 372.974 531.367 370.195 Z" class="figure-path"/>
  <path style="stroke: rgb(0, 0, 0);" d="M 255.64 161.361 C 252.861 162.36 250.264 163.806 247.95 165.641 L 249.5 161.361 L 247.95 157.081 C 250.264 158.916 252.861 160.361 255.64 161.361 Z" class="figure-path"/>
  <path style="stroke: rgb(0, 0, 0);" d="M 357.763 350.194 C 354.984 351.193 352.387 352.639 350.073 354.474 L 351.623 350.194 L 350.073 345.914 C 352.387 347.749 354.984 349.194 357.763 350.194 Z" class="figure-path"/>
  <path style="stroke: rgb(0, 0, 0);" d="M 511.367 350.195 C 508.588 351.194 505.991 352.64 503.677 354.475 L 505.227 350.195 L 503.677 345.915 C 505.991 347.75 508.588 349.195 511.367 350.195 Z" class="figure-path"/>
  <path style="stroke: rgb(0, 0, 0);" d="M 502.745 161.361 C 499.966 162.36 497.369 163.806 495.055 165.641 L 496.605 161.361 L 495.055 157.081 C 497.369 158.916 499.966 160.361 502.745 161.361 Z" class="figure-path"/>
  <path style="stroke: rgb(0, 0, 0);" d="M 655.014 93.099 C 652.235 94.098 649.638 95.544 647.325 97.379 L 648.875 93.099 L 647.325 88.819 C 649.638 90.654 652.235 92.099 655.014 93.099 Z" class="figure-path"/>
  <path style="stroke: rgb(0, 0, 0);" d="M 295.64 161.361 C 298.419 160.361 301.016 158.915 303.33 157.081 L 301.78 161.361 L 303.33 165.641 C 301.016 163.806 298.419 162.36 295.64 161.361 Z" class="figure-path"/>
  <path style="stroke: rgb(0, 0, 0);" d="M 542.745 161.361 C 545.524 160.361 548.121 158.915 550.435 157.081 L 548.885 161.361 L 550.435 165.641 C 548.121 163.806 545.524 162.36 542.745 161.361 Z" class="figure-path"/>
  <path style="stroke: rgb(0, 0, 0);" d="M 602.211 403.226 C 604.99 402.226 607.587 400.78 609.901 398.946 L 608.351 403.226 L 609.901 407.506 C 607.587 405.671 604.99 404.225 602.211 403.226 Z" class="figure-path"/>
  <path style="stroke: rgb(0, 0, 0);" d="M 183.778 297.846 C 184.778 300.625 186.223 303.222 188.058 305.536 L 183.778 303.986 L 179.498 305.536 C 181.333 303.222 182.779 300.625 183.778 297.846 Z" class="figure-path figure-film-generator"/>
  <path style="stroke: rgb(0, 0, 0);" d="M 316.947 297.846 C 317.947 300.625 319.392 303.222 321.227 305.536 L 316.947 303.986 L 312.667 305.536 C 314.502 303.222 315.948 300.625 316.947 297.846 Z" class="figure-path figure-film-generator"/>
  <path style="stroke: rgb(0, 0, 0);" d="M 441.48 297.846 C 442.48 300.625 443.925 303.222 445.76 305.536 L 441.48 303.986 L 437.2 305.536 C 439.035 303.222 440.481 300.625 441.48 297.846 Z" class="figure-path figure-film-generator"/>
  <path style="stroke: rgb(0, 0, 0);" d="M 570.651 297.846 C 571.651 300.625 573.096 303.222 574.931 305.536 L 570.651 303.986 L 566.371 305.536 C 568.206 303.222 569.652 300.625 570.651 297.846 Z" class="figure-path figure-film-generator"/>
</svg>