<svg viewBox="0 0 888 420" xmlns="http://www.w3.org/2000/svg" xmlns:xlink="http://www.w3.org/1999/xlink">
  <defs>
    <path id="arrow-right" d="M 0 0 C -2.779 1 -5.376 2.445 -7.69 4.28 L -6.14 0 L -7.69 -4.28 C -5.376 -2.445 -2.779 -1 0 0 Z"/>
    <path id="arrow-down" d="M 0 0 C 1 2.779 2.445 5.376 4.28 7.69 L 0 6.14 L -4.28 7.69 C -2.444 5.376 -1 2.770 0 0 Z" transform="rotate(180, 0, 0)"/>
  </defs>
  <g transform="translate(10, 10)">
    <text x="0" y="0" dy="1em" class="figure-text">
      <tspan>
        The <tspan style="font-weight: bold;">FiLM generator</tspan>
      </tspan>
      <tspan x="0" dy="1.5em">
        predicts parameters
      </tspan>
      <tspan x="0" dy="1.5em">
        describing the
        target style.
      </tspan>
    </text>
    <text x="0" y="250" dy="1em" class="figure-text">
      <tspan>
        The <tspan style="font-weight: bold;">style transfer network</tspan>
      </tspan>
      <tspan x="0" dy="1.5em">
        is conditioned by making
      </tspan>
      <tspan x="0" dy="1.5em">
        the instance normalization
      </tspan>
      <tspan x="0" dy="1.5em">
        parameters style-dependent.
      </tspan>
    </text>
    <g transform="translate(-15, 0)">
      <image x="200" y="0" width="96" height="96" style="clip-path: inset(0 0 0 0 round 6px);" xlink:href="images/cassis_cap_lombard_opus_196.jpg"/>
      <g transform="translate(340, 0)">
        <rect width="420" height="96" class="figure-film-generator figure-element figure-box"/>
        <text x="210" y="48" dy="0.4em" style="font-weight: bold; text-anchor: middle;" class="figure-text">FiLM generator</text>
      </g>
      <g class="figure-faded">
        <path d="M 296 298 L 335 298" class="figure-line"/>
        <use xlink:href="#arrow-right" transform="translate(335, 298)" class="figure-path"/>
        <path d="M 760 298 L 789 298" class="figure-line"/>
        <use xlink:href="#arrow-right" transform="translate(789, 298)" class="figure-path"/>
        <path d="M 730 96 L 730 233" class="figure-line"/>
        <use xlink:href="#arrow-down" transform="translate(730, 233)" class="figure-path"/>
      </g>
      <path d="M 296 48 L 335 48" class="figure-line"/>
      <use xlink:href="#arrow-right" transform="translate(335, 48)" class="figure-path"/>
      <path d="M 485 96 L 485 233" class="figure-line"/>
      <use xlink:href="#arrow-down" transform="translate(485, 233)" class="figure-path"/>
      <path d="M 665 96 L 665 233" class="figure-line"/>
      <use xlink:href="#arrow-down" transform="translate(665, 233)" class="figure-path"/>
      <text x="340" y="106" dy="1em" class="figure-text">FiLM parameters</text>
      <image x="200" y="250" width="96" height="96" style="clip-path: inset(0 0 0 0 round 6px);" xlink:href="images/tuebingen_neckarfront.jpg"/>
      <g transform="translate(240, -50)">
        <g transform="translate(100, 288)">
          <rect width="60" height="120" class="figure-filmed-network figure-element figure-box figure-faded"/>
          <text x="30" y="60" dy="0.4em" style="text-anchor: middle;" transform="rotate(-90, 30, 60)" class="figure-text figure-text-faded">sub-network</text>
        </g>
        <g class="figure-faded">
          <path d="M 160 348 L 175 348" class="figure-line"/>
          <use xlink:href="#arrow-right" transform="translate(175, 348)" class="figure-path"/>
        </g>
        <g transform="translate(180, 288)">
          <rect width="30" height="120" class="figure-filmed-network figure-element figure-box figure-faded"/>
          <text x="15" y="60" dy="0.4em" style="text-anchor: middle;" transform="rotate(-90, 15, 60)" class="figure-text figure-text-faded">normalization</text>
        </g>
        <g class="figure-faded">
          <path d="M 210 348 L 225 348" class="figure-line"/>
          <use xlink:href="#arrow-right" transform="translate(225, 348)" class="figure-path"/>
        </g>
        <g transform="translate(230, 288)">
          <rect width="30" height="120" class="figure-filmed-network figure-element figure-box"/>
          <text x="15" y="60" dy="0.4em" style="font-weight: bold; text-anchor: middle;" transform="rotate(-90, 15, 60)" class="figure-text">FiLM layer</text>
        </g>
        <g class="figure-faded">
          <path d="M 260 348 L 275 348" class="figure-line"/>
          <use xlink:href="#arrow-right" transform="translate(275, 348)" class="figure-path"/>
        </g>
        <g transform="translate(280, 288)">
          <rect width="60" height="120" class="figure-filmed-network figure-element figure-box figure-faded"/>
          <text x="30" y="60" dy="0.4em" style="text-anchor: middle;" transform="rotate(-90, 30, 60)" class="figure-text figure-text-faded">sub-network</text>
        </g>
        <g class="figure-faded">
          <path d="M 340 348 L 355 348" class="figure-line"/>
          <use xlink:href="#arrow-right" transform="translate(355, 348)" class="figure-path"/>
        </g>
        <g transform="translate(360, 288)">
          <rect width="30" height="120" class="figure-filmed-network figure-element figure-box figure-faded"/>
          <text x="15" y="60" dy="0.4em" style="text-anchor: middle;" transform="rotate(-90, 15, 60)" class="figure-text figure-text-faded">normalization</text>
        </g>
        <g class="figure-faded">
          <path d="M 390 348 L 405 348" class="figure-line"/>
          <use xlink:href="#arrow-right" transform="translate(405, 348)" class="figure-path"/>
        </g>
        <g transform="translate(410, 288)">
          <rect width="30" height="120" class="figure-filmed-network figure-element figure-box"/>
          <text x="15" y="60" dy="0.4em" style="font-weight: bold; text-anchor: middle;" transform="rotate(-90, 15, 60)" class="figure-text">FiLM layer</text>
        </g>
        <g class="figure-faded">
          <path d="M 440 348 L 455 348" class="figure-line"/>
          <use xlink:href="#arrow-right" transform="translate(455, 348)" class="figure-path"/>
        </g>
        <g transform="translate(460, 288)">
          <rect width="60" height="120" class="figure-filmed-network figure-element figure-box figure-faded"/>
          <text x="30" y="60" dy="0.4em" style="text-anchor: middle;" transform="rotate(-90, 30, 60)" class="figure-text figure-text-faded">...</text>
        </g>
        <path d="M 175 410 L 175 420 L 265 420 L 265 410" style="stroke-width: 1px;" class="figure-line"/>
        <text x="175" y="420" dy="1.5em" class="figure-text">
          <tspan>
            conditional instance
          </tspan>
          <tspan x="175" dy="1.5em">
            normalization
          </tspan>
        </text>
        <path d="M 355 410 L 355 420 L 445 420 L 445 410" style="stroke-width: 1px;" class="figure-line"/>
        <text x="355" y="420" dy="1.5em" class="figure-text">
          <tspan>
            conditional instance
          </tspan>
          <tspan x="355" dy="1.5em">
            normalization
          </tspan>
        </text>
        <image x="554" y="300" width="96" height="96" style="clip-path: inset(0 0 0 0 round 6px);" xlink:href="images/tuebingen_neckarfront_cassis_cap_lombard_opus_196.jpg"/>
      </g>
    </g>
  </g>
</svg>
