<svg viewBox="0 0 704 500" xmlns="http://www.w3.org/2000/svg">
  <path d="M10,250l684,0" style="stroke-width: 1px; stroke: #666; opacity: 0.15;"/>
  <defs>
    <path id="arrow-right" d="M 0 0 C -2.779 1 -5.376 2.445 -7.69 4.28 L -6.14 0 L -7.69 -4.28 C -5.376 -2.445 -2.779 -1 0 0 Z"/>
  </defs>
  <g id="example-1" transform="translate(0, 0)">
    <image x="144" y="0" width="80" style="clip-path: inset(0 0 0 0 round 6px);" xlink:href="../images/style1.jpg"/>
    <path d="M 277 40 L 541 40" class="figure-line"/>
    <g transform="translate(0, 40)">
      <circle r="6" transform="translate(277, 0)" style="cursor: pointer;" class="figure-path"/>
      <circle r="6" transform="translate(330, 0)" style="cursor: pointer;" class="figure-path"/>
      <circle r="6" transform="translate(383, 0)" style="cursor: pointer;" class="figure-path"/>
      <circle r="6" transform="translate(435, 0)" style="cursor: pointer;" class="figure-path"/>
      <circle r="6" transform="translate(488, 0)" style="cursor: pointer;" class="figure-path"/>
      <circle r="6" transform="translate(541, 0)" style="cursor: pointer;" class="figure-path"/>
    </g>
    <image x="594" y="0" width="80" style="clip-path: inset(0 0 0 0 round 6px);" xlink:href="../images/style2.jpg"/>
    <image x="0" y="120" width="80" style="clip-path: inset(0 0 0 0 round 6px);" xlink:href="../images/content.jpg"/>
    <g transform="translate(144, 120)">
      <image x="0" y="0" width="80" style="clip-path: inset(0 0 0 0 round 6px);" xlink:href="../images/content_stylized_0.jpg"/>
      <image x="90" y="0" width="80" style="clip-path: inset(0 0 0 0 round 6px);" xlink:href="../images/content_stylized_1.jpg"/>
      <image x="180" y="0" width="80" style="clip-path: inset(0 0 0 0 round 6px);" xlink:href="../images/content_stylized_2.jpg"/>
      <image x="270" y="0" width="80" style="clip-path: inset(0 0 0 0 round 6px);" xlink:href="../images/content_stylized_3.jpg"/>
      <image x="360" y="0" width="80" style="clip-path: inset(0 0 0 0 round 6px);" xlink:href="../images/content_stylized_4.jpg"/>
      <image x="450" y="0" width="80" style="clip-path: inset(0 0 0 0 round 6px);" xlink:href="../images/content_stylized_5.jpg"/>
    </g>
    <image x="396" y="0" height="27" width="27" xlink:href="../images/pointer.svg"/>
  </g>
  <g id="example-2" transform="translate(0, 300)">
    <image x="144" y="0" width="80" style="clip-path: inset(0 0 0 0 round 6px);" xlink:href="../images/trees_in_a_lane.png"/>
    <path d="M 277 40 L 541 40" class="figure-line"/>
    <g transform="translate(0, 40)">
      <circle r="6" transform="translate(277, 0)" style="cursor: pointer;" class="figure-path"/>
      <circle r="6" transform="translate(330, 0)" style="cursor: pointer;" class="figure-path"/>
      <circle r="6" transform="translate(383, 0)" style="cursor: pointer;" class="figure-path"/>
      <circle r="6" transform="translate(435, 0)" style="cursor: pointer;" class="figure-path"/>
      <circle r="6" transform="translate(488, 0)" style="cursor: pointer;" class="figure-path"/>
      <circle r="6" transform="translate(541, 0)" style="cursor: pointer;" class="figure-path"/>
    </g>
    <image x="594" y="0" width="80" style="clip-path: inset(0 0 0 0 round 6px);" xlink:href="../images/three_fishing_boats.png"/>
    <image x="0" y="120" width="80" style="clip-path: inset(0 0 0 0 round 6px);" xlink:href="../images/golden_gate.png"/>
    <g transform="translate(144, 120)">
      <image x="0" y="0" width="80" style="clip-path: inset(0 0 0 0 round 6px);" xlink:href="../images/content_2_stylized_0.jpg"/>
      <image x="90" y="0" width="80" style="clip-path: inset(0 0 0 0 round 6px);" xlink:href="../images/content_2_stylized_1.jpg"/>
      <image x="180" y="0" width="80" style="clip-path: inset(0 0 0 0 round 6px);" xlink:href="../images/content_2_stylized_2.jpg"/>
      <image x="270" y="0" width="80" style="clip-path: inset(0 0 0 0 round 6px);" xlink:href="../images/content_2_stylized_3.jpg"/>
      <image x="360" y="0" width="80" style="clip-path: inset(0 0 0 0 round 6px);" xlink:href="../images/content_2_stylized_4.jpg"/>
      <image x="450" y="0" width="80" style="clip-path: inset(0 0 0 0 round 6px);" xlink:href="../images/content_2_stylized_5.jpg"/>
    </g>
    <image x="396" y="0" height="27" width="27" xlink:href="../images/pointer.svg"/>
  </g>
</svg>
